<svg width="93" height="90" viewBox="0 0 93 90" fill="none" xmlns="http://www.w3.org/2000/svg">
<g filter="url(#filter0_d_15_14591)">
<path d="M57.4331 32.8835C69.7162 32.6965 79.7408 42.3206 79.9786 54.5476C80.014 56.3435 79.8327 58.0896 79.4622 59.7665C78.8329 62.6048 78.4598 65.4928 78.4598 68.3978V74.0156C78.4598 74.8763 77.7595 75.5734 76.895 75.5734H71.252C68.3327 75.5734 65.4317 75.9462 62.582 76.5714C60.899 76.9416 59.1437 77.1208 57.3398 77.0854C45.058 76.8487 35.3907 66.8688 35.5786 54.6405C35.7612 42.7052 45.4456 33.064 57.4344 32.8809L57.4331 32.8835Z" fill="url(#paint0_linear_15_14591)"/>
<path d="M57.4331 32.8835C69.7162 32.6965 79.7408 42.3206 79.9786 54.5476C80.014 56.3435 79.8327 58.0896 79.4622 59.7665C78.8329 62.6048 78.4598 65.4928 78.4598 68.3978V74.0156C78.4598 74.8763 77.7595 75.5734 76.895 75.5734H71.252C68.3327 75.5734 65.4317 75.9462 62.582 76.5714C60.899 76.9416 59.1437 77.1208 57.3398 77.0854C45.058 76.8487 35.3907 66.8688 35.5786 54.6405C35.7612 42.7052 45.4456 33.064 57.4344 32.8809L57.4331 32.8835Z" fill="url(#paint1_linear_15_14591)"/>
<path d="M40.1861 12.7103C25.2215 12.4827 13.0093 24.2087 12.719 39.104C12.6769 41.291 12.8963 43.4204 13.3483 45.4621C14.1143 48.9191 14.5702 52.4376 14.5702 55.9783V62.8216C14.5702 63.8706 15.4242 64.7208 16.4765 64.7208H23.3506C26.9071 64.7208 30.4414 65.1747 33.9138 65.9372C35.9647 66.3872 38.1037 66.6056 40.2991 66.5638C55.2611 66.276 67.0384 54.117 66.8111 39.2204C66.5878 24.6796 54.7908 12.934 40.1848 12.7129L40.1861 12.7103Z" fill="url(#paint2_linear_15_14591)"/>
<path d="M27.0333 45.2202C29.3473 45.2202 31.2232 43.3527 31.2232 41.0491C31.2232 38.7454 29.3473 36.8779 27.0333 36.8779C24.7194 36.8779 22.8435 38.7454 22.8435 41.0491C22.8435 43.3527 24.7194 45.2202 27.0333 45.2202Z" fill="white"/>
<path d="M38.8827 45.2202C41.1967 45.2202 43.0726 43.3527 43.0726 41.0491C43.0726 38.7454 41.1967 36.8779 38.8827 36.8779C36.5687 36.8779 34.6929 38.7454 34.6929 41.0491C34.6929 43.3527 36.5687 45.2202 38.8827 45.2202Z" fill="white"/>
<path d="M50.7323 45.2202C53.0463 45.2202 54.9222 43.3527 54.9222 41.0491C54.9222 38.7454 53.0463 36.8779 50.7323 36.8779C48.4183 36.8779 46.5425 38.7454 46.5425 41.0491C46.5425 43.3527 48.4183 45.2202 50.7323 45.2202Z" fill="white"/>
<path d="M39.7579 12.7084C39.8998 12.7084 40.043 12.7084 40.1862 12.711C53.1972 12.9085 63.9786 22.2501 66.3369 34.566C74.2266 37.8229 79.8025 45.4667 79.9785 54.5481C80.014 56.3426 79.8327 58.0901 79.4622 59.7669C78.8329 62.6052 78.4597 65.4932 78.4597 68.3983V74.016C78.4597 74.8767 77.7595 75.5738 76.895 75.5738H71.252C68.3327 75.5738 65.4317 75.9453 62.582 76.5718C61.0356 76.9119 59.4288 77.0898 57.7799 77.0898C57.634 77.0898 57.4869 77.0885 57.3397 77.0859C49.4475 76.9341 42.6365 72.7591 38.8238 66.5488C37.1447 66.4912 35.5037 66.2833 33.9153 65.9353C30.4428 65.1728 26.9085 64.7189 23.352 64.7189H16.478C15.4243 64.7189 14.5703 63.8687 14.5703 62.8197V55.9764C14.5703 52.4357 14.1144 48.9172 13.3484 45.4602C12.8964 43.4184 12.677 41.2891 12.7191 39.1021C13.0055 24.3507 24.989 12.7084 39.7579 12.7084ZM39.7579 11.4004C32.2625 11.4004 25.2071 14.2557 19.8887 19.4392C14.5637 24.6306 11.5511 31.6048 11.4052 39.0799C11.3619 41.3283 11.5839 43.5715 12.0648 45.744C12.8544 49.3096 13.2551 52.7535 13.2551 55.979V62.8223C13.2551 64.5907 14.7003 66.0295 16.4766 66.0295H23.3507C26.5906 66.0295 30.0499 66.4284 33.6315 67.2145C35.082 67.5337 36.5745 67.7377 38.0775 67.8267C42.3265 74.309 49.4646 78.2447 57.3122 78.3965C57.4659 78.3991 57.6235 78.4004 57.7773 78.4004C59.4918 78.4004 61.2024 78.216 62.8618 77.851C65.7851 77.2088 68.6072 76.8831 71.2494 76.8831H76.8923C78.4795 76.8831 79.771 75.5974 79.771 74.0174V68.3996C79.771 65.7692 80.0981 62.9597 80.7432 60.0494C81.1426 58.247 81.3266 56.3871 81.2898 54.5232C81.1991 49.872 79.7604 45.4131 77.1275 41.6291C74.693 38.1303 71.3703 35.3783 67.4852 33.6374C66.1727 27.6115 62.8592 22.1141 58.1044 18.0973C55.6501 16.0241 52.8898 14.3957 49.8968 13.2564C46.8041 12.0779 43.5431 11.454 40.2059 11.4043C40.0562 11.4017 39.9064 11.4004 39.7579 11.4004Z" fill="url(#paint3_linear_15_14591)"/>
</g>
<defs>
<filter id="filter0_d_15_14591" x="-9.0001" y="-9.99961" width="110.8" height="110.8" filterUnits="userSpaceOnUse" color-interpolation-filters="sRGB">
<feFlood flood-opacity="0" result="BackgroundImageFix"/>
<feColorMatrix in="SourceAlpha" type="matrix" values="0 0 0 0 0 0 0 0 0 0 0 0 0 0 0 0 0 0 127 0" result="hardAlpha"/>
<feOffset/>
<feGaussianBlur stdDeviation="5.7"/>
<feComposite in2="hardAlpha" operator="out"/>
<feColorMatrix type="matrix" values="0 0 0 0 0.670343 0 0 0 0 0.633714 0 0 0 0 1 0 0 0 1 0"/>
<feBlend mode="normal" in2="BackgroundImageFix" result="effect1_dropShadow_15_14591"/>
<feBlend mode="normal" in="SourceGraphic" in2="effect1_dropShadow_15_14591" result="shape"/>
</filter>
<linearGradient id="paint0_linear_15_14591" x1="53.2813" y1="50.1266" x2="85.609" y2="82.5992" gradientUnits="userSpaceOnUse">
<stop stop-color="#A7F3CE"/>
<stop offset="1" stop-color="#61DB99"/>
</linearGradient>
<linearGradient id="paint1_linear_15_14591" x1="63.9116" y1="60.7082" x2="50.1806" y2="46.917" gradientUnits="userSpaceOnUse">
<stop stop-color="#7332D8"/>
<stop offset="1" stop-color="#9349D8"/>
</linearGradient>
<linearGradient id="paint2_linear_15_14591" x1="29.9579" y1="34.9447" x2="64.0893" y2="69.229" gradientUnits="userSpaceOnUse">
<stop stop-color="#2FDFFA"/>
<stop offset="1" stop-color="#109EFE"/>
</linearGradient>
<linearGradient id="paint3_linear_15_14591" x1="46.3481" y1="11.4004" x2="46.3481" y2="78.3991" gradientUnits="userSpaceOnUse">
<stop offset="0.1" stop-color="#62E1FC"/>
<stop offset="1" stop-color="#7B38D8"/>
</linearGradient>
</defs>
</svg>
