<svg width="92" height="92" viewBox="0 0 92 92" fill="none" xmlns="http://www.w3.org/2000/svg">
<g filter="url(#filter0_d_165_10695)">
<path d="M26.6349 31.4201C23.4643 31.4201 21.074 27.3927 21.074 22.0523C21.074 16.7119 23.4643 12.6846 26.6349 12.6846C29.8055 12.6846 32.1958 16.7119 32.1958 22.0523C32.1958 27.3927 29.8055 31.4201 26.6349 31.4201ZM26.6349 27.4396C27.0843 27.4396 28.4416 25.5288 28.4416 22.0509C28.4416 18.5731 27.0843 16.6622 26.6349 16.6622C26.1855 16.6622 24.8282 18.5731 24.8282 22.0509C24.8282 25.5288 26.1855 27.4396 26.6349 27.4396Z" fill="url(#paint0_linear_165_10695)"/>
<path d="M22.0301 16.6631H26.6362C26.1868 16.6631 24.8295 18.5739 24.8295 22.0518C24.8295 23.1246 24.9584 24.0468 25.1499 24.8117H21.3019C21.1547 23.946 21.074 23.021 21.074 22.0518C21.074 20.0139 21.4231 18.168 22.0301 16.6631Z" fill="url(#paint1_linear_165_10695)"/>
<path d="M65.7893 31.4201C62.6187 31.4201 60.2284 27.3927 60.2284 22.0523C60.2284 16.7119 62.6187 12.6846 65.7893 12.6846C68.9599 12.6846 71.3502 16.7119 71.3502 22.0523C71.3502 27.3927 68.9599 31.4201 65.7893 31.4201ZM65.7893 27.4396C66.2387 27.4396 67.5961 25.5288 67.5961 22.0509C67.5961 18.5731 66.2387 16.6622 65.7893 16.6622C65.3399 16.6622 63.9826 18.5731 63.9826 22.0509C63.9826 25.5288 65.3399 27.4396 65.7893 27.4396Z" fill="url(#paint2_linear_165_10695)"/>
<path d="M39.6873 31.4201C36.5167 31.4201 34.1263 27.3927 34.1263 22.0523C34.1263 16.7119 36.5167 12.6846 39.6873 12.6846C42.8579 12.6846 45.2482 16.7119 45.2482 22.0523C45.2482 27.3927 42.8579 31.4201 39.6873 31.4201ZM39.6873 27.4396C40.1367 27.4396 41.494 25.5288 41.494 22.0509C41.494 18.5731 40.1367 16.6622 39.6873 16.6622C39.2379 16.6622 37.8805 18.5731 37.8805 22.0509C37.8805 25.5288 39.2379 27.4396 39.6873 27.4396Z" fill="url(#paint3_linear_165_10695)"/>
<path d="M52.7383 31.4201C49.5677 31.4201 47.1774 27.3927 47.1774 22.0523C47.1774 16.7119 49.5677 12.6846 52.7383 12.6846C55.9089 12.6846 58.2992 16.7119 58.2992 22.0523C58.2992 27.3927 55.9076 31.4201 52.7383 31.4201ZM52.7383 27.4396C53.1877 27.4396 54.545 25.5288 54.545 22.0509C54.545 18.5731 53.1877 16.6622 52.7383 16.6622C52.2889 16.6622 50.9315 18.5731 50.9315 22.0509C50.9315 25.5274 52.2889 27.4396 52.7383 27.4396Z" fill="url(#paint4_linear_165_10695)"/>
<path d="M79.3459 72.7045V27.002C79.3459 23.3585 76.5595 20.4053 73.1219 20.4053H18.8752C15.4376 20.4053 12.6512 23.3585 12.6512 27.002V72.7045C12.6512 76.348 15.4376 79.3012 18.8752 79.3012H73.1219C76.5595 79.3012 79.3459 76.348 79.3459 72.7045Z" fill="url(#paint5_linear_165_10695)"/>
<path d="M12.6512 72.7045V39.9678H79.3459V72.7045C79.3459 76.348 76.5595 79.3013 73.1219 79.3013H18.8752C15.4376 79.3013 12.6512 76.348 12.6512 72.7045Z" fill="url(#paint6_linear_165_10695)"/>
<path d="M46.8204 20.4053H73.1218C76.5595 20.4053 79.3458 23.3585 79.3458 27.002V72.7045C79.3458 76.348 76.5595 79.3012 73.1218 79.3012H46.8204V20.4053Z" fill="url(#paint7_linear_165_10695)"/>
<path d="M75.0497 23.9297L17.553 74.1607L22.4014 79.2995H73.1218C76.5595 79.2995 79.3458 76.3463 79.3458 72.7027V28.4831L75.0497 23.9297Z" fill="url(#paint8_linear_165_10695)"/>
<path d="M76.4697 69.5532V27.7926C76.4697 24.4638 73.923 21.7646 70.7824 21.7646H21.2147C18.0741 21.7646 15.5275 24.4624 15.5275 27.7926V69.5519C15.5275 72.8806 18.0728 75.5798 21.2147 75.5798H70.7824C73.923 75.5798 76.4697 72.8806 76.4697 69.5519V69.5532Z" fill="url(#paint9_linear_165_10695)"/>
<path d="M26.6349 32.206C28.3492 32.206 29.7404 30.7328 29.7404 28.9145C29.7404 27.0962 28.3505 25.623 26.6349 25.623C26.2272 25.623 25.839 25.7059 25.4821 25.8578L23.7561 30.1516C24.2172 31.3555 25.3323 32.206 26.6336 32.206H26.6349Z" fill="url(#paint10_linear_165_10695)"/>
<path d="M26.6349 31.4199C27.7044 31.4199 28.6853 30.9615 29.515 30.1483C31.1459 28.5537 32.1959 25.5908 32.1959 22.0522C32.1959 21.9569 32.1945 21.8616 32.1932 21.7664C32.1828 21.1616 32.1424 20.5735 32.0734 20.0088H28.271C28.3635 20.5362 28.4247 21.123 28.4378 21.7664C28.4404 21.8602 28.4417 21.9555 28.4417 22.0522C28.4417 23.6744 28.1473 24.9543 27.7865 25.86C27.3735 26.8969 26.8746 27.4409 26.6349 27.4409C26.3952 27.4409 25.8963 26.8969 25.4834 25.86C24.3384 26.346 23.5308 27.5306 23.5308 28.9168C23.5308 29.3544 23.6115 29.7714 23.7587 30.1538C24.5872 30.9643 25.5668 31.4213 26.6349 31.4213V31.4199Z" fill="url(#paint11_linear_165_10695)"/>
<path d="M26.6349 31.4199C27.7044 31.4199 28.6853 30.9615 29.515 30.1483C31.1459 28.5537 32.1959 25.5908 32.1959 22.0522C32.1959 21.9569 32.1945 21.8616 32.1932 21.7664C32.1828 21.1616 32.1424 20.5735 32.0734 20.0088H28.271C28.3635 20.5362 28.4247 21.123 28.4378 21.7664C28.4404 21.8602 28.4417 21.9555 28.4417 22.0522C28.4417 23.6744 28.1473 24.9543 27.7865 25.86C27.3735 26.8969 26.8746 27.4409 26.6349 27.4409C26.3952 27.4409 25.8963 26.8969 25.4834 25.86C24.3384 26.346 23.5308 27.5306 23.5308 28.9168C23.5308 29.3544 23.6115 29.7714 23.7587 30.1538C24.5872 30.9643 25.5668 31.4213 26.6349 31.4213V31.4199Z" fill="url(#paint12_linear_165_10695)"/>
<path d="M26.6349 31.4199C27.7044 31.4199 28.6853 30.9615 29.515 30.1483C31.1459 28.5537 32.1959 25.5908 32.1959 22.0522C32.1959 21.9569 32.1945 21.8616 32.1932 21.7664C32.1828 21.1616 32.1424 20.5735 32.0734 20.0088H28.271C28.3635 20.5362 28.4247 21.123 28.4378 21.7664C28.4404 21.8602 28.4417 21.9555 28.4417 22.0522C28.4417 23.6744 28.1473 24.9543 27.7865 25.86C27.3735 26.8969 26.8746 27.4409 26.6349 27.4409C26.3952 27.4409 25.8963 26.8969 25.4834 25.86C24.3384 26.346 23.5308 27.5306 23.5308 28.9168C23.5308 29.3544 23.6115 29.7714 23.7587 30.1538C24.5872 30.9643 25.5668 31.4213 26.6349 31.4213V31.4199Z" fill="url(#paint13_linear_165_10695)"/>
<path d="M26.7483 27.4076C27.2772 27.1495 28.4417 25.2731 28.4417 22.0521C28.4417 18.831 27.2772 16.9547 26.7483 16.6965V12.6885C29.8616 12.7837 32.1959 16.7752 32.1959 22.0521C32.1959 27.3289 29.8616 31.3204 26.7483 31.4157V27.409V27.4076Z" fill="url(#paint14_linear_165_10695)"/>
<path d="M39.6873 32.206C41.4015 32.206 42.7928 30.7328 42.7928 28.9145C42.7928 27.0962 41.4028 25.623 39.6873 25.623C39.2796 25.623 38.8914 25.7059 38.5345 25.8578L36.8085 30.1516C37.2696 31.3555 38.3847 32.206 39.686 32.206H39.6873Z" fill="url(#paint15_linear_165_10695)"/>
<path d="M39.686 31.4199C40.7554 31.4199 41.7363 30.9615 42.5661 30.1483C44.197 28.5537 45.2469 25.5908 45.2469 22.0522C45.2469 21.9569 45.2456 21.8616 45.2443 21.7664C45.2339 21.1616 45.1935 20.5735 45.1244 20.0088H41.3221C41.4145 20.5362 41.4758 21.123 41.4888 21.7664C41.4914 21.8602 41.4927 21.9555 41.4927 22.0522C41.4927 23.6744 41.1983 24.9543 40.8375 25.86C40.4245 26.8969 39.9256 27.4409 39.686 27.4409C39.4463 27.4409 38.9474 26.8969 38.5344 25.86C37.3894 26.346 36.5818 27.5306 36.5818 28.9168C36.5818 29.3544 36.6626 29.7714 36.8097 30.1538C37.6395 30.9643 38.6178 31.4213 39.686 31.4213V31.4199Z" fill="url(#paint16_linear_165_10695)"/>
<path d="M39.686 31.4199C40.7554 31.4199 41.7363 30.9615 42.5661 30.1483C44.197 28.5537 45.2469 25.5908 45.2469 22.0522C45.2469 21.9569 45.2456 21.8616 45.2443 21.7664C45.2339 21.1616 45.1935 20.5735 45.1244 20.0088H41.3221C41.4145 20.5362 41.4758 21.123 41.4888 21.7664C41.4914 21.8602 41.4927 21.9555 41.4927 22.0522C41.4927 23.6744 41.1983 24.9543 40.8375 25.86C40.4245 26.8969 39.9256 27.4409 39.686 27.4409C39.4463 27.4409 38.9474 26.8969 38.5344 25.86C37.3894 26.346 36.5818 27.5306 36.5818 28.9168C36.5818 29.3544 36.6626 29.7714 36.8097 30.1538C37.6395 30.9643 38.6178 31.4213 39.686 31.4213V31.4199Z" fill="url(#paint17_linear_165_10695)"/>
<path d="M39.686 31.4199C40.7554 31.4199 41.7363 30.9615 42.5661 30.1483C44.197 28.5537 45.2469 25.5908 45.2469 22.0522C45.2469 21.9569 45.2456 21.8616 45.2443 21.7664C45.2339 21.1616 45.1935 20.5735 45.1244 20.0088H41.3221C41.4145 20.5362 41.4758 21.123 41.4888 21.7664C41.4914 21.8602 41.4927 21.9555 41.4927 22.0522C41.4927 23.6744 41.1983 24.9543 40.8375 25.86C40.4245 26.8969 39.9256 27.4409 39.686 27.4409C39.4463 27.4409 38.9474 26.8969 38.5344 25.86C37.3894 26.346 36.5818 27.5306 36.5818 28.9168C36.5818 29.3544 36.6626 29.7714 36.8097 30.1538C37.6395 30.9643 38.6178 31.4213 39.686 31.4213V31.4199Z" fill="url(#paint18_linear_165_10695)"/>
<path d="M39.8007 27.4076C40.3295 27.1495 41.4941 25.2731 41.4941 22.0521C41.4941 18.831 40.3295 16.9547 39.8007 16.6965V12.6885C42.9139 12.7837 45.2483 16.7752 45.2483 22.0521C45.2483 27.3289 42.9139 31.3204 39.8007 31.4157V27.409V27.4076Z" fill="url(#paint19_linear_165_10695)"/>
<path d="M52.7383 32.206C54.4526 32.206 55.8438 30.7328 55.8438 28.9145C55.8438 27.0962 54.4539 25.623 52.7383 25.623C52.3306 25.623 51.9424 25.7059 51.5855 25.8578L49.8595 30.1516C50.3206 31.3555 51.4357 32.206 52.737 32.206H52.7383Z" fill="url(#paint20_linear_165_10695)"/>
<path d="M52.7382 31.4199C53.8077 31.4199 54.7885 30.9615 55.6183 30.1483C57.2492 28.5537 58.2991 25.5908 58.2991 22.0522C58.2991 21.9569 58.2978 21.8616 58.2965 21.7664C58.2861 21.1616 58.2457 20.5735 58.1767 20.0088H54.3743C54.4668 20.5362 54.528 21.123 54.541 21.7664C54.5436 21.8602 54.5449 21.9555 54.5449 22.0522C54.5449 23.6744 54.2505 24.9543 53.8897 25.86C53.4768 26.8969 52.9779 27.4409 52.7382 27.4409C52.4985 27.4409 51.9996 26.8969 51.5867 25.86C50.4417 26.346 49.634 27.5306 49.634 28.9168C49.634 29.3544 49.7148 29.7714 49.862 30.1538C50.6905 30.9643 51.67 31.4213 52.7382 31.4213V31.4199Z" fill="url(#paint21_linear_165_10695)"/>
<path d="M52.7382 31.4199C53.8077 31.4199 54.7885 30.9615 55.6183 30.1483C57.2492 28.5537 58.2991 25.5908 58.2991 22.0522C58.2991 21.9569 58.2978 21.8616 58.2965 21.7664C58.2861 21.1616 58.2457 20.5735 58.1767 20.0088H54.3743C54.4668 20.5362 54.528 21.123 54.541 21.7664C54.5436 21.8602 54.5449 21.9555 54.5449 22.0522C54.5449 23.6744 54.2505 24.9543 53.8897 25.86C53.4768 26.8969 52.9779 27.4409 52.7382 27.4409C52.4985 27.4409 51.9996 26.8969 51.5867 25.86C50.4417 26.346 49.634 27.5306 49.634 28.9168C49.634 29.3544 49.7148 29.7714 49.862 30.1538C50.6905 30.9643 51.67 31.4213 52.7382 31.4213V31.4199Z" fill="url(#paint22_linear_165_10695)"/>
<path d="M52.7382 31.4199C53.8077 31.4199 54.7885 30.9615 55.6183 30.1483C57.2492 28.5537 58.2991 25.5908 58.2991 22.0522C58.2991 21.9569 58.2978 21.8616 58.2965 21.7664C58.2861 21.1616 58.2457 20.5735 58.1767 20.0088H54.3743C54.4668 20.5362 54.528 21.123 54.541 21.7664C54.5436 21.8602 54.5449 21.9555 54.5449 22.0522C54.5449 23.6744 54.2505 24.9543 53.8897 25.86C53.4768 26.8969 52.9779 27.4409 52.7382 27.4409C52.4985 27.4409 51.9996 26.8969 51.5867 25.86C50.4417 26.346 49.634 27.5306 49.634 28.9168C49.634 29.3544 49.7148 29.7714 49.862 30.1538C50.6905 30.9643 51.67 31.4213 52.7382 31.4213V31.4199Z" fill="url(#paint23_linear_165_10695)"/>
<path d="M52.8517 27.4076C53.3806 27.1495 54.5451 25.2731 54.5451 22.0521C54.5451 18.831 53.3806 16.9547 52.8517 16.6965V12.6885C55.965 12.7837 58.2993 16.7752 58.2993 22.0521C58.2993 27.3289 55.965 31.3204 52.8517 31.4157V27.409V27.4076Z" fill="url(#paint24_linear_165_10695)"/>
<path d="M65.7893 32.206C67.5036 32.206 68.8948 30.7328 68.8948 28.9145C68.8948 27.0962 67.5049 25.623 65.7893 25.623C65.3816 25.623 64.9934 25.7059 64.6365 25.8578L62.9105 30.1516C63.3717 31.3555 64.4867 32.206 65.788 32.206H65.7893Z" fill="url(#paint25_linear_165_10695)"/>
<path d="M65.7893 31.4199C66.8588 31.4199 67.8397 30.9615 68.6695 30.1483C70.3004 28.5537 71.3503 25.5908 71.3503 22.0522C71.3503 21.9569 71.349 21.8616 71.3477 21.7664C71.3372 21.1616 71.2969 20.5735 71.2278 20.0088H67.4254C67.5179 20.5362 67.5792 21.123 67.5922 21.7664C67.5948 21.8602 67.5961 21.9555 67.5961 22.0522C67.5961 23.6744 67.3017 24.9543 66.9409 25.86C66.5279 26.8969 66.029 27.4409 65.7893 27.4409C65.5497 27.4409 65.0508 26.8969 64.6378 25.86C63.4928 26.346 62.6852 27.5306 62.6852 28.9168C62.6852 29.3544 62.7659 29.7714 62.9131 30.1538C63.7416 30.9643 64.7212 31.4213 65.7893 31.4213V31.4199Z" fill="url(#paint26_linear_165_10695)"/>
<path d="M65.7893 31.4199C66.8588 31.4199 67.8397 30.9615 68.6695 30.1483C70.3004 28.5537 71.3503 25.5908 71.3503 22.0522C71.3503 21.9569 71.349 21.8616 71.3477 21.7664C71.3372 21.1616 71.2969 20.5735 71.2278 20.0088H67.4254C67.5179 20.5362 67.5792 21.123 67.5922 21.7664C67.5948 21.8602 67.5961 21.9555 67.5961 22.0522C67.5961 23.6744 67.3017 24.9543 66.9409 25.86C66.5279 26.8969 66.029 27.4409 65.7893 27.4409C65.5497 27.4409 65.0508 26.8969 64.6378 25.86C63.4928 26.346 62.6852 27.5306 62.6852 28.9168C62.6852 29.3544 62.7659 29.7714 62.9131 30.1538C63.7416 30.9643 64.7212 31.4213 65.7893 31.4213V31.4199Z" fill="url(#paint27_linear_165_10695)"/>
<path d="M65.7893 31.4199C66.8588 31.4199 67.8397 30.9615 68.6695 30.1483C70.3004 28.5537 71.3503 25.5908 71.3503 22.0522C71.3503 21.9569 71.349 21.8616 71.3477 21.7664C71.3372 21.1616 71.2969 20.5735 71.2278 20.0088H67.4254C67.5179 20.5362 67.5792 21.123 67.5922 21.7664C67.5948 21.8602 67.5961 21.9555 67.5961 22.0522C67.5961 23.6744 67.3017 24.9543 66.9409 25.86C66.5279 26.8969 66.029 27.4409 65.7893 27.4409C65.5497 27.4409 65.0508 26.8969 64.6378 25.86C63.4928 26.346 62.6852 27.5306 62.6852 28.9168C62.6852 29.3544 62.7659 29.7714 62.9131 30.1538C63.7416 30.9643 64.7212 31.4213 65.7893 31.4213V31.4199Z" fill="url(#paint28_linear_165_10695)"/>
<path d="M65.9028 27.4076C66.4317 27.1495 67.5962 25.2731 67.5962 22.0521C67.5962 18.831 66.4317 16.9547 65.9028 16.6965V12.6885C69.0161 12.7837 71.3504 16.7752 71.3504 22.0521C71.3504 27.3289 69.0161 31.3204 65.9028 31.4157V27.409V27.4076Z" fill="url(#paint29_linear_165_10695)"/>
<path d="M28.1073 45.8629H21.4326C20.0844 45.8629 18.9915 44.7045 18.9915 43.2755V40.6039C18.9915 39.175 20.0844 38.0166 21.4326 38.0166H28.1073C29.4555 38.0166 30.5484 39.175 30.5484 40.6039V43.2755C30.5484 44.7045 29.4555 45.8629 28.1073 45.8629Z" fill="url(#paint30_linear_165_10695)"/>
<path d="M28.107 38.0146H22.0264V45.8623H28.107C29.4553 45.8623 30.5482 44.7039 30.5482 43.2749V40.6034C30.5482 39.1744 29.4553 38.016 28.107 38.016V38.0146Z" fill="url(#paint31_linear_165_10695)"/>
<path d="M18.9899 40.9346V43.2748C18.9899 44.7038 20.0828 45.8621 21.431 45.8621H28.1057C29.4539 45.8621 30.5468 44.7038 30.5468 43.2748V40.9346H18.9899Z" fill="url(#paint32_linear_165_10695)"/>
<path d="M42.2606 45.8629H35.5859C34.2377 45.8629 33.1448 44.7045 33.1448 43.2755V40.6039C33.1448 39.175 34.2377 38.0166 35.5859 38.0166H42.2606C43.6088 38.0166 44.7017 39.175 44.7017 40.6039V43.2755C44.7017 44.7045 43.6088 45.8629 42.2606 45.8629Z" fill="url(#paint33_linear_165_10695)"/>
<path d="M42.2601 38.0146H36.1794V45.8623H42.2601C43.6083 45.8623 44.7012 44.7039 44.7012 43.2749V40.6034C44.7012 39.1744 43.6083 38.016 42.2601 38.016V38.0146Z" fill="url(#paint34_linear_165_10695)"/>
<path d="M33.143 40.9346V43.2748C33.143 44.7038 34.2359 45.8621 35.5842 45.8621H42.2588C43.607 45.8621 44.7 44.7038 44.7 43.2748V40.9346H33.1417H33.143Z" fill="url(#paint35_linear_165_10695)"/>
<path d="M56.4135 45.8638H49.7389C48.3906 45.8638 47.2977 44.7055 47.2977 43.2765V40.6049C47.2977 39.1759 48.3906 38.0176 49.7389 38.0176H56.4135C57.7618 38.0176 58.8547 39.1759 58.8547 40.6049V43.2765C58.8547 44.7055 57.7618 45.8638 56.4135 45.8638Z" fill="url(#paint36_linear_165_10695)"/>
<path d="M70.5666 45.8629H63.8919C62.5437 45.8629 61.4508 44.7045 61.4508 43.2755V40.6039C61.4508 39.175 62.5437 38.0166 63.8919 38.0166H70.5666C71.9148 38.0166 73.0077 39.175 73.0077 40.6039V43.2755C73.0077 44.7045 71.9148 45.8629 70.5666 45.8629Z" fill="url(#paint37_linear_165_10695)"/>
<path d="M70.5661 38.0146H64.4855V45.8623H70.5661C71.9144 45.8623 73.0073 44.7039 73.0073 43.2749V40.6034C73.0073 39.1744 71.9144 38.016 70.5661 38.016V38.0146Z" fill="url(#paint38_linear_165_10695)"/>
<path d="M61.4489 40.9346V43.2748C61.4489 44.7038 62.5418 45.8621 63.8901 45.8621H70.5647C71.913 45.8621 73.0059 44.7038 73.0059 43.2748V40.9346H61.4476H61.4489Z" fill="url(#paint39_linear_165_10695)"/>
<path d="M28.1075 57.3096H21.4328C20.0846 57.3096 18.9917 56.1512 18.9917 54.7222V52.0493C18.9917 50.6203 20.0846 49.4619 21.4328 49.4619H28.1075C29.4557 49.4619 30.5486 50.6203 30.5486 52.0493V54.7222C30.5486 56.1512 29.4557 57.3096 28.1075 57.3096Z" fill="url(#paint40_linear_165_10695)"/>
<path d="M28.107 49.4639H22.0264V57.3115H28.107C29.4553 57.3115 30.5482 56.1531 30.5482 54.7242V52.0512C30.5482 50.6222 29.4553 49.4639 28.107 49.4639Z" fill="url(#paint41_linear_165_10695)"/>
<path d="M18.9899 52.3828V54.723C18.9899 56.152 20.0828 57.3104 21.431 57.3104H28.1057C29.4539 57.3104 30.5468 56.152 30.5468 54.723V52.3828H18.9899Z" fill="url(#paint42_linear_165_10695)"/>
<path d="M42.2607 57.3096H35.586C34.2378 57.3096 33.1449 56.1512 33.1449 54.7222V52.0493C33.1449 50.6203 34.2378 49.4619 35.586 49.4619H42.2607C43.6089 49.4619 44.7018 50.6203 44.7018 52.0493V54.7222C44.7018 56.1512 43.6089 57.3096 42.2607 57.3096Z" fill="url(#paint43_linear_165_10695)"/>
<path d="M42.2601 49.4639H36.1794V57.3115H42.2601C43.6083 57.3115 44.7012 56.1531 44.7012 54.7242V52.0512C44.7012 50.6222 43.6083 49.4639 42.2601 49.4639Z" fill="url(#paint44_linear_165_10695)"/>
<path d="M33.143 52.3828V54.723C33.143 56.152 34.2359 57.3104 35.5842 57.3104H42.2588C43.607 57.3104 44.7 56.152 44.7 54.723V52.3828H33.1417H33.143Z" fill="url(#paint45_linear_165_10695)"/>
<path d="M56.4135 57.3096H49.7389C48.3906 57.3096 47.2977 56.1512 47.2977 54.7222V52.0493C47.2977 50.6203 48.3906 49.4619 49.7389 49.4619H56.4135C57.7618 49.4619 58.8547 50.6203 58.8547 52.0493V54.7222C58.8547 56.1512 57.7618 57.3096 56.4135 57.3096Z" fill="url(#paint46_linear_165_10695)"/>
<path d="M56.413 49.4639H50.3323V57.3115H56.413C57.7612 57.3115 58.8541 56.1531 58.8541 54.7242V52.0512C58.8541 50.6222 57.7612 49.4639 56.413 49.4639Z" fill="url(#paint47_linear_165_10695)"/>
<path d="M47.2959 52.3828V54.723C47.2959 56.152 48.3888 57.3104 49.737 57.3104H56.4117C57.7599 57.3104 58.8528 56.152 58.8528 54.723V52.3828H47.2946H47.2959Z" fill="url(#paint48_linear_165_10695)"/>
<path d="M70.5667 57.3096H63.8921C62.5438 57.3096 61.4509 56.1512 61.4509 54.7222V52.0493C61.4509 50.6203 62.5438 49.4619 63.8921 49.4619H70.5667C71.915 49.4619 73.0079 50.6203 73.0079 52.0493V54.7222C73.0079 56.1512 71.915 57.3096 70.5667 57.3096Z" fill="url(#paint49_linear_165_10695)"/>
<path d="M70.5661 49.4639H64.4855V57.3115H70.5661C71.9144 57.3115 73.0073 56.1531 73.0073 54.7242V52.0512C73.0073 50.6222 71.9144 49.4639 70.5661 49.4639Z" fill="url(#paint50_linear_165_10695)"/>
<path d="M61.4489 52.3828V54.723C61.4489 56.152 62.5418 57.3104 63.8901 57.3104H70.5647C71.913 57.3104 73.0059 56.152 73.0059 54.723V52.3828H61.4476H61.4489Z" fill="url(#paint51_linear_165_10695)"/>
<path d="M28.1073 68.7588H21.4326C20.0844 68.7588 18.9915 67.6004 18.9915 66.1714V63.4985C18.9915 62.0695 20.0844 60.9111 21.4326 60.9111H28.1073C29.4555 60.9111 30.5484 62.0695 30.5484 63.4985V66.1714C30.5484 67.6004 29.4555 68.7588 28.1073 68.7588Z" fill="url(#paint52_linear_165_10695)"/>
<path d="M28.107 60.9111H22.0264V68.7588H28.107C29.4553 68.7588 30.5482 67.6004 30.5482 66.1714V63.4985C30.5482 62.0695 29.4553 60.9111 28.107 60.9111Z" fill="url(#paint53_linear_165_10695)"/>
<path d="M18.9899 63.8291V66.1693C18.9899 67.5983 20.0828 68.7567 21.431 68.7567H28.1057C29.4539 68.7567 30.5468 67.5983 30.5468 66.1693V63.8291H18.9899Z" fill="url(#paint54_linear_165_10695)"/>
<path d="M42.2606 68.7588H35.5859C34.2377 68.7588 33.1448 67.6004 33.1448 66.1714V63.4985C33.1448 62.0695 34.2377 60.9111 35.5859 60.9111H42.2606C43.6088 60.9111 44.7017 62.0695 44.7017 63.4985V66.1714C44.7017 67.6004 43.6088 68.7588 42.2606 68.7588Z" fill="url(#paint55_linear_165_10695)"/>
<path d="M42.2601 60.9111H36.1794V68.7588H42.2601C43.6083 68.7588 44.7012 67.6004 44.7012 66.1714V63.4985C44.7012 62.0695 43.6083 60.9111 42.2601 60.9111Z" fill="url(#paint56_linear_165_10695)"/>
<path d="M33.143 63.8291V66.1693C33.143 67.5983 34.2359 68.7567 35.5842 68.7567H42.2588C43.607 68.7567 44.7 67.5983 44.7 66.1693V63.8291H33.1417H33.143Z" fill="url(#paint57_linear_165_10695)"/>
<path d="M56.4135 68.7588H49.7389C48.3906 68.7588 47.2977 67.6004 47.2977 66.1714V63.4985C47.2977 62.0695 48.3906 60.9111 49.7389 60.9111H56.4135C57.7618 60.9111 58.8547 62.0695 58.8547 63.4985V66.1714C58.8547 67.6004 57.7618 68.7588 56.4135 68.7588Z" fill="url(#paint58_linear_165_10695)"/>
<path d="M56.413 60.9111H50.3323V68.7588H56.413C57.7612 68.7588 58.8541 67.6004 58.8541 66.1714V63.4985C58.8541 62.0695 57.7612 60.9111 56.413 60.9111Z" fill="url(#paint59_linear_165_10695)"/>
<path d="M47.2959 63.8291V66.1693C47.2959 67.5983 48.3888 68.7567 49.737 68.7567H56.4117C57.7599 68.7567 58.8528 67.5983 58.8528 66.1693V63.8291H47.2946H47.2959Z" fill="url(#paint60_linear_165_10695)"/>
<path d="M70.5666 68.7588H63.8919C62.5437 68.7588 61.4508 67.6004 61.4508 66.1714V63.4985C61.4508 62.0695 62.5437 60.9111 63.8919 60.9111H70.5666C71.9148 60.9111 73.0077 62.0695 73.0077 63.4985V66.1714C73.0077 67.6004 71.9148 68.7588 70.5666 68.7588Z" fill="url(#paint61_linear_165_10695)"/>
<path d="M70.5661 60.9111H64.4855V68.7588H70.5661C71.9144 68.7588 73.0073 67.6004 73.0073 66.1714V63.4985C73.0073 62.0695 71.9144 60.9111 70.5661 60.9111Z" fill="url(#paint62_linear_165_10695)"/>
<path d="M61.4489 63.8291V66.1693C61.4489 67.5983 62.5418 68.7567 63.8901 68.7567H70.5647C71.913 68.7567 73.0059 67.5983 73.0059 66.1693V63.8291H61.4476H61.4489Z" fill="url(#paint63_linear_165_10695)"/>
<path d="M65.7895 12.6931C67.0022 12.6931 68.1003 13.284 68.9939 14.3098L68.9965 14.3126C69.0682 14.3941 69.1372 14.4783 69.2063 14.5653C69.2089 14.568 69.2115 14.5708 69.2128 14.5749C69.2792 14.6605 69.3456 14.7475 69.4095 14.8372C69.4134 14.8428 69.4173 14.8483 69.4212 14.8538C69.4837 14.9422 69.5449 15.0319 69.6049 15.1244C69.6101 15.1327 69.6153 15.141 69.6205 15.1493C69.6791 15.2404 69.7351 15.3329 69.7911 15.4282C69.7977 15.4392 69.8042 15.4516 69.8107 15.4641C69.8641 15.5566 69.9175 15.6505 69.9683 15.7471C69.9761 15.7623 69.9839 15.7789 69.9931 15.794C70.0426 15.8879 70.0907 15.9832 70.1363 16.0798C70.1455 16.0992 70.1546 16.1199 70.1637 16.1392C70.208 16.2345 70.2523 16.3297 70.2953 16.4278C70.3057 16.4526 70.3161 16.4775 70.3265 16.5023C70.3669 16.5976 70.406 16.6928 70.4438 16.7895C70.4555 16.8185 70.4659 16.8502 70.4776 16.8792C70.5128 16.9731 70.5493 17.0684 70.5831 17.165C70.5949 17.1995 70.6066 17.2354 70.6183 17.27C70.6496 17.3638 70.6821 17.4577 70.7108 17.553C70.7238 17.593 70.7342 17.6345 70.7473 17.6745C70.7746 17.767 70.8033 17.8595 70.8293 17.9534C70.8424 17.9989 70.8528 18.0459 70.8658 18.0914C70.8893 18.1826 70.914 18.2737 70.9362 18.3662C70.9492 18.4173 70.9596 18.4711 70.9713 18.5236C70.9922 18.6133 71.0117 18.7017 71.0312 18.7914C71.043 18.8494 71.0534 18.9074 71.0651 18.9654C71.0821 19.0524 71.099 19.1394 71.1146 19.2277C71.1263 19.2912 71.1355 19.3575 71.1459 19.4224C71.1589 19.5066 71.1732 19.5895 71.1863 19.6751C71.1967 19.7455 71.2045 19.8186 71.2136 19.8891C71.224 19.9705 71.2358 20.0506 71.2449 20.1321C71.254 20.2108 71.2605 20.2908 71.2683 20.3695C71.2683 20.382 71.2709 20.3958 71.2722 20.4082H73.1233C73.7681 20.4082 74.3894 20.5117 74.9743 20.705C75.3638 20.8334 75.7376 21.0019 76.0907 21.2048C76.1792 21.2559 76.2652 21.3084 76.3512 21.3636C76.5218 21.4741 76.6886 21.5928 76.8475 21.7184C77.0872 21.909 77.3138 22.1161 77.5248 22.3397C77.6655 22.4888 77.7997 22.6448 77.9261 22.8078C77.9899 22.8892 78.0511 22.9721 78.111 23.0563C78.2309 23.2261 78.3429 23.4014 78.4458 23.5823C78.8614 24.3072 79.1492 25.1245 79.2756 25.9985C79.3069 26.2166 79.329 26.4389 79.3394 26.6639C79.3446 26.7758 79.3472 26.889 79.3472 27.0036V72.706C79.3472 72.8192 79.3446 72.9324 79.3394 73.0456C79.329 73.2707 79.3069 73.493 79.2756 73.7111C79.1492 74.5851 78.8627 75.401 78.4458 76.1273C78.3416 76.3081 78.2296 76.4849 78.111 76.6533C78.0511 76.7375 77.9899 76.8204 77.9261 76.9018C77.7997 77.0647 77.6655 77.2207 77.5248 77.3699C77.3138 77.5935 77.0872 77.802 76.8475 77.9911C76.6873 78.1182 76.5218 78.2369 76.3512 78.346C76.2652 78.4012 76.1792 78.4537 76.0907 78.5048C75.7376 78.7077 75.3651 78.8761 74.9743 79.0045C74.3894 79.1978 73.7681 79.3014 73.1233 79.3014H18.8753C15.4376 79.3014 12.6513 76.3482 12.6513 72.7046V27.0105C12.6513 23.3669 15.4376 20.4137 18.8753 20.4137H21.1536C21.1614 20.335 21.1692 20.2549 21.177 20.1776C21.1835 20.1182 21.1914 20.0589 21.1992 19.9995C21.2083 19.9222 21.2187 19.8449 21.2291 19.7689C21.2382 19.7041 21.2474 19.6378 21.2578 19.5729C21.2682 19.5025 21.2799 19.4334 21.2917 19.3644C21.3021 19.2981 21.3125 19.2332 21.3242 19.167C21.3451 19.0524 21.3672 18.9392 21.3894 18.8273C21.405 18.7514 21.4219 18.6755 21.4389 18.6009C21.4493 18.5526 21.461 18.5029 21.4714 18.4546C21.4897 18.3772 21.5079 18.2999 21.5274 18.224C21.5379 18.1826 21.5483 18.1425 21.5587 18.1025C21.6303 17.8277 21.7098 17.5613 21.7971 17.3031C21.8049 17.281 21.8114 17.2589 21.8192 17.2368C21.8479 17.154 21.8765 17.0739 21.9065 16.9924C21.9156 16.9676 21.9247 16.9427 21.9352 16.9179C22.9043 14.3388 24.6095 12.6945 26.635 12.6945C27.8478 12.6945 28.9459 13.2854 29.8395 14.3112L29.8421 14.314C29.9138 14.3954 29.9828 14.4797 30.0518 14.5666C30.0544 14.5694 30.057 14.5722 30.0583 14.5763C30.1248 14.6619 30.1912 14.7489 30.255 14.8386C30.259 14.8441 30.2629 14.8497 30.2668 14.8552C30.3293 14.9436 30.3905 15.0333 30.4504 15.1258C30.4557 15.1341 30.4609 15.1424 30.4661 15.1507C30.5247 15.2418 30.5807 15.3343 30.6367 15.4295C30.6432 15.4406 30.6497 15.453 30.6563 15.4654C30.7097 15.5579 30.7631 15.6518 30.8139 15.7485C30.8217 15.7637 30.8295 15.7802 30.8386 15.7954C30.8881 15.8893 30.9363 15.9846 30.9819 16.0812C30.991 16.1005 31.0001 16.1213 31.0093 16.1406C31.0536 16.2358 31.0978 16.3311 31.1408 16.4291C31.1513 16.454 31.1617 16.4788 31.1721 16.5037C31.2125 16.599 31.2516 16.6942 31.2893 16.7909C31.3011 16.8199 31.3115 16.8516 31.3232 16.8806C31.3584 16.9745 31.3948 17.0698 31.4287 17.1664C31.4404 17.2009 31.4522 17.2368 31.4639 17.2713C31.4951 17.3652 31.5277 17.4591 31.5564 17.5544C31.5694 17.5944 31.5798 17.6358 31.5928 17.6759C31.6202 17.7684 31.6489 17.8609 31.6749 17.9548C31.6879 18.0003 31.6984 18.0473 31.7114 18.0928C31.7348 18.184 31.7596 18.2751 31.7817 18.3676C31.7948 18.42 31.8052 18.4725 31.8169 18.525C31.8377 18.6133 31.8573 18.7017 31.8768 18.7914C31.8885 18.8494 31.899 18.9088 31.9107 18.9682C31.9276 19.0551 31.9446 19.1407 31.9602 19.2291C31.9719 19.2926 31.981 19.3589 31.9914 19.4238C32.0045 19.508 32.0188 19.5908 32.0318 19.6764C32.0423 19.7469 32.0501 19.82 32.0592 19.8904C32.0696 19.9719 32.0813 20.052 32.0904 20.1334C32.0996 20.2121 32.1061 20.2922 32.1139 20.3709C32.1139 20.3833 32.1165 20.3971 32.1178 20.4096H34.2059C34.2137 20.3295 34.2216 20.2494 34.2307 20.1707C34.2372 20.1141 34.2437 20.0575 34.2515 20.0009C34.2619 19.9208 34.2724 19.8394 34.2828 19.7607C34.2919 19.6971 34.301 19.635 34.3101 19.5715C34.3206 19.4983 34.3336 19.4265 34.3453 19.3547C34.3557 19.2912 34.3661 19.2277 34.3766 19.1656C34.3974 19.0496 34.4195 18.9364 34.443 18.8218C34.4586 18.7473 34.4743 18.6755 34.4912 18.6023C34.5029 18.5512 34.5133 18.5001 34.5251 18.449C34.5433 18.3731 34.5615 18.2972 34.5811 18.2212C34.5915 18.1784 34.6032 18.137 34.6136 18.0956C34.6853 17.8222 34.7647 17.5558 34.852 17.2976C34.8598 17.2755 34.8664 17.2534 34.8742 17.2313C34.9028 17.1485 34.9315 17.0684 34.9614 16.9869C34.9706 16.9621 34.9797 16.9372 34.9901 16.9124C35.9593 14.3333 37.6644 12.6889 39.69 12.6889C40.9027 12.6889 42.0009 13.2799 42.8945 14.3057L42.8971 14.3085C42.9687 14.3899 43.0377 14.4741 43.1068 14.5611C43.1094 14.5639 43.112 14.5666 43.1133 14.5708C43.1797 14.6564 43.2462 14.7434 43.31 14.8331C43.3139 14.8386 43.3178 14.8441 43.3217 14.8497C43.3842 14.938 43.4455 15.0278 43.5054 15.1203C43.5106 15.1286 43.5158 15.1368 43.521 15.1451C43.5783 15.2363 43.6357 15.3288 43.6917 15.424C43.6982 15.4351 43.7047 15.4475 43.7112 15.4599C43.7646 15.5524 43.818 15.6463 43.8688 15.743C43.8766 15.7581 43.8845 15.7747 43.8936 15.7899C43.9431 15.8838 43.9913 15.979 44.0369 16.0757C44.046 16.095 44.0551 16.1157 44.0642 16.1351C44.1085 16.2303 44.1528 16.3256 44.1958 16.4236C44.2062 16.4485 44.2166 16.4733 44.227 16.4982C44.2674 16.5934 44.3065 16.6887 44.3443 16.7853C44.356 16.8143 44.3664 16.8461 44.3782 16.8751C44.4133 16.969 44.4498 17.0642 44.4837 17.1609C44.4954 17.1954 44.5071 17.2313 44.5188 17.2658C44.5501 17.3597 44.5827 17.4536 44.6113 17.5489C44.6243 17.5889 44.6348 17.6303 44.6478 17.6703C44.6752 17.7629 44.7038 17.8554 44.7286 17.9492C44.7416 17.9948 44.752 18.0417 44.765 18.0873C44.7885 18.1784 44.8132 18.2696 44.8354 18.3621C44.8484 18.4131 44.8588 18.467 44.8705 18.5195C44.8914 18.6092 44.9109 18.6976 44.9305 18.7873C44.9422 18.8453 44.9526 18.9033 44.9643 18.9613C44.9813 19.0482 44.9982 19.1352 45.0138 19.2236C45.0256 19.2871 45.0347 19.3534 45.0451 19.4183C45.0581 19.5025 45.0725 19.5853 45.0855 19.6709C45.0959 19.7413 45.1037 19.8145 45.1128 19.8849C45.1233 19.9664 45.135 20.0465 45.1441 20.1279C45.1532 20.2066 45.1597 20.2867 45.1675 20.3654C45.1675 20.3778 45.1702 20.3916 45.1715 20.404H47.2596C47.2674 20.3226 47.2752 20.2411 47.2843 20.161C47.2908 20.1086 47.2973 20.0561 47.3039 20.0037C47.3143 19.9181 47.3247 19.8325 47.3377 19.7482C47.3455 19.6889 47.3547 19.6295 47.3638 19.5701C47.3755 19.4914 47.3885 19.4141 47.4016 19.3354C47.4107 19.2774 47.4211 19.2194 47.4302 19.1615C47.4511 19.0441 47.4745 18.9267 47.498 18.8108C47.5123 18.7417 47.5266 18.6755 47.5422 18.6078C47.5553 18.5498 47.567 18.4932 47.5813 18.4366C47.5983 18.3648 47.6152 18.293 47.6334 18.2212C47.6451 18.1729 47.6582 18.126 47.6712 18.0776C47.6907 18.0017 47.7116 17.9272 47.7324 17.8526C47.7337 17.8471 47.735 17.8415 47.7376 17.8374C47.7884 17.6579 47.8431 17.4826 47.9005 17.31C47.9109 17.2796 47.92 17.2492 47.9304 17.2189C47.9565 17.1416 47.9851 17.0642 48.0125 16.9883C48.0242 16.9566 48.0359 16.9262 48.0477 16.8958C48.0776 16.8171 48.1063 16.7398 48.1375 16.6639V16.6625C49.121 14.2242 50.7819 12.6834 52.7436 12.6834C53.9564 12.6834 55.0545 13.2743 55.9481 14.3002L55.9507 14.3029C56.0224 14.3844 56.0914 14.4686 56.1604 14.5556C56.163 14.5584 56.1656 14.5611 56.1669 14.5653C56.2334 14.6509 56.2998 14.7378 56.3636 14.8276C56.3676 14.8331 56.3715 14.8386 56.3754 14.8441C56.4379 14.9325 56.4991 15.0223 56.559 15.1148C56.5642 15.123 56.5695 15.1313 56.5747 15.1396C56.632 15.2307 56.6893 15.3232 56.7453 15.4185C56.7518 15.4295 56.7583 15.442 56.7649 15.4544C56.8183 15.5469 56.8717 15.6408 56.9225 15.7374C56.9303 15.7526 56.9381 15.7692 56.9472 15.7844C56.9967 15.8783 57.0449 15.9735 57.0905 16.0702C57.0996 16.0895 57.1087 16.1102 57.1179 16.1295C57.1622 16.2248 57.2064 16.3201 57.2494 16.4181C57.2598 16.4429 57.2703 16.4678 57.2807 16.4927C57.3211 16.5879 57.3602 16.6832 57.3979 16.7798C57.4097 16.8088 57.4201 16.8406 57.4318 16.8696C57.467 16.9635 57.5034 17.0587 57.5373 17.1554C57.549 17.1899 57.5608 17.2258 57.5725 17.2603C57.6037 17.3542 57.6363 17.4481 57.665 17.5433C57.678 17.5834 57.6884 17.6248 57.7014 17.6648C57.7288 17.7573 57.7575 17.8498 57.7822 17.9437C57.7952 17.9893 57.8057 18.0362 57.8187 18.0818C57.8421 18.1729 57.8669 18.264 57.889 18.3565C57.9021 18.4076 57.9125 18.4615 57.9242 18.5139C57.945 18.6037 57.9646 18.692 57.9841 18.7818C57.9958 18.8398 58.0063 18.8978 58.018 18.9557C58.0349 19.0427 58.0518 19.1297 58.0675 19.2181C58.0792 19.2816 58.0883 19.3478 58.0987 19.4127C58.1118 19.497 58.1261 19.5798 58.1391 19.6654C58.1495 19.7358 58.1574 19.809 58.1665 19.8794C58.1769 19.9609 58.1886 20.0409 58.1977 20.1224C58.2069 20.2011 58.2134 20.2812 58.2212 20.3599C58.2212 20.3723 58.2238 20.3861 58.2251 20.3985H60.3132C60.321 20.3198 60.3288 20.2397 60.3367 20.1624C60.3432 20.1031 60.351 20.0437 60.3588 19.9843C60.3679 19.907 60.3783 19.8297 60.3888 19.7538C60.3979 19.6889 60.407 19.6226 60.4174 19.5577C60.4278 19.4873 60.4396 19.4183 60.4513 19.3492C60.4617 19.283 60.4721 19.2181 60.4839 19.1518C60.5047 19.0372 60.5268 18.924 60.549 18.8122C60.5646 18.7362 60.5816 18.6617 60.5985 18.5871C60.6089 18.5374 60.6206 18.4891 60.6311 18.4408C60.6493 18.3634 60.6675 18.2861 60.6871 18.2102C60.6975 18.1688 60.7079 18.1287 60.7183 18.0887C60.79 17.8139 60.8694 17.5475 60.9567 17.2893C60.9645 17.2672 60.971 17.2451 60.9789 17.223C61.0075 17.1402 61.0362 17.0601 61.0661 16.9786C61.0753 16.9538 61.0844 16.9289 61.0948 16.9041C62.0639 14.325 63.7691 12.6807 65.7947 12.6807M64.0921 20.4137H67.4868C67.4686 20.277 67.4477 20.1445 67.4243 20.0161H67.4256C67.423 20.0009 67.4204 19.9857 67.4178 19.9691C67.4073 19.9125 67.3969 19.8559 67.3865 19.7993C67.3813 19.7731 67.3761 19.7482 67.3709 19.722C67.3591 19.664 67.3474 19.6074 67.3344 19.5522C67.3292 19.5301 67.324 19.5066 67.3201 19.4845C67.307 19.4252 67.2927 19.3672 67.2784 19.3106C67.2745 19.2926 67.2693 19.2747 67.2653 19.2567C67.2484 19.1932 67.2315 19.1297 67.2145 19.069C67.2119 19.0593 67.2093 19.0482 67.2067 19.0386C67.1455 18.8204 67.0791 18.6175 67.0087 18.4283C67.0048 18.4173 67.0009 18.4076 66.997 18.398C66.9775 18.3469 66.9592 18.2972 66.9397 18.2488C66.9332 18.2323 66.9267 18.2157 66.9188 18.1991C66.9019 18.1577 66.885 18.1177 66.868 18.079C66.8602 18.0597 66.8511 18.0404 66.8433 18.0224C66.8277 17.9879 66.812 17.9534 66.7964 17.9189C66.7873 17.8982 66.7769 17.8788 66.7677 17.8581C66.7534 17.8277 66.7391 17.7974 66.7248 17.7684C66.7143 17.7477 66.7039 17.7256 66.6935 17.7049C66.6805 17.6786 66.6661 17.6524 66.6531 17.6275C66.6414 17.6055 66.6297 17.5847 66.6192 17.564C66.6062 17.5406 66.5945 17.5185 66.5815 17.4964C66.5697 17.4743 66.5567 17.4536 66.545 17.4329C66.5333 17.4135 66.5229 17.3956 66.5111 17.3763C66.4981 17.3542 66.4838 17.3335 66.4707 17.3128C66.4616 17.2976 66.4512 17.2838 66.4421 17.2686C66.4278 17.2465 66.4121 17.2244 66.3978 17.2037C66.39 17.1926 66.3835 17.183 66.3756 17.1733C66.3587 17.1498 66.3418 17.1264 66.3261 17.1043C66.3235 17.1015 66.3209 17.0974 66.3183 17.0946C66.1633 16.8917 66.02 16.7591 65.9054 16.7039C65.8637 16.6832 65.8246 16.6721 65.7921 16.6721C65.4195 16.6721 64.4243 17.9851 64.0947 20.4137M51.0411 20.4137H54.4357C54.4175 20.277 54.3967 20.1445 54.3732 20.0161H54.3745C54.3719 20.0009 54.3693 19.9843 54.3667 19.9691C54.3563 19.9125 54.3459 19.8559 54.3354 19.8007C54.3302 19.7745 54.325 19.7482 54.3198 19.722C54.3081 19.6654 54.2964 19.6088 54.2833 19.5536C54.2781 19.5301 54.2729 19.508 54.2677 19.4845C54.2547 19.4265 54.2404 19.3686 54.226 19.3119C54.2208 19.294 54.2169 19.2747 54.213 19.2567C54.1974 19.1932 54.1804 19.1311 54.1635 19.0703C54.1609 19.0593 54.157 19.0482 54.1544 19.0372C54.0932 18.8191 54.0267 18.6161 53.9564 18.4269C53.9525 18.4159 53.9486 18.4062 53.9447 18.3952C53.9264 18.3455 53.9069 18.2958 53.8873 18.2475C53.8808 18.2295 53.873 18.2129 53.8665 18.1964C53.8496 18.1563 53.8339 18.1163 53.817 18.0776C53.8079 18.0583 53.8001 18.039 53.791 18.0197C53.7753 17.9851 53.761 17.9506 53.7454 17.9175C53.7362 17.8968 53.7258 17.8761 53.7167 17.8554C53.7024 17.825 53.688 17.796 53.6737 17.767C53.6633 17.7449 53.6529 17.7242 53.6411 17.7035C53.6281 17.6773 53.6138 17.651 53.6008 17.6262C53.589 17.6041 53.5773 17.5834 53.5656 17.5627C53.5526 17.5406 53.5408 17.5185 53.5278 17.4964C53.5148 17.4743 53.5031 17.4536 53.49 17.4329C53.4783 17.4135 53.4679 17.3956 53.4562 17.3777C53.4431 17.3556 53.4288 17.3335 53.4158 17.3128C53.4067 17.2976 53.3963 17.2838 53.3871 17.2686C53.3728 17.2465 53.3572 17.2244 53.3428 17.2023C53.335 17.1913 53.3285 17.1816 53.3207 17.1719C53.3038 17.1485 53.2868 17.125 53.2699 17.1029C53.2673 17.1001 53.2647 17.0974 53.2634 17.0946C53.1084 16.8903 52.9638 16.7591 52.8491 16.7025C52.8075 16.6818 52.7684 16.6708 52.7358 16.6708C52.3633 16.6708 51.3681 17.9838 51.0385 20.4123M37.9888 20.4137H41.3834C41.3652 20.277 41.3443 20.1445 41.3209 20.0161H41.3222C41.3196 20.0009 41.317 19.9843 41.3144 19.9691C41.3039 19.9125 41.2935 19.8559 41.2831 19.8007C41.2779 19.7745 41.2727 19.7482 41.2675 19.722C41.2557 19.6654 41.244 19.6088 41.231 19.5536C41.2258 19.5301 41.2206 19.508 41.2154 19.4845C41.2023 19.4265 41.188 19.3686 41.1737 19.3119C41.1685 19.294 41.1646 19.2747 41.1607 19.2567C41.145 19.1932 41.1281 19.1311 41.1112 19.0703C41.1086 19.0593 41.1046 19.0482 41.102 19.0372C41.0408 18.8191 40.9744 18.6161 40.904 18.4283C40.9001 18.4173 40.8962 18.4062 40.891 18.3952C40.8728 18.3455 40.8532 18.2958 40.835 18.2488C40.8285 18.2309 40.8207 18.2143 40.8142 18.1978C40.7972 18.1577 40.7816 18.1177 40.7647 18.079C40.7555 18.0597 40.7477 18.0404 40.7386 18.021C40.723 17.9865 40.7086 17.952 40.693 17.9189C40.6839 17.8982 40.6735 17.8774 40.6644 17.8567C40.65 17.8264 40.6357 17.7974 40.6214 17.7684C40.6109 17.7463 40.5992 17.7256 40.5888 17.7049C40.5758 17.6786 40.5628 17.6538 40.5484 17.6289C40.5367 17.6068 40.525 17.5861 40.5133 17.5654C40.5002 17.5433 40.4885 17.5212 40.4755 17.4991C40.4624 17.4771 40.4507 17.4563 40.4377 17.4356C40.426 17.4163 40.4156 17.3984 40.4038 17.3804C40.3908 17.3583 40.3765 17.3362 40.3634 17.3155C40.3543 17.3003 40.3439 17.2865 40.3348 17.2713C40.3205 17.2492 40.3048 17.2272 40.2905 17.2051C40.284 17.1954 40.2762 17.1857 40.2697 17.1761C40.2527 17.1526 40.2358 17.1291 40.2189 17.107C40.2163 17.1043 40.2136 17.1015 40.2123 17.0974C40.0573 16.893 39.9127 16.7619 39.7994 16.7067C39.7577 16.6859 39.7186 16.6749 39.6861 16.6749C39.3135 16.6749 38.3183 17.9879 37.9888 20.4165M24.9377 20.4137H28.3324C28.3141 20.277 28.2933 20.1445 28.2698 20.0161C28.2672 19.9981 28.2633 19.9788 28.2607 19.9609C28.2516 19.9112 28.2425 19.8628 28.2334 19.8145C28.2269 19.7814 28.2203 19.7482 28.2138 19.7151C28.2034 19.6654 28.193 19.6185 28.1826 19.5701C28.1761 19.5398 28.1695 19.5094 28.163 19.479C28.1513 19.4293 28.1396 19.381 28.1279 19.3327C28.1213 19.3064 28.1148 19.2788 28.1083 19.2526C28.0953 19.2015 28.081 19.1504 28.0679 19.1007C28.0614 19.0786 28.0562 19.0565 28.0497 19.0344C28.0328 18.9751 28.0158 18.9157 27.9976 18.8577C27.9937 18.8467 27.9911 18.8356 27.9885 18.826C27.9676 18.7569 27.9455 18.6893 27.9233 18.6244C27.9207 18.6161 27.9168 18.6078 27.9142 18.5995C27.8947 18.5443 27.8764 18.4891 27.8556 18.4352C27.8478 18.4131 27.84 18.3938 27.8322 18.3717C27.8178 18.3331 27.8022 18.293 27.7879 18.2557C27.7787 18.2309 27.7683 18.2074 27.7579 18.184C27.7449 18.1508 27.7305 18.1177 27.7175 18.0859C27.7071 18.0611 27.6954 18.0362 27.685 18.0128C27.6719 17.9838 27.6589 17.9548 27.6459 17.9258C27.6342 17.9009 27.6224 17.8761 27.6107 17.8512C27.599 17.825 27.586 17.8001 27.5742 17.7753C27.5612 17.7504 27.5495 17.7256 27.5365 17.7007C27.5247 17.6786 27.513 17.6565 27.5013 17.6345C27.4883 17.6096 27.4752 17.5861 27.4622 17.5613C27.4518 17.5419 27.4401 17.5226 27.4296 17.5033C27.4153 17.4784 27.4023 17.455 27.388 17.4315C27.3788 17.4149 27.3684 17.3997 27.3593 17.3832C27.345 17.3583 27.3293 17.3348 27.315 17.3114C27.3072 17.299 27.2994 17.2865 27.2916 17.2755C27.2746 17.2506 27.259 17.2258 27.2421 17.2023C27.2369 17.194 27.2316 17.1871 27.2251 17.1788C27.2069 17.1526 27.1887 17.1264 27.1704 17.1029C27.0128 16.8944 26.8669 16.7619 26.7523 16.7053C26.7106 16.6846 26.6715 16.6735 26.6389 16.6735C26.2664 16.6735 25.2712 17.9865 24.9416 20.4151M65.7895 12.0028C63.5633 12.0028 61.5807 13.7438 60.4839 16.6611L60.4539 16.7412C60.4226 16.8268 60.3914 16.9124 60.3614 17.0007L60.3458 17.0477L60.338 17.0711C60.2455 17.3445 60.1608 17.6303 60.0853 17.9175L60.0826 17.9299C60.0722 17.9686 60.0618 18.0072 60.0527 18.0459C60.0318 18.126 60.0123 18.2074 59.9941 18.2889C59.9836 18.3317 59.9745 18.3772 59.9641 18.4214L59.9589 18.4435L59.9511 18.4767C59.9355 18.5443 59.9211 18.612 59.9068 18.681C59.882 18.7983 59.8599 18.9171 59.8378 19.0372C59.8286 19.0897 59.8195 19.1407 59.8117 19.1932L59.8039 19.2429C59.7922 19.3147 59.7804 19.3879 59.7687 19.4611C59.7583 19.5301 59.7492 19.5977 59.7388 19.6668C59.7362 19.6847 59.7335 19.7041 59.7309 19.722H58.7957C58.7891 19.6723 58.7826 19.6226 58.7761 19.5743C58.7657 19.5066 58.7553 19.439 58.7448 19.3713L58.7344 19.3092L58.724 19.2443C58.7162 19.1974 58.7097 19.1504 58.7019 19.1048C58.6888 19.0303 58.6745 18.9571 58.6602 18.8839L58.6498 18.8287L58.638 18.768C58.6302 18.7265 58.6224 18.6851 58.6146 18.6451C58.5977 18.565 58.5794 18.4849 58.5612 18.4062L58.5508 18.3634L58.539 18.3082C58.5312 18.2709 58.5221 18.2337 58.5143 18.1978C58.4934 18.1094 58.47 18.0224 58.4479 17.9368L58.44 17.9092L58.427 17.8609C58.4192 17.8277 58.4101 17.796 58.401 17.7629C58.3749 17.6676 58.3462 17.5737 58.3189 17.4798L58.315 17.4674L58.302 17.4232C58.2941 17.3942 58.285 17.3666 58.2772 17.339C58.2459 17.2368 58.2121 17.1374 58.1782 17.038L58.1652 17.0007C58.1574 16.9759 58.1495 16.951 58.1404 16.9276C58.104 16.8254 58.0675 16.7246 58.0284 16.6238L58.0167 16.5921C58.0089 16.57 58.001 16.5493 57.9932 16.5285C57.9489 16.4167 57.9047 16.3104 57.8682 16.222L57.8578 16.1972C57.8499 16.1792 57.8434 16.1613 57.8356 16.1433C57.7952 16.0508 57.7509 15.9528 57.6949 15.8341L57.6871 15.8161C57.6806 15.8009 57.6728 15.7858 57.6663 15.7706C57.6207 15.6753 57.5712 15.5773 57.5113 15.4627L57.5047 15.4503C57.4982 15.4378 57.4917 15.4254 57.4852 15.413C57.4344 15.3163 57.3784 15.2169 57.3159 15.1065L57.312 15.0996C57.3067 15.0885 57.3002 15.0789 57.2937 15.0692C57.2364 14.9725 57.1765 14.8731 57.1087 14.7668L57.0918 14.7392C57.0293 14.6412 56.9642 14.5445 56.8925 14.4438L56.8795 14.4244C56.8117 14.3305 56.7401 14.2339 56.6659 14.1386L56.6593 14.129C56.5838 14.0337 56.5069 13.9412 56.4288 13.8501L56.4236 13.8446C55.3736 12.6406 54.101 12.0041 52.7397 12.0041C50.5604 12.0041 48.6638 13.6057 47.5357 16.4001C47.5357 16.4029 47.5331 16.4057 47.5318 16.4084C47.4992 16.4885 47.468 16.57 47.438 16.6528C47.4263 16.6859 47.4133 16.7177 47.4016 16.7508C47.3716 16.8323 47.3429 16.9137 47.3143 16.9952C47.3065 17.0173 47.2999 17.0394 47.2921 17.0615L47.2817 17.0905C47.2166 17.2838 47.1606 17.4674 47.1085 17.6483L47.1033 17.6662C47.0824 17.7408 47.0616 17.8167 47.042 17.894L47.0394 17.9037C47.0264 17.9534 47.0134 18.0045 47.0003 18.0556C46.9808 18.1301 46.9626 18.206 46.9456 18.282C46.9326 18.34 46.9196 18.398 46.9066 18.4559L46.8961 18.5056C46.8831 18.5623 46.8714 18.6189 46.8597 18.6755C46.8349 18.7956 46.8115 18.9198 46.7893 19.0441C46.7815 19.0883 46.7737 19.1311 46.7672 19.1753L46.7594 19.2263C46.7463 19.3078 46.732 19.3893 46.7203 19.4721C46.7112 19.5342 46.702 19.5964 46.6929 19.6585C46.6903 19.6806 46.6864 19.7027 46.6838 19.7234H45.7485C45.742 19.6737 45.7355 19.624 45.729 19.5757C45.7186 19.508 45.7081 19.4403 45.6977 19.3727L45.6873 19.3106L45.6769 19.2471C45.6691 19.2001 45.6625 19.1532 45.6534 19.1076C45.6404 19.0331 45.6261 18.9599 45.6117 18.8867L45.6013 18.8329L45.5896 18.7735C45.5818 18.7321 45.574 18.6907 45.5661 18.6492C45.5492 18.5692 45.531 18.4891 45.5127 18.409L45.5036 18.3662L45.4919 18.311C45.4841 18.2737 45.4763 18.2378 45.4672 18.2019C45.4463 18.1122 45.4229 18.0252 45.3994 17.9382L45.3929 17.912L45.3799 17.8623C45.3721 17.8291 45.3629 17.7974 45.3538 17.7656C45.3278 17.669 45.2991 17.5737 45.2705 17.4798L45.2678 17.4715L45.2548 17.4274C45.247 17.3984 45.2379 17.3707 45.2301 17.3418C45.1988 17.2396 45.1649 17.1402 45.1311 17.0408L45.118 17.0035C45.1102 16.9786 45.1011 16.9538 45.0933 16.9289C45.0568 16.8268 45.0203 16.726 44.9813 16.6252L44.9695 16.5934C44.9617 16.5713 44.9539 16.5506 44.9461 16.5299C44.9018 16.4181 44.8575 16.3118 44.821 16.2234L44.8106 16.1986C44.8028 16.1806 44.7963 16.1627 44.7885 16.1447C44.7481 16.0522 44.7051 15.957 44.6478 15.8355L44.64 15.8175C44.6335 15.8023 44.6257 15.7871 44.6191 15.7719C44.5735 15.6781 44.5253 15.58 44.4641 15.4641L44.4576 15.4503C44.4511 15.4378 44.4446 15.4254 44.4381 15.413C44.3873 15.3163 44.3313 15.2155 44.2687 15.1065L44.2648 15.0996C44.2583 15.0885 44.2531 15.0775 44.2466 15.0664C44.1906 14.9698 44.1293 14.8718 44.0629 14.7655L44.046 14.7392C43.9822 14.6412 43.917 14.5445 43.8454 14.4424L43.8323 14.423C43.7646 14.3278 43.6917 14.2311 43.6174 14.1359L43.6083 14.1248C43.5354 14.0323 43.4598 13.9398 43.3803 13.8501C43.3777 13.8473 43.3751 13.8446 43.3725 13.8418C42.3265 12.6406 41.0525 12.0041 39.6913 12.0041C37.4651 12.0041 35.4825 13.7451 34.3857 16.6625L34.3557 16.7425C34.3245 16.8281 34.2932 16.9151 34.2632 17.0021L34.2476 17.0477L34.2398 17.0725C34.1486 17.3459 34.0639 17.6289 33.9884 17.9161C33.9767 17.9617 33.9649 18.0045 33.9545 18.0486C33.935 18.1287 33.9154 18.2088 33.8959 18.2889C33.8855 18.3358 33.8751 18.3828 33.8646 18.4297L33.8607 18.449L33.8529 18.4863C33.8386 18.5512 33.8242 18.6147 33.8112 18.681C33.7865 18.7997 33.763 18.9212 33.7422 19.0413C33.7331 19.0897 33.7253 19.1394 33.7174 19.1877L33.7083 19.2402C33.6953 19.3161 33.6836 19.392 33.6718 19.468C33.6614 19.5342 33.6523 19.5991 33.6432 19.6654C33.6406 19.6847 33.638 19.7054 33.6354 19.7248H32.7001C32.6936 19.6751 32.6871 19.6254 32.6805 19.577C32.6701 19.5094 32.6597 19.4431 32.6493 19.3768L32.6389 19.3133L32.6284 19.2484C32.6206 19.2015 32.6141 19.1559 32.6063 19.109C32.5933 19.0344 32.5789 18.9626 32.5646 18.8895L32.5542 18.8356L32.5425 18.7749C32.5346 18.7335 32.5268 18.692 32.5177 18.6506C32.5008 18.5705 32.4838 18.4932 32.4656 18.4145L32.4552 18.369L32.4435 18.3137C32.4356 18.2765 32.4265 18.2392 32.4187 18.2033C32.3979 18.1163 32.3757 18.0307 32.3523 17.9451L32.3445 17.9147L32.3314 17.865C32.3236 17.8333 32.3145 17.8001 32.3067 17.7684C32.2793 17.6717 32.252 17.5765 32.2233 17.4812L32.2207 17.4729L32.2077 17.4287C32.1999 17.3997 32.1908 17.3721 32.1829 17.3431C32.1517 17.241 32.1178 17.1416 32.0839 17.0422L32.0709 17.0049C32.0631 16.98 32.0553 16.9552 32.0462 16.9317C32.0097 16.8295 31.9719 16.7287 31.9341 16.628L31.9224 16.5962C31.9146 16.5741 31.9068 16.5534 31.8977 16.5313C31.8534 16.4195 31.8091 16.3132 31.7726 16.2248L31.7622 16.2C31.7544 16.182 31.7466 16.1641 31.74 16.1461C31.6997 16.0536 31.6567 15.9583 31.5994 15.8382L31.5902 15.8189C31.5837 15.8037 31.5759 15.7885 31.5694 15.7733C31.5238 15.6781 31.4743 15.58 31.4144 15.4654L31.4079 15.453C31.4014 15.4406 31.3948 15.4268 31.3883 15.4144C31.3375 15.3191 31.2815 15.2183 31.219 15.1079L31.2151 15.101C31.2099 15.0913 31.2034 15.0802 31.1981 15.0706C31.1408 14.9725 31.0809 14.8731 31.0132 14.7682L30.9962 14.7406C30.9337 14.644 30.8686 14.5459 30.7969 14.4451L30.7839 14.4258C30.7162 14.3305 30.6445 14.2353 30.5703 14.14L30.5625 14.1304C30.4882 14.0351 30.4114 13.9426 30.3332 13.8528L30.3319 13.8501C29.2703 12.6392 27.9963 12.0028 26.635 12.0028C24.4088 12.0028 22.4262 13.7438 21.3294 16.6611L21.2995 16.7412C21.2682 16.8268 21.2369 16.9124 21.207 17.0007L21.1914 17.0477L21.1835 17.0711C21.0924 17.3445 21.0064 17.6289 20.9308 17.9175L20.9269 17.9313C20.9165 17.97 20.9074 18.0072 20.897 18.0459C20.8761 18.1273 20.8566 18.2074 20.837 18.2903C20.8266 18.3344 20.8162 18.38 20.8071 18.4242L20.8032 18.4435L20.7954 18.4767C20.7797 18.5443 20.7654 18.6133 20.7511 18.6824C20.7263 18.7997 20.7042 18.9185 20.682 19.0386C20.6729 19.091 20.6638 19.1449 20.6547 19.1987L20.6469 19.2457C20.6351 19.3175 20.6234 19.3906 20.6117 19.4638C20.6013 19.5315 20.5921 19.6005 20.5817 19.6682C20.5791 19.6861 20.5765 19.7054 20.5739 19.7234H18.8714C15.0846 19.7234 12 22.9928 12 27.0105V72.7129C12 76.7306 15.0846 80 18.8753 80H73.122C73.8189 80 74.5067 79.8895 75.1658 79.6728C75.5918 79.532 76.006 79.347 76.3994 79.1205C76.4958 79.0653 76.5922 79.0059 76.6873 78.9452C76.8748 78.8237 77.0598 78.6925 77.2357 78.5531C77.4988 78.3446 77.7502 78.114 77.9834 77.8669C78.1384 77.7026 78.2882 77.5286 78.4263 77.3491C78.4953 77.2594 78.5644 77.1669 78.6308 77.0744C78.7624 76.888 78.8874 76.6919 79.0007 76.4931C79.4723 75.6716 79.7797 74.7728 79.9178 73.823C79.953 73.5813 79.9764 73.3342 79.9881 73.0884C79.9946 72.9642 79.9972 72.8385 79.9972 72.7143V27.0105C79.9972 26.8862 79.9946 26.7606 79.9881 26.6363C79.9764 26.3906 79.953 26.1434 79.9178 25.9018C79.781 24.9519 79.4723 24.0531 79.0007 23.2316C78.8861 23.0328 78.7624 22.8368 78.6308 22.6504C78.5657 22.5579 78.4966 22.4654 78.4263 22.3756C78.2869 22.1961 78.1384 22.0222 77.9834 21.8579C77.7502 21.6107 77.4988 21.3802 77.2357 21.1717C77.0598 21.0322 76.8748 20.8997 76.6873 20.7796C76.5935 20.7188 76.4971 20.6608 76.3994 20.6042C76.0073 20.3778 75.5918 20.1928 75.1658 20.052C74.5067 19.8352 73.8189 19.7248 73.122 19.7248H71.848C71.8415 19.6751 71.835 19.6254 71.8285 19.577C71.818 19.5094 71.8076 19.4417 71.7972 19.3755L71.7868 19.3119L71.7764 19.2471C71.7685 19.2001 71.762 19.1532 71.7542 19.1076C71.7412 19.0331 71.7269 18.9599 71.7125 18.8881L71.7021 18.8329L71.6904 18.7721C71.6826 18.7307 71.6747 18.6893 71.6669 18.6492C71.65 18.5678 71.6318 18.4891 71.6135 18.409L71.6044 18.3662L71.5927 18.311C71.5849 18.2737 71.5757 18.2364 71.5679 18.2005C71.5471 18.1122 71.5236 18.0252 71.5015 17.9396L71.4937 17.912L71.4807 17.8623C71.4728 17.8291 71.4637 17.7974 71.4559 17.7656C71.4299 17.669 71.4012 17.5737 71.3725 17.4798L71.3699 17.4702L71.3569 17.426C71.3491 17.397 71.34 17.3694 71.3322 17.3404C71.3009 17.2382 71.267 17.1388 71.2332 17.0394L71.2201 17.0021C71.2123 16.9773 71.2032 16.9524 71.1954 16.9276C71.1589 16.8254 71.1224 16.7246 71.0834 16.6238L71.0716 16.5921C71.0638 16.57 71.056 16.5493 71.0469 16.5272C71.0039 16.4153 70.9583 16.309 70.9218 16.2207L70.9114 16.1958C70.9036 16.1779 70.8971 16.1599 70.8893 16.142C70.8489 16.0495 70.8059 15.9542 70.7486 15.8327L70.7395 15.8134C70.7329 15.7982 70.7251 15.783 70.7186 15.7678C70.673 15.6725 70.6235 15.5745 70.5636 15.4599L70.5571 15.4475C70.5506 15.4351 70.5441 15.4213 70.5376 15.4088C70.4867 15.3122 70.4307 15.2128 70.3682 15.1023L70.3643 15.0954C70.3591 15.0844 70.3526 15.0747 70.3461 15.0637C70.2887 14.967 70.2288 14.8676 70.1611 14.7613L70.1442 14.7337C70.0816 14.6357 70.0165 14.539 69.9449 14.4382L69.9318 14.4189C69.8641 14.3236 69.7924 14.2284 69.7182 14.1331L69.7104 14.1221C69.6374 14.0282 69.5606 13.9357 69.4811 13.8459L69.4772 13.8404C68.4273 12.6365 67.1546 12 65.7934 12L65.7895 12.0028ZM25.7219 19.7234C25.9772 18.5664 26.3797 17.8264 26.6337 17.5005C26.6416 17.5116 26.6507 17.5226 26.6598 17.5337L26.6624 17.5364C26.6754 17.5544 26.6897 17.5737 26.7028 17.593L26.7132 17.6068C26.7288 17.6303 26.7432 17.6496 26.7562 17.6703L26.7627 17.68L26.7757 17.6993C26.7874 17.7187 26.8005 17.7394 26.8135 17.7587L26.8382 17.7987C26.85 17.8181 26.8617 17.8388 26.8734 17.8595C26.8825 17.8761 26.8917 17.8913 26.9008 17.9078C26.9125 17.9285 26.9229 17.9492 26.9346 17.97C26.9451 17.9893 26.9555 18.0086 26.9646 18.0279C26.975 18.0486 26.9867 18.0707 26.9972 18.0914C27.0076 18.1135 27.0193 18.1356 27.0297 18.1591C27.0402 18.1812 27.0506 18.2019 27.061 18.224C27.0727 18.2488 27.0844 18.2751 27.0962 18.3013L27.1001 18.311C27.1079 18.3303 27.117 18.3482 27.1248 18.3676C27.1366 18.3966 27.1496 18.4256 27.1613 18.4546L27.1717 18.4794L27.1887 18.5208C27.2017 18.5553 27.216 18.5899 27.229 18.6258L27.2395 18.6534L27.2512 18.6837C27.2694 18.7321 27.2864 18.7818 27.3033 18.8329L27.3111 18.8536C27.3319 18.9157 27.3528 18.9778 27.3723 19.04V19.0455L27.3814 19.0703C27.3971 19.1228 27.414 19.1766 27.4296 19.2319L27.4375 19.2609L27.4466 19.2926C27.4596 19.3382 27.4713 19.3851 27.4844 19.4321L27.4948 19.4762L27.5026 19.5066C27.513 19.5508 27.5247 19.5964 27.5352 19.6419C27.5391 19.6613 27.5443 19.6806 27.5482 19.6999L27.5534 19.722H25.7258L25.7219 19.7234ZM38.7729 19.7234C39.0283 18.5664 39.4308 17.8264 39.6848 17.5005C39.6926 17.5102 39.6991 17.5199 39.7069 17.5295C39.7082 17.5323 39.7121 17.5364 39.7147 17.5406C39.7265 17.5571 39.7382 17.5737 39.7512 17.5903L39.7616 17.6055L39.7694 17.6151C39.7799 17.6303 39.7916 17.6469 39.802 17.6634L39.8098 17.6759L39.8268 17.7021C39.8385 17.7201 39.8489 17.738 39.8606 17.7559C39.8698 17.7711 39.8789 17.7863 39.8893 17.8015C39.8997 17.8195 39.9101 17.8374 39.9206 17.8567C39.931 17.8747 39.9414 17.894 39.9531 17.9133C39.9635 17.9313 39.9727 17.9492 39.9831 17.9686C39.9948 17.9907 40.0065 18.0128 40.0183 18.0348C40.0274 18.0528 40.0365 18.0721 40.0469 18.0901C40.0599 18.1149 40.0717 18.1412 40.0847 18.1674C40.0938 18.1867 40.1016 18.2047 40.1107 18.2226C40.1238 18.2516 40.1381 18.282 40.1511 18.3137L40.1589 18.3303L40.1746 18.3662C40.1902 18.4007 40.2045 18.4366 40.2189 18.4725L40.228 18.496L40.2371 18.5181C40.254 18.5623 40.271 18.6064 40.2879 18.6506L40.2957 18.6713L40.2996 18.6796C40.3648 18.8563 40.426 19.0427 40.4794 19.236L40.482 19.2443L40.4885 19.2664C40.5041 19.323 40.5198 19.3796 40.5341 19.4376L40.5406 19.4624L40.5471 19.4887C40.5601 19.5411 40.5732 19.5936 40.5849 19.6488L40.594 19.6875L40.5992 19.7123C40.5992 19.7123 40.6005 19.7206 40.6018 19.7234H38.7742H38.7729ZM51.8253 19.7234C52.0806 18.5664 52.4831 17.8264 52.7371 17.5005C52.7449 17.5102 52.7514 17.5199 52.7593 17.5295C52.7606 17.5323 52.7645 17.5364 52.7671 17.5392C52.7788 17.5558 52.7918 17.5723 52.8036 17.5889L52.814 17.6027L52.8205 17.611C52.8322 17.6275 52.8426 17.6441 52.8531 17.6607L52.8635 17.6759L52.8804 17.7007C52.8921 17.7187 52.9026 17.7366 52.9143 17.7546C52.9234 17.7698 52.9325 17.7849 52.9416 17.8001C52.9534 17.8195 52.9638 17.8374 52.9742 17.8554C52.9846 17.8733 52.995 17.8926 53.0068 17.912C53.0172 17.9299 53.0263 17.9479 53.0367 17.9672C53.0485 17.9893 53.0602 18.0114 53.0719 18.0335C53.081 18.0528 53.0901 18.0707 53.1006 18.0887C53.1136 18.1149 53.1253 18.1398 53.1383 18.1674L53.1644 18.2226C53.1774 18.2516 53.1917 18.282 53.2048 18.3124L53.2126 18.3303L53.2269 18.3648C53.2412 18.3993 53.2569 18.4352 53.2712 18.4711L53.2803 18.4946L53.2894 18.5181C53.3064 18.5609 53.3233 18.6064 53.3402 18.652L53.3481 18.6727L53.3507 18.681C53.4158 18.8577 53.477 19.0441 53.5304 19.2374L53.533 19.2457L53.5382 19.2664C53.5539 19.323 53.5695 19.3796 53.5838 19.4376L53.5903 19.4624L53.5969 19.4887C53.6099 19.5411 53.6229 19.595 53.6359 19.6488L53.6451 19.6875L53.6503 19.7123C53.6503 19.7123 53.6516 19.7192 53.6529 19.7234H51.8253ZM64.8763 19.7234C65.1316 18.5664 65.5342 17.8264 65.7882 17.5005C65.7947 17.5088 65.8025 17.5185 65.8103 17.5281C65.8116 17.5309 65.8155 17.535 65.8181 17.5392C65.8298 17.5544 65.8416 17.5723 65.8546 17.5889L65.865 17.6027L65.8715 17.6124C65.8833 17.6289 65.8937 17.6455 65.9054 17.6621L65.9132 17.6745L65.9315 17.7007C65.9419 17.7173 65.9536 17.7352 65.964 17.7532C65.9731 17.7684 65.9836 17.7849 65.9927 17.8001C66.0031 17.8181 66.0135 17.836 66.0239 17.854C66.0344 17.8719 66.0448 17.8913 66.0565 17.9106C66.0669 17.9285 66.076 17.9465 66.0865 17.9644C66.0982 17.9865 66.1099 18.0086 66.1216 18.0307C66.1308 18.05 66.1399 18.068 66.1503 18.0859C66.1633 18.1122 66.1763 18.1384 66.1881 18.1646L66.192 18.1743L66.2128 18.2198C66.2258 18.2488 66.2402 18.2806 66.2545 18.311L66.2623 18.3289L66.2766 18.3621C66.2923 18.3966 66.3066 18.4339 66.3222 18.4697L66.3314 18.4932L66.3405 18.5153C66.3574 18.5595 66.3757 18.6037 66.3926 18.6492L66.4004 18.6699L66.403 18.6768C66.4681 18.8536 66.5294 19.0413 66.5828 19.2332V19.2402L66.5906 19.2609C66.6062 19.3175 66.6218 19.3755 66.6375 19.4334L66.6427 19.4569L66.6492 19.4831C66.6622 19.5356 66.6753 19.5895 66.6883 19.6447L66.6961 19.6806L66.7013 19.7068L66.7039 19.7192H64.8763V19.7234Z" fill="url(#paint64_linear_165_10695)"/>
</g>
<defs>
<filter id="filter0_d_165_10695" x="-9.4" y="-9.4" width="110.8" height="110.8" filterUnits="userSpaceOnUse" color-interpolation-filters="sRGB">
<feFlood flood-opacity="0" result="BackgroundImageFix"/>
<feColorMatrix in="SourceAlpha" type="matrix" values="0 0 0 0 0 0 0 0 0 0 0 0 0 0 0 0 0 0 127 0" result="hardAlpha"/>
<feOffset/>
<feGaussianBlur stdDeviation="5.7"/>
<feComposite in2="hardAlpha" operator="out"/>
<feColorMatrix type="matrix" values="0 0 0 0 0.992157 0 0 0 0 0.878431 0 0 0 0 0.00392157 0 0 0 1 0"/>
<feBlend mode="normal" in2="BackgroundImageFix" result="effect1_dropShadow_165_10695"/>
<feBlend mode="normal" in="SourceGraphic" in2="effect1_dropShadow_165_10695" result="shape"/>
</filter>
<linearGradient id="paint0_linear_165_10695" x1="22.6046" y1="18.3715" x2="29.5127" y2="23.9879" gradientUnits="userSpaceOnUse">
<stop stop-color="#FEF0AE"/>
<stop offset="1" stop-color="#FAC600"/>
</linearGradient>
<linearGradient id="paint1_linear_165_10695" x1="23.8538" y1="18.2301" x2="23.8538" y2="21.6749" gradientUnits="userSpaceOnUse">
<stop stop-color="#FE9738" stop-opacity="0"/>
<stop offset="1" stop-color="#FE9738"/>
</linearGradient>
<linearGradient id="paint2_linear_165_10695" x1="61.759" y1="18.3715" x2="68.6671" y2="23.9879" gradientUnits="userSpaceOnUse">
<stop stop-color="#FEF0AE"/>
<stop offset="1" stop-color="#FAC600"/>
</linearGradient>
<linearGradient id="paint3_linear_165_10695" x1="35.6556" y1="18.3715" x2="42.5637" y2="23.9879" gradientUnits="userSpaceOnUse">
<stop stop-color="#FEF0AE"/>
<stop offset="1" stop-color="#FAC600"/>
</linearGradient>
<linearGradient id="paint4_linear_165_10695" x1="48.708" y1="18.3715" x2="55.6161" y2="23.9879" gradientUnits="userSpaceOnUse">
<stop stop-color="#FEF0AE"/>
<stop offset="1" stop-color="#FAC600"/>
</linearGradient>
<linearGradient id="paint5_linear_165_10695" x1="30.1925" y1="33.1018" x2="76.4861" y2="76.7793" gradientUnits="userSpaceOnUse">
<stop stop-color="#B3DAFE"/>
<stop offset="1" stop-color="#0182FC"/>
</linearGradient>
<linearGradient id="paint6_linear_165_10695" x1="45.9986" y1="66.2969" x2="45.9986" y2="80.5093" gradientUnits="userSpaceOnUse">
<stop stop-color="#314DC9" stop-opacity="0"/>
<stop offset="0.28" stop-color="#304BC4" stop-opacity="0.28"/>
<stop offset="0.56" stop-color="#2B45B8" stop-opacity="0.56"/>
<stop offset="0.85" stop-color="#243BA3" stop-opacity="0.85"/>
<stop offset="1" stop-color="#1F3596"/>
</linearGradient>
<linearGradient id="paint7_linear_165_10695" x1="69.1775" y1="49.8533" x2="79.7639" y2="49.8533" gradientUnits="userSpaceOnUse">
<stop stop-color="#314DC9" stop-opacity="0"/>
<stop offset="0.28" stop-color="#304BC4" stop-opacity="0.28"/>
<stop offset="0.56" stop-color="#2B45B8" stop-opacity="0.56"/>
<stop offset="0.85" stop-color="#243BA3" stop-opacity="0.85"/>
<stop offset="1" stop-color="#1F3596"/>
</linearGradient>
<linearGradient id="paint8_linear_165_10695" x1="60.244" y1="69.4789" x2="43.3878" y2="46.3803" gradientUnits="userSpaceOnUse">
<stop stop-color="#314DC9" stop-opacity="0"/>
<stop offset="0.28" stop-color="#304BC4" stop-opacity="0.28"/>
<stop offset="0.56" stop-color="#2B45B8" stop-opacity="0.56"/>
<stop offset="0.85" stop-color="#243BA3" stop-opacity="0.85"/>
<stop offset="1" stop-color="#1F3596"/>
</linearGradient>
<linearGradient id="paint9_linear_165_10695" x1="31.5563" y1="33.3663" x2="73.8556" y2="73.2751" gradientUnits="userSpaceOnUse">
<stop stop-color="#F5FBFF"/>
<stop offset="1" stop-color="#DBD5EF"/>
</linearGradient>
<linearGradient id="paint10_linear_165_10695" x1="29.8068" y1="34.8044" x2="24.0092" y2="25.2219" gradientUnits="userSpaceOnUse">
<stop stop-color="#F5FBFF"/>
<stop offset="1" stop-color="#DBD5EF"/>
</linearGradient>
<linearGradient id="paint11_linear_165_10695" x1="21.737" y1="19.4386" x2="28.6439" y2="25.0551" gradientUnits="userSpaceOnUse">
<stop stop-color="#FEF0AE"/>
<stop offset="1" stop-color="#FAC600"/>
</linearGradient>
<linearGradient id="paint12_linear_165_10695" x1="27.862" y1="26.3336" x2="27.862" y2="30.187" gradientUnits="userSpaceOnUse">
<stop stop-color="#FE9738" stop-opacity="0"/>
<stop offset="1" stop-color="#FE9738"/>
</linearGradient>
<linearGradient id="paint13_linear_165_10695" x1="26.093" y1="25.3933" x2="23.8412" y2="25.1916" gradientUnits="userSpaceOnUse">
<stop stop-color="#FE9738" stop-opacity="0"/>
<stop offset="1" stop-color="#FE9738"/>
</linearGradient>
<linearGradient id="paint14_linear_165_10695" x1="29.3093" y1="22.0521" x2="31.4612" y2="22.0521" gradientUnits="userSpaceOnUse">
<stop stop-color="#FE9738" stop-opacity="0"/>
<stop offset="1" stop-color="#FE9738"/>
</linearGradient>
<linearGradient id="paint15_linear_165_10695" x1="42.8579" y1="34.8044" x2="37.0603" y2="25.2219" gradientUnits="userSpaceOnUse">
<stop stop-color="#F5FBFF"/>
<stop offset="1" stop-color="#DBD5EF"/>
</linearGradient>
<linearGradient id="paint16_linear_165_10695" x1="34.7881" y1="19.4386" x2="41.6962" y2="25.055" gradientUnits="userSpaceOnUse">
<stop stop-color="#FEF0AE"/>
<stop offset="1" stop-color="#FAC600"/>
</linearGradient>
<linearGradient id="paint17_linear_165_10695" x1="40.9143" y1="26.3336" x2="40.9143" y2="30.187" gradientUnits="userSpaceOnUse">
<stop stop-color="#FE9738" stop-opacity="0"/>
<stop offset="1" stop-color="#FE9738"/>
</linearGradient>
<linearGradient id="paint18_linear_165_10695" x1="39.1441" y1="25.3933" x2="36.8935" y2="25.1916" gradientUnits="userSpaceOnUse">
<stop stop-color="#FE9738" stop-opacity="0"/>
<stop offset="1" stop-color="#FE9738"/>
</linearGradient>
<linearGradient id="paint19_linear_165_10695" x1="42.3603" y1="22.0521" x2="44.5123" y2="22.0521" gradientUnits="userSpaceOnUse">
<stop stop-color="#FE9738" stop-opacity="0"/>
<stop offset="1" stop-color="#FE9738"/>
</linearGradient>
<linearGradient id="paint20_linear_165_10695" x1="55.9102" y1="34.8044" x2="50.1112" y2="25.222" gradientUnits="userSpaceOnUse">
<stop stop-color="#F5FBFF"/>
<stop offset="1" stop-color="#DBD5EF"/>
</linearGradient>
<linearGradient id="paint21_linear_165_10695" x1="47.839" y1="19.4386" x2="54.7471" y2="25.055" gradientUnits="userSpaceOnUse">
<stop stop-color="#FEF0AE"/>
<stop offset="1" stop-color="#FAC600"/>
</linearGradient>
<linearGradient id="paint22_linear_165_10695" x1="53.9653" y1="26.3336" x2="53.9653" y2="30.187" gradientUnits="userSpaceOnUse">
<stop stop-color="#FE9738" stop-opacity="0"/>
<stop offset="1" stop-color="#FE9738"/>
</linearGradient>
<linearGradient id="paint23_linear_165_10695" x1="52.195" y1="25.3933" x2="49.9445" y2="25.1916" gradientUnits="userSpaceOnUse">
<stop stop-color="#FE9738" stop-opacity="0"/>
<stop offset="1" stop-color="#FE9738"/>
</linearGradient>
<linearGradient id="paint24_linear_165_10695" x1="55.4127" y1="22.0521" x2="57.5646" y2="22.0521" gradientUnits="userSpaceOnUse">
<stop stop-color="#FE9738" stop-opacity="0"/>
<stop offset="1" stop-color="#FE9738"/>
</linearGradient>
<linearGradient id="paint25_linear_165_10695" x1="68.9612" y1="34.8044" x2="63.1636" y2="25.2219" gradientUnits="userSpaceOnUse">
<stop stop-color="#F5FBFF"/>
<stop offset="1" stop-color="#DBD5EF"/>
</linearGradient>
<linearGradient id="paint26_linear_165_10695" x1="60.8915" y1="19.4386" x2="67.7996" y2="25.055" gradientUnits="userSpaceOnUse">
<stop stop-color="#FEF0AE"/>
<stop offset="1" stop-color="#FAC600"/>
</linearGradient>
<linearGradient id="paint27_linear_165_10695" x1="67.0177" y1="26.3336" x2="67.0177" y2="30.187" gradientUnits="userSpaceOnUse">
<stop stop-color="#FE9738" stop-opacity="0"/>
<stop offset="1" stop-color="#FE9738"/>
</linearGradient>
<linearGradient id="paint28_linear_165_10695" x1="65.2475" y1="25.3933" x2="62.9969" y2="25.1916" gradientUnits="userSpaceOnUse">
<stop stop-color="#FE9738" stop-opacity="0"/>
<stop offset="1" stop-color="#FE9738"/>
</linearGradient>
<linearGradient id="paint29_linear_165_10695" x1="68.4638" y1="22.0521" x2="70.6157" y2="22.0521" gradientUnits="userSpaceOnUse">
<stop stop-color="#FE9738" stop-opacity="0"/>
<stop offset="1" stop-color="#FE9738"/>
</linearGradient>
<linearGradient id="paint30_linear_165_10695" x1="17.1404" y1="27.6575" x2="27.9442" y2="45.6619" gradientUnits="userSpaceOnUse">
<stop stop-color="#DBD5EF" stop-opacity="0"/>
<stop offset="0.29" stop-color="#D9D2EE" stop-opacity="0.28"/>
<stop offset="0.47" stop-color="#D4C9E9" stop-opacity="0.47"/>
<stop offset="0.63" stop-color="#CBBAE2" stop-opacity="0.63"/>
<stop offset="0.78" stop-color="#BFA5D7" stop-opacity="0.78"/>
<stop offset="0.91" stop-color="#AF8ACA" stop-opacity="0.91"/>
<stop offset="1" stop-color="#A274BF"/>
</linearGradient>
<linearGradient id="paint31_linear_165_10695" x1="25.1488" y1="41.9385" x2="30.9624" y2="41.9385" gradientUnits="userSpaceOnUse">
<stop stop-color="#DBD5EF" stop-opacity="0"/>
<stop offset="0.29" stop-color="#D9D2EE" stop-opacity="0.28"/>
<stop offset="0.47" stop-color="#D4C9E9" stop-opacity="0.47"/>
<stop offset="0.63" stop-color="#CBBAE2" stop-opacity="0.63"/>
<stop offset="0.78" stop-color="#BFA5D7" stop-opacity="0.78"/>
<stop offset="0.91" stop-color="#AF8ACA" stop-opacity="0.91"/>
<stop offset="1" stop-color="#A274BF"/>
</linearGradient>
<linearGradient id="paint32_linear_165_10695" x1="24.7696" y1="41.919" x2="24.7696" y2="46.0692" gradientUnits="userSpaceOnUse">
<stop stop-color="#DBD5EF" stop-opacity="0"/>
<stop offset="0.29" stop-color="#D9D2EE" stop-opacity="0.28"/>
<stop offset="0.47" stop-color="#D4C9E9" stop-opacity="0.47"/>
<stop offset="0.63" stop-color="#CBBAE2" stop-opacity="0.63"/>
<stop offset="0.78" stop-color="#BFA5D7" stop-opacity="0.78"/>
<stop offset="0.91" stop-color="#AF8ACA" stop-opacity="0.91"/>
<stop offset="1" stop-color="#A274BF"/>
</linearGradient>
<linearGradient id="paint33_linear_165_10695" x1="31.2937" y1="27.6575" x2="42.0975" y2="45.6619" gradientUnits="userSpaceOnUse">
<stop stop-color="#DBD5EF" stop-opacity="0"/>
<stop offset="0.29" stop-color="#D9D2EE" stop-opacity="0.28"/>
<stop offset="0.47" stop-color="#D4C9E9" stop-opacity="0.47"/>
<stop offset="0.63" stop-color="#CBBAE2" stop-opacity="0.63"/>
<stop offset="0.78" stop-color="#BFA5D7" stop-opacity="0.78"/>
<stop offset="0.91" stop-color="#AF8ACA" stop-opacity="0.91"/>
<stop offset="1" stop-color="#A274BF"/>
</linearGradient>
<linearGradient id="paint34_linear_165_10695" x1="39.3018" y1="41.9385" x2="45.1155" y2="41.9385" gradientUnits="userSpaceOnUse">
<stop stop-color="#DBD5EF" stop-opacity="0"/>
<stop offset="0.29" stop-color="#D9D2EE" stop-opacity="0.28"/>
<stop offset="0.47" stop-color="#D4C9E9" stop-opacity="0.47"/>
<stop offset="0.63" stop-color="#CBBAE2" stop-opacity="0.63"/>
<stop offset="0.78" stop-color="#BFA5D7" stop-opacity="0.78"/>
<stop offset="0.91" stop-color="#AF8ACA" stop-opacity="0.91"/>
<stop offset="1" stop-color="#A274BF"/>
</linearGradient>
<linearGradient id="paint35_linear_165_10695" x1="38.9228" y1="41.919" x2="38.9228" y2="46.0692" gradientUnits="userSpaceOnUse">
<stop stop-color="#DBD5EF" stop-opacity="0"/>
<stop offset="0.29" stop-color="#D9D2EE" stop-opacity="0.28"/>
<stop offset="0.47" stop-color="#D4C9E9" stop-opacity="0.47"/>
<stop offset="0.63" stop-color="#CBBAE2" stop-opacity="0.63"/>
<stop offset="0.78" stop-color="#BFA5D7" stop-opacity="0.78"/>
<stop offset="0.91" stop-color="#AF8ACA" stop-opacity="0.91"/>
<stop offset="1" stop-color="#A274BF"/>
</linearGradient>
<linearGradient id="paint36_linear_165_10695" x1="45.4467" y1="27.6585" x2="56.2505" y2="45.6629" gradientUnits="userSpaceOnUse">
<stop stop-color="#DBD5EF" stop-opacity="0"/>
<stop offset="0.29" stop-color="#D9D2EE" stop-opacity="0.28"/>
<stop offset="0.47" stop-color="#D4C9E9" stop-opacity="0.47"/>
<stop offset="0.63" stop-color="#CBBAE2" stop-opacity="0.63"/>
<stop offset="0.78" stop-color="#BFA5D7" stop-opacity="0.78"/>
<stop offset="0.91" stop-color="#AF8ACA" stop-opacity="0.91"/>
<stop offset="1" stop-color="#A274BF"/>
</linearGradient>
<linearGradient id="paint37_linear_165_10695" x1="59.5998" y1="27.6575" x2="70.4036" y2="45.6619" gradientUnits="userSpaceOnUse">
<stop stop-color="#DBD5EF" stop-opacity="0"/>
<stop offset="0.29" stop-color="#D9D2EE" stop-opacity="0.28"/>
<stop offset="0.47" stop-color="#D4C9E9" stop-opacity="0.47"/>
<stop offset="0.63" stop-color="#CBBAE2" stop-opacity="0.63"/>
<stop offset="0.78" stop-color="#BFA5D7" stop-opacity="0.78"/>
<stop offset="0.91" stop-color="#AF8ACA" stop-opacity="0.91"/>
<stop offset="1" stop-color="#A274BF"/>
</linearGradient>
<linearGradient id="paint38_linear_165_10695" x1="67.6079" y1="41.9385" x2="73.4215" y2="41.9385" gradientUnits="userSpaceOnUse">
<stop stop-color="#DBD5EF" stop-opacity="0"/>
<stop offset="0.29" stop-color="#D9D2EE" stop-opacity="0.28"/>
<stop offset="0.47" stop-color="#D4C9E9" stop-opacity="0.47"/>
<stop offset="0.63" stop-color="#CBBAE2" stop-opacity="0.63"/>
<stop offset="0.78" stop-color="#BFA5D7" stop-opacity="0.78"/>
<stop offset="0.91" stop-color="#AF8ACA" stop-opacity="0.91"/>
<stop offset="1" stop-color="#A274BF"/>
</linearGradient>
<linearGradient id="paint39_linear_165_10695" x1="67.2274" y1="41.919" x2="67.2274" y2="46.0692" gradientUnits="userSpaceOnUse">
<stop stop-color="#DBD5EF" stop-opacity="0"/>
<stop offset="0.29" stop-color="#D9D2EE" stop-opacity="0.28"/>
<stop offset="0.47" stop-color="#D4C9E9" stop-opacity="0.47"/>
<stop offset="0.63" stop-color="#CBBAE2" stop-opacity="0.63"/>
<stop offset="0.78" stop-color="#BFA5D7" stop-opacity="0.78"/>
<stop offset="0.91" stop-color="#AF8ACA" stop-opacity="0.91"/>
<stop offset="1" stop-color="#A274BF"/>
</linearGradient>
<linearGradient id="paint40_linear_165_10695" x1="17.1407" y1="39.1056" x2="27.9444" y2="57.1086" gradientUnits="userSpaceOnUse">
<stop stop-color="#DBD5EF" stop-opacity="0"/>
<stop offset="0.29" stop-color="#D9D2EE" stop-opacity="0.28"/>
<stop offset="0.47" stop-color="#D4C9E9" stop-opacity="0.47"/>
<stop offset="0.63" stop-color="#CBBAE2" stop-opacity="0.63"/>
<stop offset="0.78" stop-color="#BFA5D7" stop-opacity="0.78"/>
<stop offset="0.91" stop-color="#AF8ACA" stop-opacity="0.91"/>
<stop offset="1" stop-color="#A274BF"/>
</linearGradient>
<linearGradient id="paint41_linear_165_10695" x1="25.1488" y1="53.3863" x2="30.9624" y2="53.3863" gradientUnits="userSpaceOnUse">
<stop stop-color="#DBD5EF" stop-opacity="0"/>
<stop offset="0.29" stop-color="#D9D2EE" stop-opacity="0.28"/>
<stop offset="0.47" stop-color="#D4C9E9" stop-opacity="0.47"/>
<stop offset="0.63" stop-color="#CBBAE2" stop-opacity="0.63"/>
<stop offset="0.78" stop-color="#BFA5D7" stop-opacity="0.78"/>
<stop offset="0.91" stop-color="#AF8ACA" stop-opacity="0.91"/>
<stop offset="1" stop-color="#A274BF"/>
</linearGradient>
<linearGradient id="paint42_linear_165_10695" x1="24.7696" y1="53.3686" x2="24.7696" y2="57.5175" gradientUnits="userSpaceOnUse">
<stop stop-color="#DBD5EF" stop-opacity="0"/>
<stop offset="0.29" stop-color="#D9D2EE" stop-opacity="0.28"/>
<stop offset="0.47" stop-color="#D4C9E9" stop-opacity="0.47"/>
<stop offset="0.63" stop-color="#CBBAE2" stop-opacity="0.63"/>
<stop offset="0.78" stop-color="#BFA5D7" stop-opacity="0.78"/>
<stop offset="0.91" stop-color="#AF8ACA" stop-opacity="0.91"/>
<stop offset="1" stop-color="#A274BF"/>
</linearGradient>
<linearGradient id="paint43_linear_165_10695" x1="31.2939" y1="39.1056" x2="42.0976" y2="57.1086" gradientUnits="userSpaceOnUse">
<stop stop-color="#DBD5EF" stop-opacity="0"/>
<stop offset="0.29" stop-color="#D9D2EE" stop-opacity="0.28"/>
<stop offset="0.47" stop-color="#D4C9E9" stop-opacity="0.47"/>
<stop offset="0.63" stop-color="#CBBAE2" stop-opacity="0.63"/>
<stop offset="0.78" stop-color="#BFA5D7" stop-opacity="0.78"/>
<stop offset="0.91" stop-color="#AF8ACA" stop-opacity="0.91"/>
<stop offset="1" stop-color="#A274BF"/>
</linearGradient>
<linearGradient id="paint44_linear_165_10695" x1="39.3018" y1="53.3863" x2="45.1155" y2="53.3863" gradientUnits="userSpaceOnUse">
<stop stop-color="#DBD5EF" stop-opacity="0"/>
<stop offset="0.29" stop-color="#D9D2EE" stop-opacity="0.28"/>
<stop offset="0.47" stop-color="#D4C9E9" stop-opacity="0.47"/>
<stop offset="0.63" stop-color="#CBBAE2" stop-opacity="0.63"/>
<stop offset="0.78" stop-color="#BFA5D7" stop-opacity="0.78"/>
<stop offset="0.91" stop-color="#AF8ACA" stop-opacity="0.91"/>
<stop offset="1" stop-color="#A274BF"/>
</linearGradient>
<linearGradient id="paint45_linear_165_10695" x1="38.9228" y1="53.3686" x2="38.9228" y2="57.5175" gradientUnits="userSpaceOnUse">
<stop stop-color="#DBD5EF" stop-opacity="0"/>
<stop offset="0.29" stop-color="#D9D2EE" stop-opacity="0.28"/>
<stop offset="0.47" stop-color="#D4C9E9" stop-opacity="0.47"/>
<stop offset="0.63" stop-color="#CBBAE2" stop-opacity="0.63"/>
<stop offset="0.78" stop-color="#BFA5D7" stop-opacity="0.78"/>
<stop offset="0.91" stop-color="#AF8ACA" stop-opacity="0.91"/>
<stop offset="1" stop-color="#A274BF"/>
</linearGradient>
<linearGradient id="paint46_linear_165_10695" x1="45.4467" y1="39.1056" x2="56.2504" y2="57.1086" gradientUnits="userSpaceOnUse">
<stop stop-color="#DBD5EF" stop-opacity="0"/>
<stop offset="0.29" stop-color="#D9D2EE" stop-opacity="0.28"/>
<stop offset="0.47" stop-color="#D4C9E9" stop-opacity="0.47"/>
<stop offset="0.63" stop-color="#CBBAE2" stop-opacity="0.63"/>
<stop offset="0.78" stop-color="#BFA5D7" stop-opacity="0.78"/>
<stop offset="0.91" stop-color="#AF8ACA" stop-opacity="0.91"/>
<stop offset="1" stop-color="#A274BF"/>
</linearGradient>
<linearGradient id="paint47_linear_165_10695" x1="53.4547" y1="53.3863" x2="59.2683" y2="53.3863" gradientUnits="userSpaceOnUse">
<stop stop-color="#DBD5EF" stop-opacity="0"/>
<stop offset="0.29" stop-color="#D9D2EE" stop-opacity="0.28"/>
<stop offset="0.47" stop-color="#D4C9E9" stop-opacity="0.47"/>
<stop offset="0.63" stop-color="#CBBAE2" stop-opacity="0.63"/>
<stop offset="0.78" stop-color="#BFA5D7" stop-opacity="0.78"/>
<stop offset="0.91" stop-color="#AF8ACA" stop-opacity="0.91"/>
<stop offset="1" stop-color="#A274BF"/>
</linearGradient>
<linearGradient id="paint48_linear_165_10695" x1="53.0756" y1="53.3686" x2="53.0756" y2="57.5175" gradientUnits="userSpaceOnUse">
<stop stop-color="#DBD5EF" stop-opacity="0"/>
<stop offset="0.29" stop-color="#D9D2EE" stop-opacity="0.28"/>
<stop offset="0.47" stop-color="#D4C9E9" stop-opacity="0.47"/>
<stop offset="0.63" stop-color="#CBBAE2" stop-opacity="0.63"/>
<stop offset="0.78" stop-color="#BFA5D7" stop-opacity="0.78"/>
<stop offset="0.91" stop-color="#AF8ACA" stop-opacity="0.91"/>
<stop offset="1" stop-color="#A274BF"/>
</linearGradient>
<linearGradient id="paint49_linear_165_10695" x1="59.5999" y1="39.1056" x2="70.4036" y2="57.1086" gradientUnits="userSpaceOnUse">
<stop stop-color="#DBD5EF" stop-opacity="0"/>
<stop offset="0.29" stop-color="#D9D2EE" stop-opacity="0.28"/>
<stop offset="0.47" stop-color="#D4C9E9" stop-opacity="0.47"/>
<stop offset="0.63" stop-color="#CBBAE2" stop-opacity="0.63"/>
<stop offset="0.78" stop-color="#BFA5D7" stop-opacity="0.78"/>
<stop offset="0.91" stop-color="#AF8ACA" stop-opacity="0.91"/>
<stop offset="1" stop-color="#A274BF"/>
</linearGradient>
<linearGradient id="paint50_linear_165_10695" x1="67.6079" y1="53.3863" x2="73.4215" y2="53.3863" gradientUnits="userSpaceOnUse">
<stop stop-color="#DBD5EF" stop-opacity="0"/>
<stop offset="0.29" stop-color="#D9D2EE" stop-opacity="0.28"/>
<stop offset="0.47" stop-color="#D4C9E9" stop-opacity="0.47"/>
<stop offset="0.63" stop-color="#CBBAE2" stop-opacity="0.63"/>
<stop offset="0.78" stop-color="#BFA5D7" stop-opacity="0.78"/>
<stop offset="0.91" stop-color="#AF8ACA" stop-opacity="0.91"/>
<stop offset="1" stop-color="#A274BF"/>
</linearGradient>
<linearGradient id="paint51_linear_165_10695" x1="67.2274" y1="53.3686" x2="67.2274" y2="57.5175" gradientUnits="userSpaceOnUse">
<stop stop-color="#DBD5EF" stop-opacity="0"/>
<stop offset="0.29" stop-color="#D9D2EE" stop-opacity="0.28"/>
<stop offset="0.47" stop-color="#D4C9E9" stop-opacity="0.47"/>
<stop offset="0.63" stop-color="#CBBAE2" stop-opacity="0.63"/>
<stop offset="0.78" stop-color="#BFA5D7" stop-opacity="0.78"/>
<stop offset="0.91" stop-color="#AF8ACA" stop-opacity="0.91"/>
<stop offset="1" stop-color="#A274BF"/>
</linearGradient>
<linearGradient id="paint52_linear_165_10695" x1="17.1404" y1="50.5535" x2="27.9442" y2="68.5564" gradientUnits="userSpaceOnUse">
<stop stop-color="#DBD5EF" stop-opacity="0"/>
<stop offset="0.29" stop-color="#D9D2EE" stop-opacity="0.28"/>
<stop offset="0.47" stop-color="#D4C9E9" stop-opacity="0.47"/>
<stop offset="0.63" stop-color="#CBBAE2" stop-opacity="0.63"/>
<stop offset="0.78" stop-color="#BFA5D7" stop-opacity="0.78"/>
<stop offset="0.91" stop-color="#AF8ACA" stop-opacity="0.91"/>
<stop offset="1" stop-color="#A274BF"/>
</linearGradient>
<linearGradient id="paint53_linear_165_10695" x1="25.1488" y1="64.835" x2="30.9624" y2="64.835" gradientUnits="userSpaceOnUse">
<stop stop-color="#DBD5EF" stop-opacity="0"/>
<stop offset="0.29" stop-color="#D9D2EE" stop-opacity="0.28"/>
<stop offset="0.47" stop-color="#D4C9E9" stop-opacity="0.47"/>
<stop offset="0.63" stop-color="#CBBAE2" stop-opacity="0.63"/>
<stop offset="0.78" stop-color="#BFA5D7" stop-opacity="0.78"/>
<stop offset="0.91" stop-color="#AF8ACA" stop-opacity="0.91"/>
<stop offset="1" stop-color="#A274BF"/>
</linearGradient>
<linearGradient id="paint54_linear_165_10695" x1="24.7696" y1="64.8149" x2="24.7696" y2="68.9651" gradientUnits="userSpaceOnUse">
<stop stop-color="#DBD5EF" stop-opacity="0"/>
<stop offset="0.29" stop-color="#D9D2EE" stop-opacity="0.28"/>
<stop offset="0.47" stop-color="#D4C9E9" stop-opacity="0.47"/>
<stop offset="0.63" stop-color="#CBBAE2" stop-opacity="0.63"/>
<stop offset="0.78" stop-color="#BFA5D7" stop-opacity="0.78"/>
<stop offset="0.91" stop-color="#AF8ACA" stop-opacity="0.91"/>
<stop offset="1" stop-color="#A274BF"/>
</linearGradient>
<linearGradient id="paint55_linear_165_10695" x1="31.2937" y1="50.5535" x2="42.0975" y2="68.5564" gradientUnits="userSpaceOnUse">
<stop stop-color="#FFA1AE"/>
<stop offset="1" stop-color="#FF4565"/>
</linearGradient>
<linearGradient id="paint56_linear_165_10695" x1="39.3018" y1="64.835" x2="45.1155" y2="64.835" gradientUnits="userSpaceOnUse">
<stop stop-color="#FE0364" stop-opacity="0"/>
<stop offset="0.23" stop-color="#F90362" stop-opacity="0.23"/>
<stop offset="0.52" stop-color="#EA035B" stop-opacity="0.52"/>
<stop offset="0.82" stop-color="#D20250" stop-opacity="0.82"/>
<stop offset="1" stop-color="#C00148"/>
</linearGradient>
<linearGradient id="paint57_linear_165_10695" x1="38.9228" y1="64.8149" x2="38.9228" y2="68.9651" gradientUnits="userSpaceOnUse">
<stop stop-color="#FE0364" stop-opacity="0"/>
<stop offset="0.23" stop-color="#F90362" stop-opacity="0.23"/>
<stop offset="0.52" stop-color="#EA035B" stop-opacity="0.52"/>
<stop offset="0.82" stop-color="#D20250" stop-opacity="0.82"/>
<stop offset="1" stop-color="#C00148"/>
</linearGradient>
<linearGradient id="paint58_linear_165_10695" x1="45.4467" y1="50.5535" x2="56.2504" y2="68.5564" gradientUnits="userSpaceOnUse">
<stop stop-color="#DBD5EF" stop-opacity="0"/>
<stop offset="0.29" stop-color="#D9D2EE" stop-opacity="0.28"/>
<stop offset="0.47" stop-color="#D4C9E9" stop-opacity="0.47"/>
<stop offset="0.63" stop-color="#CBBAE2" stop-opacity="0.63"/>
<stop offset="0.78" stop-color="#BFA5D7" stop-opacity="0.78"/>
<stop offset="0.91" stop-color="#AF8ACA" stop-opacity="0.91"/>
<stop offset="1" stop-color="#A274BF"/>
</linearGradient>
<linearGradient id="paint59_linear_165_10695" x1="53.4547" y1="64.835" x2="59.2683" y2="64.835" gradientUnits="userSpaceOnUse">
<stop stop-color="#DBD5EF" stop-opacity="0"/>
<stop offset="0.29" stop-color="#D9D2EE" stop-opacity="0.28"/>
<stop offset="0.47" stop-color="#D4C9E9" stop-opacity="0.47"/>
<stop offset="0.63" stop-color="#CBBAE2" stop-opacity="0.63"/>
<stop offset="0.78" stop-color="#BFA5D7" stop-opacity="0.78"/>
<stop offset="0.91" stop-color="#AF8ACA" stop-opacity="0.91"/>
<stop offset="1" stop-color="#A274BF"/>
</linearGradient>
<linearGradient id="paint60_linear_165_10695" x1="53.0756" y1="64.8149" x2="53.0756" y2="68.9651" gradientUnits="userSpaceOnUse">
<stop stop-color="#DBD5EF" stop-opacity="0"/>
<stop offset="0.29" stop-color="#D9D2EE" stop-opacity="0.28"/>
<stop offset="0.47" stop-color="#D4C9E9" stop-opacity="0.47"/>
<stop offset="0.63" stop-color="#CBBAE2" stop-opacity="0.63"/>
<stop offset="0.78" stop-color="#BFA5D7" stop-opacity="0.78"/>
<stop offset="0.91" stop-color="#AF8ACA" stop-opacity="0.91"/>
<stop offset="1" stop-color="#A274BF"/>
</linearGradient>
<linearGradient id="paint61_linear_165_10695" x1="59.5998" y1="50.5535" x2="70.4035" y2="68.5564" gradientUnits="userSpaceOnUse">
<stop stop-color="#DBD5EF" stop-opacity="0"/>
<stop offset="0.29" stop-color="#D9D2EE" stop-opacity="0.28"/>
<stop offset="0.47" stop-color="#D4C9E9" stop-opacity="0.47"/>
<stop offset="0.63" stop-color="#CBBAE2" stop-opacity="0.63"/>
<stop offset="0.78" stop-color="#BFA5D7" stop-opacity="0.78"/>
<stop offset="0.91" stop-color="#AF8ACA" stop-opacity="0.91"/>
<stop offset="1" stop-color="#A274BF"/>
</linearGradient>
<linearGradient id="paint62_linear_165_10695" x1="67.6079" y1="64.835" x2="73.4215" y2="64.835" gradientUnits="userSpaceOnUse">
<stop stop-color="#DBD5EF" stop-opacity="0"/>
<stop offset="0.29" stop-color="#D9D2EE" stop-opacity="0.28"/>
<stop offset="0.47" stop-color="#D4C9E9" stop-opacity="0.47"/>
<stop offset="0.63" stop-color="#CBBAE2" stop-opacity="0.63"/>
<stop offset="0.78" stop-color="#BFA5D7" stop-opacity="0.78"/>
<stop offset="0.91" stop-color="#AF8ACA" stop-opacity="0.91"/>
<stop offset="1" stop-color="#A274BF"/>
</linearGradient>
<linearGradient id="paint63_linear_165_10695" x1="67.2274" y1="64.8149" x2="67.2274" y2="68.9651" gradientUnits="userSpaceOnUse">
<stop stop-color="#DBD5EF" stop-opacity="0"/>
<stop offset="0.29" stop-color="#D9D2EE" stop-opacity="0.28"/>
<stop offset="0.47" stop-color="#D4C9E9" stop-opacity="0.47"/>
<stop offset="0.63" stop-color="#CBBAE2" stop-opacity="0.63"/>
<stop offset="0.78" stop-color="#BFA5D7" stop-opacity="0.78"/>
<stop offset="0.91" stop-color="#AF8ACA" stop-opacity="0.91"/>
<stop offset="1" stop-color="#A274BF"/>
</linearGradient>
<linearGradient id="paint64_linear_165_10695" x1="45.9986" y1="12.0028" x2="45.9986" y2="80" gradientUnits="userSpaceOnUse">
<stop stop-color="#FF9900"/>
<stop offset="0.553852" stop-color="#0088FF"/>
</linearGradient>
</defs>
</svg>
