<svg width="161" height="149" viewBox="0 0 161 149" fill="none" xmlns="http://www.w3.org/2000/svg">
<ellipse cx="75.7133" cy="145" rx="47.5" ry="4" fill="#167BDF"/>
<g clip-path="url(#clip0_131_991)">
<path d="M123.122 80.6566C137.664 79.4668 153.227 72.8671 152.059 56.9307C151.187 45.0337 136.292 40.9439 130.816 46.6469C131.531 44.1937 132.176 41.7788 132.764 39.4429C134.26 33.5002 116.917 24.0094 94.0242 18.2459C71.1318 12.4824 51.3619 12.6274 49.8653 18.5719C49.2555 20.994 48.659 23.52 48.1108 26.1176C46.3208 18.2852 30.9381 14.6011 24.4494 24.8048C15.874 38.2899 26.4571 51.4724 38.7029 59.4047C43.7378 62.6674 41.2043 66.1922 37.7746 67.7569C34.9448 69.0467 29.0483 68.4231 30.8576 72.2972C33.9105 78.8317 44.3918 80.4748 47.2023 74.5465C48.243 72.3498 48.7583 70.3245 48.7469 68.0408C51.4361 74.7731 55.992 80.6579 63.2074 84.9459C68.5869 89.2047 68.1008 92.6878 67.603 94.6654C67.0021 97.052 62.1219 98.2174 59.7166 100.798C56.3302 100.688 53.7455 101.055 52.4724 101.895C51.3073 102.52 44.1889 108.894 43.0599 113.378C42.1442 117.015 52.7757 122.826 66.8052 126.358C80.8347 129.891 92.9506 129.806 93.8663 126.169C94.9953 121.685 91.7433 112.701 91.0131 111.599C90.2897 110.255 88.1867 108.709 85.1518 107.202C84.2555 103.79 80.5089 100.452 81.1098 98.0659C81.6076 96.0884 82.8288 92.7904 89.5836 91.5865C97.8279 91.2321 104.538 88.3024 110.044 83.7787C109.051 85.6982 108.584 87.653 108.467 89.9708C108.133 96.5226 118.143 100.04 123.928 95.729C127.356 93.1735 121.867 90.9307 119.985 88.4547C117.706 85.4525 117.143 81.1483 123.123 80.6587L123.122 80.6566ZM35.8278 34.6648C38.7098 31.6573 46.2692 32.8343 45.8152 40.8764C45.3241 46.2957 45.2795 51.7502 45.9585 56.9735C42.1791 49.7708 29.775 40.9791 35.8282 34.6631L35.8278 34.6648ZM118.191 74.8787C121.447 70.2938 124.103 65.0979 126.305 59.7282C129.908 53.9923 136.324 56.4649 137.37 60.2295C139.676 68.5316 125.071 70.4711 118.193 74.8791L118.191 74.8787Z" fill="url(#paint0_linear_131_991)"/>
<path d="M66.4228 127.878C59.5125 126.138 53.1752 123.797 48.5777 121.282C43.2565 118.373 40.8905 115.585 41.5428 112.994C42.8245 107.903 50.1835 101.436 51.6588 100.554C51.8704 100.419 52.101 100.294 52.3543 100.178L52.6799 100.003L52.7094 100.028C54.2085 99.4439 56.3484 99.1703 59.0955 99.213C60.243 98.1665 61.6721 97.3616 62.9509 96.6411C64.2694 95.8983 65.9118 94.9727 66.0859 94.2814C66.4288 92.9191 67.1399 90.0948 62.3155 86.2381C56.8171 82.9504 52.5085 78.5621 49.4586 73.1553C49.2273 73.8322 48.9453 74.5179 48.6151 75.2166C47.2599 78.0783 44.2757 79.7821 40.6335 79.7764C35.9128 79.767 31.3101 76.9672 29.4403 72.9628C28.8458 71.6916 28.7952 70.5537 29.2883 69.5851C30.1665 67.8561 32.3439 67.4337 34.45 67.0239C35.4399 66.831 36.4632 66.6339 37.1282 66.3287C38.7567 65.5866 39.8994 64.431 39.9712 63.4551C40.0551 62.3241 38.6794 61.2571 37.8531 60.7219C30.7998 56.1531 25.3048 50.5369 22.3799 44.9117C18.6818 37.7924 18.942 30.5481 23.1307 23.9604C27.12 17.6873 33.9344 16.3816 38.9801 17.2511C42.5429 17.8641 45.5535 19.4812 47.4956 21.6884C47.7613 20.5547 48.0448 19.3931 48.3482 18.188C49.2895 14.4492 54.5257 12.5179 63.9121 12.4493C72.381 12.3851 83.211 13.9039 94.4077 16.7228C105.604 19.5417 115.862 23.3322 123.292 27.3972C131.527 31.9022 135.224 36.0827 134.283 39.8215C133.988 40.9928 133.695 42.1197 133.402 43.2141C136.244 42.2079 139.752 42.2769 143.225 43.5306C145.97 44.5218 148.372 46.1636 150.167 48.2798C152.193 50.6663 153.387 53.6162 153.621 56.8114C154.191 64.5972 150.99 71.1011 144.36 75.6184C139.12 79.1897 131.621 81.5327 123.245 82.217C122.262 82.2967 120.546 82.5872 120.085 83.6214C119.686 84.5149 120.146 86.0738 121.229 87.4986C121.672 88.0811 122.479 88.7409 123.258 89.3792C124.92 90.7357 126.636 92.1383 126.592 94.0791C126.567 95.1675 125.984 96.1441 124.859 96.9822C121.316 99.6221 115.936 99.9103 111.773 97.6833C108.562 95.9654 106.741 93.05 106.903 89.8877C106.94 89.1637 107.009 88.4732 107.112 87.8105C101.907 91.0636 96.0887 92.8556 89.7544 93.1444C83.6794 94.2553 82.9679 97.0813 82.6249 98.4436C82.4509 99.1349 83.458 100.726 84.2688 102.006C85.0552 103.249 85.9316 104.632 86.4467 106.097C89.5286 107.695 91.516 109.273 92.3617 110.8C93.245 112.277 96.6628 121.457 95.3811 126.548C94.7287 129.139 91.3227 130.475 85.2602 130.517C80.0206 130.553 73.3296 129.617 66.4194 127.877L66.4228 127.878ZM52.8544 103.519C51.0828 104.851 45.461 110.251 44.578 113.758C44.4768 114.16 45.2705 115.9 50.0795 118.529C54.452 120.919 60.5281 123.158 67.1887 124.835C73.8494 126.512 80.2616 127.417 85.2443 127.382C90.7248 127.344 92.2479 126.187 92.3492 125.785C93.3058 121.985 90.4169 113.596 89.7062 112.459L89.6352 112.342C89.4335 111.968 88.4665 110.596 84.4545 108.604L83.8171 108.288L83.6355 107.598C83.3072 106.346 82.4514 104.994 81.6255 103.688C80.3208 101.627 79.088 99.6794 79.5914 97.6799C80.2599 95.0245 81.9957 91.342 89.31 90.0382L89.4134 90.0193L89.5184 90.0152C96.8436 89.7008 103.416 87.1927 109.052 82.5618L113.286 79.0825L116.915 73.9713C119.832 69.8637 122.503 64.8728 124.855 59.1347L124.906 59.0092L124.978 58.8943C126.881 55.865 129.762 54.3884 132.88 54.8429C135.714 55.256 138.178 57.2964 138.875 59.8083C139.78 63.0702 138.659 65.9135 135.543 68.2601C133.081 70.115 129.639 71.4933 126.309 72.8245C123.553 73.928 120.951 74.9695 119.029 76.2003L114.077 79.3733L111.431 84.4944C110.571 86.1579 110.138 87.8714 110.026 90.045C109.886 92.81 112.232 94.3731 113.248 94.9165C115.81 96.2875 119.951 96.7317 122.991 94.4666C123.333 94.2112 123.434 94.0461 123.458 94C123.366 93.5185 121.958 92.3698 121.277 91.8137C120.355 91.0603 119.402 90.2811 118.735 89.4033C116.898 86.9853 116.334 84.3485 117.225 82.3477C117.811 81.0305 119.29 79.3951 122.992 79.0924C130.837 78.4505 137.8 76.2963 142.599 73.0272C148.328 69.1226 150.986 63.7453 150.495 57.0472C150.14 52.1894 147.023 48.2412 142.157 46.4843C138.151 45.039 134.046 45.5404 131.942 47.7317L127.526 52.3301L129.311 46.2067C129.968 43.953 130.6 41.6154 131.244 39.0582C131.625 37.5454 129.376 34.3049 121.786 30.1509C114.582 26.2091 104.585 22.5204 93.6383 19.7643C82.6913 17.0083 72.1396 15.5236 63.9279 15.5842C55.2763 15.6474 51.7614 17.4369 51.3801 18.9513C50.7107 21.61 50.1409 24.0583 49.6405 26.4378L48.1707 33.4081L46.5833 26.4661C45.9107 23.5253 42.6409 21.0647 38.4444 20.3407C33.1921 19.4371 28.4543 21.4184 25.7678 25.6434C22.1641 31.3108 21.9568 37.3049 25.156 43.4574C27.834 48.6106 32.9473 53.8054 39.5537 58.0838C42.6709 60.1034 43.1993 62.2422 43.0915 63.6817C42.9294 65.8642 41.1832 67.9211 38.4202 69.181C37.4157 69.6381 36.2072 69.873 35.04 70.1004C34.1767 70.2676 32.393 70.6148 32.0842 70.9936C32.0833 71.0473 32.0938 71.2404 32.2747 71.6257C33.8792 75.06 37.7373 76.6298 40.6426 76.6351C41.7949 76.6377 44.6017 76.372 45.7874 73.8702C46.7596 71.818 47.1904 70.0212 47.1809 68.0436L47.1557 62.6308L44.5713 57.7043C43.486 55.6337 41.5988 53.3792 39.5997 50.9923C37.2978 48.2415 34.9188 45.3977 33.6276 42.5995C31.9946 39.0574 32.3552 36.0226 34.6974 33.5783C36.6383 31.5525 39.9544 30.9945 42.763 32.2174C44.261 32.8695 47.7103 35.0302 47.3749 40.9633L47.3706 41.0161C46.8488 46.7639 46.8953 52.0634 47.507 56.77L48.268 62.6215L50.1972 67.4514C52.956 74.3558 57.6011 79.7867 64.0039 83.5915L64.0945 83.6449L64.1766 83.7105C70.0032 88.3227 69.7888 92.3865 69.1198 95.0435C68.6164 97.043 66.6083 98.1748 64.4832 99.3724C63.1372 100.132 61.7436 100.917 60.8612 101.865L60.375 102.386L59.6634 102.363C55.1868 102.217 53.6853 102.968 53.3304 103.202L52.8506 103.52L52.8544 103.519ZM40.8262 34.8607C39.3996 34.5016 37.8319 34.8384 36.9568 35.7504C33.9656 38.8706 37.0128 43.0132 42.0025 48.9767C42.6491 49.7488 43.3024 50.5297 43.9321 51.312C43.8125 47.9909 43.9207 44.463 44.2545 40.7654C44.4067 37.946 43.4343 35.9326 41.5149 35.0952C41.2919 34.9978 41.0605 34.9197 40.8262 34.8607ZM127.698 60.4544C126.121 64.2846 124.402 67.8006 122.56 70.9656C123.418 70.6065 124.291 70.2566 125.154 69.9114C132.373 67.0216 137.018 64.8174 135.861 60.6511C135.492 59.3197 134.046 58.1828 132.429 57.9465C130.599 57.6799 128.924 58.5703 127.698 60.4544Z" fill="url(#paint1_linear_131_991)"/>
<path d="M48.1117 26.114C46.3216 18.2817 30.9389 14.5975 24.4502 24.8012C15.8748 38.2863 26.458 51.4689 38.7037 59.4011C43.7386 62.6638 41.2051 66.1886 37.7754 67.7533C34.9457 69.0431 29.0491 68.4195 30.8585 72.2936C33.9113 78.8281 44.3926 80.4712 47.2031 74.543C49.4461 69.8073 49.2495 65.8665 46.6027 58.4242C43.956 50.9819 29.3611 41.4121 35.8278 34.6646C38.7099 31.6571 46.2742 32.8354 45.8152 40.8834C45.4945 46.5092 55.6696 39.9242 55.6696 39.9242L48.1121 26.1123L48.1117 26.114Z" fill="url(#paint2_linear_131_991)"/>
<path d="M45.8148 40.8853C45.6796 43.2597 47.4136 43.4591 49.4652 42.8954L47.4192 41.1077C50.1426 27.0714 36.5271 20.2213 30.8298 26.5622C25.1325 32.9032 26.8088 41.2371 32.789 47.7393C38.0315 53.4393 43.7765 59.0663 45.0511 62.1803C47.3706 67.8454 43.2365 73.4403 38.696 73.7477C35.0457 73.9951 32.3495 73.0809 30.623 70.4301C30.4419 70.9003 30.4907 71.5039 30.8606 72.2926C33.9134 78.8271 44.3948 80.4702 47.2052 74.542C49.4483 69.8063 49.2516 65.8656 46.6048 58.4232C43.9581 50.9809 29.3632 41.4111 35.8299 34.6636C38.712 31.6561 46.2764 32.8344 45.8173 40.8824L45.8148 40.8853Z" fill="url(#paint3_linear_131_991)" fill-opacity="0.6"/>
<path d="M91.0139 111.595C89.4432 112.165 83.8787 113.163 78.9829 113.978L79.3858 112.377L61.0227 107.754L60.7652 108.776C57.171 105.981 53.4759 103.016 52.4732 101.892C51.3081 102.517 44.1897 108.89 43.0608 113.374C42.145 117.011 52.7766 122.823 66.8061 126.355C80.8356 129.887 92.9514 129.803 93.8672 126.165C94.9961 121.681 91.7441 112.697 91.0139 111.595Z" fill="url(#paint4_linear_131_991)"/>
<path d="M91.2476 112.917C90.534 115.751 83.6407 117.634 69.8742 114.168C56.1077 110.702 50.9276 105.78 51.6412 102.945C52.3548 100.111 61.5219 101.148 72.4589 103.902C83.3958 106.655 91.9612 110.082 91.2476 112.917Z" fill="#FFBA13"/>
<path d="M70.1521 113.065C81.0891 115.818 90.5339 115.752 91.2476 112.917C91.9614 110.082 83.6738 105.552 72.7368 102.798C61.7998 100.045 52.355 100.111 51.6412 102.946C50.9275 105.781 59.2151 110.311 70.1521 113.065Z" fill="url(#paint5_linear_131_991)"/>
<path d="M77.2347 84.933C77.2347 84.933 57.8617 81.0944 62.172 84.1657C68.6464 88.7757 68.1315 92.5661 67.6038 94.6619C66.8608 97.613 59.5736 98.6955 58.5153 102.899C58.034 104.811 63.6203 107.863 70.9925 109.72C78.3648 111.576 84.731 111.53 85.2119 109.62C86.2702 105.417 80.3647 101.011 81.1072 98.0616C81.6349 95.9658 82.9761 92.3834 90.8617 91.3887C96.1136 90.7267 77.2313 84.9322 77.2313 84.9322L77.2347 84.933Z" fill="url(#paint6_linear_131_991)"/>
<path d="M85.1888 92.9678C86.5515 92.2702 88.3838 91.7016 90.8654 91.3882C91.2266 91.3425 91.4685 91.2722 91.6167 91.1819C91.7361 90.9783 91.715 90.7699 91.5721 90.5614C91.2148 90.2072 90.4363 89.774 89.4161 89.3032C82.4935 86.6797 62.1741 84.1647 62.1741 84.1647C64.1206 85.5498 65.4328 86.8616 66.3053 88.0752C71.0431 91.0653 78.6278 93.3523 85.1888 92.9678Z" fill="#FFBA13"/>
<path d="M44.3911 35.4082C45.3619 36.6591 45.9522 38.4595 45.8148 40.8855C45.494 46.5113 55.6692 39.9263 55.6692 39.9263L48.1117 26.1144C47.9366 25.3496 47.6312 24.6257 47.2185 23.9502C46.7901 27.3256 45.9573 31.9795 44.3911 35.4082Z" fill="#FFBA13"/>
<path d="M130.597 46.8808C135.883 40.8298 151.176 44.8689 152.06 56.9286C153.227 72.8667 137.664 79.4664 123.122 80.6544C117.142 81.144 117.705 85.4483 119.985 88.4505C121.866 90.9265 127.355 93.1693 123.927 95.7248C118.144 100.035 108.134 96.5188 108.466 89.9666C108.733 84.7334 110.772 81.3555 116.627 76.0537C122.482 70.7518 139.869 69.2338 137.368 60.2286C136.254 56.215 129.033 53.671 125.627 60.9769C123.245 66.0839 117.401 55.4659 117.401 55.4659L130.598 46.8791L130.597 46.8808Z" fill="url(#paint7_linear_131_991)"/>
<path d="M125.626 60.9792C124.621 63.1346 122.999 62.4891 121.459 61.0211L124.108 60.4154C128.355 46.7628 143.591 47.1765 145.607 55.4593C147.623 63.7421 142.2 70.2887 133.854 73.1841C126.537 75.7221 118.813 77.958 116.215 80.0972C111.49 83.9885 112.482 90.8741 116.336 93.2948C119.434 95.2412 122.241 95.7126 125.017 94.1953C124.954 94.6953 124.625 95.2038 123.926 95.7234C118.143 100.033 108.133 96.5174 108.465 89.9651C108.731 84.7319 110.771 81.3541 116.626 76.0523C122.481 70.7504 139.868 69.2324 137.367 60.2272C136.252 56.2135 129.032 53.6695 125.625 60.9754L125.626 60.9792Z" fill="url(#paint8_linear_131_991)" fill-opacity="0.6"/>
<path d="M129.474 56.8282C128.026 57.4704 126.654 58.7766 125.626 60.9784C123.245 66.0854 117.401 55.4674 117.401 55.4674L130.597 46.8807C131.114 46.2899 131.726 45.7969 132.409 45.3974C131.188 48.5733 129.718 53.0667 129.474 56.8282Z" fill="#FFBA13"/>
<path d="M144.582 55.9126C143.358 50.8827 137.26 48.7563 131.708 50.9155C137.511 48.0503 144.308 50.1192 145.608 55.461C147.507 63.2669 142.802 69.5286 135.27 72.6489C142.198 69.3999 146.394 63.3587 144.583 55.9147L144.582 55.9126Z" fill="#FFBA13"/>
<path d="M91.3152 29.0058L49.8658 18.5703C43.4951 43.8744 38.5412 80.6231 75.9487 90.041C113.356 99.4589 126.394 64.7472 132.765 39.4413L91.3152 29.0058Z" fill="url(#paint9_linear_131_991)"/>
<path d="M132.765 39.441C131.268 45.3838 114.829 47.656 88.3011 40.9772C63.4089 34.7102 48.3696 24.5127 49.8658 18.57C51.3619 12.6272 70.6994 14.1994 93.5918 19.9629C116.484 25.7264 134.261 33.4982 132.765 39.441Z" fill="#FFBA13"/>
<path d="M88.6058 39.7672C111.498 45.5306 131.268 45.3846 132.765 39.4412C134.261 33.4977 116.917 24.0075 94.0246 18.2441C71.1327 12.4807 51.3621 12.6267 49.8658 18.5702C48.3694 24.5136 65.7139 34.0039 88.6058 39.7672Z" fill="url(#paint10_linear_131_991)"/>
<path d="M90.245 33.2568C105.617 37.1269 118.676 37.8911 119.413 34.9637C120.15 32.0363 108.286 26.5259 92.914 22.6558C77.5422 18.7858 64.4834 18.0216 63.7464 20.9489C63.0094 23.8763 74.8732 29.3867 90.245 33.2568Z" fill="url(#paint11_linear_131_991)"/>
<path d="M68.2424 80.9431C67.1261 80.6621 66.2411 80.1463 65.6113 79.4072C63.2305 76.6204 64.9708 71.6666 67.3035 66.6605C64.3431 61.9736 61.978 57.2658 63.9849 54.2088C65.9745 51.1779 71.3973 51.454 76.5673 52.2002C77.9402 50.5149 79.6816 48.5053 81.4778 47.0613C83.6514 45.3152 85.5458 44.6777 87.2742 45.1129C90.8221 46.0061 92.3504 51.2599 93.3483 56.4269C96.2184 57.4766 98.2085 58.3892 99.7582 59.3635C102.091 60.8298 103.3 62.3942 103.455 64.1459C103.775 67.7871 99.4608 70.815 94.634 73.5414C94.3181 79.0552 93.5053 84.2426 90.0887 85.5698C89.1845 85.9208 88.1603 85.9578 87.044 85.6767C84.2516 84.9737 81.1892 82.3802 78.5155 79.845C74.9602 80.8119 71.0348 81.6462 68.2424 80.9431ZM70.6985 67.6123C69.5645 70.0084 67.0544 75.7337 68.255 77.1395C68.4115 77.3227 68.7023 77.4714 69.0968 77.5708C71.5183 78.1804 76.542 76.7797 78.1948 76.3187L79.4943 75.9575L80.4682 76.8893C81.7057 78.078 85.469 81.6909 87.8887 82.3001C88.2833 82.3994 88.6097 82.4061 88.8343 82.3189C89.4085 82.0968 90.7866 80.7183 91.193 72.7721L91.2089 72.4741L91.1778 71.4868L92.4261 70.7873C93.4105 70.239 95.4524 69.1013 97.1817 67.8094C99.8083 65.8448 100.021 64.8091 99.9894 64.4561C99.8277 62.6198 93.9424 60.3347 91.4174 59.4384L90.2984 59.0398L90.0471 57.6951C89.8424 56.5921 89.4156 54.299 88.7393 52.2488C87.7091 49.1262 86.7756 48.582 86.4231 48.4933C85.8195 48.3413 83.8747 48.6587 78.8745 54.8804L78.0167 55.9441L76.8184 55.7611C74.1696 55.3566 67.9026 54.5804 66.8907 56.1212C65.8847 57.6527 69.1168 63.0335 70.5531 65.2769L71.3248 66.4849L70.8294 67.3415L70.7023 67.6115L70.6985 67.6123Z" fill="url(#paint12_linear_131_991)" fill-opacity="0.3"/>
<path d="M87.2567 84.8319C84.6195 84.1679 81.5567 81.5545 78.7602 78.8734C73.7559 80.261 68.3896 81.3202 66.2722 78.8406C64.1464 76.3516 66.0882 71.267 68.2931 66.5972C65.5025 62.2262 62.9195 57.4151 64.7089 54.6879C66.475 51.9962 71.839 52.3707 76.9275 53.1341C80.1661 49.1164 83.8896 45.1597 87.0581 45.9574C90.2265 46.7551 91.6338 52.0054 92.5838 57.0777C97.4201 58.8147 102.305 61.0222 102.586 64.2221C102.871 67.4698 98.3172 70.486 93.7895 73.0145C93.5199 78.1733 92.8226 83.5713 89.7721 84.7552C89.0008 85.0553 88.1509 85.0552 87.2538 84.8293L87.2567 84.8319ZM79.2492 76.9313L79.8662 77.5217C81.5574 79.1445 86.7008 84.0844 89.1476 83.1331C91.5822 82.1878 91.9432 75.1343 92.0606 72.8165L92.0782 72.483L92.0628 71.9884L92.8496 71.5485C94.8852 70.4146 101.083 66.964 100.855 64.3796C100.627 61.7879 93.9137 59.4021 91.7086 58.6169L91.0604 58.3854L90.9003 57.5327C90.4751 55.2473 89.1821 48.2895 86.6342 47.6481C84.0863 47.0066 79.6528 52.5226 78.1962 54.3342L77.6539 55.0065L76.9494 54.8992C74.6358 54.545 67.5912 53.467 66.1645 55.6439C64.7395 57.814 68.5651 63.7863 69.8206 65.7506L70.3053 66.5107L70.0576 66.939L69.9152 67.241C68.9227 69.3385 65.8995 75.72 67.5958 77.7072C69.3022 79.704 76.1715 77.7885 78.4278 77.1595L79.2508 76.9318L79.2492 76.9313Z" fill="url(#paint13_linear_131_991)" fill-opacity="0.3"/>
<path d="M79.0049 77.9017C80.9385 79.7509 86.3686 85.1477 89.4613 83.9456C92.5541 82.7436 92.8062 75.1468 92.9475 72.4917C95.2791 71.1862 102.01 67.5929 101.721 64.3029C101.439 61.0848 94.4877 58.6823 91.8215 57.7342C91.3279 55.1152 90.0719 47.6187 86.8461 46.8065C83.6204 45.9944 78.9673 51.9979 77.2899 54.0739C74.5112 53.6511 67.2122 52.4587 65.4342 55.169C63.622 57.93 67.8486 64.2819 69.2841 66.5359C68.1509 68.943 64.7758 75.7536 66.9306 78.2768C69.0855 80.8 76.4253 78.6182 79.0024 77.9047L79.0049 77.9017Z" fill="url(#paint14_linear_131_991)"/>
<path d="M31.5179 27.4465C34.9779 23.596 41.3553 24.6103 45.2229 29.1409C41.4683 23.8695 34.5021 22.4733 30.8277 26.5628C25.4589 32.5389 26.6384 40.2822 31.7944 46.5967C27.2315 40.4549 26.3961 33.1469 31.5158 27.4478L31.5179 27.4465Z" fill="#FFBA13"/>
<path d="M39.3841 74.6319C43.9246 74.3246 48.0591 68.7279 45.7391 63.0645C45.3427 62.0966 44.5115 60.8826 43.3997 59.5009C44.1656 60.5187 44.7406 61.4256 45.0506 62.1812C47.3702 67.8463 43.236 73.4413 38.6956 73.7486C35.5397 73.9624 33.096 73.3058 31.3763 71.4116C33.1037 73.9871 35.7793 74.8764 39.3837 74.6336L39.3841 74.6319Z" fill="#FFBA13"/>
<path d="M115.27 93.7378C111.416 91.3171 110.425 84.4299 115.15 80.5402C115.957 79.8754 117.264 79.1997 118.898 78.5092C117.741 79.043 116.805 79.5695 116.175 80.0882C111.449 83.9796 112.441 90.8652 116.295 93.2858C118.973 94.9685 121.436 95.5473 123.848 94.6932C121.107 96.1437 118.329 95.6601 115.27 93.7395L115.27 93.7378Z" fill="#FFBA13"/>
<path d="M65.8272 56.3641C67.6453 53.5938 75.1046 54.8121 77.9453 55.2451C79.6574 53.124 84.4158 46.987 87.7124 47.817C88.1407 47.9248 88.5346 48.148 88.8983 48.4624C88.3223 47.6164 87.6441 47.0054 86.8466 46.8045C83.6225 45.9928 78.9677 51.9959 77.2903 54.0719C74.5116 53.6491 67.2126 52.4567 65.4346 55.167C64.7164 56.2605 64.9481 57.9185 65.5765 59.6602C65.271 58.3737 65.2745 57.2063 65.8272 56.3641Z" fill="#FFBA13"/>
</g>
<defs>
<linearGradient id="paint0_linear_131_991" x1="15.5" y1="55.9571" x2="145.192" y2="88.609" gradientUnits="userSpaceOnUse">
<stop stop-color="#FFE162"/>
<stop offset="1" stop-color="#FFE162"/>
</linearGradient>
<linearGradient id="paint1_linear_131_991" x1="66.3536" y1="127.86" x2="94.3385" y2="16.7054" gradientUnits="userSpaceOnUse">
<stop stop-color="#F57200"/>
<stop offset="0.02" stop-color="#F57300"/>
<stop offset="0.38" stop-color="#FA8A00"/>
<stop offset="0.72" stop-color="#FD9900"/>
<stop offset="1" stop-color="#FF9E00"/>
</linearGradient>
<linearGradient id="paint2_linear_131_991" x1="55.4862" y1="87.3675" x2="29.0635" y2="20.259" gradientUnits="userSpaceOnUse">
<stop stop-color="#FF9D00"/>
<stop offset="0.04" stop-color="#FFA102"/>
<stop offset="0.45" stop-color="#FFC218"/>
<stop offset="0.78" stop-color="#FFD725"/>
<stop offset="1" stop-color="#FFDF2A"/>
</linearGradient>
<linearGradient id="paint3_linear_131_991" x1="44.5436" y1="25.9709" x2="31.8657" y2="76.3273" gradientUnits="userSpaceOnUse">
<stop stop-color="#FFA400"/>
<stop offset="0.51" stop-color="#FF9500"/>
<stop offset="1" stop-color="#FF8400"/>
</linearGradient>
<linearGradient id="paint4_linear_131_991" x1="66.8057" y1="126.356" x2="71.7436" y2="106.743" gradientUnits="userSpaceOnUse">
<stop stop-color="#FF9D00"/>
<stop offset="1" stop-color="#FFDF2A"/>
</linearGradient>
<linearGradient id="paint5_linear_131_991" x1="51.6412" y1="102.946" x2="91.2476" y2="112.917" gradientUnits="userSpaceOnUse">
<stop stop-color="#FFE162"/>
<stop offset="1" stop-color="#FFE162"/>
</linearGradient>
<linearGradient id="paint6_linear_131_991" x1="70.9942" y1="109.72" x2="77.2347" y2="84.933" gradientUnits="userSpaceOnUse">
<stop stop-color="#FFC800"/>
<stop offset="0.28" stop-color="#FFB900"/>
<stop offset="0.8" stop-color="#FF9300"/>
<stop offset="1" stop-color="#FF8400"/>
</linearGradient>
<linearGradient id="paint7_linear_131_991" x1="95.0993" y1="97.3405" x2="150.149" y2="50.7439" gradientUnits="userSpaceOnUse">
<stop stop-color="#FF9D00"/>
<stop offset="0.04" stop-color="#FFA102"/>
<stop offset="0.45" stop-color="#FFC218"/>
<stop offset="0.78" stop-color="#FFD725"/>
<stop offset="1" stop-color="#FFDF2A"/>
</linearGradient>
<linearGradient id="paint8_linear_131_991" x1="133.81" y1="48.4451" x2="121.132" y2="98.8015" gradientUnits="userSpaceOnUse">
<stop stop-color="#FFA400"/>
<stop offset="0.51" stop-color="#FF9500"/>
<stop offset="1" stop-color="#FF8400"/>
</linearGradient>
<linearGradient id="paint9_linear_131_991" x1="75.9491" y1="90.0393" x2="91.3152" y2="29.0058" gradientUnits="userSpaceOnUse">
<stop stop-color="#FF9D00"/>
<stop offset="0.04" stop-color="#FFA102"/>
<stop offset="0.45" stop-color="#FFC218"/>
<stop offset="0.78" stop-color="#FFD725"/>
<stop offset="1" stop-color="#FFDF2A"/>
</linearGradient>
<linearGradient id="paint10_linear_131_991" x1="49.8658" y1="18.5702" x2="132.765" y2="39.4412" gradientUnits="userSpaceOnUse">
<stop stop-color="#FFE162"/>
<stop offset="1" stop-color="#FFE162"/>
</linearGradient>
<linearGradient id="paint11_linear_131_991" x1="90.2446" y1="33.2585" x2="92.914" y2="22.6558" gradientUnits="userSpaceOnUse">
<stop stop-color="#FFA200"/>
<stop offset="1" stop-color="#FFB802"/>
</linearGradient>
<linearGradient id="paint12_linear_131_991" x1="77.6432" y1="83.3099" x2="87.2603" y2="45.1112" gradientUnits="userSpaceOnUse">
<stop stop-color="#E84600"/>
<stop offset="1" stop-color="#FF8400"/>
</linearGradient>
<linearGradient id="paint13_linear_131_991" x1="77.856" y1="82.4651" x2="87.0475" y2="45.9566" gradientUnits="userSpaceOnUse">
<stop stop-color="#E84600"/>
<stop offset="1" stop-color="#FF8400"/>
</linearGradient>
<linearGradient id="paint14_linear_131_991" x1="72.047" y1="51.7454" x2="91.5582" y2="82.2164" gradientUnits="userSpaceOnUse">
<stop stop-color="#FFE365"/>
<stop offset="1" stop-color="#FFC510"/>
</linearGradient>
<clipPath id="clip0_131_991">
<rect width="136.847" height="114.624" fill="white" transform="translate(27.9849) rotate(14.1314)"/>
</clipPath>
</defs>
</svg>
