<svg width="91" height="91" viewBox="0 0 91 91" fill="none" xmlns="http://www.w3.org/2000/svg">
<path d="M48.0876 7.27216C49.0668 7.35128 50.1077 9.26381 50.0162 10.1523C50.0071 10.241 49.9911 10.3295 49.967 10.4168C49.8822 10.7234 49.7019 11.0168 49.4099 11.2603L46.3196 13.8358L48.2324 17.7667C49.4921 17.8994 50.7264 18.1169 51.9301 18.4118C51.9472 18.416 51.9642 18.4206 51.9813 18.4248C52.1489 18.4662 52.3158 18.5087 52.4821 18.553C52.5312 18.5661 52.58 18.5798 52.629 18.5931C52.7789 18.634 52.9286 18.675 53.0775 18.7183C53.1312 18.734 53.1847 18.7505 53.2384 18.7664C53.3958 18.8133 53.5527 18.8611 53.709 18.9107C53.7255 18.9159 53.7418 18.9214 53.7583 18.9267C54.8883 19.2874 55.9868 19.718 57.0486 20.214C57.0737 20.2257 57.099 20.2372 57.124 20.249C57.2652 20.3155 57.4055 20.3836 57.5454 20.4524C57.6028 20.4806 57.6602 20.5089 57.7174 20.5375C57.8465 20.6021 57.9746 20.6684 58.1025 20.7349C58.1589 20.7642 58.2153 20.7934 58.2714 20.823C58.3939 20.8878 58.5161 20.9529 58.6375 21.0194C58.691 21.0487 58.7441 21.0789 58.7974 21.1085C59.6049 21.5579 60.3873 22.0463 61.1425 22.5711C61.1779 22.5957 61.2138 22.6195 61.2491 22.6443C61.3777 22.7345 61.5052 22.8263 61.6322 22.9187C61.6674 22.9444 61.7027 22.9701 61.7378 22.9959C61.8602 23.0858 61.982 23.1765 62.1028 23.2684C62.1505 23.3046 62.1982 23.341 62.2456 23.3775C62.3635 23.4683 62.4803 23.5604 62.5966 23.653C62.6389 23.6867 62.6812 23.7203 62.7233 23.7542C62.8352 23.8444 62.9467 23.9349 63.0572 24.0267C63.1136 24.0736 63.1691 24.1216 63.2251 24.1689C63.3274 24.2554 63.4298 24.3415 63.5308 24.4294C63.5777 24.4702 63.624 24.5115 63.6706 24.5526C64.204 25.023 64.7186 25.5138 65.2142 26.0232C65.2416 26.0514 65.2694 26.0791 65.2966 26.1074C65.3839 26.1978 65.4701 26.2892 65.5561 26.3808C65.6164 26.445 65.6764 26.5094 65.7361 26.5742C65.8237 26.6693 65.9103 26.7654 65.9966 26.8617C66.0482 26.9194 66.1002 26.9769 66.1514 27.035C66.2237 27.117 66.2953 27.1995 66.3666 27.2824C66.446 27.3747 66.5247 27.4676 66.6029 27.5609C66.6571 27.6256 66.7113 27.6901 66.7648 27.7553C66.844 27.8515 66.9223 27.9484 67.0002 28.0458C67.0619 28.1229 67.1233 28.2003 67.1842 28.2782C67.2193 28.3231 67.2539 28.3683 67.2888 28.4134C67.6604 28.8945 68.0169 29.3877 68.3567 29.893C68.4452 30.0246 68.5329 30.1566 68.6192 30.2897C68.6882 30.3963 68.7557 30.5038 68.8233 30.6113C68.8665 30.6799 68.9095 30.7486 68.952 30.8177C69.0096 30.9111 69.0665 31.005 69.123 31.0992C69.1771 31.1893 69.2308 31.2798 69.2839 31.3706C69.3476 31.4797 69.4107 31.5892 69.473 31.6992C69.5075 31.7601 69.5415 31.8213 69.5755 31.8825C69.6379 31.9946 69.6997 32.1071 69.7606 32.2201C69.8036 32.3 69.846 32.3802 69.8883 32.4606C69.9396 32.5582 69.991 32.6558 70.0411 32.7541C70.0859 32.8418 70.129 32.9303 70.1729 33.0185C70.2257 33.1249 70.2793 33.231 70.3307 33.3381C70.377 33.4344 70.4213 33.5317 70.4665 33.6286C70.5099 33.7217 70.5538 33.8145 70.5962 33.9081C70.6116 33.942 70.6262 33.9763 70.6415 34.0103C70.7448 34.241 70.845 34.4735 70.9422 34.7075C70.9899 34.8225 71.0378 34.9374 71.084 35.0531C71.1207 35.1452 71.1558 35.238 71.1916 35.3306C71.2333 35.4387 71.2758 35.5465 71.3162 35.6552C71.3479 35.7403 71.3779 35.8261 71.4088 35.9116C71.458 36.0481 71.5064 36.1849 71.5536 36.3224C71.568 36.3644 71.5826 36.4064 71.5968 36.4486C71.6415 36.581 71.6848 36.714 71.7275 36.8473C71.7633 36.9589 71.7988 37.0707 71.8331 37.1829C71.8629 37.2801 71.8919 37.3777 71.9206 37.4754C71.9547 37.5913 71.9886 37.7074 72.0212 37.824C72.038 37.884 72.0541 37.9442 72.0705 38.0043C72.1111 38.1535 72.1509 38.303 72.1891 38.4531C72.1917 38.4632 72.1946 38.4731 72.1972 38.4832C72.2448 38.6714 72.2902 38.8604 72.3339 39.0502C72.4311 39.4717 72.5198 39.8967 72.5974 40.3254C72.6058 40.3721 72.6133 40.4189 72.6215 40.4657C72.6498 40.6268 72.6765 40.7884 72.702 40.9505C72.7203 41.0667 72.7364 41.1834 72.7533 41.3001C72.7678 41.4011 72.782 41.5023 72.7955 41.6037C72.8095 41.7093 72.8229 41.8152 72.8357 41.9212C72.8508 42.0459 72.8656 42.1707 72.879 42.2959C72.8889 42.3886 72.8981 42.4814 72.9071 42.5744C72.9202 42.7093 72.9322 42.8446 72.9433 42.9801C72.9499 43.0598 72.9566 43.1396 72.9624 43.2195C72.973 43.3641 72.9822 43.5091 72.9906 43.6543C72.9958 43.7453 73.0013 43.8365 73.0057 43.9278C73.0123 44.0667 73.0172 44.206 73.0218 44.3455C73.0243 44.4239 73.0279 44.5023 73.0298 44.5809C73.0353 44.808 73.0389 45.0357 73.0389 45.2641C73.0389 45.2996 73.039 45.3359 73.0389 45.3713C73.0388 45.3857 73.0371 45.4 73.0368 45.4144C73.0092 50.6078 71.5454 55.4621 69.0194 59.6034C68.7876 59.9835 68.5468 60.3576 68.2974 60.7254C67.9232 61.2771 67.5299 61.8148 67.1178 62.3372C66.9805 62.5113 66.8409 62.6834 66.6995 62.8541C66.5423 63.0438 66.3819 63.2307 66.2198 63.4161C66.2071 63.4309 66.1955 63.4465 66.1826 63.4612C66.1515 63.4966 66.1183 63.5301 66.0871 63.5654C65.9652 63.7027 65.8425 63.8392 65.718 63.9741C65.6947 63.9993 65.671 64.0241 65.6476 64.0492C65.5562 64.1475 65.4659 64.2468 65.3731 64.3437C65.3327 64.386 65.2911 64.427 65.2504 64.469C65.2232 64.497 65.1952 64.5242 65.1679 64.5521C65.0297 64.6936 64.8908 64.8344 64.7496 64.9728C64.7033 65.0182 64.6564 65.063 64.6098 65.1081C64.5503 65.1656 64.4919 65.2244 64.4318 65.2814C64.3741 65.3362 64.315 65.3894 64.2568 65.4437C64.2061 65.491 64.1551 65.538 64.104 65.5849C63.9856 65.6938 63.8663 65.8016 63.746 65.9085C63.6724 65.9738 63.599 66.0393 63.5248 66.1038C63.4508 66.1681 63.3762 66.2316 63.3015 66.2952C63.2133 66.3703 63.1242 66.4445 63.035 66.5186C62.9562 66.584 62.8773 66.6493 62.7977 66.7139C62.6962 66.7962 62.5946 66.8784 62.492 66.9593C62.467 66.9791 62.4427 66.9998 62.4176 67.0195C62.3306 67.0876 62.242 67.1537 62.1541 67.2208C62.0771 67.2796 62.0005 67.3391 61.9228 67.3971C61.7331 67.5389 61.542 67.6789 61.3486 67.8159C61.1562 67.9521 60.9613 68.0851 60.7654 68.2166C60.7363 68.2361 60.707 68.2553 60.6779 68.2747C60.5079 68.3878 60.3366 68.4988 60.164 68.6083C60.1371 68.6253 60.1095 68.6414 60.0826 68.6583C59.9111 68.7662 59.7386 68.8727 59.5647 68.9769C59.5062 69.0119 59.4474 69.0465 59.3887 69.0811C59.2463 69.165 59.1033 69.2481 58.9593 69.3295C58.9058 69.3598 58.8521 69.3898 58.7984 69.4197C58.7025 69.473 58.6073 69.5277 58.5108 69.58C58.4429 69.6167 58.3738 69.651 58.3056 69.6872C58.2658 69.7083 58.2259 69.7293 58.186 69.7503C58.0173 69.8387 57.8478 69.9257 57.6771 70.0107C57.6357 70.0314 57.594 70.0514 57.5524 70.0718C57.5043 70.0955 57.4569 70.1206 57.4086 70.144C57.3105 70.1915 57.2117 70.2378 57.113 70.2842C57.0251 70.3255 56.9369 70.366 56.8485 70.4064C56.8 70.4286 56.7523 70.4526 56.7037 70.4745C56.6111 70.5162 56.5172 70.555 56.4241 70.5958C56.3534 70.6267 56.283 70.6586 56.212 70.6889C56.1692 70.7072 56.1271 70.727 56.0842 70.745C55.972 70.7923 55.8583 70.8364 55.7454 70.8823C55.6797 70.9089 55.6142 70.9362 55.5483 70.9624C55.4866 70.9869 55.4251 71.0115 55.3632 71.0355C55.2894 71.0642 55.2151 71.0916 55.141 71.1197C55.0573 71.1514 54.9736 71.1829 54.8896 71.2138C54.8754 71.219 54.8615 71.2247 54.8473 71.2299C54.8395 71.2328 54.8321 71.237 54.8242 71.2399C54.7415 71.2701 54.6579 71.2976 54.5748 71.327C54.4444 71.3732 54.314 71.42 54.1826 71.4643L53.534 71.6747C53.2955 71.7486 53.0553 71.8184 52.814 71.886C52.7695 71.8985 52.7248 71.9098 52.6802 71.9221C52.4986 71.972 52.3163 72.02 52.1332 72.0663C52.0553 72.0861 51.977 72.1044 51.8989 72.1234C51.7897 72.1501 51.6808 72.1783 51.5711 72.2036C51.5182 72.2158 51.4651 72.2268 51.4122 72.2386C51.3296 72.2572 51.2466 72.2739 51.1638 72.2917C51.1017 72.3051 51.04 72.3199 50.9777 72.3328C50.9309 72.3426 50.8839 72.3524 50.837 72.3619C50.7807 72.3733 50.7244 72.3839 50.668 72.3949C50.6141 72.4055 50.5601 72.4157 50.5061 72.426C50.4509 72.4365 50.3956 72.4469 50.3402 72.457C50.2911 72.466 50.2425 72.4773 50.1934 72.4861C50.1827 72.488 50.1719 72.4892 50.1612 72.4911C50.0903 72.5036 50.0191 72.5142 49.948 72.5262C49.8774 72.5381 49.8066 72.5498 49.7358 72.5612C49.5744 72.5872 49.4125 72.6112 49.2501 72.6343C49.1748 72.6451 49.0994 72.6553 49.0238 72.6654C48.8604 72.6874 48.6965 72.7074 48.5321 72.7265C48.4457 72.7366 48.3593 72.7473 48.2727 72.7566C48.225 72.7617 48.1775 72.7677 48.1299 72.7726C48.1258 72.773 48.1218 72.7742 48.1178 72.7746C48.0984 72.7766 48.0788 72.7767 48.0595 72.7786C47.9765 72.7868 47.8933 72.7942 47.8101 72.8016C47.715 72.8102 47.6198 72.8191 47.5245 72.8267C47.327 72.8424 47.1288 72.8551 46.9302 72.8668C46.8926 72.869 46.8551 72.8727 46.8175 72.8748C46.781 72.8768 46.7445 72.8799 46.7079 72.8818C46.4994 72.8923 46.2902 72.8989 46.0804 72.9048C46.0697 72.9051 46.059 72.9065 46.0482 72.9068C45.7928 72.9137 45.5361 72.9178 45.2789 72.9178C45.0129 72.9178 44.7477 72.9132 44.4835 72.9058C44.451 72.9049 44.4185 72.9028 44.386 72.9018C44.1668 72.8949 43.9482 72.8857 43.7303 72.8738C43.6534 72.8696 43.5767 72.8636 43.5 72.8587C43.3809 72.8512 43.2618 72.8457 43.143 72.8367C43.0846 72.8323 43.0264 72.8255 42.9681 72.8207C42.8912 72.8144 42.8144 72.8076 42.7378 72.8006C42.5586 72.7844 42.3799 72.7671 42.2018 72.7475C42.1219 72.7388 42.0421 72.729 41.9624 72.7195C41.7735 72.6971 41.5851 72.6735 41.3973 72.6474C41.3299 72.638 41.2624 72.6292 41.1952 72.6193C41.1473 72.6123 41.0992 72.6066 41.0514 72.5993C40.9037 72.5768 40.7568 72.5509 40.6099 72.5262C40.5526 72.5165 40.4951 72.5081 40.4379 72.4981C40.4138 72.4939 40.3896 72.4904 40.3655 72.4861C40.1777 72.4527 39.9909 72.4151 39.8044 72.3779C39.7646 72.37 39.7245 72.364 39.6847 72.3559C39.4588 72.3098 39.2339 72.2611 39.01 72.2096C38.9958 72.2063 38.9819 72.2019 38.9677 72.1986C38.8921 72.1811 38.8168 72.1626 38.7415 72.1445C38.6078 72.1124 38.4741 72.0814 38.3412 72.0473C38.3032 72.0376 38.2656 72.0262 38.2276 72.0163C38.1776 72.0032 38.1277 71.9895 38.0778 71.9762C37.9448 71.9407 37.8117 71.9064 37.6795 71.869C37.6233 71.8531 37.5677 71.8352 37.5116 71.8189C37.4333 71.7962 37.3553 71.7731 37.2773 71.7498C37.1228 71.7035 36.9691 71.6554 36.8157 71.6065C36.7513 71.586 36.6869 71.5654 36.6226 71.5444C36.5402 71.5175 36.4574 71.492 36.3753 71.4643C36.2726 71.4297 36.1707 71.3929 36.0686 71.3571C36.0212 71.3405 35.974 71.3238 35.9268 71.307C35.7228 71.2343 35.5201 71.1589 35.3184 71.0816C35.2776 71.066 35.2364 71.0513 35.1957 71.0355C34.9535 70.9414 34.7124 70.8456 34.4736 70.745C34.0266 70.5566 33.586 70.3557 33.1513 70.145C33.1435 70.1412 33.136 70.1367 33.1281 70.1329C32.9113 70.0276 32.6962 69.9191 32.4825 69.8084C32.4409 69.7868 32.3994 69.765 32.3578 69.7433C32.2542 69.6888 32.15 69.6356 32.0471 69.58C31.9863 69.5471 31.9266 69.5121 31.8661 69.4788C31.8111 69.4485 31.756 69.4183 31.7012 69.3876C31.5327 69.2933 31.3657 69.1968 31.1994 69.0991C31.1635 69.078 31.1275 69.0572 31.0918 69.036C31.0228 68.9951 30.9532 68.9553 30.8846 68.9138C30.7985 68.8617 30.7137 68.8075 30.6282 68.7545C30.5604 68.7125 30.4924 68.6709 30.4251 68.6283C30.2419 68.5125 30.0602 68.3946 29.88 68.2747C29.8663 68.2656 29.8525 68.2567 29.8388 68.2476C29.2569 67.8589 28.6899 67.4497 28.1403 67.0195C27.9165 66.8443 27.6968 66.6643 27.4786 66.4825C27.4317 66.4434 27.3855 66.4037 27.3388 66.3643C27.2365 66.2779 27.1341 66.1917 27.0331 66.1038C26.9809 66.0584 26.9292 66.0124 26.8773 65.9666C26.8554 65.9473 26.8337 65.9279 26.8119 65.9085C26.7461 65.8501 26.679 65.7932 26.6138 65.7342C26.5169 65.6465 26.4218 65.5568 26.3262 65.4677C26.309 65.4517 26.292 65.4356 26.2749 65.4196C26.1178 65.2726 25.9629 65.1234 25.8093 64.9728C25.7889 64.9528 25.7683 64.9328 25.748 64.9127C25.2424 64.414 24.7549 63.897 24.2888 63.361C24.107 63.152 23.9293 62.9394 23.7538 62.7249C23.7442 62.7131 23.7343 62.7016 23.7247 62.6898C23.7147 62.6777 23.7053 62.665 23.6955 62.6528C23.3304 62.2036 22.9774 61.7441 22.6406 61.2723C22.3827 60.911 22.1331 60.5433 21.8924 60.1694C21.411 59.4212 20.9648 58.6484 20.556 57.8533C19.5341 55.8659 18.7467 53.7391 18.23 51.5091C18.1783 51.2861 18.1294 51.062 18.0832 50.8369C18.037 50.6122 17.9931 50.3865 17.9525 50.1597C17.7489 49.0249 17.6152 47.8659 17.5552 46.6876C17.5313 46.2163 17.519 45.7414 17.519 45.2641C17.519 44.5216 17.5489 43.786 17.6065 43.0582C17.5308 43.0335 17.4558 42.9995 17.3823 42.955C17.371 42.9482 17.3603 42.9403 17.3491 42.933C17.283 42.8903 17.2169 42.8416 17.153 42.7847C17.1374 42.7709 17.1232 42.7553 17.1077 42.7407C17.0116 42.6495 16.9175 42.5442 16.8272 42.4261C16.7526 42.3287 16.6821 42.2218 16.612 42.1096C16.5832 42.0634 16.5525 42.0176 16.5245 41.9693C16.4946 41.9178 16.4679 41.8637 16.439 41.81C16.4067 41.75 16.3725 41.6901 16.3415 41.6277C16.3079 41.5604 16.2769 41.491 16.2449 41.4213C16.2208 41.3688 16.1948 41.3167 16.1715 41.2631C16.0778 41.0468 15.9936 40.822 15.9161 40.5969C15.9057 40.5667 15.894 40.537 15.8839 40.5067L15.8698 40.4647C15.849 40.4013 15.8299 40.3375 15.8105 40.2743C15.7921 40.2146 15.7733 40.1553 15.7562 40.096C15.7343 40.0198 15.7146 39.9437 15.6949 39.8686C15.6816 39.8181 15.6678 39.7681 15.6556 39.7183C15.636 39.6381 15.6192 39.5587 15.6023 39.4809C15.5929 39.4372 15.5818 39.3944 15.5732 39.3517C15.5542 39.2573 15.5393 39.1651 15.5249 39.0762C15.5216 39.0556 15.5169 39.0354 15.5138 39.0151C15.5014 38.9333 15.492 38.8543 15.4837 38.7787C15.4808 38.7525 15.477 38.7269 15.4746 38.7015C15.4674 38.6242 15.4648 38.5509 15.4626 38.4822C15.4621 38.4666 15.4598 38.4512 15.4595 38.4361C15.4593 38.4216 15.4585 38.407 15.4585 38.393C15.4587 37.4129 16.0495 36.5706 16.8956 36.1991V36.1801L13.6206 29.1692L9.63537 29.8993C9.58179 29.9088 9.52862 29.9156 9.47648 29.9203C9.37217 29.9299 9.27078 29.9303 9.17279 29.9223C7.75366 29.8071 6.42259 27.5163 7.63099 26.5083L22.9976 13.1064C23.9034 12.3514 24.9236 11.7519 26.0155 11.3283C26.2339 11.2436 26.4553 11.1664 26.6792 11.0959C27.1267 10.9549 27.5847 10.8426 28.0498 10.7603L47.626 7.2952C47.6797 7.28571 47.7327 7.27895 47.7849 7.27417C47.8889 7.26464 47.9899 7.26427 48.0876 7.27216Z" fill="url(#paint0_linear_5548_34027)"/>
<g filter="url(#filter0_d_5548_34027)">
<path d="M45.2573 72.2147C60.1455 72.2147 72.2147 60.1455 72.2147 45.2573C72.2147 30.3691 60.1455 18.2998 45.2573 18.2998C30.3691 18.2998 18.2998 30.3691 18.2998 45.2573C18.2998 60.1455 30.3691 72.2147 45.2573 72.2147Z" fill="url(#paint1_linear_5548_34027)"/>
<path d="M46.9289 19.6859C45.568 21.0469 45.568 23.2535 46.9289 24.6146L47.429 25.1146C48.8921 26.5777 48.8921 28.9499 47.429 30.4129C46.7264 31.1156 46.3317 32.0685 46.3317 33.0622V34.9291C46.3317 38.151 48.9435 40.7628 52.1655 40.7628C53.6287 40.7628 54.8149 39.5766 54.8149 38.1134C54.8149 35.7688 56.7155 33.8683 59.06 33.8683C60.1859 33.8683 61.2656 34.3155 62.0617 35.1117C64.7405 37.7905 66.2455 41.4238 66.2455 45.2122V45.3364C66.2455 46.9847 67.5818 48.3208 69.2299 48.3208C70.8685 48.3208 72.2086 46.9999 72.215 45.3614C72.2151 45.3269 72.2152 45.2923 72.2152 45.2576C72.2152 31.9847 62.6224 20.9535 49.9917 18.7159C48.8745 18.518 47.7312 18.8837 46.9289 19.6859Z" fill="url(#paint2_linear_5548_34027)"/>
<path d="M29.4971 29.5107C31.0624 29.5107 32.3313 30.7797 32.3313 32.3449C32.3313 33.0966 32.6299 33.8174 33.1614 34.349L39.0357 40.2233C39.6423 40.8299 39.9832 41.6528 39.9832 42.5106C39.9832 44.2971 38.5349 45.7454 36.7484 45.7454C34.976 45.7454 33.2761 45.0412 32.0229 43.788L31.0381 42.8032C30.4082 42.1733 29.5539 41.8194 28.6629 41.8194C26.8078 41.8194 25.3038 43.3233 25.3038 45.1785V45.9362C25.3038 47.1837 24.2924 48.195 23.0449 48.195C21.7975 48.195 20.7861 47.1837 20.7861 45.9362C20.7861 41.5761 21.8687 37.2842 23.9368 33.4457L24.425 32.5397C25.4301 30.674 27.3781 29.5107 29.4971 29.5107Z" fill="url(#paint3_linear_5548_34027)"/>
<path d="M65.3191 56.1962C64.3839 55.2609 63.1154 54.7355 61.7929 54.7355C57.939 54.7355 54.8149 57.8597 54.8149 61.7135V64.4048C54.8149 65.7574 53.7185 66.8538 52.366 66.8538C50.7042 66.8538 49.357 65.5066 49.357 63.8448C49.357 63.0468 49.04 62.2814 48.4757 61.7171L41.5014 54.7429C40.3118 53.5532 38.383 53.5532 37.1934 54.7429C36.0037 55.9325 34.0749 55.9325 32.8853 54.7429C30.6279 52.4854 26.9678 52.4854 24.7105 54.7429C22.6786 56.7748 22.5138 60.0135 24.3258 62.2437C29.2683 68.3272 36.8086 72.2146 45.2576 72.2146C53.3533 72.2146 60.6154 68.6458 65.5567 62.9956C67.2812 61.0236 67.1715 58.0485 65.3191 56.1962Z" fill="url(#paint4_linear_5548_34027)"/>
<path d="M45.2573 59.8484C60.1455 59.8484 72.2147 53.3159 72.2147 45.2577C72.2147 37.1995 60.1455 30.667 45.2573 30.667C30.3691 30.667 18.2998 37.1995 18.2998 45.2577C18.2998 53.3159 30.3691 59.8484 45.2573 59.8484Z" fill="url(#paint5_linear_5548_34027)"/>
<path d="M45.2577 72.2147C53.3159 72.2147 59.8484 60.1455 59.8484 45.2573C59.8484 30.3691 53.3159 18.2998 45.2577 18.2998C37.1995 18.2998 30.667 30.3691 30.667 45.2573C30.667 60.1455 37.1995 72.2147 45.2577 72.2147Z" fill="url(#paint6_linear_5548_34027)"/>
<path d="M18.2998 45.2574C18.2998 60.1456 30.3692 72.2149 45.2574 72.2149C60.1456 72.2149 72.2149 60.1456 72.2149 45.2574C72.2149 45.1756 72.2125 45.0944 72.2117 45.0127H18.3029C18.3022 45.0943 18.2998 45.1756 18.2998 45.2574Z" fill="url(#paint7_linear_5548_34027)"/>
</g>
<path d="M72.2143 45.2571C72.2143 60.1452 60.1446 72.2148 45.2565 72.2148C30.3684 72.2148 18.2988 60.1452 18.2988 45.2571C18.2988 30.5648 30.0522 18.6181 44.6692 18.3057V19.7601L50.3452 23.2136L72.213 45.0802C72.2143 45.1391 72.2143 45.1981 72.2143 45.2571Z" fill="url(#paint8_linear_5548_34027)"/>
<path d="M45.3096 12.4131L50.3457 23.213C50.612 23.7842 50.6455 24.4413 50.4166 25.0284C49.0086 28.6407 43.9072 33.0893 37.0425 36.2904C30.1778 39.4915 23.491 40.5397 19.8187 39.2965C19.2217 39.0943 18.7398 38.6463 18.4735 38.0751L13.4375 27.2752L45.3096 12.4131Z" fill="url(#paint9_linear_5548_34027)"/>
<path d="M46.8658 15.7502L45.3097 12.4131L18.5469 24.8928V38.2139C18.8233 38.7179 19.2717 39.1113 19.8188 39.2965C23.491 40.5399 30.178 39.4915 37.0427 36.2904C41.0443 34.4244 44.4448 32.1344 46.8658 29.8333V15.7502Z" fill="url(#paint10_linear_5548_34027)"/>
<path d="M23.6196 13.9082L8.81201 26.3004C7.51633 27.3848 8.4954 29.4845 10.1589 29.1889L29.17 25.8112C30.9769 25.4902 32.6681 24.7015 34.0755 23.5238L48.883 11.1316C50.1787 10.0472 49.1996 7.94752 47.5361 8.24305L28.5251 11.6207C26.7181 11.9417 25.0269 12.7304 23.6196 13.9082Z" fill="url(#paint11_linear_5548_34027)"/>
<path d="M23.6196 13.9082L8.81201 26.3004C7.51633 27.3848 8.4954 29.4845 10.1589 29.1889L29.17 25.8112C30.9769 25.4902 32.6681 24.7015 34.0755 23.5238L48.883 11.1316C50.1787 10.0472 49.1996 7.94752 47.5361 8.24305L28.5251 11.6207C26.7181 11.9417 25.0269 12.7304 23.6196 13.9082Z" fill="url(#paint12_linear_5548_34027)"/>
<path d="M28.5251 11.6207L47.5361 8.24305C49.1996 7.94752 50.1788 10.0472 48.883 11.1316L34.0755 23.5238C32.6681 24.7017 30.9769 25.4902 29.17 25.8112L10.1589 29.1889C8.4954 29.4845 7.51633 27.3848 8.81201 26.3004L23.6196 13.9082C25.0269 12.7304 26.7183 11.9417 28.5251 11.6207Z" fill="url(#paint13_linear_5548_34027)"/>
<path d="M28.4299 16.9434L18.8398 24.6119V27.6464L29.1703 25.811C30.9772 25.49 32.6684 24.7013 34.0758 23.5235L34.5844 23.0979L28.4299 16.9434Z" fill="url(#paint14_linear_5548_34027)"/>
<path d="M16.4131 33.6551L18.4741 38.0748C18.7404 38.6461 19.2223 39.0941 19.8193 39.2962C23.4915 40.5396 30.1784 39.4913 37.0431 36.2901C43.9078 33.089 49.0091 28.6405 50.4171 25.0282C50.6459 24.441 50.6124 23.7838 50.3462 23.2127L48.2851 18.793L16.4131 33.6551Z" fill="url(#paint15_linear_5548_34027)"/>
<path d="M18.6345 38.2694C18.1148 38.2694 17.6934 37.848 17.6934 37.3282V27.1111C17.6934 25.4243 18.444 23.8468 19.7529 22.7828L27.1053 16.8066C27.5087 16.4787 28.1015 16.5399 28.4293 16.9432C28.7572 17.3466 28.6959 17.9394 28.2926 18.2672L20.9402 24.2434C20.073 24.9482 19.5756 25.9934 19.5756 27.1109V37.3282C19.5757 37.848 19.1543 38.2694 18.6345 38.2694Z" fill="url(#paint16_linear_5548_34027)"/>
<path d="M20.9716 38.5585C20.9716 39.8491 19.9254 43.1487 18.6347 43.1487C17.3441 43.1487 16.2979 39.8491 16.2979 38.5585C16.2979 37.268 17.3441 36.2217 18.6347 36.2217C19.9254 36.2217 20.9716 37.268 20.9716 38.5585Z" fill="url(#paint17_linear_5548_34027)"/>
<path d="M19.8037 38.5585C19.8037 39.8491 19.2805 43.1487 18.6352 43.1487C17.99 43.1487 17.4668 39.8491 17.4668 38.5585C17.4668 37.268 17.99 36.2217 18.6352 36.2217C19.2805 36.2217 19.8037 37.268 19.8037 38.5585Z" fill="url(#paint18_linear_5548_34027)"/>
<path d="M16.2988 38.6006C16.32 39.9182 17.3573 43.1491 18.6347 43.1491C19.9121 43.1491 20.9494 39.9182 20.9706 38.6006H16.2988Z" fill="url(#paint19_linear_5548_34027)"/>
<defs>
<filter id="filter0_d_5548_34027" x="-0.00019455" y="-0.00019455" width="90.5155" height="90.515" filterUnits="userSpaceOnUse" color-interpolation-filters="sRGB">
<feFlood flood-opacity="0" result="BackgroundImageFix"/>
<feColorMatrix in="SourceAlpha" type="matrix" values="0 0 0 0 0 0 0 0 0 0 0 0 0 0 0 0 0 0 127 0" result="hardAlpha"/>
<feOffset/>
<feGaussianBlur stdDeviation="9.15"/>
<feComposite in2="hardAlpha" operator="out"/>
<feColorMatrix type="matrix" values="0 0 0 0 0.984314 0 0 0 0 0.776471 0 0 0 0 0.435294 0 0 0 0.57 0"/>
<feBlend mode="normal" in2="BackgroundImageFix" result="effect1_dropShadow_5548_34027"/>
<feBlend mode="normal" in="SourceGraphic" in2="effect1_dropShadow_5548_34027" result="shape"/>
</filter>
<linearGradient id="paint0_linear_5548_34027" x1="16.5085" y1="-5.56067" x2="63.677" y2="76.1376" gradientUnits="userSpaceOnUse">
<stop stop-color="#484848"/>
<stop offset="0.524038" stop-color="#0A95FA"/>
</linearGradient>
<linearGradient id="paint1_linear_5548_34027" x1="32.3514" y1="25.837" x2="52.115" y2="55.5767" gradientUnits="userSpaceOnUse">
<stop stop-color="#EAF9FA"/>
<stop offset="1" stop-color="#B3DAFE"/>
</linearGradient>
<linearGradient id="paint2_linear_5548_34027" x1="44.3384" y1="20.784" x2="67.7908" y2="44.2364" gradientUnits="userSpaceOnUse">
<stop stop-color="#62DBFB"/>
<stop offset="0.1912" stop-color="#57D5FA"/>
<stop offset="0.5232" stop-color="#3BC5F7"/>
<stop offset="0.954" stop-color="#0DABF2"/>
<stop offset="1" stop-color="#08A9F1"/>
</linearGradient>
<linearGradient id="paint3_linear_5548_34027" x1="22.6894" y1="30.5568" x2="32.8536" y2="48.4382" gradientUnits="userSpaceOnUse">
<stop stop-color="#62DBFB"/>
<stop offset="0.1912" stop-color="#57D5FA"/>
<stop offset="0.5232" stop-color="#3BC5F7"/>
<stop offset="0.954" stop-color="#0DABF2"/>
<stop offset="1" stop-color="#08A9F1"/>
</linearGradient>
<linearGradient id="paint4_linear_5548_34027" x1="39.0826" y1="47.1756" x2="49.435" y2="68.6333" gradientUnits="userSpaceOnUse">
<stop stop-color="#62DBFB"/>
<stop offset="0.1912" stop-color="#57D5FA"/>
<stop offset="0.5232" stop-color="#3BC5F7"/>
<stop offset="0.954" stop-color="#0DABF2"/>
<stop offset="1" stop-color="#08A9F1"/>
</linearGradient>
<linearGradient id="paint5_linear_5548_34027" x1="40.2965" y1="28.1666" x2="56.3592" y2="83.5076" gradientUnits="userSpaceOnUse">
<stop stop-color="#0593FC" stop-opacity="0"/>
<stop offset="0.6831" stop-color="#0389FC" stop-opacity="0.683"/>
<stop offset="1" stop-color="#0182FC"/>
</linearGradient>
<linearGradient id="paint6_linear_5548_34027" x1="25.6052" y1="27.6829" x2="80.1933" y2="76.4985" gradientUnits="userSpaceOnUse">
<stop stop-color="#0593FC" stop-opacity="0"/>
<stop offset="0.6831" stop-color="#0389FC" stop-opacity="0.683"/>
<stop offset="1" stop-color="#0182FC"/>
</linearGradient>
<linearGradient id="paint7_linear_5548_34027" x1="45.2574" y1="58.0801" x2="45.2574" y2="72.4524" gradientUnits="userSpaceOnUse">
<stop stop-color="#0593FC" stop-opacity="0"/>
<stop offset="0.6831" stop-color="#0389FC" stop-opacity="0.683"/>
<stop offset="1" stop-color="#0182FC"/>
</linearGradient>
<linearGradient id="paint8_linear_5548_34027" x1="43.0155" y1="46.1227" x2="34.3567" y2="33.5738" gradientUnits="userSpaceOnUse">
<stop stop-color="#0593FC" stop-opacity="0"/>
<stop offset="0.6831" stop-color="#0389FC" stop-opacity="0.683"/>
<stop offset="1" stop-color="#0182FC"/>
</linearGradient>
<linearGradient id="paint9_linear_5548_34027" x1="26.8115" y1="25.8654" x2="38.2103" y2="26.2175" gradientUnits="userSpaceOnUse">
<stop stop-color="#5A5A5A"/>
<stop offset="1" stop-color="#444444"/>
</linearGradient>
<linearGradient id="paint10_linear_5548_34027" x1="25.1143" y1="26.1092" x2="19.0064" y2="26.1092" gradientUnits="userSpaceOnUse">
<stop stop-color="#433F43" stop-opacity="0"/>
<stop offset="1" stop-color="#1A1A1A"/>
</linearGradient>
<linearGradient id="paint11_linear_5548_34027" x1="23.9089" y1="15.209" x2="38.0264" y2="25.2132" gradientUnits="userSpaceOnUse">
<stop stop-color="#5A5A5A"/>
<stop offset="1" stop-color="#444444"/>
</linearGradient>
<linearGradient id="paint12_linear_5548_34027" x1="29.3767" y1="21.454" x2="30.104" y2="25.1996" gradientUnits="userSpaceOnUse">
<stop stop-color="#433F43" stop-opacity="0"/>
<stop offset="1" stop-color="#1A1A1A"/>
</linearGradient>
<linearGradient id="paint13_linear_5548_34027" x1="30.6266" y1="20.9034" x2="33.0311" y2="23.866" gradientUnits="userSpaceOnUse">
<stop stop-color="#433F43" stop-opacity="0"/>
<stop offset="1" stop-color="#1A1A1A"/>
</linearGradient>
<linearGradient id="paint14_linear_5548_34027" x1="29.7661" y1="27.713" x2="22.5713" y2="21.355" gradientUnits="userSpaceOnUse">
<stop stop-color="#433F43" stop-opacity="0"/>
<stop offset="1" stop-color="#1A1A1A"/>
</linearGradient>
<linearGradient id="paint15_linear_5548_34027" x1="34.5224" y1="30.8692" x2="37.4816" y2="37.2076" gradientUnits="userSpaceOnUse">
<stop stop-color="#433F43" stop-opacity="0"/>
<stop offset="1" stop-color="#1A1A1A"/>
</linearGradient>
<linearGradient id="paint16_linear_5548_34027" x1="16.6249" y1="20.8908" x2="23.2228" y2="27.4887" gradientUnits="userSpaceOnUse">
<stop stop-color="#FEF0AE"/>
<stop offset="1" stop-color="#FBC56D"/>
</linearGradient>
<linearGradient id="paint17_linear_5548_34027" x1="15.6292" y1="36.1588" x2="19.2339" y2="40.0038" gradientUnits="userSpaceOnUse">
<stop stop-color="#FEF0AE"/>
<stop offset="1" stop-color="#FBC56D"/>
</linearGradient>
<linearGradient id="paint18_linear_5548_34027" x1="17.2062" y1="38.1845" x2="20.7531" y2="41.6898" gradientUnits="userSpaceOnUse">
<stop stop-color="#DC8758" stop-opacity="0"/>
<stop offset="0.2153" stop-color="#DD8654" stop-opacity="0.215"/>
<stop offset="0.4291" stop-color="#E28448" stop-opacity="0.429"/>
<stop offset="0.6424" stop-color="#EA8034" stop-opacity="0.642"/>
<stop offset="0.8542" stop-color="#F47B18" stop-opacity="0.854"/>
<stop offset="1" stop-color="#FE7701"/>
</linearGradient>
<linearGradient id="paint19_linear_5548_34027" x1="18.6347" y1="39.9358" x2="18.6347" y2="43.1492" gradientUnits="userSpaceOnUse">
<stop stop-color="#DC8758" stop-opacity="0"/>
<stop offset="0.2153" stop-color="#DD8654" stop-opacity="0.215"/>
<stop offset="0.4291" stop-color="#E28448" stop-opacity="0.429"/>
<stop offset="0.6424" stop-color="#EA8034" stop-opacity="0.642"/>
<stop offset="0.8542" stop-color="#F47B18" stop-opacity="0.854"/>
<stop offset="1" stop-color="#FE7701"/>
</linearGradient>
</defs>
</svg>
