<svg width="116" height="121" viewBox="0 0 116 121" fill="none" xmlns="http://www.w3.org/2000/svg">
<ellipse cx="55.7133" cy="117" rx="47.5" ry="4" fill="#158456"/>
<g clip-path="url(#clip0_131_990)">
<path d="M109.368 20.8596C108.029 19.9877 103.745 19.3265 100.532 18.936C99.5454 18.0298 98.4668 17.0603 97.4326 16.1404C97.4429 16.1096 97.4548 16.0771 97.4651 16.0462C99.7314 9.45303 96.4036 3.39429 89.5261 2.0873C88.9032 1.93485 88.224 1.84406 87.48 1.84406C82.8518 1.84406 50.0227 1.44494 42.0889 1.88688C35.7012 2.24318 34.3479 4.64304 32.4246 8.59484C31.8973 8.62567 31.3871 8.66507 30.9126 8.71475C28.0917 9.0128 26.549 11.1386 25.7656 12.7573C24.9823 14.3744 23.4618 17.5793 21.6341 21.7555C19.0828 27.5813 18.82 29.4313 21.4054 32.405C19.151 37.4856 16.7414 42.9294 14.4341 48.0889C13.9358 48.1197 13.4545 48.1574 13.004 48.2036C10.1831 48.5017 8.64032 50.6275 7.85701 52.2462C7.0737 53.8633 5.55315 57.0682 3.72543 61.2444C1.169 67.0822 0.909604 68.927 3.51381 71.9145C3.51381 71.9145 3.57696 71.7346 3.70324 71.4502C0.324254 79.6502 1.71681 81.925 3.98824 85.1265C4.1077 85.3338 4.24593 85.5376 4.40293 85.7363C4.45754 85.8048 4.51386 85.8768 4.56847 85.947C6.45763 88.3349 9.04307 91.5895 12.1712 94.863C14.9273 97.7459 16.7994 99.9865 23.9072 99.9865C35.2251 99.9865 61.2007 100.319 71.2847 100.319C80.6896 100.319 84.1795 98.8816 88.3145 92.3741C93.8898 83.5986 110.435 44.0583 113.333 34.7055C116.169 25.5532 112.346 22.021 109.37 20.8596H109.368Z" fill="url(#paint0_linear_131_990)"/>
<path d="M71.283 102C66.3783 102 57.8575 101.922 48.8349 101.84C39.4369 101.755 29.7197 101.667 23.9055 101.667C16.3335 101.667 13.9767 99.1937 11.2496 96.3297L10.9612 96.0282C7.76994 92.6913 5.09918 89.3236 3.31582 87.0694L3.08885 86.7833C2.90283 86.5486 2.73218 86.3003 2.57859 86.0433C0.0921287 82.5266 -1.23046 79.7311 1.59731 72.218C-0.974471 68.7835 -0.19116 66.0102 2.1912 60.5716C4.05647 56.3097 5.59749 53.0688 6.35008 51.5152C7.76312 48.5963 10.0653 46.8285 12.8282 46.5373C12.9835 46.5202 13.1456 46.5047 13.3146 46.491C15.0365 42.6352 16.8062 38.6474 18.5213 34.7795L19.4599 32.6657C16.9461 29.2621 17.7345 26.4922 20.1015 21.0844C21.9634 16.8328 23.5061 13.5851 24.2604 12.028C25.6735 9.10908 27.9756 7.34131 30.7385 7.0501C30.9348 7.02955 31.1396 7.01071 31.3546 6.99186C33.3769 3.01094 35.4145 0.581962 41.9984 0.215389C48.2973 -0.135768 69.7112 0.0355277 81.2152 0.128028C84.2853 0.152009 86.5038 0.170852 87.4834 0.170852C88.3042 0.170852 89.1114 0.265065 89.8845 0.451777C93.6184 1.17293 96.6134 3.19765 98.3251 6.15765C99.9156 8.91038 100.272 12.2335 99.3576 15.6115C100.049 16.2299 100.689 16.8088 101.271 17.3399C107.278 18.097 109.24 18.8353 110.124 19.3577C111.727 20.0138 113.831 21.3619 115.058 24.1026C116.358 27.0061 116.316 30.7421 114.932 35.2112C112.106 44.3327 95.4974 84.2002 89.7258 93.284C87.3912 96.96 85.2205 99.0652 82.4695 100.323C79.855 101.518 76.6143 102.005 71.2847 102.005L71.283 102ZM5.81764 84.8288L5.87566 84.9025C7.62147 87.1071 10.2581 90.4388 13.376 93.7003L13.6678 94.0069C16.1338 96.5969 17.7636 98.3064 23.9038 98.3064C30.044 98.3064 39.459 98.3938 48.8639 98.4794C57.878 98.5616 66.3937 98.6387 71.283 98.6387C80.3824 98.6387 83.1555 97.366 86.9014 91.4717C92.161 83.1929 108.769 43.7709 111.732 34.2074C114.287 25.9629 110.967 23.2873 108.761 22.4274L108.6 22.3657L108.457 22.2715C108.244 22.1327 106.846 21.3979 100.33 20.6065L99.7962 20.5414L99.4003 20.1765C98.5197 19.368 97.4838 18.4327 96.3216 17.3998L95.4837 16.6547L95.8813 15.5036C96.837 12.7234 96.6749 10.0015 95.424 7.83807C94.2021 5.72427 91.9972 4.26997 89.2138 3.74066L89.1268 3.72182C88.6012 3.59335 88.0465 3.52654 87.4782 3.52654C86.4867 3.52654 84.2614 3.50941 81.1844 3.48372C69.7164 3.39122 48.3707 3.22164 42.1793 3.56594C36.5818 3.8777 35.6944 5.702 33.9264 9.33348L33.4963 10.2174L32.5185 10.2739C31.9946 10.3047 31.5116 10.3424 31.0833 10.3887C29.4671 10.56 28.1821 11.6032 27.2674 13.4943C26.5233 15.0291 25.0011 18.2323 23.1631 22.4325C20.634 28.2103 20.7825 29.137 22.6631 31.3022L23.3662 32.1107L21.5777 36.143C19.7261 40.3192 17.8096 44.6376 15.958 48.7778L15.5433 49.7063L14.5313 49.7679C14.033 49.7988 13.5757 49.8347 13.1746 49.8776C11.5585 50.0489 10.2735 51.0921 9.35875 52.9832C8.6164 54.5146 7.09756 57.7127 5.25447 61.9231C2.72194 67.7061 2.87382 68.6362 4.76981 70.81L3.94554 71.5328L5.24594 72.0947C5.18621 72.2386 5.12989 72.3807 5.07358 72.5195L4.13156 75.1712L4.1162 75.154C2.52739 80.1747 3.65201 81.7626 5.34833 84.1539L5.43195 84.2858C5.51387 84.428 5.60773 84.565 5.70842 84.6935L5.81764 84.8305V84.8288Z" fill="url(#paint1_linear_131_990)"/>
<path d="M11.7957 75.6575L10.5568 88.1022L16.2601 95.3206H74.5306L86.9287 90.2177L110.856 27.3726C110.856 27.3726 111.6 22.3125 109.368 20.8599C107.136 19.4073 96.7227 18.5371 96.7227 18.5371L11.7957 75.6575Z" fill="url(#paint2_linear_131_990)"/>
<path d="M15.6287 80.8716C18.6049 85.2276 19.9685 87.4665 20.8354 88.3384C21.704 89.2103 22.6955 90.3288 27.2828 90.3288H68.8153C75.8924 90.3288 76.8891 89.0116 78.7339 86.5963C83.2784 80.6455 101.609 38.9965 104.75 28.2734C106.066 23.7837 105.423 23.8265 103.511 21.8018C101.006 19.1484 92.7003 11.9951 92.7003 11.9951L15.6287 80.8716Z" fill="url(#paint3_linear_131_990)"/>
<path d="M20.8354 88.3387C21.704 89.2105 22.6955 90.3291 27.2828 90.3291H68.8153C72.0475 90.3291 74.0084 90.0533 75.3634 89.5257L63.0028 80.3288L19.1664 77.708L15.627 80.8718C18.6032 85.2279 19.9668 87.4668 20.8337 88.3387H20.8354Z" fill="#EAA083"/>
<path d="M67.0166 79.8733C68.5201 76.3241 58.8388 82.4925 58.8388 82.4925C64.7093 81.8604 75.9249 88.9041 70.8888 90.2847C76.1143 90.0346 77.0887 88.755 78.7356 86.5967C75.1381 88.5015 65.5131 83.4226 67.0166 79.8716V79.8733Z" fill="#FFCABF"/>
<path d="M4.56504 85.9475C1.56662 81.6754 -0.561462 79.7637 5.88592 66.6562C12.3333 53.5486 27.706 17.5421 30.8478 11.7352C33.9878 5.92824 34.1534 2.33273 42.0889 1.89079C50.0244 1.44884 82.8518 1.84796 87.48 1.84796C93.0826 1.84796 95.1134 6.83953 95.1134 6.83953L65.2315 78.2735L54.8164 82.4222L8.20002 83.2513L4.56504 85.9509V85.9475Z" fill="url(#paint4_linear_131_990)"/>
<path d="M8.20003 83.2481L54.8164 82.419L65.2316 78.2702L95.1134 6.8363C95.1134 6.8363 93.0826 1.84473 87.48 1.84473C87.3759 1.84473 87.253 1.84473 87.1199 1.84473C93.1065 2.44598 90.8317 9.18305 89.2377 14.2277C82.3432 36.056 68.957 62.1872 63.6974 71.098C59.931 77.4822 54.7328 77.227 48.9697 77.227H8.79903C2.77658 77.227 2.06836 82.6006 4.52751 85.7062C4.57188 85.7627 4.61625 85.8192 4.66062 85.8758L8.20003 83.2481Z" fill="#54299A"/>
<path d="M71.8445 72.7958C80.0223 57.5025 92.7857 29.6652 97.4668 16.0488C99.9481 8.83214 95.7278 2.25094 87.4817 1.84668C94.3608 2.22524 92.1269 9.70917 90.3999 15.1769C83.5054 37.0052 70.1191 63.1364 64.8595 72.0473C61.0932 78.4315 55.895 78.1762 50.1319 78.1762H7.81264C4.09404 78.1762 1.94037 82.6317 4.39781 85.7355C6.30063 88.1405 8.9458 91.4928 12.1678 94.8622C14.9239 97.7451 16.796 99.9857 23.9038 99.9857C35.2217 99.9857 61.1973 100.318 71.2813 100.318C80.6862 100.318 84.1761 98.8808 88.3111 92.3733C93.8864 83.5978 110.432 44.0575 113.329 34.7047C116.166 25.5524 112.343 22.0202 109.367 20.8588C110.358 23.2655 109.652 25.513 108.251 30.7306C104.759 43.7389 91.9955 72.9997 84.584 85.9462C80.9865 92.2311 80.3722 94.0314 70.8888 94.0314C58.7381 94.0314 29.2709 93.8652 22.7416 93.8652C16.7909 93.8652 16.54 91.8251 12.9562 87.8716C11.521 86.2888 11.7514 84.2401 14.3965 84.2401C18.8626 84.2401 45.3006 84.2401 54.0621 84.4063C62.8236 84.5724 67.0183 81.8094 71.8411 72.7907L71.8445 72.7958Z" fill="url(#paint5_linear_131_990)"/>
<path d="M65.5251 57.4491C70.4622 49.6465 78.0256 31.1945 80.28 23.4125C81.9285 17.7203 78.6571 20.6152 74.7695 16.2215C71.9588 13.0422 76.0307 8.5166 70.9878 8.5166C65.9449 8.5166 40.3141 8.76156 40.3141 8.76156L32.1158 9.23604C31.7369 10.0154 31.3273 10.8497 30.8478 11.7353C27.7077 17.5422 12.3333 53.5486 5.88592 66.6562C3.66739 71.1682 2.46427 74.3526 1.96254 76.7644C3.27659 71.6409 6.63851 71.8996 11.6353 71.915C24.0966 71.9527 40.7646 71.915 44.0958 71.915C48.7615 71.915 45.8809 66.6237 53.0245 62.0895C59.6579 57.879 62.5301 62.1837 65.5251 57.4508V57.4491Z" fill="#54299A"/>
<path d="M74.7695 16.2215C71.9588 13.0422 76.0307 8.5166 70.9878 8.5166C65.9449 8.5166 40.3141 8.76156 40.3141 8.76156L32.1157 9.23604C31.7369 10.0154 31.3273 10.8497 30.8478 11.7353C27.7077 17.5422 12.3333 53.5486 5.88592 66.6562C4.28346 69.9126 3.21345 72.4752 2.55301 74.5581C3.21003 72.7972 4.11622 70.7331 5.32617 68.2733C11.7736 55.1657 27.1462 19.1592 30.288 13.3523C30.7676 12.4667 31.1771 11.6325 31.556 10.8531L39.7543 10.3786C39.7543 10.3786 65.3851 10.1336 70.428 10.1336C75.4709 10.1336 71.3991 14.6593 74.2098 17.8385C78.0973 22.2323 81.3688 19.3374 79.7202 25.0295C79.4608 25.922 79.1315 26.9583 78.7458 28.0992C79.3806 26.3057 79.9045 24.7109 80.28 23.4125C81.9285 17.7203 78.6571 20.6152 74.7695 16.2215Z" fill="#54299A"/>
<path d="M22.9635 48.4169C26.5643 48.8229 26.421 52.3413 25.3714 54.8028C23.9908 58.042 22.4652 62.0076 20.3115 66.0142C19.006 68.4414 16.4376 68.6538 15.1645 68.6538C12.6832 68.6538 12.2975 68.7258 8.96627 68.5442C5.1487 68.3352 3.67935 71.6567 3.67935 71.6567C1.07514 68.6693 1.80555 67.9498 4.36197 62.112C6.1897 57.9358 7.71025 54.7326 8.49356 53.1139C9.27687 51.4968 10.8196 49.3693 13.6405 49.0713C16.4615 48.7732 20.39 48.124 22.9635 48.4152V48.4169Z" fill="#54299A"/>
<path d="M40.681 8.86627C44.2818 9.27224 44.3296 12.8506 43.2801 15.3139C41.8995 18.5531 40.3738 22.5186 38.2201 26.5252C36.9146 28.9525 34.3462 29.1649 33.0731 29.1649C30.5918 29.1649 30.1481 29.0193 26.8135 28.925C22.1563 28.7949 21.4822 32.2465 21.4822 32.2465C18.878 29.2591 19.7142 28.4608 22.2706 22.6231C24.0983 18.4469 25.6189 15.2436 26.4022 13.6249C27.1855 12.0078 28.7282 9.88034 31.5492 9.58229C34.3855 9.28423 38.1058 8.57335 40.6793 8.86456L40.681 8.86627Z" fill="#54299A"/>
<path d="M22.4037 48.2484C26.0046 48.6543 25.781 51.4704 24.7315 53.9337C23.3509 57.1729 21.8252 61.1384 19.6715 65.145C18.366 67.5723 15.7976 67.7847 14.5245 67.7847C12.0432 67.7847 11.6626 67.6751 8.32631 67.6751C4.98998 67.6751 3.50869 71.9129 3.50869 71.9129C0.904478 68.9255 1.16558 67.0807 3.7203 61.2429C5.54803 57.0667 7.06857 53.8635 7.85188 52.2447C8.6352 50.6277 10.1779 48.5002 12.9989 48.2021C15.8352 47.9041 19.8268 47.9554 22.4003 48.2467L22.4037 48.2484Z" fill="url(#paint6_linear_131_990)"/>
<path d="M19.6715 65.1448C21.8252 61.1382 23.3509 57.171 24.7315 53.9335C25.7503 51.5456 25.9892 48.822 22.716 48.291C24.8953 48.6816 23.6546 50.8365 23.0505 52.3165C22.4208 53.8633 19.3746 61.1382 18.2534 63.2469C17.1322 65.3555 16.0468 65.1791 13.5501 65.1791C11.0534 65.1791 9.27687 65.0249 7.69659 65.0249C3.37729 65.0249 1.92159 69.4769 3.2766 71.637C3.35169 71.7277 3.42849 71.8185 3.5104 71.911C3.5104 71.911 4.9661 67.6732 8.32802 67.6732C11.6899 67.6732 12.0432 67.7828 14.5262 67.7828C15.7993 67.7828 18.3694 67.5704 19.6732 65.1431L19.6715 65.1448Z" fill="url(#paint7_linear_131_990)"/>
<path d="M40.3141 8.76106C43.9149 9.16703 43.6913 11.9831 42.6418 14.4464C41.2612 17.6856 39.7355 21.6511 37.5819 25.6577C36.2763 28.085 33.708 28.2974 32.4349 28.2974C29.9535 28.2974 29.573 28.1878 26.2366 28.1878C22.9003 28.1878 21.419 32.4256 21.419 32.4256C18.8148 29.4382 19.0759 27.5934 21.6306 21.7556C23.4584 17.5794 24.9789 14.3761 25.7622 12.7574C26.5455 11.1404 28.0883 9.01286 30.9092 8.71481C33.7455 8.41675 37.7372 8.46814 40.3106 8.75935L40.3141 8.76106Z" fill="url(#paint8_linear_131_990)"/>
<path d="M37.5836 25.6585C39.7372 21.6519 41.2629 17.6847 42.6435 14.4472C43.6623 12.0593 43.9013 9.33571 40.6281 8.80469C42.8074 9.19524 41.5667 11.3501 40.9626 12.8301C40.3328 14.377 37.2866 21.6519 36.1654 23.7606C35.0442 25.8692 33.9588 25.6928 31.4621 25.6928C28.9654 25.6928 27.1889 25.5386 25.6086 25.5386C21.2893 25.5386 19.8336 29.9906 21.1887 32.1506C21.2637 32.2414 21.3405 32.3322 21.4224 32.4247C21.4224 32.4247 22.8781 28.1868 26.2401 28.1868C29.602 28.1868 29.9552 28.2965 32.4383 28.2965C33.7114 28.2965 36.2815 28.0841 37.5853 25.6568L37.5836 25.6585Z" fill="url(#paint9_linear_131_990)"/>
<path d="M11.9306 72.9011C24.3919 72.9388 41.0598 72.9011 44.391 72.9011C49.0568 72.9011 46.1761 67.6098 53.3198 63.0756C59.9532 58.8651 62.8253 63.1698 65.8203 58.4369C70.5424 50.9735 78.0359 32.7082 79.7458 25.1523C77.0051 33.6675 70.126 50.1804 65.5251 57.4502C62.5301 62.1831 59.6579 57.8802 53.0245 62.0889C45.8809 66.6231 48.7615 71.9145 44.0958 71.9145C40.7646 71.9145 24.0966 71.9522 11.6353 71.9145C6.63852 71.8991 3.27659 71.6404 1.96254 76.7639C1.99155 76.6268 2.02227 76.4847 2.0564 76.3425C1.78506 77.509 1.66901 78.5025 1.67755 79.3761C2.55472 72.4232 6.93546 72.8874 11.9306 72.9011Z" fill="#54299A"/>
<path d="M46.142 53.1408C47.8485 54.4032 52.644 58.1546 55.8165 56.2995C58.9787 54.4495 59.46 46.945 59.8525 44.48V44.5057C62.2451 42.7756 69.0184 37.8012 69.0269 34.9011C69.0304 33.7141 68.0115 31.888 66.1736 30.8072C64.2691 29.6886 62.0966 31.9651 60.6597 31.8212C60.4941 30.2025 60.1716 25.3428 58.3046 22.7836C57.6049 21.8244 56.168 20.305 54.7243 20.2793C51.7156 20.281 48.8366 29.5995 47.0021 31.8298C44.3603 32.0782 37.4215 32.6623 35.3855 35.499C33.3018 38.4041 36.6996 43.2039 37.8498 44.9305C36.8685 46.6795 31.5185 49.3551 31.37 52.2997C31.3 53.6786 33.3274 55.8849 34.5032 56.1487C37.0938 56.7294 43.5241 54.4101 46.1437 53.1408H46.142Z" fill="#B48C1D"/>
<path d="M43.7784 50.1881C45.485 51.4505 50.2804 55.2019 53.4529 53.3468C56.6151 51.4968 57.5964 44.4188 57.9889 41.9521C60.3815 40.2221 67.2299 35.4155 67.2385 32.5154C67.247 29.6925 60.774 29.1152 58.2944 28.8685C58.0657 26.6434 57.5657 20.2883 54.557 20.29C51.5484 20.2918 46.4696 26.6468 44.6368 28.8771C41.995 29.1255 35.0562 29.7096 33.0202 32.5463C30.9365 35.4515 34.3343 40.2512 35.4845 41.9778C34.0988 44.4479 29.974 51.5362 31.8103 53.3793C33.6517 55.2276 41.1588 51.4574 43.7784 50.1881Z" fill="#FFBB01"/>
<path d="M33.5578 33.6015C35.592 30.7665 42.5309 30.1824 45.1743 29.9323C47.0089 27.702 52.0876 21.3469 55.0946 21.3452C55.9393 21.3452 56.5844 21.8454 57.0844 22.6128C56.5417 21.2784 55.7465 20.29 54.5587 20.29C51.5501 20.2918 46.4713 26.6468 44.6385 28.8771C41.9967 29.1255 35.0579 29.7096 33.0219 32.5463C31.6482 34.4614 32.6567 37.1987 33.8326 39.3365C32.9332 37.4059 32.4025 35.2116 33.5578 33.5997V33.6015Z" fill="#FFBB01"/>
<path d="M67.2231 32.2681C66.8852 29.8032 60.9413 29.1368 58.3046 28.873C58.3678 28.9364 58.4275 28.9964 58.4855 29.0529C59.0538 29.6148 59.791 29.9659 60.5829 30.055C62.728 30.2965 65.8391 30.7967 67.2248 32.2681H67.2231Z" fill="#FFBB01"/>
<path d="M35.0527 44.6825L35.3258 44.0676C35.5954 43.4612 35.6603 42.7863 35.5135 42.1388C35.5033 42.0925 35.493 42.0446 35.4811 41.9932C34.0288 44.5712 30.0047 51.5686 31.8086 53.3792C31.841 53.4118 31.8785 53.4375 31.9127 53.4666C31.5389 50.8201 33.8462 46.8289 35.051 44.6808L35.0527 44.6825Z" fill="#54299A"/>
</g>
<defs>
<linearGradient id="paint0_linear_131_990" x1="1.67756" y1="50.9992" x2="114.326" y2="50.9992" gradientUnits="userSpaceOnUse">
<stop stop-color="#9B82CC"/>
<stop offset="1" stop-color="#B49BEB"/>
</linearGradient>
<linearGradient id="paint1_linear_131_990" x1="84.2477" y1="99.3565" x2="29.7064" y2="5.24164" gradientUnits="userSpaceOnUse">
<stop stop-color="#4C238F"/>
<stop offset="0.31" stop-color="#56279F"/>
<stop offset="0.68" stop-color="#5F2AAE"/>
<stop offset="1" stop-color="#632CB3"/>
</linearGradient>
<linearGradient id="paint2_linear_131_990" x1="60.7655" y1="95.3189" x2="60.7655" y2="18.5371" gradientUnits="userSpaceOnUse">
<stop stop-color="#502596"/>
<stop offset="1" stop-color="#5C31A3"/>
</linearGradient>
<linearGradient id="paint3_linear_131_990" x1="60.5368" y1="90.3305" x2="60.5368" y2="11.9951" gradientUnits="userSpaceOnUse">
<stop stop-color="#F7BFA6"/>
<stop offset="1" stop-color="#F7C3A6"/>
</linearGradient>
<linearGradient id="paint4_linear_131_990" x1="48.3963" y1="85.9475" x2="48.3963" y2="1.6801" gradientUnits="userSpaceOnUse">
<stop stop-color="#7332D8"/>
<stop offset="1" stop-color="#9349D8"/>
</linearGradient>
<linearGradient id="paint5_linear_131_990" x1="58.8371" y1="100.32" x2="58.8371" y2="1.84668" gradientUnits="userSpaceOnUse">
<stop stop-color="#642CBD"/>
<stop offset="1" stop-color="#7836D8"/>
</linearGradient>
<linearGradient id="paint6_linear_131_990" x1="1.67755" y1="59.9599" x2="25.4056" y2="59.9599" gradientUnits="userSpaceOnUse">
<stop stop-color="#9B82CC"/>
<stop offset="1" stop-color="#B49BEB"/>
</linearGradient>
<linearGradient id="paint7_linear_131_990" x1="2.78853" y1="60.1036" x2="25.4056" y2="60.1036" gradientUnits="userSpaceOnUse">
<stop stop-color="#7E5FB5"/>
<stop offset="1" stop-color="#9374CC"/>
</linearGradient>
<linearGradient id="paint8_linear_131_990" x1="19.5879" y1="20.4709" x2="43.3159" y2="20.4709" gradientUnits="userSpaceOnUse">
<stop stop-color="#9B82CC"/>
<stop offset="1" stop-color="#B49BEB"/>
</linearGradient>
<linearGradient id="paint9_linear_131_990" x1="20.6989" y1="20.6156" x2="43.3159" y2="20.6156" gradientUnits="userSpaceOnUse">
<stop stop-color="#7E5FB5"/>
<stop offset="1" stop-color="#9374CC"/>
</linearGradient>
<clipPath id="clip0_131_990">
<rect width="116" height="102" fill="white"/>
</clipPath>
</defs>
</svg>
