<svg width="15" height="14" viewBox="0 0 15 14" fill="none" xmlns="http://www.w3.org/2000/svg">
<path opacity="0.2" d="M11.3975 8.28119L8.38475 9.39135L7.2746 12.4041C7.24394 12.4872 7.18855 12.5588 7.11589 12.6095C7.04324 12.6601 6.95682 12.6872 6.86827 12.6872C6.77972 12.6872 6.6933 12.6601 6.62065 12.6095C6.54799 12.5588 6.49261 12.4872 6.46194 12.4041L5.35179 9.39135L2.33905 8.28119C2.25598 8.25053 2.1843 8.19514 2.13368 8.12249C2.08305 8.04984 2.05591 7.96341 2.05591 7.87486C2.05591 7.78631 2.08305 7.69989 2.13368 7.62724C2.1843 7.55459 2.25598 7.4992 2.33905 7.46853L5.35179 6.35838L6.46194 3.34564C6.49261 3.26257 6.54799 3.19089 6.62065 3.14027C6.6933 3.08964 6.77972 3.0625 6.86827 3.0625C6.95682 3.0625 7.04324 3.08964 7.11589 3.14027C7.18855 3.19089 7.24394 3.26257 7.2746 3.34564L8.38475 6.35838L11.3975 7.46853C11.4806 7.4992 11.5522 7.55459 11.6029 7.62724C11.6535 7.69989 11.6806 7.78631 11.6806 7.87486C11.6806 7.96341 11.6535 8.04984 11.6029 8.12249C11.5522 8.19514 11.4806 8.25053 11.3975 8.28119Z" fill="#3599FC"/>
<path d="M11.5485 7.05797L8.72769 6.01562L7.68862 3.19266C7.62709 3.02549 7.51577 2.88123 7.36967 2.77932C7.22357 2.67742 7.04972 2.62278 6.87159 2.62278C6.69346 2.62278 6.51962 2.67742 6.37352 2.77932C6.22742 2.88123 6.11609 3.02549 6.05456 3.19266L5.00894 6.01562L2.18597 7.05469C2.0188 7.11622 1.87454 7.22755 1.77263 7.37365C1.67073 7.51975 1.61609 7.69359 1.61609 7.87172C1.61609 8.04985 1.67073 8.22369 1.77263 8.36979C1.87454 8.51589 2.0188 8.62722 2.18597 8.68875L5.00894 9.73438L6.048 12.5573C6.10953 12.7245 6.22086 12.8688 6.36696 12.9707C6.51306 13.0726 6.6869 13.1272 6.86503 13.1272C7.04316 13.1272 7.217 13.0726 7.3631 12.9707C7.5092 12.8688 7.62053 12.7245 7.68206 12.5573L8.72769 9.73438L11.5507 8.69531C11.7178 8.63378 11.8621 8.52245 11.964 8.37635C12.0659 8.23025 12.1205 8.05641 12.1205 7.87828C12.1205 7.70015 12.0659 7.52631 11.964 7.38021C11.8621 7.23411 11.7178 7.12278 11.5507 7.06125L11.5485 7.05797ZM8.2355 8.98078C8.17611 9.00267 8.12218 9.03718 8.07743 9.08193C8.03268 9.12668 7.99817 9.18061 7.97628 9.24L6.86831 12.2418L5.76253 9.24219C5.74068 9.18218 5.70595 9.12768 5.66079 9.08252C5.61563 9.03736 5.56114 9.00263 5.50112 8.98078L2.50152 7.875L5.50112 6.76922C5.56114 6.74737 5.61563 6.71264 5.66079 6.66748C5.70595 6.62232 5.74068 6.56782 5.76253 6.50781L6.86831 3.5082L7.97409 6.50781C7.99598 6.5672 8.03049 6.62113 8.07524 6.66588C8.12 6.71063 8.17393 6.74514 8.23331 6.76703L11.2351 7.875L8.2355 8.98078ZM8.61831 2.1875C8.61831 2.07147 8.66441 1.96019 8.74645 1.87814C8.8285 1.79609 8.93978 1.75 9.05581 1.75H9.93081V0.875C9.93081 0.758968 9.9769 0.647688 10.059 0.565641C10.141 0.483594 10.2523 0.4375 10.3683 0.4375C10.4843 0.4375 10.5956 0.483594 10.6777 0.565641C10.7597 0.647688 10.8058 0.758968 10.8058 0.875V1.75H11.6808C11.7968 1.75 11.9081 1.79609 11.9902 1.87814C12.0722 1.96019 12.1183 2.07147 12.1183 2.1875C12.1183 2.30353 12.0722 2.41481 11.9902 2.49686C11.9081 2.57891 11.7968 2.625 11.6808 2.625H10.8058V3.5C10.8058 3.61603 10.7597 3.72731 10.6777 3.80936C10.5956 3.89141 10.4843 3.9375 10.3683 3.9375C10.2523 3.9375 10.141 3.89141 10.059 3.80936C9.9769 3.72731 9.93081 3.61603 9.93081 3.5V2.625H9.05581C8.93978 2.625 8.8285 2.57891 8.74645 2.49686C8.66441 2.41481 8.61831 2.30353 8.61831 2.1875ZM14.3058 4.8125C14.3058 4.92853 14.2597 5.03981 14.1777 5.12186C14.0956 5.20391 13.9843 5.25 13.8683 5.25H13.4308V5.6875C13.4308 5.80353 13.3847 5.91481 13.3027 5.99686C13.2206 6.07891 13.1093 6.125 12.9933 6.125C12.8773 6.125 12.766 6.07891 12.684 5.99686C12.6019 5.91481 12.5558 5.80353 12.5558 5.6875V5.25H12.1183C12.0023 5.25 11.891 5.20391 11.809 5.12186C11.7269 5.03981 11.6808 4.92853 11.6808 4.8125C11.6808 4.69647 11.7269 4.58519 11.809 4.50314C11.891 4.42109 12.0023 4.375 12.1183 4.375H12.5558V3.9375C12.5558 3.82147 12.6019 3.71019 12.684 3.62814C12.766 3.54609 12.8773 3.5 12.9933 3.5C13.1093 3.5 13.2206 3.54609 13.3027 3.62814C13.3847 3.71019 13.4308 3.82147 13.4308 3.9375V4.375H13.8683C13.9843 4.375 14.0956 4.42109 14.1777 4.50314C14.2597 4.58519 14.3058 4.69647 14.3058 4.8125Z" fill="#3599FC"/>
</svg>
