<svg width="48" height="48" viewBox="0 0 48 48" fill="none" xmlns="http://www.w3.org/2000/svg">
  <path
    d="M0.498575 19.9012C2.73692 7.4144 14.1081 -1.41213 25.8919 0.18717C27.5236 0.408672 29.0774 0.819335 30.5382 1.39442C42.2311 4.20193 49.7674 15.228 47.6415 27.0907C45.3721 39.7621 32.9415 48.5888 19.8865 46.8127C6.83151 45.0366 -1.91095 33.3262 0.358474 20.6624C0.388104 20.4969 0.420469 20.3324 0.453542 20.1683C0.468523 20.0795 0.482584 19.9901 0.498575 19.9012Z"
    fill="#506079"
    style="mix-blend-mode: screen" />
  <path
    d="M45.9965 27.6624C43.8704 39.5395 32.2246 47.8131 19.9944 46.1483C7.76408 44.4835 -0.425962 33.5073 1.70009 21.6374C3.82614 9.7603 15.4719 1.4867 27.7022 3.15151C39.9325 4.81632 48.1225 15.7925 45.9965 27.6624Z"
    fill="url(#paint0_linear_5656_20673)" />
  <path
    d="M41.8024 26.3582C39.7056 38.0623 29.0534 46.3359 18.014 44.8368C6.97462 43.3378 -0.272945 32.6282 1.83119 20.9241C3.92801 9.22 14.5802 0.946401 25.6196 2.44545C36.659 3.9445 43.9065 14.6541 41.8024 26.3582Z"
    fill="url(#paint1_linear_5656_20673)" />
  <path
    d="M34.9348 25.421C33.4955 33.4351 27.1977 39.3953 20.3593 39.6476C19.6579 39.6692 18.9419 39.6331 18.2405 39.5467C10.5984 38.5089 5.70341 30.5019 7.2742 21.6662C8.85961 12.8232 16.3337 6.4955 23.9831 7.5333C24.6991 7.62699 25.3858 7.78555 26.0434 8.00896C32.4727 10.0846 36.3741 17.4213 34.9348 25.4282V25.421Z"
    fill="url(#paint2_linear_5656_20673)" />
  <path
    style="mix-blend-mode: screen"
    d="M17.9471 20.4553C22.9944 12.7974 24.6287 5.01338 21.5974 3.06933C18.5662 1.12527 12.0172 5.75731 6.96995 13.4153C1.92268 21.0732 0.288372 28.8572 3.31963 30.8013C6.35088 32.7453 12.8998 28.1133 17.9471 20.4553Z"
    fill="url(#paint3_radial_5656_20673)" />
  <path
    style="mix-blend-mode: screen"
    d="M19.5174 19.0449C24.4661 11.5366 25.8286 3.75093 22.5607 1.65512C19.2928 -0.440688 12.6321 3.94701 7.68343 11.4553C2.7348 18.9636 1.37227 26.7493 4.64014 28.8451C7.90801 30.9409 14.5688 26.5532 19.5174 19.0449Z"
    fill="url(#paint4_radial_5656_20673)" />
  <g filter="url(#filter0_i_5656_20673)">
    <path
      d="M21.7596 34C20.7603 34 19.7421 33.8629 18.7051 33.5888C17.668 33.3147 16.7158 32.8937 15.8485 32.3259C15.4902 32.0909 15.2451 31.8168 15.1131 31.5035C15 31.1706 14.9717 30.8476 15.0283 30.5343C15.1037 30.2014 15.2451 29.9273 15.4525 29.7119C15.6788 29.4769 15.9428 29.3399 16.2444 29.3007C16.565 29.2615 16.9138 29.3496 17.2909 29.565C17.9886 29.9762 18.6956 30.2895 19.4121 30.5049C20.1286 30.7203 20.8923 30.828 21.703 30.828C22.4949 30.828 23.1737 30.6811 23.7394 30.3874C24.3051 30.0937 24.7387 29.6825 25.0404 29.1538C25.3421 28.6252 25.4929 28.0084 25.4929 27.3035C25.4929 26.207 25.1724 25.3259 24.5313 24.6601C23.8902 23.9748 23.0135 23.6322 21.901 23.6322C21.2976 23.6322 20.7131 23.7399 20.1475 23.9552C19.5818 24.151 19.0256 24.5035 18.4788 25.0126C18.3091 25.1692 18.0923 25.3259 17.8283 25.4825C17.5643 25.6196 17.2815 25.6881 16.9798 25.6881C16.5084 25.6881 16.1502 25.5608 15.9051 25.3063C15.6599 25.0517 15.5374 24.6993 15.5374 24.249V14.6448C15.5374 14.1161 15.6694 13.7147 15.9333 13.4406C16.2162 13.1469 16.6121 13 17.1212 13H26.4263C26.9354 13 27.3219 13.1371 27.5859 13.4112C27.8687 13.6657 28.0101 14.0476 28.0101 14.5566C28.0101 15.0462 27.8687 15.428 27.5859 15.7021C27.3219 15.9762 26.9354 16.1133 26.4263 16.1133H19.0727V22.6923H18.1394C18.6296 22.007 19.2801 21.4783 20.0909 21.1063C20.9017 20.7343 21.7879 20.5483 22.7495 20.5483C24.0128 20.5483 25.1064 20.8322 26.0303 21.4C26.9731 21.9483 27.699 22.7217 28.2081 23.7203C28.736 24.6993 29 25.8448 29 27.1566C29 28.5077 28.7077 29.7021 28.1232 30.7399C27.5387 31.758 26.6997 32.5608 25.6061 33.1483C24.5313 33.7161 23.2492 34 21.7596 34Z"
      fill="#C35B09" />
  </g>
  <defs>
    <filter
      id="filter0_i_5656_20673"
      x="15"
      y="13"
      width="14"
      height="21"
      filterUnits="userSpaceOnUse"
      color-interpolation-filters="sRGB">
      <feFlood flood-opacity="0" result="BackgroundImageFix" />
      <feBlend mode="normal" in="SourceGraphic" in2="BackgroundImageFix" result="shape" />
      <feColorMatrix
        in="SourceAlpha"
        type="matrix"
        values="0 0 0 0 0 0 0 0 0 0 0 0 0 0 0 0 0 0 127 0"
        result="hardAlpha" />
      <feOffset />
      <feGaussianBlur stdDeviation="0.7" />
      <feComposite in2="hardAlpha" operator="arithmetic" k2="-1" k3="1" />
      <feColorMatrix type="matrix" values="0 0 0 0 0 0 0 0 0 0 0 0 0 0 0 0 0 0 0.25 0" />
      <feBlend mode="normal" in2="shape" result="effect1_innerShadow_5656_20673" />
    </filter>
    <linearGradient
      id="paint0_linear_5656_20673"
      x1="1.73406"
      y1="24.5499"
      x2="46.8624"
      y2="24.4142"
      gradientUnits="userSpaceOnUse">
      <stop stop-color="#FCAE12" />
      <stop offset="1" stop-color="#C15709" />
    </linearGradient>
    <linearGradient
      id="paint1_linear_5656_20673"
      x1="5.06775"
      y1="7.32457"
      x2="38.7412"
      y2="41.0443"
      gradientUnits="userSpaceOnUse">
      <stop stop-color="#EFFF9A" />
      <stop offset="0.55" stop-color="#FCAE12" />
      <stop offset="1" stop-color="#F5AD08" />
    </linearGradient>
    <linearGradient
      id="paint2_linear_5656_20673"
      x1="33.2106"
      y1="26.0912"
      x2="-11.3387"
      y2="16.4302"
      gradientUnits="userSpaceOnUse">
      <stop stop-color="#FCAE12" />
      <stop offset="1" stop-color="#C15709" />
    </linearGradient>
    <radialGradient
      id="paint3_radial_5656_20673"
      cx="0"
      cy="0"
      r="1"
      gradientTransform="matrix(-8.80256 13.3557 -5.31451 -3.40839 11.433 18.7139)"
      gradientUnits="userSpaceOnUse">
      <stop stop-color="#FFEC7F" />
      <stop offset="0.08" stop-color="#FFAA2D" />
      <stop offset="0.13" stop-color="#FF8600" />
      <stop offset="0.16" stop-color="#ED7C00" />
      <stop offset="0.26" stop-color="#B65F00" />
      <stop offset="0.36" stop-color="#854600" />
      <stop offset="0.46" stop-color="#5C3000" />
      <stop offset="0.56" stop-color="#3B1F00" />
      <stop offset="0.66" stop-color="#211100" />
      <stop offset="0.77" stop-color="#0E0700" />
      <stop offset="0.88" stop-color="#030100" />
      <stop offset="1" />
    </radialGradient>
    <radialGradient
      id="paint4_radial_5656_20673"
      cx="0"
      cy="0"
      r="1"
      gradientTransform="matrix(-8.62999 13.0938 -5.77122 -3.7013 12.3849 17.8507)"
      gradientUnits="userSpaceOnUse">
      <stop offset="0.02" stop-color="white" />
      <stop offset="0.11" stop-color="#FFEC7F" />
      <stop offset="0.16" stop-color="#FFAA2D" />
      <stop offset="0.2" stop-color="#FF8600" />
      <stop offset="0.22" stop-color="#ED7C00" />
      <stop offset="0.31" stop-color="#B65F00" />
      <stop offset="0.4" stop-color="#854600" />
      <stop offset="0.5" stop-color="#5C3000" />
      <stop offset="0.59" stop-color="#3B1F00" />
      <stop offset="0.69" stop-color="#211100" />
      <stop offset="0.78" stop-color="#0E0700" />
      <stop offset="0.89" stop-color="#030100" />
      <stop offset="1" />
    </radialGradient>
  </defs>
</svg>
