<svg width="48" height="48" viewBox="0 0 48 48" fill="none" xmlns="http://www.w3.org/2000/svg">
<path d="M0.498575 20.8612C2.73692 8.37436 14.1081 -0.452171 25.8919 1.14713C27.5236 1.36863 29.0774 1.7793 30.5382 2.35438C42.2311 5.16189 49.7674 16.188 47.6415 28.0506C45.3721 40.7221 32.9415 49.5488 19.8865 47.7727C6.83151 45.9965 -1.91095 34.2861 0.358474 21.6223C0.388104 21.4569 0.420469 21.2923 0.453542 21.1282C0.468523 21.0394 0.482584 20.9501 0.498575 20.8612Z" fill="#506079" style="mix-blend-mode:screen"/>
<path d="M45.9965 27.6624C43.8704 39.5395 32.2246 47.8131 19.9944 46.1483C7.76408 44.4835 -0.425962 33.5073 1.70009 21.6374C3.82614 9.7603 15.4719 1.4867 27.7022 3.15151C39.9325 4.81632 48.1225 15.7925 45.9965 27.6624Z" fill="url(#paint0_linear_413_7212)"/>
<path d="M41.8024 26.3579C39.7056 38.062 29.0534 46.3356 18.014 44.8366C6.97462 43.3375 -0.272945 32.628 1.83119 20.9239C3.92801 9.21976 14.5802 0.946157 25.6196 2.44521C36.659 3.94426 43.9065 14.6538 41.8024 26.3579Z" fill="url(#paint1_linear_413_7212)"/>
<path d="M34.9353 25.421C33.496 33.4351 27.1982 39.3953 20.3598 39.6476C19.6584 39.6692 18.9424 39.6331 18.241 39.5467C10.5989 38.5088 5.7039 30.5019 7.27469 21.6662C8.8601 12.8232 16.3342 6.4955 23.9835 7.5333C24.6995 7.62699 25.3863 7.78555 26.0438 8.00896C32.4731 10.0846 36.3745 17.4213 34.9353 25.4282V25.421Z" fill="url(#paint2_linear_413_7212)"/>
<path d="M34.9345 25.4211C34.6423 27.0931 34.1309 28.6714 33.4368 30.12C32.6989 31.72 31.7272 33.1758 30.6167 34.437C27.8769 37.5504 24.202 39.5035 20.3517 39.6404C13.9224 37.5648 10.021 30.2425 11.4603 22.2212C11.7671 20.5275 12.2786 18.9132 12.9799 17.443C13.6813 15.9583 14.5654 14.5962 15.5955 13.3999C18.3499 10.1711 22.0905 8.14598 26.0285 7.99463C32.4578 10.0702 36.3592 17.4069 34.9199 25.4139L34.9345 25.4211Z" fill="url(#paint3_linear_413_7212)"/>
<path style="mix-blend-mode:lighten" opacity="0.26" d="M33.4368 30.127C32.6989 31.727 31.7272 33.1828 30.6167 34.444L12.9873 17.4572C13.6887 15.9725 14.5727 14.6104 15.6029 13.4141L33.4295 30.127H33.4368Z" fill="url(#paint4_radial_413_7212)"/>
<path style="mix-blend-mode:screen" d="M17.9471 20.4553C22.9944 12.7974 24.6287 5.01338 21.5974 3.06933C18.5662 1.12527 12.0172 5.75731 6.96995 13.4153C1.92268 21.0732 0.288372 28.8572 3.31963 30.8013C6.35088 32.7453 12.8998 28.1133 17.9471 20.4553Z" fill="url(#paint5_radial_413_7212)"/>
<path style="mix-blend-mode:screen" d="M19.5179 19.0447C24.4665 11.5364 25.8291 3.75068 22.5612 1.65488C19.2933 -0.440932 12.6325 3.94676 7.68392 11.4551C2.73529 18.9634 1.37276 26.749 4.64063 28.8448C7.9085 30.9407 14.5693 26.553 19.5179 19.0447Z" fill="url(#paint6_radial_413_7212)"/>
<defs>
<linearGradient id="paint0_linear_413_7212" x1="1.73406" y1="24.5499" x2="46.8624" y2="24.4142" gradientUnits="userSpaceOnUse">
<stop stop-color="#FCAE12"/>
<stop offset="1" stop-color="#C15709"/>
</linearGradient>
<linearGradient id="paint1_linear_413_7212" x1="5.06775" y1="7.32432" x2="38.7412" y2="41.0441" gradientUnits="userSpaceOnUse">
<stop stop-color="#EFFF9A"/>
<stop offset="0.55" stop-color="#FCAE12"/>
<stop offset="1" stop-color="#F5AD08"/>
</linearGradient>
<linearGradient id="paint2_linear_413_7212" x1="33.211" y1="26.0912" x2="-11.3382" y2="16.4302" gradientUnits="userSpaceOnUse">
<stop stop-color="#FCAE12"/>
<stop offset="1" stop-color="#C15709"/>
</linearGradient>
<linearGradient id="paint3_linear_413_7212" x1="36.9145" y1="28.5417" x2="-11.5836" y2="11.4028" gradientUnits="userSpaceOnUse">
<stop stop-color="#FFCB44"/>
<stop offset="0.55" stop-color="#FCAE12"/>
<stop offset="1" stop-color="#FD8A00"/>
</linearGradient>
<radialGradient id="paint4_radial_413_7212" cx="0" cy="0" r="1" gradientUnits="userSpaceOnUse" gradientTransform="translate(23.2157 23.7486) scale(11.1855 9.7098)">
<stop stop-color="white"/>
<stop offset="1" stop-color="#FFE37F"/>
</radialGradient>
<radialGradient id="paint5_radial_413_7212" cx="0" cy="0" r="1" gradientTransform="matrix(-8.80256 13.3557 -5.31451 -3.40839 11.433 18.7139)" gradientUnits="userSpaceOnUse">
<stop stop-color="#FFEC7F"/>
<stop offset="0.08" stop-color="#FFAA2D"/>
<stop offset="0.13" stop-color="#FF8600"/>
<stop offset="0.16" stop-color="#ED7C00"/>
<stop offset="0.26" stop-color="#B65F00"/>
<stop offset="0.36" stop-color="#854600"/>
<stop offset="0.46" stop-color="#5C3000"/>
<stop offset="0.56" stop-color="#3B1F00"/>
<stop offset="0.66" stop-color="#211100"/>
<stop offset="0.77" stop-color="#0E0700"/>
<stop offset="0.88" stop-color="#030100"/>
<stop offset="1"/>
</radialGradient>
<radialGradient id="paint6_radial_413_7212" cx="0" cy="0" r="1" gradientTransform="matrix(-8.62999 13.0938 -5.77122 -3.7013 12.3853 17.8505)" gradientUnits="userSpaceOnUse">
<stop offset="0.02" stop-color="white"/>
<stop offset="0.11" stop-color="#FFEC7F"/>
<stop offset="0.16" stop-color="#FFAA2D"/>
<stop offset="0.2" stop-color="#FF8600"/>
<stop offset="0.22" stop-color="#ED7C00"/>
<stop offset="0.31" stop-color="#B65F00"/>
<stop offset="0.4" stop-color="#854600"/>
<stop offset="0.5" stop-color="#5C3000"/>
<stop offset="0.59" stop-color="#3B1F00"/>
<stop offset="0.69" stop-color="#211100"/>
<stop offset="0.78" stop-color="#0E0700"/>
<stop offset="0.89" stop-color="#030100"/>
<stop offset="1"/>
</radialGradient>
</defs>
</svg>
