<svg width="127" height="127" viewBox="0 0 127 127" fill="none" xmlns="http://www.w3.org/2000/svg">
<g clip-path="url(#clip0_131_992)">
<path d="M115.035 17.871C119.623 18.5197 122.819 22.7752 122.172 27.3746L113.605 88.2466C112.958 92.8461 108.713 96.05 104.124 95.4013L11.9635 82.3695C7.37497 81.7209 4.17869 77.4654 4.82579 72.866L13.393 11.994C14.0401 7.39451 18.2854 4.19061 22.874 4.83925L115.035 17.871ZM115.627 13.6667L23.4662 0.63488C16.5716 -0.340047 10.1732 4.48938 9.20057 11.4004L0.633377 72.2724C-0.339232 79.1833 4.47871 85.599 11.3733 86.5739L103.534 99.6057C110.428 100.581 116.829 95.7512 117.801 88.8402L126.369 27.9682C127.341 21.0572 122.523 14.6416 115.629 13.6667H115.627Z" fill="url(#paint0_linear_131_992)"/>
<path d="M105.304 100.24C104.697 100.24 104.081 100.197 103.461 100.111L11.3006 87.0769C4.12952 86.0626 -0.882553 79.3895 0.129274 72.2014L8.69647 11.3294C9.1867 7.85224 11.0005 4.77218 13.8066 2.65329C16.6126 0.536357 20.0697 -0.359947 23.5366 0.131447L115.697 13.1632C119.166 13.6546 122.239 15.4728 124.353 18.2855C126.465 21.0983 127.359 24.5616 126.868 28.0387L118.301 88.9108C117.378 95.4778 111.74 100.238 105.304 100.238V100.24ZM21.6835 1.01792C19.0736 1.01792 16.544 1.86116 14.4184 3.46704C11.83 5.42082 10.1554 8.26305 9.70241 11.4709L1.13522 72.3429C0.201827 78.9748 4.82564 85.1329 11.4417 86.0685L103.602 99.1003C110.22 100.036 116.362 95.4011 117.295 88.7692L125.863 27.8972C126.796 21.2654 122.172 15.1072 115.556 14.1716L23.3954 1.13979C22.8228 1.0592 22.2522 1.01792 21.6835 1.01792ZM105.302 95.9947C104.891 95.9947 104.473 95.9652 104.053 95.9062L11.8927 82.8745C9.53966 82.5423 7.45522 81.3099 6.02572 79.4052C4.59622 77.5006 3.99226 75.1537 4.32365 72.793L12.8908 11.921C13.2222 9.5623 14.4517 7.47289 16.3518 6.03998C18.252 4.60707 20.5933 4.00167 22.9483 4.33386L115.109 17.3656C119.968 18.0536 123.364 22.5744 122.678 27.4451L114.111 88.3172C113.485 92.7672 109.665 95.9927 105.304 95.9927L105.302 95.9947ZM21.6855 5.26357C19.9874 5.26357 18.3422 5.81197 16.9617 6.85373C15.2792 8.12349 14.1909 9.9731 13.8968 12.0625L5.3296 72.9365C5.03546 75.0259 5.57079 77.1055 6.83753 78.792C8.10428 80.4784 9.94949 81.5693 12.0339 81.8642L104.195 94.896C108.501 95.5033 112.495 92.4901 113.103 88.1756L121.67 27.3036C122.278 22.9892 119.27 18.9833 114.966 18.374L22.8032 5.3422C22.4287 5.28913 22.0561 5.26357 21.6855 5.26357Z" fill="url(#paint1_linear_131_992)"/>
<path d="M105.471 96.9501L10.7556 83.8298C6.27098 83.2107 3.14726 79.1478 3.78063 74.7548L13.2459 10.8636C13.8793 6.47055 18.0266 3.41211 22.5112 4.03323L116.652 17.9829C121.137 18.6021 124.261 22.665 123.627 27.058L114.738 90.1197C114.105 94.5127 109.958 97.5712 105.473 96.9501H105.471Z" fill="#00A326"/>
<path d="M102.7 92.9379L11.4046 79.6683C6.77493 78.996 3.57866 74.774 4.26693 70.2413L13.1812 11.4096C13.8675 6.87501 18.1776 3.74581 22.8073 4.41803L114.101 17.6857C118.731 18.3579 121.927 22.58 121.239 27.1126L112.325 85.9444C111.638 90.479 107.328 93.6082 102.699 92.9359L102.7 92.9379Z" fill="url(#paint2_linear_131_992)"/>
<path d="M73.7124 32.3471C76.4773 34.7254 78.1303 38.2949 77.9538 42.1219C79.1108 42.8924 80.4422 43.4369 81.907 43.657C87.2544 44.4629 92.241 40.7735 93.045 35.4134C93.8489 30.0532 90.1683 25.0548 84.819 24.2489C79.5226 23.4509 74.585 27.0715 73.7104 32.3471H73.7124Z" fill="#037F1A"/>
<path d="M64.355 51.2557C69.7102 52.0124 74.6615 48.2759 75.4164 42.9079C76.1714 37.5418 72.4437 32.5768 67.0885 31.82C61.7352 31.0633 56.78 34.7998 56.025 40.1659C55.2701 45.5319 58.9997 50.497 64.353 51.2537L64.355 51.2557Z" fill="#FFF5C2"/>
<path d="M68.3748 52.5005L60.1488 51.3369C53.3033 50.3699 46.95 55.1639 45.9852 62.0257L44.5655 72.1092L44.5694 72.2703L45.2322 72.5848C51.4757 75.5548 57.0545 77.0388 61.7254 77.6993C70.8475 78.9887 76.5028 77.1292 76.8518 77.0093L77.546 76.7735L77.6146 76.7833L79.0343 66.6979C80.003 59.838 75.2203 53.4676 68.3748 52.5005Z" fill="#FFF5C2"/>
<path d="M85.9171 44.9385L77.7656 43.708C77.1871 46.965 75.3517 49.6971 72.832 51.4838C78.6362 54.2121 82.2345 60.5294 81.2325 67.2006L80.7658 70.3043C88.8584 71.2222 93.8411 69.636 94.1686 69.5279L94.8647 69.2959L94.9333 69.3057L96.4452 59.2322C97.4727 52.3821 92.7489 45.9684 85.9151 44.9385H85.9171Z" fill="#037F1A"/>
<path d="M48.903 38.6807C50.7973 38.9657 52.6425 38.6788 54.2779 37.9593C55.2171 34.9284 57.2839 32.4675 59.9312 30.9776C59.9684 30.7968 60.0135 30.6199 60.041 30.4371C60.8449 25.0769 57.1624 20.0785 51.8169 19.2726C46.4676 18.4667 41.483 22.1561 40.679 27.5182C39.875 32.8764 43.5556 37.8748 48.905 38.6807H48.903Z" fill="#037F1A"/>
<path d="M56.2466 48.9841C54.372 46.5467 53.4229 43.4097 53.8092 40.1448C53.5112 40.0761 53.2151 40.0073 52.9072 39.962L44.693 38.7237C37.8572 37.6938 31.4608 42.4289 30.4313 49.2789L28.9194 59.3505V59.5097L29.5803 59.8321C34.5668 62.2596 39.124 63.718 43.1458 64.5672L43.6027 61.5264C44.6047 54.8552 49.8972 49.8804 56.2466 48.9841Z" fill="#037F1A"/>
</g>
<ellipse cx="66.7133" cy="123.03" rx="47.5" ry="3.96992" fill="#9826CF"/>
<defs>
<linearGradient id="paint0_linear_131_992" x1="4.91609" y1="41.8362" x2="122.092" y2="58.3274" gradientUnits="userSpaceOnUse">
<stop offset="0.01" stop-color="#FFC200"/>
<stop offset="0.3" stop-color="#FCF100"/>
<stop offset="0.31" stop-color="#FCEF00"/>
<stop offset="0.57" stop-color="#FDD600"/>
<stop offset="0.81" stop-color="#FEC700"/>
<stop offset="1" stop-color="#FFC200"/>
</linearGradient>
<linearGradient id="paint1_linear_131_992" x1="69.2198" y1="6.09305" x2="57.7242" y2="94.1401" gradientUnits="userSpaceOnUse">
<stop stop-color="#F07200"/>
<stop offset="0.1" stop-color="#F17600"/>
<stop offset="0.64" stop-color="#F68B00"/>
<stop offset="1" stop-color="#F99300"/>
</linearGradient>
<linearGradient id="paint2_linear_131_992" x1="62.7529" y1="93.0283" x2="62.7529" y2="4.32761" gradientUnits="userSpaceOnUse">
<stop stop-color="#00913C"/>
<stop offset="0.19" stop-color="#00A326"/>
<stop offset="1" stop-color="#69BB00"/>
</linearGradient>
<clipPath id="clip0_131_992">
<rect width="127" height="100.241" fill="white"/>
</clipPath>
</defs>
</svg>
