<svg width="140" height="126" viewBox="0 0 140 126" fill="none" xmlns="http://www.w3.org/2000/svg">
<ellipse cx="67.779" cy="121.124" rx="48.9759" ry="4.12429" fill="#4E49E4"/>
<path d="M93.7006 60.6495C100.189 52.9803 112.403 54.438 116.905 63.4185L135.132 99.7838C137.131 103.774 134.231 108.472 129.768 108.472H66.1776C61.0696 108.472 58.2978 102.497 61.5969 98.5971L93.7006 60.6495Z" fill="#27A1FF"/>
<path d="M78.3739 0.888672H105.933C107.995 0.888672 109.442 2.92125 108.768 4.87L102.843 21.987C102.424 23.1953 101.286 24.0057 100.008 24.0057H71.9139L78.3739 0.888672Z" fill="#F66060"/>
<line x1="77.9355" y1="1.23625" x2="67.8155" y2="36.656" stroke="#514848" stroke-width="2" stroke-linecap="round"/>
<path d="M56.2394 42.8239C62.7281 35.1685 74.9268 36.6253 79.4303 45.5934L106.529 99.5568C108.533 103.547 105.632 108.249 101.167 108.249H13.7356C8.62506 108.249 5.85414 102.268 9.15854 98.3699L56.2394 42.8239Z" fill="#CFF5FF"/>
</svg>
