<svg width="78" height="78" viewBox="0 0 78 78" fill="none" xmlns="http://www.w3.org/2000/svg">
<g filter="url(#filter0_d_6851_23683)">
<path d="M64.1833 30.5891C64.1833 30.5891 64.2055 30.6556 64.2277 30.6888C64.272 30.7997 64.3274 30.9105 64.3717 31.0324L64.1833 30.5891Z" fill="#3CDDF0"/>
<path d="M65.9231 39.2439C65.9564 37.1938 65.6904 35.1105 65.0588 33.0382C62.8978 25.8906 58.1881 18.7097 51.4062 15.219C36.3462 7.46181 14.8257 17.0142 12.3102 34.1353C10.249 48.1536 19.0035 62.327 33.1991 64.6431C43.239 66.2831 53.556 62.6927 59.7174 55.0242C63.3522 50.4918 65.8234 44.9842 65.9231 39.2439Z" fill="#FFD423"/>
<path d="M65.3026 33.9138C65.225 35.7201 64.9923 37.5264 64.5823 39.2884C63.862 42.4245 62.5322 45.4276 60.604 48.0096C58.4763 50.8576 55.717 53.1515 52.6141 54.8581C48.6912 57.019 44.3029 58.382 39.7927 58.3709C37.4544 58.3709 35.1162 57.9942 32.911 57.2517C30.8498 56.5646 28.8994 55.5562 27.0931 54.3594C24.1454 52.4201 21.6631 49.8602 19.6573 46.9679C17.574 43.9759 16.0115 40.6182 14.992 37.1164C14.2384 34.5122 13.773 31.8083 13.6732 29.0933C13.0416 30.689 12.5762 32.3623 12.3213 34.1243C10.2601 48.1426 19.0146 62.316 33.2102 64.6321C43.2501 66.2722 53.5671 62.6817 59.7285 55.0132C63.3633 50.4808 65.8345 44.9732 65.9342 39.233C65.9675 37.471 65.768 35.6868 65.3137 33.9027L65.3026 33.9138Z" fill="#F8AE00"/>
<path d="M11.4791 37.1052C10.6813 47.4997 15.9672 57.85 25.1428 63.014C29.786 65.6293 35.1938 66.7707 40.513 66.2942C46.2201 65.7844 51.6833 63.5792 56.1825 60.0552C60.6816 56.5313 63.8509 51.9435 65.2583 46.6132C66.7654 40.9172 66.1338 34.6672 63.9618 29.2261C61.7454 23.6742 57.9555 18.6653 52.8469 15.4516C47.7382 12.238 41.3663 10.9082 35.3268 11.562C29.4979 12.1936 24.0014 14.4986 19.8014 18.6099C15.8231 22.4996 13.1857 27.6636 12.0554 33.0714C11.7783 34.4012 11.59 35.7532 11.4791 37.1052C11.3794 38.3574 13.3298 38.3463 13.4406 37.1052C13.8617 31.9633 15.6569 26.9211 18.7598 22.7544C21.8626 18.5877 26.4948 15.496 31.6588 14.1772C37.1553 12.7699 43.1504 13.1134 48.4031 15.3187C53.6558 17.5239 57.745 21.5465 60.4821 26.4114C63.2193 31.2762 64.538 37.0497 63.995 42.657C63.4963 47.81 61.1027 52.5862 57.4901 56.2764C50.2538 63.6568 38.7954 66.5491 29.0657 62.7259C20.0896 59.2019 13.9614 50.3145 13.4073 40.8064C13.3408 39.5653 13.3519 38.3352 13.4517 37.0941C13.5514 35.8529 11.59 35.8529 11.4902 37.0941L11.4791 37.1052Z" fill="#FA8D01"/>
<path d="M49.3405 31.0021C49.1042 28.7721 48.1307 26.8894 46.5523 25.2534C44.0666 22.6761 40.39 21.8627 36.9308 22.7401C33.0085 23.7363 30.5323 26.9716 29.5021 30.5817C28.9822 32.4187 30.5228 34.5756 32.4414 34.8681C33.0274 34.9595 33.6323 34.932 34.2088 34.7767C34.7476 34.6304 35.2485 34.3654 35.6643 34.009C36.0897 33.6434 36.4299 33.1773 36.6662 32.6746C36.7891 32.4004 36.8741 32.108 36.9781 31.8247C37.1104 31.4682 37.2711 31.1301 37.4979 30.8193C37.7814 30.4172 38.1595 30.0699 38.6132 29.8505C39.133 29.5946 39.7473 29.5307 40.2955 29.7317C40.8248 29.9237 41.2595 30.3532 41.5242 30.8193C41.8172 31.3494 41.9117 31.98 41.7888 32.5741C41.666 33.1956 41.3257 33.7165 40.7586 34.0364C40.39 34.2466 39.9931 34.3837 39.5772 34.4842C38.8873 34.6579 38.169 34.7858 37.479 34.9869C36.7985 35.1788 36.1464 35.453 35.5509 35.8186C35.1634 36.0562 34.8043 36.3304 34.4735 36.6411C33.2542 37.7927 32.8478 39.4103 32.8856 41.0006C32.9234 42.9016 34.946 44.5924 36.9119 44.3822C38.5659 44.2085 39.8135 43.1849 40.2483 41.7683C40.6358 41.6769 41.0138 41.5947 41.4013 41.5033C44.2556 40.8361 46.6374 39.3007 48.1118 36.8148C49.1136 35.124 49.5578 32.9488 49.3499 31.0112L49.3405 31.0021ZM37.7342 30.408C37.6869 30.4446 37.6775 30.4537 37.7342 30.408Z" fill="white"/>
<path d="M36.593 54.3342C38.6611 54.7046 41.0116 53.4701 41.3445 51.6009C41.6875 49.7228 40.4164 47.8623 38.2071 47.4656C36.139 47.0952 33.7884 48.3297 33.4555 50.1989C33.1125 52.077 34.3836 53.9375 36.593 54.3342Z" fill="white"/>
</g>
<defs>
<filter id="filter0_d_6851_23683" x="-4.99998" y="-4.49961" width="86.8" height="86.8" filterUnits="userSpaceOnUse" color-interpolation-filters="sRGB">
<feFlood flood-opacity="0" result="BackgroundImageFix"/>
<feColorMatrix in="SourceAlpha" type="matrix" values="0 0 0 0 0 0 0 0 0 0 0 0 0 0 0 0 0 0 127 0" result="hardAlpha"/>
<feOffset/>
<feGaussianBlur stdDeviation="5.7"/>
<feComposite in2="hardAlpha" operator="out"/>
<feColorMatrix type="matrix" values="0 0 0 0 1 0 0 0 0 0.886064 0 0 0 0 0.000863882 0 0 0 1 0"/>
<feBlend mode="normal" in2="BackgroundImageFix" result="effect1_dropShadow_6851_23683"/>
<feBlend mode="normal" in="SourceGraphic" in2="effect1_dropShadow_6851_23683" result="shape"/>
</filter>
</defs>
</svg>
