<svg width="85" height="83" viewBox="0 0 85 83" fill="none" xmlns="http://www.w3.org/2000/svg">
<g filter="url(#filter0_d_8225_23047)">
<mask id="path-1-outside-1_8225_23047" maskUnits="userSpaceOnUse" x="13.9361" y="12.3999" width="54" height="58" fill="black">
<rect fill="white" x="13.9361" y="12.3999" width="54" height="58"/>
<path fill-rule="evenodd" clip-rule="evenodd" d="M39.7407 14.4133C40.1222 14.4108 40.5042 14.4104 40.8861 14.412C43.1505 14.4206 45.4118 14.5001 47.5532 14.644L48.3714 14.6875C49.205 14.7385 50.0848 14.813 51.0053 14.9169C51.9743 15.0263 52.8885 15.157 53.7439 15.3005C54.4778 15.4139 55.1704 15.5377 55.8135 15.671C56.4447 15.8018 57.0281 15.9422 57.5559 16.0915C58.0693 16.2361 58.5297 16.3896 58.9304 16.5516C59.039 16.5954 59.176 16.6513 59.3336 16.7217C59.8073 16.933 60.4676 17.2763 61.1035 17.8198C61.2318 17.9295 61.3493 18.0351 61.4569 18.1415C61.6723 18.3543 61.8505 18.5681 62.0107 18.8112C62.051 18.8725 62.0902 18.9356 62.1285 19.0011C62.4706 19.586 62.7425 20.3585 63.1509 21.6496C63.1891 21.7688 63.2264 21.8921 63.2674 22.02C64.4891 25.9156 65.246 26.6493 65.6106 28.5207H65.6132C65.6757 28.842 65.7261 29.1972 65.7664 29.607C65.8278 30.2411 65.844 30.819 65.8371 31.3208C65.8301 31.8341 65.799 32.2682 65.7664 32.6022L65.7612 32.7709C65.6499 34.4964 63.8386 35.8675 61.6206 35.8677C60.4467 35.8677 59.3889 35.4806 58.6346 34.8631V44.9008H62.1586C62.7759 44.9008 63.2777 45.4002 63.2779 46.0161V48.2124C63.2777 48.881 62.7344 49.4236 62.0643 49.424H61.9413V63.8754H62.1586C62.7761 63.8754 63.2779 64.376 63.2779 64.992V67.187C63.2779 67.8558 62.7345 68.3996 62.0643 68.3999H19.2537C18.6277 68.3996 18.12 67.892 18.12 67.2675V64.992C18.12 64.376 18.6218 63.8754 19.2393 63.8754H19.4566V49.424H19.2537C18.6278 49.4237 18.1202 48.9172 18.12 48.2929V46.0161C18.1202 45.4002 18.6219 44.9008 19.2393 44.9008H22.8405V35.0885C22.1171 35.5735 21.181 35.8689 20.1569 35.869C17.8672 35.869 16.0102 34.4072 16.0098 32.6035C15.9468 31.9787 15.8953 31.0554 15.9823 29.9405C15.9908 29.8316 15.9985 29.7207 16.0098 29.6083C16.0155 29.5514 16.0233 29.4955 16.0294 29.4408C16.0392 29.3538 16.0484 29.2695 16.0595 29.1877C16.0619 29.1705 16.0636 29.1533 16.0661 29.1363C16.0683 29.1201 16.0716 29.1036 16.0739 29.0875C16.0985 28.9188 16.1245 28.7591 16.1564 28.6037C16.1626 28.5736 16.1708 28.544 16.1773 28.5141C16.2398 28.227 16.3174 27.9504 16.4156 27.6492C16.46 27.5129 16.5086 27.3716 16.5622 27.2221C16.5786 27.1764 16.5947 27.1297 16.6119 27.0824C16.9407 26.1821 17.4376 24.9713 18.2129 22.8189C18.3317 22.4895 18.4414 22.1846 18.5441 21.904L18.5428 21.9053C18.6852 21.5157 18.8164 21.1712 18.9355 20.8625C18.9417 20.8466 18.9478 20.8308 18.9539 20.8151C18.9841 20.7371 19.0138 20.6616 19.0429 20.5883C19.1147 20.4073 19.1832 20.24 19.2497 20.0847C19.2999 19.9675 19.3481 19.8569 19.3963 19.7525C19.4223 19.6963 19.448 19.6419 19.4736 19.589C19.5866 19.356 19.696 19.154 19.81 18.9734C19.819 18.9591 19.8284 18.9452 19.8375 18.9312C19.8536 18.9062 19.8696 18.8815 19.8859 18.8574C19.9157 18.8131 19.9457 18.7701 19.9763 18.7282C19.9963 18.7007 20.0174 18.6743 20.0378 18.6477C20.0518 18.6295 20.0642 18.6102 20.0784 18.5924C20.0937 18.5731 20.1099 18.5546 20.1255 18.5357C20.1451 18.5119 20.1656 18.489 20.1857 18.4658C20.309 18.3233 20.4424 18.1907 20.5902 18.0571C20.6677 17.9872 20.7485 17.9163 20.835 17.8449C20.8542 17.829 20.8729 17.8121 20.8926 17.7961C21.1067 17.6227 21.8229 17.0625 23.0578 16.5503C23.4014 16.4077 23.7758 16.2734 24.1784 16.1456C25.0751 15.8617 26.1105 15.6156 27.2521 15.4033C28.8091 15.115 30.5641 14.8923 32.4334 14.7323C32.4735 14.7289 32.5137 14.7252 32.5539 14.7218C32.5774 14.7198 32.601 14.7171 32.6245 14.7152C33.0464 14.6803 33.4739 14.6491 33.9061 14.6203C33.9072 14.6163 33.909 14.6124 33.9101 14.6084C34.9013 14.5348 35.9418 14.4765 37.027 14.441C37.9638 14.4109 38.8697 14.3981 39.7394 14.4001C39.74 14.4044 39.74 14.409 39.7407 14.4133ZM40.8861 32.6866L40.8757 32.85C40.8574 33.0405 40.8144 33.2251 40.7565 33.405C40.6196 33.9316 40.3449 34.5315 39.7171 35.0134C38.6473 35.834 37.1234 35.8683 36.7416 35.8677L36.3829 35.8598C35.9405 35.8373 35.2719 35.7522 34.5869 35.4379C33.1814 34.793 32.7252 33.6467 32.5931 33.2033L32.5552 33.0596C32.4583 33.6014 32.1896 34.0993 31.7985 34.5217C31.6887 34.6403 31.5711 34.7547 31.4425 34.8605C30.8554 35.3429 30.0827 35.6847 29.2144 35.8123C28.9664 35.8487 28.71 35.8677 28.4486 35.8677C28.0122 35.8676 27.5908 35.8089 27.1932 35.7081V44.9008H54.2819V35.7925C53.834 35.885 53.2815 35.9424 52.6678 35.8729C51.0566 35.6907 49.6844 34.7293 49.0534 33.4077C48.5984 34.8218 46.9721 35.8676 45.0346 35.8677L44.6104 35.8505C44.4712 35.8394 44.3342 35.8221 44.1994 35.8004C42.3318 35.4996 40.921 34.2105 40.8887 32.6562C40.8876 32.6661 40.8873 32.6767 40.8861 32.6866Z"/>
</mask>
<path fill-rule="evenodd" clip-rule="evenodd" d="M39.7407 14.4133C40.1222 14.4108 40.5042 14.4104 40.8861 14.412C43.1505 14.4206 45.4118 14.5001 47.5532 14.644L48.3714 14.6875C49.205 14.7385 50.0848 14.813 51.0053 14.9169C51.9743 15.0263 52.8885 15.157 53.7439 15.3005C54.4778 15.4139 55.1704 15.5377 55.8135 15.671C56.4447 15.8018 57.0281 15.9422 57.5559 16.0915C58.0693 16.2361 58.5297 16.3896 58.9304 16.5516C59.039 16.5954 59.176 16.6513 59.3336 16.7217C59.8073 16.933 60.4676 17.2763 61.1035 17.8198C61.2318 17.9295 61.3493 18.0351 61.4569 18.1415C61.6723 18.3543 61.8505 18.5681 62.0107 18.8112C62.051 18.8725 62.0902 18.9356 62.1285 19.0011C62.4706 19.586 62.7425 20.3585 63.1509 21.6496C63.1891 21.7688 63.2264 21.8921 63.2674 22.02C64.4891 25.9156 65.246 26.6493 65.6106 28.5207H65.6132C65.6757 28.842 65.7261 29.1972 65.7664 29.607C65.8278 30.2411 65.844 30.819 65.8371 31.3208C65.8301 31.8341 65.799 32.2682 65.7664 32.6022L65.7612 32.7709C65.6499 34.4964 63.8386 35.8675 61.6206 35.8677C60.4467 35.8677 59.3889 35.4806 58.6346 34.8631V44.9008H62.1586C62.7759 44.9008 63.2777 45.4002 63.2779 46.0161V48.2124C63.2777 48.881 62.7344 49.4236 62.0643 49.424H61.9413V63.8754H62.1586C62.7761 63.8754 63.2779 64.376 63.2779 64.992V67.187C63.2779 67.8558 62.7345 68.3996 62.0643 68.3999H19.2537C18.6277 68.3996 18.12 67.892 18.12 67.2675V64.992C18.12 64.376 18.6218 63.8754 19.2393 63.8754H19.4566V49.424H19.2537C18.6278 49.4237 18.1202 48.9172 18.12 48.2929V46.0161C18.1202 45.4002 18.6219 44.9008 19.2393 44.9008H22.8405V35.0885C22.1171 35.5735 21.181 35.8689 20.1569 35.869C17.8672 35.869 16.0102 34.4072 16.0098 32.6035C15.9468 31.9787 15.8953 31.0554 15.9823 29.9405C15.9908 29.8316 15.9985 29.7207 16.0098 29.6083C16.0155 29.5514 16.0233 29.4955 16.0294 29.4408C16.0392 29.3538 16.0484 29.2695 16.0595 29.1877C16.0619 29.1705 16.0636 29.1533 16.0661 29.1363C16.0683 29.1201 16.0716 29.1036 16.0739 29.0875C16.0985 28.9188 16.1245 28.7591 16.1564 28.6037C16.1626 28.5736 16.1708 28.544 16.1773 28.5141C16.2398 28.227 16.3174 27.9504 16.4156 27.6492C16.46 27.5129 16.5086 27.3716 16.5622 27.2221C16.5786 27.1764 16.5947 27.1297 16.6119 27.0824C16.9407 26.1821 17.4376 24.9713 18.2129 22.8189C18.3317 22.4895 18.4414 22.1846 18.5441 21.904L18.5428 21.9053C18.6852 21.5157 18.8164 21.1712 18.9355 20.8625C18.9417 20.8466 18.9478 20.8308 18.9539 20.8151C18.9841 20.7371 19.0138 20.6616 19.0429 20.5883C19.1147 20.4073 19.1832 20.24 19.2497 20.0847C19.2999 19.9675 19.3481 19.8569 19.3963 19.7525C19.4223 19.6963 19.448 19.6419 19.4736 19.589C19.5866 19.356 19.696 19.154 19.81 18.9734C19.819 18.9591 19.8284 18.9452 19.8375 18.9312C19.8536 18.9062 19.8696 18.8815 19.8859 18.8574C19.9157 18.8131 19.9457 18.7701 19.9763 18.7282C19.9963 18.7007 20.0174 18.6743 20.0378 18.6477C20.0518 18.6295 20.0642 18.6102 20.0784 18.5924C20.0937 18.5731 20.1099 18.5546 20.1255 18.5357C20.1451 18.5119 20.1656 18.489 20.1857 18.4658C20.309 18.3233 20.4424 18.1907 20.5902 18.0571C20.6677 17.9872 20.7485 17.9163 20.835 17.8449C20.8542 17.829 20.8729 17.8121 20.8926 17.7961C21.1067 17.6227 21.8229 17.0625 23.0578 16.5503C23.4014 16.4077 23.7758 16.2734 24.1784 16.1456C25.0751 15.8617 26.1105 15.6156 27.2521 15.4033C28.8091 15.115 30.5641 14.8923 32.4334 14.7323C32.4735 14.7289 32.5137 14.7252 32.5539 14.7218C32.5774 14.7198 32.601 14.7171 32.6245 14.7152C33.0464 14.6803 33.4739 14.6491 33.9061 14.6203C33.9072 14.6163 33.909 14.6124 33.9101 14.6084C34.9013 14.5348 35.9418 14.4765 37.027 14.441C37.9638 14.4109 38.8697 14.3981 39.7394 14.4001C39.74 14.4044 39.74 14.409 39.7407 14.4133ZM40.8861 32.6866L40.8757 32.85C40.8574 33.0405 40.8144 33.2251 40.7565 33.405C40.6196 33.9316 40.3449 34.5315 39.7171 35.0134C38.6473 35.834 37.1234 35.8683 36.7416 35.8677L36.3829 35.8598C35.9405 35.8373 35.2719 35.7522 34.5869 35.4379C33.1814 34.793 32.7252 33.6467 32.5931 33.2033L32.5552 33.0596C32.4583 33.6014 32.1896 34.0993 31.7985 34.5217C31.6887 34.6403 31.5711 34.7547 31.4425 34.8605C30.8554 35.3429 30.0827 35.6847 29.2144 35.8123C28.9664 35.8487 28.71 35.8677 28.4486 35.8677C28.0122 35.8676 27.5908 35.8089 27.1932 35.7081V44.9008H54.2819V35.7925C53.834 35.885 53.2815 35.9424 52.6678 35.8729C51.0566 35.6907 49.6844 34.7293 49.0534 33.4077C48.5984 34.8218 46.9721 35.8676 45.0346 35.8677L44.6104 35.8505C44.4712 35.8394 44.3342 35.8221 44.1994 35.8004C42.3318 35.4996 40.921 34.2105 40.8887 32.6562C40.8876 32.6661 40.8873 32.6767 40.8861 32.6866Z" fill="#DE9358"/>
<path fill-rule="evenodd" clip-rule="evenodd" d="M39.7407 14.4133C40.1222 14.4108 40.5042 14.4104 40.8861 14.412C43.1505 14.4206 45.4118 14.5001 47.5532 14.644L48.3714 14.6875C49.205 14.7385 50.0848 14.813 51.0053 14.9169C51.9743 15.0263 52.8885 15.157 53.7439 15.3005C54.4778 15.4139 55.1704 15.5377 55.8135 15.671C56.4447 15.8018 57.0281 15.9422 57.5559 16.0915C58.0693 16.2361 58.5297 16.3896 58.9304 16.5516C59.039 16.5954 59.176 16.6513 59.3336 16.7217C59.8073 16.933 60.4676 17.2763 61.1035 17.8198C61.2318 17.9295 61.3493 18.0351 61.4569 18.1415C61.6723 18.3543 61.8505 18.5681 62.0107 18.8112C62.051 18.8725 62.0902 18.9356 62.1285 19.0011C62.4706 19.586 62.7425 20.3585 63.1509 21.6496C63.1891 21.7688 63.2264 21.8921 63.2674 22.02C64.4891 25.9156 65.246 26.6493 65.6106 28.5207H65.6132C65.6757 28.842 65.7261 29.1972 65.7664 29.607C65.8278 30.2411 65.844 30.819 65.8371 31.3208C65.8301 31.8341 65.799 32.2682 65.7664 32.6022L65.7612 32.7709C65.6499 34.4964 63.8386 35.8675 61.6206 35.8677C60.4467 35.8677 59.3889 35.4806 58.6346 34.8631V44.9008H62.1586C62.7759 44.9008 63.2777 45.4002 63.2779 46.0161V48.2124C63.2777 48.881 62.7344 49.4236 62.0643 49.424H61.9413V63.8754H62.1586C62.7761 63.8754 63.2779 64.376 63.2779 64.992V67.187C63.2779 67.8558 62.7345 68.3996 62.0643 68.3999H19.2537C18.6277 68.3996 18.12 67.892 18.12 67.2675V64.992C18.12 64.376 18.6218 63.8754 19.2393 63.8754H19.4566V49.424H19.2537C18.6278 49.4237 18.1202 48.9172 18.12 48.2929V46.0161C18.1202 45.4002 18.6219 44.9008 19.2393 44.9008H22.8405V35.0885C22.1171 35.5735 21.181 35.8689 20.1569 35.869C17.8672 35.869 16.0102 34.4072 16.0098 32.6035C15.9468 31.9787 15.8953 31.0554 15.9823 29.9405C15.9908 29.8316 15.9985 29.7207 16.0098 29.6083C16.0155 29.5514 16.0233 29.4955 16.0294 29.4408C16.0392 29.3538 16.0484 29.2695 16.0595 29.1877C16.0619 29.1705 16.0636 29.1533 16.0661 29.1363C16.0683 29.1201 16.0716 29.1036 16.0739 29.0875C16.0985 28.9188 16.1245 28.7591 16.1564 28.6037C16.1626 28.5736 16.1708 28.544 16.1773 28.5141C16.2398 28.227 16.3174 27.9504 16.4156 27.6492C16.46 27.5129 16.5086 27.3716 16.5622 27.2221C16.5786 27.1764 16.5947 27.1297 16.6119 27.0824C16.9407 26.1821 17.4376 24.9713 18.2129 22.8189C18.3317 22.4895 18.4414 22.1846 18.5441 21.904L18.5428 21.9053C18.6852 21.5157 18.8164 21.1712 18.9355 20.8625C18.9417 20.8466 18.9478 20.8308 18.9539 20.8151C18.9841 20.7371 19.0138 20.6616 19.0429 20.5883C19.1147 20.4073 19.1832 20.24 19.2497 20.0847C19.2999 19.9675 19.3481 19.8569 19.3963 19.7525C19.4223 19.6963 19.448 19.6419 19.4736 19.589C19.5866 19.356 19.696 19.154 19.81 18.9734C19.819 18.9591 19.8284 18.9452 19.8375 18.9312C19.8536 18.9062 19.8696 18.8815 19.8859 18.8574C19.9157 18.8131 19.9457 18.7701 19.9763 18.7282C19.9963 18.7007 20.0174 18.6743 20.0378 18.6477C20.0518 18.6295 20.0642 18.6102 20.0784 18.5924C20.0937 18.5731 20.1099 18.5546 20.1255 18.5357C20.1451 18.5119 20.1656 18.489 20.1857 18.4658C20.309 18.3233 20.4424 18.1907 20.5902 18.0571C20.6677 17.9872 20.7485 17.9163 20.835 17.8449C20.8542 17.829 20.8729 17.8121 20.8926 17.7961C21.1067 17.6227 21.8229 17.0625 23.0578 16.5503C23.4014 16.4077 23.7758 16.2734 24.1784 16.1456C25.0751 15.8617 26.1105 15.6156 27.2521 15.4033C28.8091 15.115 30.5641 14.8923 32.4334 14.7323C32.4735 14.7289 32.5137 14.7252 32.5539 14.7218C32.5774 14.7198 32.601 14.7171 32.6245 14.7152C33.0464 14.6803 33.4739 14.6491 33.9061 14.6203C33.9072 14.6163 33.909 14.6124 33.9101 14.6084C34.9013 14.5348 35.9418 14.4765 37.027 14.441C37.9638 14.4109 38.8697 14.3981 39.7394 14.4001C39.74 14.4044 39.74 14.409 39.7407 14.4133ZM40.8861 32.6866L40.8757 32.85C40.8574 33.0405 40.8144 33.2251 40.7565 33.405C40.6196 33.9316 40.3449 34.5315 39.7171 35.0134C38.6473 35.834 37.1234 35.8683 36.7416 35.8677L36.3829 35.8598C35.9405 35.8373 35.2719 35.7522 34.5869 35.4379C33.1814 34.793 32.7252 33.6467 32.5931 33.2033L32.5552 33.0596C32.4583 33.6014 32.1896 34.0993 31.7985 34.5217C31.6887 34.6403 31.5711 34.7547 31.4425 34.8605C30.8554 35.3429 30.0827 35.6847 29.2144 35.8123C28.9664 35.8487 28.71 35.8677 28.4486 35.8677C28.0122 35.8676 27.5908 35.8089 27.1932 35.7081V44.9008H54.2819V35.7925C53.834 35.885 53.2815 35.9424 52.6678 35.8729C51.0566 35.6907 49.6844 34.7293 49.0534 33.4077C48.5984 34.8218 46.9721 35.8676 45.0346 35.8677L44.6104 35.8505C44.4712 35.8394 44.3342 35.8221 44.1994 35.8004C42.3318 35.4996 40.921 34.2105 40.8887 32.6562C40.8876 32.6661 40.8873 32.6767 40.8861 32.6866Z" stroke="#DE9358" stroke-width="3" mask="url(#path-1-outside-1_8225_23047)"/>
<path d="M21.001 65.8611H61.2644C61.0055 65.6763 60.8215 65.4774 60.7009 65.3227C60.3037 64.8138 60.1101 64.1991 60.1258 63.4967C60.1258 63.484 60.1258 63.4713 60.1258 63.4579C60.1258 63.4318 60.1258 63.4063 60.1258 63.3802V49.9065V49.8596C60.1258 49.7793 60.1245 49.6695 60.1306 49.5402C60.1728 48.6497 60.5946 47.8924 61.2699 47.4143C61.0825 47.4143 60.8958 47.4143 60.7105 47.4143C60.4175 47.4143 60.1245 47.4143 59.8308 47.4136H59.7844C59.6993 47.4136 59.5821 47.4149 59.4431 47.4076C58.4217 47.3547 57.5842 46.8297 57.1318 46.0309C56.6889 46.8083 55.8726 47.3326 54.8866 47.4042C54.7667 47.4129 54.6699 47.4129 54.6174 47.4129H54.6093C54.5616 47.4129 54.5111 47.4129 54.46 47.4129H50.6517C43.0692 47.4129 35.4853 47.4129 27.9014 47.4129H27.8701C27.7515 47.4129 27.5894 47.4129 27.3979 47.3989C26.4562 47.3266 25.6508 46.7996 25.2099 46.0362C24.7807 46.7909 23.9971 47.3085 23.0567 47.3955C22.8591 47.4136 22.6949 47.4136 22.5866 47.4136H20.9771C21.632 47.8756 22.051 48.6042 22.1157 49.472C22.1239 49.5851 22.1246 49.6768 22.1246 49.7264V49.7358C22.1246 49.7853 22.1246 49.8355 22.1246 49.8858V50.8031C22.1246 54.9955 22.1246 59.1872 22.1246 63.3795V63.4083C22.1246 63.5295 22.1246 63.6956 22.1076 63.8931C22.0353 64.7147 21.6251 65.4124 21.0003 65.8611H21.001ZM22.93 32.6429C23.4703 32.6429 23.9173 32.8123 24.2485 33.0038C24.594 33.2027 25.1071 33.6044 25.3817 34.3289C25.5452 34.108 25.7169 33.9459 25.8511 33.8375C26.1952 33.5596 26.9325 33.1136 28.0091 33.2522C28.1174 33.2663 28.2087 33.2817 28.2817 33.2937C28.3041 33.2978 28.3266 33.3018 28.3498 33.3051C29.0278 33.3734 29.5443 33.2656 30.0219 32.9556C30.0989 32.9054 30.1657 32.8485 30.2263 32.7808C30.289 32.7105 30.3108 32.6637 30.3224 32.6349C30.3442 32.5779 30.3674 32.5204 30.3919 32.4581L31.5019 29.6444L34.1137 31.0606C34.5382 31.291 35.0956 31.7316 35.3886 32.5364C35.5065 32.8069 35.6782 33.0098 36.1149 33.1759C36.3616 33.2696 36.6389 33.3179 36.9612 33.3232C37.3435 33.3299 37.6719 33.3011 37.9642 33.2342C38.2054 33.1792 38.3894 33.1103 38.5271 33.0232C38.6218 32.9636 38.6531 32.9228 38.6879 32.815C38.7158 32.7293 38.7424 32.6436 38.769 32.5585L38.8119 32.4213L39.4565 30.3629L41.6308 30.6341C42.7367 30.772 43.6225 31.5468 43.8951 32.6114C43.9087 32.6596 43.9394 32.7407 44.0947 32.8692C44.372 33.0982 44.7025 33.2348 45.1352 33.2991C45.3049 33.3245 45.4916 33.3312 45.6892 33.3199C46.1879 33.2904 46.5709 33.1672 46.8946 32.9302C47.069 32.8029 47.1296 32.7025 47.161 32.6382L47.1623 32.6349C47.1766 32.6041 47.2039 32.5471 47.2407 32.4782C47.702 31.6171 48.5435 31.076 49.4927 31.0285C50.4405 30.9803 51.3311 31.4309 51.8735 32.2324C51.9239 32.3074 51.9614 32.369 51.9811 32.4025C52.2292 32.7962 52.5515 33.0487 53.0271 33.2234C53.3242 33.3326 53.6383 33.3781 53.9872 33.3627C54.0165 33.3614 54.1044 33.35 54.1684 33.342C54.2543 33.3312 54.3401 33.3205 54.426 33.3118C55.4801 33.202 56.1949 33.6513 56.5267 33.9285C56.6323 34.0162 56.7611 34.1388 56.8899 34.2988C57.097 33.6332 57.5631 33.0728 58.2029 32.7433C59.0138 32.3255 59.9759 32.3436 60.7759 32.7922C60.9033 32.8639 60.9987 32.9288 61.0505 32.9636L61.0593 32.9697C61.3039 33.1337 61.5895 33.2395 61.9322 33.2917C62.3533 33.356 62.739 33.3346 63.1103 33.2248C63.5594 33.0929 63.7658 32.9181 63.8817 32.7976C63.9368 32.74 63.9668 32.6958 63.9839 32.6637C63.99 32.5632 63.9995 32.4755 64.0084 32.4045V29.8386C63.9975 29.765 63.9879 29.6786 63.9818 29.5842C63.9498 29.0726 63.8292 28.557 63.6139 28.0086C63.4653 27.6309 63.2997 27.2486 63.1239 26.8442L63.0238 26.6131C62.4957 25.3911 62.0255 24.1289 61.5874 22.7542C61.4498 22.323 61.306 21.8878 61.1452 21.405C61.0518 21.1238 60.936 20.8271 60.7922 20.4997C60.6737 20.2292 60.5108 20.0102 60.2798 19.8107C59.9378 19.5147 59.5644 19.2743 59.1385 19.0768C58.562 18.8096 57.8888 18.5853 57.0187 18.3704C56.2133 18.1715 55.3084 17.9941 54.1705 17.8113C53.3528 17.68 52.6939 17.5829 52.0977 17.5053C51.6806 17.451 51.2548 17.4082 50.8037 17.3633L50.6361 17.3466C50.2375 17.3064 49.8 17.2669 49.259 17.2213C49.0375 17.2026 48.8045 17.1892 48.5653 17.1765C48.3609 17.1651 48.1565 17.1557 47.9514 17.1457C47.7313 17.135 47.5112 17.1242 47.2911 17.1122C46.9777 17.0955 46.6649 17.0767 46.3515 17.0573L45.9815 17.0352C45.9529 17.0332 45.9243 17.0312 45.8956 17.0292C45.5543 17.0245 45.2285 17.0091 44.9124 16.995C44.5192 16.9769 44.1479 16.9602 43.8044 16.9656H43.7881C43.6613 16.9696 43.4392 16.9749 43.1605 16.9341H37.7169C37.4525 16.9722 37.2433 16.9682 37.1329 16.9662H37.1207C36.8154 16.9609 36.4693 16.9823 36.1027 17.0044C35.9541 17.0138 35.8056 17.0225 35.6577 17.0305C35.2094 17.0539 34.701 17.0807 34.2397 17.1356C33.9692 17.1678 33.7246 17.1812 33.51 17.1925C33.4098 17.1979 33.3151 17.2033 33.234 17.2093C33.0126 17.2267 32.7877 17.2475 32.5492 17.2702L32.4041 17.2836C32.2078 17.3017 31.9986 17.3218 31.7963 17.3439L31.5319 17.372C31.2082 17.4068 30.9023 17.4396 30.5998 17.4771C30.0914 17.5407 29.5947 17.6044 29.1082 17.678C27.4688 17.9264 26.2354 18.1936 25.1084 18.5438C24.1947 18.8277 23.4915 19.1484 22.8959 19.5529C22.6847 19.6962 22.5014 19.8442 22.3345 20.0049C22.2132 20.122 22.1062 20.2674 22.0074 20.4488C21.7682 20.8887 21.5679 21.3789 21.3417 21.9795C21.1291 22.544 20.9144 23.1212 20.7066 23.679C20.4865 24.2709 20.259 24.8822 20.0307 25.4855C19.8556 25.9496 19.675 26.4129 19.4999 26.8616C19.3786 27.1723 19.2573 27.4836 19.1381 27.795C18.9786 28.2115 18.8192 28.6528 18.7354 29.0605C18.6699 29.3813 18.625 29.7067 18.6018 30.0268V30.0402C18.5889 30.2089 18.5725 30.4325 18.5241 30.693V31.4637C18.563 31.688 18.5786 31.8816 18.5909 32.0282C18.5929 32.0563 18.5957 32.0844 18.5977 32.1119C18.6093 32.2431 18.6148 32.359 18.6195 32.4521L18.6229 32.5237C18.6277 32.6094 18.6318 32.6898 18.8205 32.8572C19.0522 33.0621 19.3295 33.1906 19.6934 33.2616C20.3659 33.3928 20.9363 33.3179 21.4895 33.0246C22.0197 32.744 22.5021 32.6395 22.9266 32.6395L22.93 32.6429ZM35.4226 32.6362C35.4226 32.6362 35.4226 32.6362 35.4226 32.6369C35.4226 32.6369 35.4226 32.6369 35.4226 32.6362Z" fill="#2A2B2D"/>
<path d="M27.3658 32.3833H22.947V46.248H27.3658V32.3833Z" fill="#AF8241"/>
<path d="M59.2877 31.4204H54.8689V46.2507H59.2877V31.4204Z" fill="#AF8241"/>
<path d="M27.3666 32.3823V38.0264C25.7293 37.5985 24.485 36.2258 24.2738 34.5391C24.2527 34.3717 24.2418 34.2016 24.2418 34.0282C24.2418 34.3757 24.1982 34.7132 24.1157 35.0359C23.9209 35.8013 23.5093 36.4823 22.9478 37.0119V32.383H27.3666V32.3823Z" fill="#9B6F35"/>
<path d="M59.2869 31.4201V37.0842C58.6423 36.505 58.1817 35.7317 58.0018 34.8585C57.9848 34.7755 57.9705 34.6918 57.9582 34.6081C57.9309 34.4192 57.9173 34.2271 57.9173 34.0315C57.9173 34.6924 57.7599 35.3165 57.4792 35.8703C57.0996 36.6209 56.4952 37.2416 55.7519 37.6481C55.7321 37.6594 55.7123 37.6695 55.6932 37.6802C55.4336 37.8168 55.1577 37.9273 54.8688 38.0083V31.4194H59.2876L59.2869 31.4201Z" fill="#9B6F35"/>
<path d="M24.6125 32.3823C24.543 33.064 24.4333 33.7804 24.2738 34.5378C24.2527 34.3704 24.2418 34.2003 24.2418 34.0275C24.2418 34.3751 24.1982 34.7125 24.1157 35.0353C23.9209 35.8006 23.5093 36.4816 22.9478 37.0113V32.3823H24.6131H24.6125Z" fill="#9B6F35"/>
<path d="M58.7101 31.4194C58.4968 32.5732 58.2413 33.5447 58.0212 34.2913C58.0137 34.3422 57.9953 34.4541 57.9592 34.6074C57.8883 34.9081 57.7479 35.3721 57.4802 35.8696C57.1442 36.493 56.6066 37.1706 55.7528 37.6481C55.7331 37.6594 55.7133 37.6695 55.6942 37.6802C55.5273 37.7699 55.2425 37.9085 54.8697 38.0224V31.4194H58.7114H58.7101Z" fill="#9B6F35"/>
<g opacity="0.24">
<path d="M27.3667 32.3843V38.0283C25.7293 37.6005 24.4851 36.2278 24.2738 34.5411C24.2527 34.3737 24.2418 34.2036 24.2418 34.0302C24.2418 34.3777 24.1982 34.7152 24.1157 35.0379C23.9209 35.8033 23.5093 36.4842 22.9478 37.0139V32.3849H27.3667V32.3843Z" fill="#9B6F35"/>
</g>
<g opacity="0.24">
<path d="M59.287 31.4191V37.0833C58.6424 36.5041 58.1817 35.7307 58.0018 34.8575C57.9848 34.7745 57.9705 34.6908 57.9582 34.6071C57.931 34.4183 57.9174 34.2261 57.9174 34.0306C57.9174 34.6915 57.76 35.3155 57.4792 35.8693C57.0997 36.6199 56.4953 37.2406 55.7519 37.6471C55.7321 37.6585 55.7124 37.6685 55.6933 37.6792C55.4337 37.8158 55.1577 37.9263 54.8688 38.0073V31.4185H59.2876L59.287 31.4191Z" fill="#9B6F35"/>
</g>
<path d="M19.2909 44.8999H62.8652C63.4921 44.8999 64.0011 45.4001 64.0011 46.0161V47.1611H18.155V46.0161C18.155 45.4001 18.664 44.8999 19.2909 44.8999Z" fill="#DE9358"/>
<path d="M18.155 46.0317H64.0017V48.2126C64.0017 48.8816 63.4491 49.4246 62.7684 49.4246H19.3065C18.6708 49.4246 18.155 48.9177 18.155 48.293V46.0324V46.0317Z" fill="#C3783E"/>
<path d="M62.6445 49.4241H19.5117V62.7337H62.6445V49.4241Z" fill="#A75E28"/>
<path d="M62.6445 62.7361H19.5117V64.7978H62.6445V62.7361Z" fill="#DF9356"/>
<path d="M62.6442 61.7017H19.5114V62.7328H62.6442V61.7017Z" fill="#844A23"/>
<path d="M62.6445 49.4241H19.5117V50.4553H62.6445V49.4241Z" fill="#844A23"/>
<path d="M24.2098 50.3739V61.7156H25.2591V50.3739H24.2098Z" fill="#844A23"/>
<path d="M29.6834 50.3424V61.6841H30.7328V50.3424H29.6834Z" fill="#844A23"/>
<path d="M36.7107 50.3424V61.6841H37.76V50.3424H36.7107Z" fill="#844A23"/>
<path d="M44.7331 50.4049V61.7466H45.7825V50.4049H44.7331Z" fill="#844A23"/>
<path d="M56.492 50.3424V61.6841H57.5414V50.3424H56.492Z" fill="#844A23"/>
<path d="M51.5417 50.3453V61.687H52.5911V50.3453H51.5417Z" fill="#844A23"/>
<path d="M18.155 65.0083H64.0017V67.1892C64.0017 67.8581 63.4491 68.4012 62.7684 68.4012H19.3065C18.6708 68.4012 18.155 67.8943 18.155 67.2695V65.009V65.0083Z" fill="#A36236"/>
<path d="M19.2909 63.8765H62.8652C63.4921 63.8765 64.0011 64.3767 64.0011 64.9927V66.7035H18.155V64.9927C18.155 64.3767 18.664 63.8765 19.2909 63.8765Z" fill="#C3783E"/>
<path d="M33.9473 54.7162H31.634V54.1249C31.634 53.8491 31.6047 53.6736 31.5454 53.598C31.4862 53.5223 31.3874 53.4848 31.2497 53.4848C31.0998 53.4848 30.9867 53.5357 30.9097 53.6375C30.8327 53.7392 30.7945 53.8939 30.7945 54.1008C30.7945 54.3673 30.8375 54.5675 30.924 54.7021C31.0065 54.8367 31.2409 54.9994 31.6279 55.1896C32.7365 55.7373 33.4349 56.1873 33.7232 56.5388C34.0107 56.8904 34.1552 57.4569 34.1552 58.239C34.1552 58.8074 34.0754 59.2259 33.9153 59.4951C33.7559 59.7643 33.4472 59.9906 32.9893 60.1728C32.5314 60.3549 31.9992 60.446 31.3921 60.446C30.7257 60.446 30.1568 60.3408 29.6852 60.1306C29.2137 59.9203 28.905 59.6525 28.7592 59.3277C28.6134 59.0023 28.5405 58.5409 28.5405 57.943V57.4207H30.8538V58.3916C30.8538 58.6903 30.8865 58.8824 30.9513 58.9682C31.016 59.0539 31.1318 59.096 31.2974 59.096C31.463 59.096 31.5863 59.0418 31.6674 58.9333C31.7485 58.8249 31.7887 58.6642 31.7887 58.4506C31.7887 57.9812 31.7117 57.6738 31.5577 57.5292C31.3996 57.3845 31.0112 57.1435 30.3925 56.8047C29.7731 56.4632 29.3629 56.2154 29.1619 56.0608C28.9609 55.9061 28.794 55.6931 28.6618 55.4199C28.5296 55.1474 28.4635 54.7992 28.4635 54.3754C28.4635 53.7647 28.5569 53.3181 28.7442 53.0355C28.9316 52.7529 29.2342 52.532 29.6525 52.3726C30.0702 52.2132 30.5751 52.1335 31.1673 52.1335C31.8139 52.1335 32.3652 52.2206 32.821 52.3947C33.2769 52.5688 33.578 52.7884 33.7259 53.0522C33.8738 53.3167 33.948 53.766 33.948 54.3995V54.7149L33.9473 54.7162Z" fill="#844A23"/>
<path d="M41.2681 52.3047V60.2816H38.7777V56.931H38.0322V60.2816H35.5417V52.3047H38.0322V55.1572H38.7777V52.3047H41.2681Z" fill="#844A23"/>
<path d="M48.5649 56.9743C48.5649 57.7758 48.5424 58.343 48.4968 58.6765C48.4511 59.0099 48.3094 59.3146 48.0709 59.5905C47.8324 59.8663 47.5095 60.0779 47.1033 60.2259C46.6972 60.3739 46.2237 60.4475 45.6833 60.4475C45.143 60.4475 44.7103 60.3779 44.3021 60.238C43.894 60.0987 43.5656 59.8891 43.3169 59.6099C43.0681 59.3307 42.9203 59.0267 42.8733 58.6986C42.8262 58.3705 42.8024 57.7953 42.8024 56.9743V55.6097C42.8024 54.8082 42.8249 54.241 42.8705 53.9076C42.9155 53.5741 43.0579 53.2694 43.2964 52.9936C43.5349 52.7177 43.8572 52.5061 44.264 52.3581C44.6701 52.2101 45.1437 52.1365 45.684 52.1365C46.1964 52.1365 46.657 52.2061 47.0652 52.3461C47.4733 52.486 47.8018 52.6949 48.0505 52.9741C48.2992 53.2534 48.4471 53.5574 48.4941 53.8855C48.5411 54.2142 48.5649 54.7888 48.5649 55.6097V56.9743ZM46.0744 54.3535C46.0744 53.9826 46.0499 53.7449 46.0002 53.6417C45.9511 53.5386 45.8496 53.4864 45.6956 53.4864C45.5654 53.4864 45.466 53.5286 45.3965 53.6123C45.3276 53.696 45.2929 53.9431 45.2929 54.3535V58.0785C45.2929 58.5419 45.3154 58.8271 45.361 58.9356C45.406 59.0441 45.5116 59.0983 45.6772 59.0983C45.8428 59.0983 45.9552 59.036 46.0029 58.9108C46.0499 58.7863 46.0738 58.489 46.0738 58.0189V54.3528L46.0744 54.3535Z" fill="#844A23"/>
<path d="M50.0998 52.3047H52.608C53.286 52.3047 53.8079 52.3489 54.1724 52.4379C54.537 52.5263 54.8116 52.6549 54.9949 52.8223C55.1782 52.9897 55.3022 53.1926 55.3676 53.431C55.4323 53.6693 55.465 54.0376 55.465 54.5371V55.2315C55.465 55.7404 55.4017 56.112 55.2756 56.3451C55.1496 56.5781 54.9179 56.7575 54.5806 56.8821C54.2433 57.0066 53.8024 57.0696 53.258 57.0696H52.5896V60.2823H50.0991V52.3054L50.0998 52.3047ZM52.5903 53.6693V55.6996C52.6611 55.7029 52.7224 55.7042 52.7735 55.7042C53.0025 55.7042 53.1613 55.6574 53.2498 55.5636C53.3384 55.4699 53.3827 55.2757 53.3827 54.9797V54.3242C53.3827 54.0517 53.3316 53.8742 53.2287 53.7919C53.1258 53.7095 52.9132 53.6687 52.5896 53.6687L52.5903 53.6693Z" fill="#844A23"/>
<path d="M33.9474 54.1749H31.634V53.5837C31.634 53.3078 31.6047 53.1324 31.5455 53.0567C31.4862 52.981 31.3874 52.9435 31.2497 52.9435C31.0998 52.9435 30.9867 52.9944 30.9097 53.0962C30.8327 53.198 30.7946 53.3527 30.7946 53.5596C30.7946 53.8261 30.8375 54.0263 30.924 54.1609C31.0065 54.2955 31.2409 54.4582 31.6279 54.6483C32.7365 55.1961 33.435 55.646 33.7232 55.9976C34.0107 56.3491 34.1552 56.9156 34.1552 57.6977C34.1552 58.2662 34.0755 58.6847 33.9153 58.9539C33.7559 59.223 33.4472 59.4494 32.9893 59.6315C32.5314 59.8136 31.9993 59.9047 31.3921 59.9047C30.7257 59.9047 30.1568 59.7996 29.6853 59.5893C29.2137 59.3791 28.9051 59.1112 28.7592 58.7865C28.6134 58.461 28.5405 57.9997 28.5405 57.4017V56.8794H30.8538V57.8504C30.8538 58.149 30.8865 58.3412 30.9513 58.4269C31.016 58.5126 31.1319 58.5548 31.2974 58.5548C31.463 58.5548 31.5863 58.5005 31.6674 58.3921C31.7485 58.2836 31.7887 58.1229 31.7887 57.9093C31.7887 57.4399 31.7117 57.1326 31.5577 56.9879C31.3996 56.8433 31.0112 56.6022 30.3925 56.2634C29.7732 55.9219 29.363 55.6742 29.1619 55.5195C28.9609 55.3648 28.794 55.1519 28.6618 54.8787C28.5296 54.6062 28.4635 54.258 28.4635 53.8341C28.4635 53.2234 28.5569 52.7768 28.7443 52.4942C28.9316 52.2117 29.2342 51.9907 29.6525 51.8313C30.0702 51.672 30.5752 51.5923 31.1673 51.5923C31.8139 51.5923 32.3652 51.6793 32.821 51.8534C33.2769 52.0275 33.578 52.2472 33.7259 52.511C33.8738 52.7755 33.948 53.2248 33.948 53.8582V54.1736L33.9474 54.1749Z" fill="#D1A250"/>
<path d="M41.2681 51.7634V59.7404H38.7777V56.3897H38.0322V59.7404H35.5417V51.7634H38.0322V54.6159H38.7777V51.7634H41.2681Z" fill="#D1A250"/>
<path d="M48.5649 56.4331C48.5649 57.2346 48.5425 57.8017 48.4968 58.1352C48.4512 58.4687 48.3094 58.7733 48.0709 59.0492C47.8325 59.3251 47.5095 59.5367 47.1034 59.6847C46.6973 59.8326 46.2237 59.9063 45.6833 59.9063C45.143 59.9063 44.7103 59.8367 44.3022 59.6967C43.894 59.5574 43.5656 59.3478 43.3169 59.0686C43.0682 58.7894 42.9203 58.4854 42.8733 58.1573C42.8263 57.8292 42.8024 57.254 42.8024 56.4331V55.0684C42.8024 54.2669 42.8249 53.6998 42.8706 53.3663C42.9155 53.0328 43.0579 52.7282 43.2964 52.4523C43.5349 52.1764 43.8572 51.9648 44.264 51.8169C44.6701 51.6689 45.1437 51.5952 45.684 51.5952C46.1964 51.5952 46.6571 51.6649 47.0652 51.8048C47.4734 51.9447 47.8018 52.1537 48.0505 52.4329C48.2992 52.7121 48.4471 53.0161 48.4941 53.3442C48.5411 53.673 48.5649 54.2475 48.5649 55.0684V56.4331ZM46.0745 53.8123C46.0745 53.4413 46.0499 53.2036 46.0002 53.1005C45.9511 52.9974 45.8496 52.9451 45.6956 52.9451C45.5655 52.9451 45.466 52.9873 45.3965 53.071C45.3277 53.1547 45.2929 53.4018 45.2929 53.8123V57.5372C45.2929 58.0006 45.3154 58.2859 45.361 58.3943C45.406 58.5028 45.5116 58.557 45.6772 58.557C45.8428 58.557 45.9552 58.4948 46.0029 58.3696C46.0499 58.245 46.0738 57.9477 46.0738 57.4776V53.8116L46.0745 53.8123Z" fill="#D1A250"/>
<path d="M50.0998 51.7634H52.608C53.286 51.7634 53.8079 51.8076 54.1724 51.8967C54.537 51.9851 54.8116 52.1136 54.9949 52.281C55.1782 52.4484 55.3022 52.6513 55.3676 52.8897C55.4323 53.1281 55.465 53.4964 55.465 53.9959V54.6903C55.465 55.1991 55.4017 55.5708 55.2756 55.8038C55.1496 56.0368 54.9179 56.2163 54.5806 56.3408C54.2433 56.4654 53.8024 56.5283 53.258 56.5283H52.5896V59.741H50.0991V51.7641L50.0998 51.7634ZM52.5903 53.1281V55.1583C52.6611 55.1616 52.7224 55.163 52.7735 55.163C53.0025 55.163 53.1613 55.1161 53.2498 55.0224C53.3384 54.9286 53.3827 54.7344 53.3827 54.4385V53.7829C53.3827 53.5104 53.3316 53.333 53.2287 53.2506C53.1258 53.1682 52.9132 53.1274 52.5896 53.1274L52.5903 53.1281Z" fill="#D1A250"/>
<path d="M66.5274 32.6023C66.5274 34.4062 64.6427 35.8679 62.3177 35.8679C60.2811 35.8679 58.5824 34.7457 58.1926 33.2551C58.1374 33.0435 58.1081 32.8259 58.1081 32.6016C58.1081 34.4055 56.2234 35.8672 53.8985 35.8672C51.5736 35.8672 49.6888 34.4055 49.6888 32.6016C49.6888 32.8795 49.6445 33.1493 49.5601 33.4065C49.0981 34.8207 47.4464 35.8672 45.4792 35.8672C43.155 35.8672 41.2696 34.4055 41.2696 32.6016C41.2696 32.6297 41.2696 32.6578 41.2682 32.686C41.2103 34.4504 39.3487 35.8672 37.0606 35.8672C34.7725 35.8672 32.851 34.4055 32.851 32.6016C32.851 32.7569 32.8367 32.9103 32.8094 33.0603C32.5218 34.6466 30.7652 35.8672 28.6413 35.8672C26.5174 35.8672 24.7192 34.6178 24.4637 33.0047C24.4426 32.8721 24.4317 32.7382 24.4317 32.6016C24.4317 32.8761 24.3881 33.142 24.3056 33.3971C23.8477 34.8166 22.1926 35.8672 20.222 35.8672C17.8971 35.8672 16.0124 34.4055 16.0124 32.6016C15.9422 31.9159 15.8836 30.8714 16.0124 29.6078C16.0294 29.4411 16.0478 29.2844 16.0696 29.1358C16.2925 27.5729 16.7797 26.8377 18.2494 22.8187C18.37 22.4893 18.4811 22.1853 18.5853 21.9047C19.5625 19.2719 19.8984 18.6532 20.9702 17.7961C21.1876 17.6227 21.9139 17.0629 23.1677 16.5506C23.5166 16.408 23.8968 16.2734 24.3056 16.1455C25.216 15.8616 26.2667 15.6152 27.4257 15.4029C29.0406 15.1083 30.8654 14.882 32.8094 14.7213C35.4804 14.501 38.3777 14.4005 41.2682 14.4126C44.1116 14.4233 46.9496 14.5418 49.5594 14.7574C53.0011 15.0413 56.0483 15.494 58.1919 16.0913C58.7132 16.2359 59.1799 16.3899 59.5867 16.552C60.0283 16.7274 60.9325 17.095 61.7931 17.8195C62.8363 18.698 63.1334 19.3536 63.8706 21.6496C63.9095 21.7688 63.9483 21.892 63.9899 22.0199C65.2307 25.917 66.0007 26.6495 66.3707 28.5224C66.434 28.8438 66.4858 29.1987 66.5267 29.6085C66.6528 30.8908 66.5921 31.942 66.5267 32.6023H66.5274Z" fill="#E5E5E5"/>
<path d="M24.4637 33.0039C24.4426 32.872 24.4317 32.7374 24.4317 32.6015C24.4317 32.876 24.3881 33.1419 24.3056 33.397C23.8477 34.8165 22.1926 35.8671 20.222 35.8671C17.8971 35.8671 16.0124 34.4054 16.0124 32.6015C15.9422 31.9158 15.8836 30.8713 16.0124 29.6077C16.2086 27.6833 16.64 27.2199 18.2494 22.8187C19.4991 19.401 19.7839 18.7441 20.9702 17.796C21.1876 17.6226 21.9139 17.0628 23.1677 16.5505C23.5166 16.4079 23.8968 16.2733 24.3056 16.1454C25.216 15.8615 26.2667 15.6151 27.4257 15.4028C25.1063 18.183 24.4569 20.534 24.2947 22.1718C23.937 25.7769 25.6909 28.4199 24.4637 33.0033V33.0039Z" fill="#BF3A2E"/>
<path d="M40.1035 14.4001C40.4919 16.9714 40.8803 19.5433 41.2687 22.1146C41.3164 22.8799 41.6953 29.1186 41.2687 32.6855C41.1958 33.2962 41.0418 34.2866 40.0817 35.0124C38.9956 35.8333 37.4488 35.8675 37.0611 35.8668C36.6979 35.8668 35.7999 35.8568 34.8725 35.4376C33.2412 34.7004 32.8706 33.3076 32.8099 33.0592C32.4645 29.888 32.3602 26.177 32.8099 22.0577C33.107 19.3384 33.601 16.8448 34.1857 14.6084C35.1921 14.5347 36.2482 14.4764 37.35 14.441C38.3013 14.4108 39.2205 14.3981 40.1035 14.4001Z" fill="#BF3A2E"/>
<path d="M54.9591 15.4094C56.0861 16.7158 57.3187 18.4634 58.193 20.6437C60.3257 25.9616 59.0324 30.6167 58.2114 32.8076C58.1698 33.0252 57.8271 34.6269 55.943 35.4572C55.6132 35.6025 54.5632 36.021 53.2297 35.8724C51.5937 35.6902 50.2009 34.7287 49.5604 33.4069C50.1171 29.9698 50.3563 25.6757 49.5604 20.8111C49.1918 18.5572 48.6521 16.4948 48.0368 14.644C49.123 14.6929 50.2956 14.778 51.5419 14.9166C52.7705 15.0532 53.9118 15.2226 54.9591 15.4094Z" fill="#BF3A2E"/>
<g opacity="0.24">
<path d="M66.7061 31.9811C66.7061 33.785 64.8214 35.2468 62.4965 35.2468C60.4598 35.2468 58.7611 34.1245 58.3713 32.634C58.3161 32.4224 58.2868 32.2048 58.2868 31.9804C58.2868 33.7843 56.4021 35.2461 54.0772 35.2461C51.7523 35.2461 49.8675 33.7843 49.8675 31.9804C49.8675 32.2583 49.8233 32.5282 49.7388 32.7853C49.2768 34.1995 47.6251 35.2461 45.6579 35.2461C43.3337 35.2461 41.4483 33.7843 41.4483 31.9804C41.4483 32.0086 41.4483 32.0367 41.4469 32.0648C41.389 33.8292 39.5274 35.2461 37.2393 35.2461C34.9512 35.2461 33.0297 33.7843 33.0297 31.9804C33.0297 32.1358 33.0154 32.2891 32.9881 32.4391C32.7006 34.0254 30.9439 35.2461 28.82 35.2461C26.6961 35.2461 24.8979 33.9966 24.6424 32.3835C24.6213 32.251 24.6104 32.117 24.6104 31.9804C24.6104 32.255 24.5668 32.5208 24.4843 32.7759C24.0264 34.1955 22.3713 35.2461 20.4008 35.2461C18.0758 35.2461 16.1911 33.7843 16.1911 31.9804C16.1209 31.2948 16.0623 30.2502 16.1911 28.9867C16.2081 28.8199 16.2265 28.6632 16.2484 28.5146C23.6176 29.2625 32.1493 29.7547 41.6166 29.6308C50.9128 29.5096 59.2891 28.8186 66.5501 27.8999C66.6134 28.2213 66.6652 28.5762 66.7061 28.986C66.8322 30.2683 66.7715 31.3209 66.7061 31.9811Z" fill="#191919"/>
</g>
<g opacity="0.22">
<path d="M63.8713 21.6496C57.2496 21.7226 50.6278 21.7802 44.0054 21.8217C35.5323 21.8753 27.0585 21.9034 18.5847 21.9061C19.5618 19.2732 19.8977 18.6545 20.9695 17.7974C21.1869 17.624 21.9133 17.0642 23.167 16.552C23.5159 16.4093 23.8961 16.2747 24.305 16.1469C25.2153 15.8629 26.266 15.6165 27.4251 15.4043C29.0399 15.1096 30.8647 14.8833 32.8087 14.7226C35.4805 14.501 38.3777 14.4005 41.2682 14.4126C44.1117 14.4233 46.9497 14.5418 49.5594 14.7574C53.0011 15.0413 56.0483 15.494 58.1919 16.0913C58.7132 16.2359 59.18 16.3899 59.5867 16.552C60.0283 16.7274 60.9325 17.095 61.7931 17.8195C62.8363 18.698 63.1334 19.3536 63.8707 21.6496H63.8713Z" fill="white"/>
</g>
</g>
<defs>
<filter id="filter0_d_8225_23047" x="-1.34271" y="-2.0001" width="86.8" height="86.8" filterUnits="userSpaceOnUse" color-interpolation-filters="sRGB">
<feFlood flood-opacity="0" result="BackgroundImageFix"/>
<feColorMatrix in="SourceAlpha" type="matrix" values="0 0 0 0 0 0 0 0 0 0 0 0 0 0 0 0 0 0 127 0" result="hardAlpha"/>
<feOffset/>
<feGaussianBlur stdDeviation="5.7"/>
<feComposite in2="hardAlpha" operator="out"/>
<feColorMatrix type="matrix" values="0 0 0 0 1 0 0 0 0 0.750526 0 0 0 0 0.189209 0 0 0 0.58 0"/>
<feBlend mode="normal" in2="BackgroundImageFix" result="effect1_dropShadow_8225_23047"/>
<feBlend mode="normal" in="SourceGraphic" in2="effect1_dropShadow_8225_23047" result="shape"/>
</filter>
</defs>
</svg>
