<svg width="80" height="86" viewBox="0 0 80 86" fill="none" xmlns="http://www.w3.org/2000/svg">
<g filter="url(#filter0_d_3437_60522)">
<path d="M49.8393 25.1127L51.5609 25.9464C52.1983 26.2551 52.4647 27.022 52.1561 27.6593L31.275 70.7764C30.9662 71.4138 30.1993 71.6802 29.562 71.3716L27.8404 70.5379C27.203 70.2292 26.9366 69.4623 27.2451 68.825L48.1261 25.7079C48.435 25.0704 49.2019 24.804 49.8393 25.1127Z" fill="#F29202"/>
<path d="M49.8299 25.3078C48.9619 25.2673 48.1123 25.7368 47.7097 26.5684L27.6624 67.9638C27.2642 68.7861 27.4156 69.7312 27.9701 70.3863C28.2423 69.8726 48.7296 27.0504 49.8299 25.3078Z" fill="#CF7E06"/>
<path d="M30.3789 25.1127L28.6573 25.9464C28.0199 26.2551 27.7535 27.022 28.062 27.6593L48.943 70.7764C49.2518 71.4138 50.0186 71.6802 50.656 71.3716L52.3776 70.5379C53.015 70.2292 53.2814 69.4623 52.9728 68.825L32.0917 25.7077C31.783 25.0704 31.0161 24.804 30.3789 25.1127Z" fill="#F29202"/>
<path d="M30.3882 25.3078C31.2562 25.2673 32.1057 25.7368 32.5084 26.5684L52.5557 67.9638C52.9539 68.7861 52.8025 69.7312 52.2479 70.3863C51.9758 69.8726 31.4886 27.0504 30.3882 25.3078Z" fill="#CF7E06"/>
<path d="M63.038 18.1636H16.4331V60.9017H63.038V18.1636Z" fill="#159467"/>
<path d="M63.038 18.1636H16.4331V21.0127H63.038V18.1636Z" fill="#0E7853"/>
<path d="M14.5 59.6192V57.7063C14.5 56.9982 15.0741 56.4241 15.7822 56.4241H63.6895C64.3976 56.4241 64.9717 56.9982 64.9717 57.7063V59.6192C64.9717 60.3273 64.3976 60.9014 63.6895 60.9014H15.7822C15.074 60.9014 14.5 60.3275 14.5 59.6192Z" fill="#F29202"/>
<path d="M14.5 17.6951V15.7822C14.5 15.0741 15.0741 14.5 15.7822 14.5H63.6895C64.3976 14.5 64.9717 15.0741 64.9717 15.7822V17.6951C64.9717 18.4032 64.3976 18.9774 63.6895 18.9774H15.7822C15.074 18.9774 14.5 18.4034 14.5 17.6951Z" fill="#F29202"/>
<path d="M14.6802 17.6184C15.0221 18.4173 15.8149 18.9772 16.7388 18.9772H62.7331C63.6469 18.9772 64.4312 18.4291 64.7793 17.6444C64.1981 17.6235 16.728 17.8494 14.6802 17.6184Z" fill="#CF7E06"/>
<path d="M14.6538 59.4739C14.9789 60.3089 15.7887 60.9015 16.7387 60.9015H62.7331C63.6357 60.9015 64.4116 60.3661 64.7659 59.5966C64.2061 59.5959 30.7982 59.5261 14.6538 59.4739Z" fill="#CF7E06"/>
<path d="M28.4126 43.2936L27.8745 41.879H23.2922L22.7541 43.3246C22.5437 43.8884 22.3648 44.2692 22.216 44.4665C22.0672 44.6634 21.8242 44.7624 21.4858 44.7624C21.1988 44.7624 20.9448 44.6573 20.7243 44.4469C20.5041 44.2365 20.394 43.9985 20.394 43.7314C20.394 43.5777 20.4193 43.4188 20.4711 43.2553C20.5221 43.091 20.6064 42.8631 20.7247 42.5708L23.6082 35.2514C23.6901 35.041 23.7888 34.7891 23.9037 34.4939C24.0195 34.1992 24.1422 33.9546 24.2727 33.7597C24.4035 33.5648 24.5752 33.4075 24.788 33.2868C25.0008 33.1661 25.2633 33.1062 25.576 33.1062C25.8936 33.1062 26.159 33.1661 26.3718 33.2868C26.5846 33.4075 26.7562 33.562 26.8867 33.752C27.0176 33.9415 27.1276 34.1454 27.2177 34.3631C27.3074 34.5808 27.4215 34.8714 27.5602 35.2355L30.5048 42.5088C30.7355 43.0625 30.8509 43.4648 30.8509 43.7164C30.8509 43.9773 30.7417 44.2174 30.524 44.4351C30.3063 44.6528 30.0433 44.762 29.7359 44.762C29.5565 44.762 29.4025 44.7298 29.2744 44.6658C29.1464 44.6014 29.0388 44.5146 28.9516 44.4045C28.8643 44.2944 28.771 44.1253 28.6707 43.897C28.5704 43.6695 28.4844 43.4681 28.4126 43.2936ZM23.8915 40.1643H27.2589L25.5601 35.5131L23.8915 40.1643Z" fill="white"/>
<path d="M40.4045 44.5517H36.9601C36.4627 44.5517 36.108 44.44 35.8952 44.2174C35.6824 43.994 35.5764 43.6393 35.5764 43.1525V34.6798C35.5764 34.1829 35.6849 33.8253 35.9034 33.6072C36.1211 33.3895 36.4733 33.2803 36.9605 33.2803H40.6124C41.1506 33.2803 41.6169 33.3137 42.0116 33.3802C42.4066 33.447 42.7601 33.575 43.0727 33.765C43.339 33.9236 43.5754 34.125 43.7801 34.3684C43.9851 34.6117 44.1417 34.8812 44.2493 35.176C44.3569 35.4707 44.4103 35.7822 44.4103 36.11C44.4103 37.2376 43.8465 38.0627 42.7189 38.5858C44.2 39.0575 44.9411 39.9747 44.9411 41.3384C44.9411 41.9686 44.7793 42.5369 44.4564 43.0412C44.1335 43.5463 43.6981 43.9194 43.1494 44.1603C42.8061 44.3038 42.4111 44.4049 41.9655 44.464C41.5191 44.5223 40.9989 44.5517 40.4045 44.5517ZM37.8594 34.995V37.9086H39.9508C40.5199 37.9086 40.9594 37.8552 41.2696 37.7468C41.5794 37.6395 41.8163 37.4341 41.9806 37.1316C42.1086 36.9163 42.173 36.6758 42.173 36.4092C42.173 35.8397 41.97 35.4622 41.5652 35.2746C41.1603 35.0875 40.5427 34.9946 39.7123 34.9946L37.8594 34.995ZM40.2353 39.5467H37.8594V42.8374H40.3124C41.855 42.8374 42.6263 42.2809 42.6263 41.1688C42.6263 40.5997 42.4266 40.1871 42.0267 39.9307C41.6267 39.6747 41.0295 39.5467 40.2353 39.5467Z" fill="white"/>
<path d="M58.9938 41.209C58.9938 41.5654 58.9054 41.951 58.7297 42.3661C58.5536 42.7808 58.277 43.1887 57.8993 43.5884C57.5215 43.9882 57.04 44.313 56.4533 44.5621C55.8663 44.8115 55.1827 44.9367 54.4029 44.9367C53.8106 44.9367 53.2727 44.8804 52.7882 44.7682C52.3034 44.6564 51.8636 44.4819 51.4681 44.2454C51.0725 44.0084 50.7094 43.6966 50.3776 43.3094C50.0818 42.9578 49.8295 42.5646 49.6205 42.1292C49.4112 41.6942 49.2542 41.2293 49.1499 40.7351C49.0453 40.2414 48.9929 39.7169 48.9929 39.1621C48.9929 38.2601 49.1244 37.4538 49.3869 36.7405C49.6502 36.0273 50.0262 35.4178 50.5159 34.9111C51.0056 34.4045 51.5793 34.0189 52.2373 33.754C52.8954 33.4887 53.5964 33.3567 54.3417 33.3567C55.2488 33.3567 56.0574 33.5369 56.7669 33.8986C57.4757 34.2603 58.0193 34.7074 58.3962 35.2392C58.7739 35.7714 58.963 36.274 58.963 36.7482C58.963 37.0074 58.8713 37.2371 58.6875 37.4351C58.5037 37.6344 58.2818 37.7332 58.0218 37.7332C57.7309 37.7332 57.513 37.6648 57.3678 37.5267C57.2221 37.3898 57.0603 37.1524 56.8822 36.8167C56.586 36.2618 56.2379 35.8463 55.8375 35.5713C55.4367 35.2963 54.9429 35.1594 54.3567 35.1594C53.4236 35.1594 52.6803 35.5133 52.1265 36.2209C51.5732 36.9284 51.2961 37.9345 51.2961 39.2378C51.2961 40.109 51.4186 40.8335 51.6632 41.4111C51.9079 41.989 52.2552 42.4208 52.7039 42.7063C53.153 42.991 53.6783 43.134 54.2804 43.134C54.9332 43.134 55.4853 42.9724 55.9365 42.6488C56.388 42.3256 56.7288 41.8509 56.9576 41.224C57.0542 40.9287 57.1747 40.6882 57.3175 40.5027C57.4603 40.3168 57.6895 40.2236 58.006 40.2236C58.2766 40.2236 58.5086 40.3176 58.7021 40.5063C58.8965 40.6946 58.9938 40.9287 58.9938 41.209Z" fill="white"/>
</g>
<defs>
<filter id="filter0_d_3437_60522" x="-7" y="-3" width="93" height="93" filterUnits="userSpaceOnUse" color-interpolation-filters="sRGB">
<feFlood flood-opacity="0" result="BackgroundImageFix"/>
<feColorMatrix in="SourceAlpha" type="matrix" values="0 0 0 0 0 0 0 0 0 0 0 0 0 0 0 0 0 0 127 0" result="hardAlpha"/>
<feOffset/>
<feGaussianBlur stdDeviation="7.25"/>
<feComposite in2="hardAlpha" operator="out"/>
<feColorMatrix type="matrix" values="0 0 0 0 1 0 0 0 0 0.815377 0 0 0 0 0.538443 0 0 0 1 0"/>
<feBlend mode="normal" in2="BackgroundImageFix" result="effect1_dropShadow_3437_60522"/>
<feBlend mode="normal" in="SourceGraphic" in2="effect1_dropShadow_3437_60522" result="shape"/>
</filter>
</defs>
</svg>
