<svg width="64" height="79" viewBox="0 0 64 79" fill="none" xmlns="http://www.w3.org/2000/svg">
<g filter="url(#filter0_d_4076_2067)">
<path d="M32.7179 66.1002C41.7103 66.1002 49 59.0057 49 50.2543C49 41.5029 41.7103 34.4084 32.7179 34.4084C23.7255 34.4084 16.4358 41.5029 16.4358 50.2543C16.4358 59.0057 23.7255 66.1002 32.7179 66.1002Z" fill="#F8A600"/>
<path d="M35.9912 4.1001L24.9956 34.214H36.7289L47.7245 4.1001H35.9912Z" fill="#455A88"/>
<g style="mix-blend-mode:multiply" opacity="0.5">
<path d="M32.9638 12.3931L24.9956 34.2138H36.7289L39.1646 27.536C39.1185 27.4163 32.9638 12.3931 32.9638 12.3931Z" fill="#585D79"/>
</g>
<path d="M31.5653 28.8972C31.5653 28.8972 31.5269 28.8972 31.5038 28.8972C31.4808 28.8972 31.4654 28.8972 31.4424 28.8972C19.1789 28.8972 21.5609 37.2501 22.3908 39.2468C22.4599 39.1794 22.5291 39.1121 22.6059 39.0523C22.7366 38.9402 22.8749 38.8355 23.0285 38.7457C23.0285 38.7457 23.0285 38.7457 23.0362 38.7457C23.0439 38.7457 23.0593 38.7308 23.067 38.7308C23.1745 38.6635 24.6729 38.6111 24.7881 38.5588C24.0966 36.0836 22.4907 31.9108 31.4347 31.851C31.4577 31.851 31.4731 31.851 31.4962 31.851C31.5192 31.851 31.5346 31.851 31.5576 31.851C40.5016 31.9108 38.9034 36.0836 38.2042 38.5588C38.3194 38.6111 39.8178 38.6635 39.9254 38.7308C39.933 38.7308 39.9484 38.7457 39.9561 38.7457C39.9561 38.7457 39.9561 38.7457 39.9638 38.7457C40.1175 38.8355 40.2558 38.9327 40.3864 39.0523C40.4632 39.1121 40.5324 39.1794 40.6015 39.2468C41.4314 37.2501 43.8134 28.8972 31.5499 28.8972H31.5653Z" fill="#F8A600"/>
<path d="M30.4665 28.8972C30.4665 28.8972 30.4281 28.8972 30.4051 28.8972C30.382 28.8972 30.3666 28.8972 30.3436 28.8972C18.0801 28.8972 20.4621 37.2501 21.292 39.2468C21.3611 39.1794 21.4303 39.1121 21.5071 39.0523C21.6378 38.9402 21.7761 38.8355 21.9298 38.7457C21.9298 38.7457 21.9298 38.7457 21.9374 38.7457C21.9451 38.7457 21.9605 38.7308 21.9682 38.7308C22.0757 38.6635 23.5741 38.6111 23.6894 38.5588C22.9978 36.0836 21.3919 31.9108 30.3359 31.851C30.359 31.851 30.3743 31.851 30.3974 31.851C30.4204 31.851 30.4358 31.851 30.4588 31.851C39.4029 31.9108 37.8046 36.0836 37.1054 38.5588C37.2206 38.6111 38.719 38.6635 38.8266 38.7308C38.8343 38.7308 38.8496 38.7457 38.8573 38.7457C38.8573 38.7457 38.8573 38.7457 38.865 38.7457C39.0187 38.8355 39.157 38.9327 39.2876 39.0523C39.3644 39.1121 39.4336 39.1794 39.5027 39.2468C40.3326 37.2501 42.7146 28.8972 30.4512 28.8972H30.4665Z" fill="#FFD320"/>
<path d="M30.4665 66.1002C39.4589 66.1002 46.7486 59.0057 46.7486 50.2543C46.7486 41.5029 39.4589 34.4084 30.4665 34.4084C21.4742 34.4084 14.1844 41.5029 14.1844 50.2543C14.1844 59.0057 21.4742 66.1002 30.4665 66.1002Z" fill="#FFD320"/>
<g style="mix-blend-mode:multiply" opacity="0.55">
<path d="M30.4665 61.688C36.9551 61.688 42.2152 56.5689 42.2152 50.2542C42.2152 43.9394 36.9551 38.8203 30.4665 38.8203C23.9779 38.8203 18.7179 43.9394 18.7179 50.2542C18.7179 56.5689 23.9779 61.688 30.4665 61.688Z" fill="#F9AF27"/>
</g>
<g style="mix-blend-mode:multiply" opacity="0.55">
<path d="M20.5543 50.2542C20.5543 44.2419 25.326 39.3139 31.3809 38.8577C31.0812 38.8353 30.7739 38.8203 30.4665 38.8203C23.9813 38.8203 18.7179 43.9427 18.7179 50.2542C18.7179 56.5656 23.9737 61.688 30.4665 61.688C30.7739 61.688 31.0812 61.673 31.3809 61.6506C25.326 61.1945 20.5543 56.2665 20.5543 50.2542Z" fill="#F1C84A"/>
</g>
<g style="mix-blend-mode:multiply" opacity="0.5">
<path d="M33.4479 53.0434H36.4138V55.8776H26.6092V53.0434H29.6905V47.3228H26.6092V45.1915C28.3688 45.0794 30.7124 44.1446 32.1877 43.2024H33.4555V53.0434H33.4479Z" fill="#F2C77C"/>
</g>
<path d="M32.4105 53.0434H35.3765V55.8776H25.5719V53.0434H28.6531V47.3228H25.5719V45.1915C27.3315 45.0794 29.6751 44.1446 31.1504 43.2024H32.4182V53.0434H32.4105Z" fill="#FFE284"/>
<path d="M14 4.1001L24.9956 34.214H36.7289L25.7333 4.1001H14Z" fill="#6078A6"/>
</g>
<defs>
<filter id="filter0_d_4076_2067" x="5.9" y="9.72748e-05" width="51.2" height="78.2" filterUnits="userSpaceOnUse" color-interpolation-filters="sRGB">
<feFlood flood-opacity="0" result="BackgroundImageFix"/>
<feColorMatrix in="SourceAlpha" type="matrix" values="0 0 0 0 0 0 0 0 0 0 0 0 0 0 0 0 0 0 127 0" result="hardAlpha"/>
<feOffset dy="4"/>
<feGaussianBlur stdDeviation="4.05"/>
<feComposite in2="hardAlpha" operator="out"/>
<feColorMatrix type="matrix" values="0 0 0 0 1 0 0 0 0 0.827451 0 0 0 0 0.12549 0 0 0 0.57 0"/>
<feBlend mode="normal" in2="BackgroundImageFix" result="effect1_dropShadow_4076_2067"/>
<feBlend mode="normal" in="SourceGraphic" in2="effect1_dropShadow_4076_2067" result="shape"/>
</filter>
</defs>
</svg>
