<svg width="120" height="120" viewBox="0 0 120 120" fill="none" xmlns="http://www.w3.org/2000/svg">
<g filter="url(#filter0_d_374_10848)">
<path d="M85.5938 37.0081C91.336 31.2659 100.313 30.2815 105.07 30.2112C106.969 30.1878 108.352 31.5706 108.328 33.469C108.234 38.2034 107.273 47.18 101.531 52.9456C95.7891 58.7112 86.8125 59.6722 82.0547 59.7425C80.1563 59.7659 78.7735 58.3831 78.7969 56.4847C78.8907 51.7503 79.8516 42.7503 85.5938 37.0081Z" fill="url(#paint0_linear_374_10848)"/>
<path d="M91.0312 48.3048C98.0858 44.2502 106.992 45.6564 111.609 46.8048C113.461 47.2736 114.422 48.9611 113.906 50.7892C112.594 55.3361 109.312 63.7502 102.258 67.8048C95.203 71.8595 86.2968 70.4533 81.6796 69.3048C79.828 68.8361 78.8671 67.1486 79.3827 65.3205C80.6952 60.7736 83.9999 52.3595 91.0312 48.3048Z" fill="url(#paint1_linear_374_10848)"/>
<path d="M94.1718 58.2889C102.211 57.0233 110.039 61.5233 113.906 64.2421C115.476 65.3436 115.781 67.2655 114.609 68.7889C111.75 72.5624 105.68 79.2421 97.6405 80.5077C89.6015 81.7733 81.7733 77.2733 77.9061 74.5546C76.3358 73.453 76.0311 71.5311 77.203 70.0077C80.0624 66.2343 86.1327 59.5546 94.1718 58.2889Z" fill="url(#paint2_linear_374_10848)"/>
<path d="M89.4375 67.5006C97.1016 70.2193 101.859 77.8834 103.969 82.1256C104.813 83.8365 104.18 85.6646 102.445 86.4615C98.1328 88.4303 89.6016 91.4303 81.9375 88.7115C74.2735 85.9928 69.5156 78.3053 67.4063 74.0865C66.5625 72.3756 67.1953 70.524 68.9297 69.7506C73.2422 67.7584 81.7735 64.7818 89.4375 67.5006Z" fill="url(#paint3_linear_374_10848)"/>
<path d="M34.4061 37.0081C28.6639 31.2659 19.6873 30.2815 14.9295 30.2112C13.0311 30.1878 11.6482 31.5706 11.6717 33.469C11.7654 38.2034 12.7264 47.18 18.4686 52.9456C24.2107 58.7112 33.1873 59.6722 37.9451 59.7425C39.8436 59.7659 41.2264 58.3831 41.2029 56.4847C41.1092 51.7503 40.1482 42.7503 34.4061 37.0081Z" fill="url(#paint4_linear_374_10848)"/>
<path d="M28.9687 48.3048C21.914 44.2502 12.9843 45.6564 8.39053 46.8048C6.53897 47.2736 5.57804 48.9611 6.09366 50.7892C7.40616 55.3361 10.6874 63.7502 17.7421 67.8048C24.7968 71.8595 33.7265 70.4533 38.3202 69.3048C40.1718 68.8361 41.1562 67.1486 40.6171 65.3205C39.2812 60.7736 35.9999 52.3595 28.9687 48.3048Z" fill="url(#paint5_linear_374_10848)"/>
<path d="M25.828 58.2889C17.8124 57.0233 9.98427 61.5233 6.09364 64.2421C4.52333 65.3436 4.21864 67.2655 5.39052 68.7889C8.24989 72.5624 14.3202 79.2421 22.3593 80.5077C30.3983 81.7733 38.2265 77.2733 42.0936 74.5546C43.664 73.453 43.9452 71.5311 42.8202 70.0077C39.9374 66.2343 33.8671 59.5546 25.828 58.2889Z" fill="url(#paint6_linear_374_10848)"/>
<path d="M30.5622 67.5006C22.8982 70.2193 18.1404 77.8834 16.031 82.1256C15.1872 83.8365 15.8435 85.6646 17.5779 86.4615C21.8904 88.4303 30.4216 91.4303 38.0857 88.7115C45.7497 85.9928 50.5075 78.3053 52.6169 74.0865C53.4607 72.3756 52.8279 70.524 51.07 69.7506C46.7575 67.7584 38.2263 64.7818 30.5622 67.5006Z" fill="url(#paint7_linear_374_10848)"/>
<path d="M55.5469 18.3516L33.9375 27.2109C29.5313 29.0156 26.6719 33.3047 26.6719 38.0625V66.4688C26.6719 92.0156 48.9609 100.078 57.0938 102.164C59.0156 102.656 61.0078 102.656 62.9297 102.164C71.0625 100.078 93.3516 92.0156 93.3516 66.4688V38.0625C93.3516 33.3047 90.4687 29.0156 86.0859 27.2109L64.4531 18.3516C61.5938 17.1797 58.4062 17.1797 55.5469 18.3516Z" fill="url(#paint8_linear_374_10848)"/>
<path d="M60 96.6562C59.5078 96.6562 59.0156 96.5859 58.5469 96.4687C55.0547 95.5781 48.3047 93.3516 42.5625 88.5937C35.9063 83.0625 32.5078 75.6094 32.5078 66.4687V38.0625C32.5078 35.6719 33.9375 33.5391 36.1406 32.6484L57.75 23.7891C58.4531 23.5078 59.2031 23.3438 59.9766 23.3438C60.75 23.3438 61.5 23.4844 62.2031 23.7891L83.8125 32.6484C86.0156 33.5625 87.4453 35.6719 87.4453 38.0625V66.4687C87.4453 75.6328 84.0703 83.0625 77.3906 88.5937C71.6484 93.3516 64.9219 95.5781 61.4062 96.4687C60.9844 96.6094 60.4922 96.6562 60 96.6562Z" fill="url(#paint9_linear_374_10848)"/>
<path d="M60 82.2656C72.297 82.2656 82.2656 72.297 82.2656 60C82.2656 47.703 72.297 37.7344 60 37.7344C47.703 37.7344 37.7344 47.703 37.7344 60C37.7344 72.297 47.703 82.2656 60 82.2656Z" fill="url(#paint10_linear_374_10848)"/>
<path d="M59.8593 75.1172C57.9374 75.1172 56.1562 74.7891 54.539 74.1094C52.9218 73.4297 51.6327 72.4688 50.6718 71.1797C49.7108 69.8906 49.2655 68.2969 49.289 66.4453L49.3124 66.3281H56.2265C56.2265 66.9375 56.3671 67.5234 56.6718 68.0391C56.9765 68.5547 57.3983 68.9766 57.9374 69.2812C58.4765 69.5859 59.1327 69.75 59.8593 69.75C61.0077 69.75 61.9452 69.4219 62.6249 68.7422C63.3046 68.0625 63.6562 67.1953 63.6562 66.1172C63.6562 65.0391 63.2811 64.1016 62.5546 63.3984C61.8046 62.6953 60.7265 62.3437 59.3202 62.3437H56.3202V57.1172H59.5312C60.328 57.1172 60.9843 56.9766 61.5468 56.6719C62.0858 56.3906 62.5077 55.9688 62.789 55.4531C63.0702 54.9375 63.2108 54.3281 63.2108 53.6484C63.2108 52.6875 62.9296 51.8672 62.3437 51.2578C61.7577 50.6484 60.9608 50.2969 59.8827 50.2969C59.2733 50.2969 58.7343 50.4141 58.2655 50.6719C57.7968 50.9297 57.4218 51.2578 57.1405 51.6797C56.8593 52.1016 56.7187 52.5937 56.7187 53.1562H49.828L49.7811 53.0391C49.7343 51.4219 50.1327 50.0156 50.9765 48.7734C51.8202 47.5547 53.0155 46.5937 54.5624 45.9141C56.1093 45.2344 57.8437 44.9062 59.789 44.9062C62.9296 44.9062 65.4608 45.6328 67.3827 47.0859C69.3046 48.5391 70.2655 50.5781 70.2655 53.2031C70.2655 54.6797 69.8905 55.9219 69.0936 56.9766C68.3202 58.0078 67.1718 58.9219 65.6249 59.6484C67.1718 60.2344 68.414 61.1016 69.328 62.2734C70.2421 63.4453 70.7108 64.8516 70.7108 66.4688C70.7108 68.25 70.2421 69.7969 69.3046 71.1094C68.3671 72.3984 67.078 73.4063 65.4374 74.1094C63.7968 74.7656 61.9452 75.1172 59.8593 75.1172Z" fill="url(#paint11_linear_374_10848)"/>
</g>
<defs>
<filter id="filter0_d_374_10848" x="4.6792" y="17.4727" width="110.641" height="89.0605" filterUnits="userSpaceOnUse" color-interpolation-filters="sRGB">
<feFlood flood-opacity="0" result="BackgroundImageFix"/>
<feColorMatrix in="SourceAlpha" type="matrix" values="0 0 0 0 0 0 0 0 0 0 0 0 0 0 0 0 0 0 127 0" result="hardAlpha"/>
<feOffset dy="4"/>
<feComposite in2="hardAlpha" operator="out"/>
<feColorMatrix type="matrix" values="0 0 0 0 0 0 0 0 0 0 0 0 0 0 0 0 0 0 0.06 0"/>
<feBlend mode="normal" in2="BackgroundImageFix" result="effect1_dropShadow_374_10848"/>
<feBlend mode="normal" in="SourceGraphic" in2="effect1_dropShadow_374_10848" result="shape"/>
</filter>
<linearGradient id="paint0_linear_374_10848" x1="79.7226" y1="58.7469" x2="107.446" y2="31.024" gradientUnits="userSpaceOnUse">
<stop offset="0.5" stop-color="#FF6200"/>
<stop offset="1" stop-color="#FCAB51"/>
</linearGradient>
<linearGradient id="paint1_linear_374_10848" x1="83.5273" y1="70.9281" x2="106.589" y2="42.1184" gradientUnits="userSpaceOnUse">
<stop offset="0.5" stop-color="#FF6200"/>
<stop offset="1" stop-color="#FCAB51"/>
</linearGradient>
<linearGradient id="paint2_linear_374_10848" x1="81.3643" y1="76.0365" x2="114.233" y2="55.7681" gradientUnits="userSpaceOnUse">
<stop offset="0.5" stop-color="#FF6200"/>
<stop offset="1" stop-color="#FCAB51"/>
</linearGradient>
<linearGradient id="paint3_linear_374_10848" x1="69.0359" y1="68.2512" x2="100.381" y2="89.8717" gradientUnits="userSpaceOnUse">
<stop offset="0.5" stop-color="#FF6200"/>
<stop offset="1" stop-color="#FCAB51"/>
</linearGradient>
<linearGradient id="paint4_linear_374_10848" x1="40.2773" y1="58.7455" x2="12.5543" y2="31.0226" gradientUnits="userSpaceOnUse">
<stop offset="0.5" stop-color="#FF6200"/>
<stop offset="1" stop-color="#FCAB51"/>
</linearGradient>
<linearGradient id="paint5_linear_374_10848" x1="36.4748" y1="70.9246" x2="13.4133" y2="42.115" gradientUnits="userSpaceOnUse">
<stop offset="0.5" stop-color="#FF6200"/>
<stop offset="1" stop-color="#FCAB51"/>
</linearGradient>
<linearGradient id="paint6_linear_374_10848" x1="38.6367" y1="76.0346" x2="5.76776" y2="55.7661" gradientUnits="userSpaceOnUse">
<stop offset="0.5" stop-color="#FF6200"/>
<stop offset="1" stop-color="#FCAB51"/>
</linearGradient>
<linearGradient id="paint7_linear_374_10848" x1="50.9667" y1="68.2487" x2="19.622" y2="89.8692" gradientUnits="userSpaceOnUse">
<stop offset="0.5" stop-color="#FF6200"/>
<stop offset="1" stop-color="#FCAB51"/>
</linearGradient>
<linearGradient id="paint8_linear_374_10848" x1="59.9977" y1="102.523" x2="59.9977" y2="17.4797" gradientUnits="userSpaceOnUse">
<stop stop-color="#FF9900"/>
<stop offset="1" stop-color="#FFC13D"/>
</linearGradient>
<linearGradient id="paint9_linear_374_10848" x1="60" y1="96.6621" x2="60" y2="23.3402" gradientUnits="userSpaceOnUse">
<stop stop-color="#FF6200"/>
<stop offset="1" stop-color="#FF9900"/>
</linearGradient>
<linearGradient id="paint10_linear_374_10848" x1="60" y1="82.2668" x2="60" y2="37.7355" gradientUnits="userSpaceOnUse">
<stop stop-color="#FFC68F"/>
<stop offset="1" stop-color="#FFF8E0"/>
</linearGradient>
<linearGradient id="paint11_linear_374_10848" x1="59.9999" y1="75.123" x2="59.9999" y2="44.877" gradientUnits="userSpaceOnUse">
<stop stop-color="#FD6800"/>
<stop offset="0.71" stop-color="#FD8F30"/>
</linearGradient>
</defs>
</svg>
