<svg width="120" height="120" viewBox="0 0 120 120" fill="none" xmlns="http://www.w3.org/2000/svg">
<g filter="url(#filter0_d_374_10197)">
<path d="M85.9144 47.5354C91.6565 41.7933 100.633 40.8089 105.391 40.7386C107.289 40.7151 108.672 42.098 108.649 43.9964C108.555 48.7308 107.594 57.7073 101.852 63.4729C96.1097 69.2386 87.1331 70.1995 82.3753 70.2698C80.4769 70.2933 79.094 68.9104 79.1175 67.012C79.2112 62.2776 80.1722 53.2776 85.9144 47.5354Z" fill="url(#paint0_linear_374_10197)"/>
<path d="M91.3517 58.8322C98.4064 54.7775 107.313 56.1838 111.93 57.3322C113.781 57.8009 114.742 59.4884 114.227 61.3166C112.914 65.8634 109.633 74.2775 102.578 78.3322C95.5236 82.3869 86.6173 80.9806 82.0002 79.8322C80.1486 79.3634 79.1877 77.6759 79.7033 75.8478C81.0158 71.3009 84.3205 62.8869 91.3517 58.8322Z" fill="url(#paint1_linear_374_10197)"/>
<path d="M94.4926 68.8163C102.532 67.5507 110.36 72.0507 114.227 74.7694C115.797 75.871 116.102 77.7928 114.93 79.3163C112.071 83.0897 106 89.7694 97.9613 91.035C89.9223 92.3007 82.0941 87.8007 78.2269 85.0819C76.6566 83.9803 76.3519 82.0585 77.5238 80.535C80.3832 76.7616 86.4535 70.0819 94.4926 68.8163Z" fill="url(#paint2_linear_374_10197)"/>
<path d="M89.7581 78.0279C97.4221 80.7467 102.18 88.4107 104.289 92.6529C105.133 94.3639 104.5 96.192 102.766 96.9889C98.4534 98.9576 89.9221 101.958 82.2581 99.2389C74.594 96.5201 69.8362 88.8326 67.7268 84.6139C66.8831 82.9029 67.5159 81.0514 69.2503 80.2779C73.5628 78.2857 82.094 75.3092 89.7581 78.0279Z" fill="url(#paint3_linear_374_10197)"/>
<path d="M34.7269 47.5354C28.9847 41.7933 20.0081 40.8089 15.2503 40.7386C13.3519 40.7151 11.969 42.098 11.9925 43.9964C12.0862 48.7308 13.0472 57.7073 18.7894 63.4729C24.5315 69.2386 33.5081 70.1995 38.2659 70.2698C40.1644 70.2933 41.5472 68.9104 41.5237 67.012C41.43 62.2776 40.469 53.2776 34.7269 47.5354Z" fill="url(#paint4_linear_374_10197)"/>
<path d="M29.2895 58.8322C22.2348 54.7775 13.3051 56.1838 8.71134 57.3322C6.85977 57.8009 5.89884 59.4884 6.41446 61.3166C7.72696 65.8634 11.0082 74.2775 18.0629 78.3322C25.1176 82.3869 34.0473 80.9806 38.641 79.8322C40.4926 79.3634 41.477 77.6759 40.9379 75.8478C39.602 71.3009 36.3207 62.8869 29.2895 58.8322Z" fill="url(#paint5_linear_374_10197)"/>
<path d="M26.1488 68.8163C18.1332 67.5507 10.3051 72.0507 6.41445 74.7694C4.84413 75.871 4.53945 77.7928 5.71132 79.3163C8.5707 83.0897 14.641 89.7694 22.6801 91.035C30.7191 92.3007 38.5473 87.8007 42.4145 85.0819C43.9848 83.9803 44.266 82.0585 43.141 80.535C40.2582 76.7616 34.1879 70.0819 26.1488 68.8163Z" fill="url(#paint6_linear_374_10197)"/>
<path d="M30.883 78.0279C23.219 80.7467 18.4612 88.4107 16.3518 92.6529C15.508 94.3639 16.1643 96.192 17.8987 96.9889C22.2112 98.9576 30.7424 101.958 38.4065 99.2389C46.0705 96.5201 50.8283 88.8326 52.9377 84.6139C53.7815 82.9029 53.1487 81.0514 51.3908 80.2779C47.0783 78.2857 38.5471 75.3092 30.883 78.0279Z" fill="url(#paint7_linear_374_10197)"/>
<path d="M55.8677 28.8789L34.2583 37.7383C29.8521 39.543 26.9927 43.832 26.9927 48.5898V76.9961C26.9927 102.543 49.2817 110.605 57.4146 112.691C59.3364 113.184 61.3286 113.184 63.2505 112.691C71.3833 110.605 93.6724 102.543 93.6724 76.9961V48.5898C93.6724 43.832 90.7895 39.543 86.4067 37.7383L64.7739 28.8789C61.9146 27.707 58.7271 27.707 55.8677 28.8789Z" fill="url(#paint8_linear_374_10197)"/>
<path d="M60.3208 107.184C59.8286 107.184 59.3364 107.113 58.8677 106.996C55.3755 106.105 48.6255 103.879 42.8833 99.1211C36.2271 93.5898 32.8286 86.1367 32.8286 76.9961V48.5898C32.8286 46.1992 34.2583 44.0664 36.4614 43.1758L58.0708 34.3164C58.7739 34.0352 59.5239 33.8711 60.2974 33.8711C61.0708 33.8711 61.8208 34.0117 62.5239 34.3164L84.1333 43.1758C86.3364 44.0898 87.7661 46.1992 87.7661 48.5898V76.9961C87.7661 86.1602 84.3911 93.5898 77.7114 99.1211C71.9692 103.879 65.2427 106.105 61.727 106.996C61.3052 107.137 60.813 107.184 60.3208 107.184Z" fill="url(#paint9_linear_374_10197)"/>
<path d="M60.3208 92.793C72.6178 92.793 82.5864 82.8243 82.5864 70.5273C82.5864 58.2304 72.6178 48.2617 60.3208 48.2617C48.0238 48.2617 38.0552 58.2304 38.0552 70.5273C38.0552 82.8243 48.0238 92.793 60.3208 92.793Z" fill="url(#paint10_linear_374_10197)"/>
<path d="M51.5786 85.2227V81.0742L56.8052 80.418V61.8555L51.5317 61.7852V57.8711L63.8599 55.8086V80.418L69.0864 81.0742V85.2227H51.5786Z" fill="url(#paint11_linear_374_10197)"/>
<path d="M61.6787 7.90695L63.0673 10.5471L66.0007 11.036C67.3501 11.2707 67.8782 12.9134 66.9395 13.8913L64.8665 16.0229L65.2967 18.9564C65.4923 20.3058 64.0842 21.3228 62.8717 20.7165L60.1729 19.4062L57.5132 20.7361C56.2811 21.3423 54.8926 20.3254 55.0882 18.976L55.5184 16.0425L53.4454 13.9108C52.4872 12.933 53.0347 11.2902 54.3841 11.0556L57.3176 10.5666L58.7061 7.92651C59.3124 6.69444 61.0334 6.69444 61.6787 7.90695Z" fill="url(#paint12_linear_374_10197)"/>
<path d="M77.5193 12.9919L78.9078 15.632L81.8413 16.121C83.1907 16.3556 83.7187 17.9984 82.78 18.9762L80.707 21.1079L81.1373 24.0414C81.3328 25.3908 79.9248 26.4077 78.7123 25.8015L76.0135 24.4912L73.3538 25.821C72.1217 26.4273 70.7332 25.4103 70.9288 24.0609L71.359 21.1274L69.286 18.9958C68.3277 18.0179 68.8753 16.3752 70.2247 16.1405L73.1582 15.6516L74.5467 13.0115C75.153 11.7794 76.8935 11.7794 77.5193 12.9919Z" fill="url(#paint13_linear_374_10197)"/>
<path d="M45.7009 12.9914L47.0894 15.6315L50.0229 16.1205C51.3723 16.3551 51.9003 17.9979 50.9616 18.9757L48.8886 21.1074L49.3189 24.0409C49.5144 25.3903 48.1063 26.4072 46.8938 25.801L44.2341 24.4711L41.5745 25.801C40.3424 26.4072 38.9539 25.3903 39.1494 24.0409L39.5797 21.1074L37.5067 18.9757C36.5484 17.9979 37.0764 16.3551 38.4454 16.1205L41.3789 15.6315L42.7674 12.9914C43.3345 11.7789 45.0751 11.7789 45.7009 12.9914Z" fill="url(#paint14_linear_374_10197)"/>
</g>
<defs>
<filter id="filter0_d_374_10197" x="5" y="7" width="110.641" height="110.061" filterUnits="userSpaceOnUse" color-interpolation-filters="sRGB">
<feFlood flood-opacity="0" result="BackgroundImageFix"/>
<feColorMatrix in="SourceAlpha" type="matrix" values="0 0 0 0 0 0 0 0 0 0 0 0 0 0 0 0 0 0 127 0" result="hardAlpha"/>
<feOffset dy="4"/>
<feComposite in2="hardAlpha" operator="out"/>
<feColorMatrix type="matrix" values="0 0 0 0 0 0 0 0 0 0 0 0 0 0 0 0 0 0 0.06 0"/>
<feBlend mode="normal" in2="BackgroundImageFix" result="effect1_dropShadow_374_10197"/>
<feBlend mode="normal" in="SourceGraphic" in2="effect1_dropShadow_374_10197" result="shape"/>
</filter>
<linearGradient id="paint0_linear_374_10197" x1="80.0431" y1="69.2743" x2="107.766" y2="41.5513" gradientUnits="userSpaceOnUse">
<stop offset="0.5" stop-color="#F27A00"/>
<stop offset="1" stop-color="#FCD34F"/>
</linearGradient>
<linearGradient id="paint1_linear_374_10197" x1="83.8479" y1="81.4555" x2="106.909" y2="52.6458" gradientUnits="userSpaceOnUse">
<stop offset="0.5" stop-color="#F27A00"/>
<stop offset="1" stop-color="#FCD34F"/>
</linearGradient>
<linearGradient id="paint2_linear_374_10197" x1="81.6851" y1="86.5639" x2="114.554" y2="66.2954" gradientUnits="userSpaceOnUse">
<stop offset="0.5" stop-color="#F27A00"/>
<stop offset="1" stop-color="#FCD34F"/>
</linearGradient>
<linearGradient id="paint3_linear_374_10197" x1="69.3565" y1="78.7786" x2="100.701" y2="100.399" gradientUnits="userSpaceOnUse">
<stop offset="0.5" stop-color="#F27A00"/>
<stop offset="1" stop-color="#FCD34F"/>
</linearGradient>
<linearGradient id="paint4_linear_374_10197" x1="40.5981" y1="69.2729" x2="12.8751" y2="41.5499" gradientUnits="userSpaceOnUse">
<stop offset="0.5" stop-color="#F27A00"/>
<stop offset="1" stop-color="#FCD34F"/>
</linearGradient>
<linearGradient id="paint5_linear_374_10197" x1="36.7956" y1="81.452" x2="13.7341" y2="52.6423" gradientUnits="userSpaceOnUse">
<stop offset="0.5" stop-color="#F27A00"/>
<stop offset="1" stop-color="#FCD34F"/>
</linearGradient>
<linearGradient id="paint6_linear_374_10197" x1="38.9575" y1="86.5619" x2="6.08856" y2="66.2934" gradientUnits="userSpaceOnUse">
<stop offset="0.5" stop-color="#F27A00"/>
<stop offset="1" stop-color="#FCD34F"/>
</linearGradient>
<linearGradient id="paint7_linear_374_10197" x1="51.2875" y1="78.776" x2="19.9428" y2="100.397" gradientUnits="userSpaceOnUse">
<stop offset="0.5" stop-color="#F27A00"/>
<stop offset="1" stop-color="#FCD34F"/>
</linearGradient>
<linearGradient id="paint8_linear_374_10197" x1="60.3185" y1="113.05" x2="60.3185" y2="28.007" gradientUnits="userSpaceOnUse">
<stop stop-color="#FFBF00"/>
<stop offset="1" stop-color="#FFDF3D"/>
</linearGradient>
<linearGradient id="paint9_linear_374_10197" x1="60.3208" y1="107.189" x2="60.3208" y2="33.8676" gradientUnits="userSpaceOnUse">
<stop stop-color="#FF8C00"/>
<stop offset="1" stop-color="#FCC000"/>
</linearGradient>
<linearGradient id="paint10_linear_374_10197" x1="60.3208" y1="92.7941" x2="60.3208" y2="48.2629" gradientUnits="userSpaceOnUse">
<stop stop-color="#FFE187"/>
<stop offset="1" stop-color="#FFF8E0"/>
</linearGradient>
<linearGradient id="paint11_linear_374_10197" x1="60.322" y1="85.2262" x2="60.322" y2="55.8262" gradientUnits="userSpaceOnUse">
<stop stop-color="#FD7600"/>
<stop offset="0.71" stop-color="#FDBF30"/>
</linearGradient>
<linearGradient id="paint12_linear_374_10197" x1="60.1739" y1="20.8995" x2="60.1739" y2="6.98779" gradientUnits="userSpaceOnUse">
<stop stop-color="#FD7600"/>
<stop offset="0.71" stop-color="#FDBF30"/>
</linearGradient>
<linearGradient id="paint13_linear_374_10197" x1="76.0183" y1="25.9865" x2="76.0183" y2="12.0747" gradientUnits="userSpaceOnUse">
<stop stop-color="#FD7600"/>
<stop offset="0.71" stop-color="#FDBF30"/>
</linearGradient>
<linearGradient id="paint14_linear_374_10197" x1="44.2038" y1="25.986" x2="44.2038" y2="12.0742" gradientUnits="userSpaceOnUse">
<stop stop-color="#FD7600"/>
<stop offset="0.71" stop-color="#FDBF30"/>
</linearGradient>
</defs>
</svg>
