<svg width="118" height="95" viewBox="0 0 118 95" fill="none" xmlns="http://www.w3.org/2000/svg">
<g filter="url(#filter0_d_374_11200)">
<path d="M86.0865 20.7786C92.1636 14.7015 101.664 13.6597 106.699 13.5853C108.708 13.5605 110.172 15.0239 110.147 17.0331C110.048 22.0437 109.031 31.5439 102.954 37.6458C96.8765 43.7478 87.3763 44.7648 82.341 44.8392C80.3318 44.864 78.8683 43.4005 78.8931 41.3913C78.9924 36.3808 80.0093 26.8558 86.0865 20.7786Z" fill="url(#paint0_linear_374_11200)"/>
<path d="M91.841 32.7349C99.3072 28.4437 108.733 29.932 113.62 31.1474C115.579 31.6435 116.596 33.4294 116.05 35.3642C114.661 40.1763 111.189 49.0812 103.722 53.3724C96.2563 57.6636 86.8305 56.1753 81.944 54.9599C79.9844 54.4638 78.9674 52.6779 79.5131 50.7431C80.9022 45.931 84.3996 37.0261 91.841 32.7349Z" fill="url(#paint1_linear_374_11200)"/>
<path d="M95.165 43.3008C103.673 41.9613 111.958 46.7238 116.051 49.6012C117.712 50.767 118.035 52.801 116.795 54.4133C113.769 58.4068 107.344 65.4762 98.8361 66.8156C90.3281 68.1551 82.0433 63.3926 77.9506 60.5152C76.2887 59.3494 75.9662 57.3154 77.2064 55.7031C80.2326 51.7096 86.657 44.6402 95.165 43.3008Z" fill="url(#paint2_linear_374_11200)"/>
<path d="M90.1545 53.0496C98.2656 55.9269 103.301 64.0381 105.533 68.5277C106.426 70.3385 105.757 72.2732 103.921 73.1166C99.357 75.2002 90.3281 78.3752 82.217 75.4978C74.1058 72.6205 69.0705 64.4846 66.8381 60.0197C65.9451 58.209 66.6148 56.2494 68.4504 55.4308C73.0144 53.3224 82.0433 50.1723 90.1545 53.0496Z" fill="url(#paint3_linear_374_11200)"/>
<path d="M31.9132 20.7786C25.836 14.7015 16.3358 13.6597 11.3005 13.5853C9.29128 13.5605 7.8278 15.0239 7.85261 17.0331C7.95182 22.0437 8.96882 31.5439 15.046 37.6458C21.1231 43.7478 30.6233 44.7648 35.6587 44.8392C37.6678 44.864 39.1313 43.4005 39.1065 41.3913C39.0073 36.3808 37.9903 26.8558 31.9132 20.7786Z" fill="url(#paint4_linear_374_11200)"/>
<path d="M31.9132 20.7786C25.836 14.7015 16.3358 13.6597 11.3005 13.5853C9.29128 13.5605 7.8278 15.0239 7.85261 17.0331C7.95182 22.0437 8.96882 31.5439 15.046 37.6458C21.1231 43.7478 30.6233 44.7648 35.6587 44.8392C37.6678 44.864 39.1313 43.4005 39.1065 41.3913C39.0073 36.3808 37.9903 26.8558 31.9132 20.7786Z" fill="url(#paint5_linear_374_11200)"/>
<path d="M26.1585 32.7349C18.6923 28.4437 9.24172 29.932 4.38 31.1474C2.42043 31.6435 1.40344 33.4294 1.94914 35.3642C3.3382 40.1763 6.81086 49.0812 14.2771 53.3724C21.7433 57.6636 31.1939 56.1753 36.0556 54.9599C38.0152 54.4638 39.057 52.6779 38.4864 50.7431C37.0726 45.931 33.5999 37.0261 26.1585 32.7349Z" fill="url(#paint6_linear_374_11200)"/>
<path d="M26.1585 32.7349C18.6923 28.4437 9.24172 29.932 4.38 31.1474C2.42043 31.6435 1.40344 33.4294 1.94914 35.3642C3.3382 40.1763 6.81086 49.0812 14.2771 53.3724C21.7433 57.6636 31.1939 56.1753 36.0556 54.9599C38.0152 54.4638 39.057 52.6779 38.4864 50.7431C37.0726 45.931 33.5999 37.0261 26.1585 32.7349Z" fill="url(#paint7_linear_374_11200)"/>
<path d="M22.8346 43.3008C14.3514 41.9613 6.06668 46.7238 1.9491 49.6012C0.287189 50.767 -0.035272 52.801 1.20496 54.4133C4.23113 58.4068 10.6555 65.4762 19.1636 66.8156C27.6716 68.1551 35.9563 63.3926 40.0491 60.5152C41.711 59.3494 42.0087 57.3154 40.818 55.7031C37.7671 51.7096 31.3427 44.6402 22.8346 43.3008Z" fill="url(#paint8_linear_374_11200)"/>
<path d="M22.8346 43.3008C14.3514 41.9613 6.06668 46.7238 1.9491 49.6012C0.287189 50.767 -0.035272 52.801 1.20496 54.4133C4.23113 58.4068 10.6555 65.4762 19.1636 66.8156C27.6716 68.1551 35.9563 63.3926 40.0491 60.5152C41.711 59.3494 42.0087 57.3154 40.818 55.7031C37.7671 51.7096 31.3427 44.6402 22.8346 43.3008Z" fill="url(#paint9_linear_374_11200)"/>
<path d="M28.0635 53.544C20.0223 56.3734 15.0305 64.3495 12.8173 68.7643C11.932 70.5449 12.6206 72.4474 14.4403 73.2767C18.9649 75.3256 27.9159 78.4477 35.957 75.6183C43.9982 72.7889 48.9901 64.7885 51.2032 60.398C52.0885 58.6175 51.4245 56.6905 49.5802 55.8856C45.0556 53.8123 36.1046 50.7146 28.0635 53.544Z" fill="url(#paint10_linear_374_11200)"/>
<path d="M28.0635 53.544C20.0223 56.3734 15.0305 64.3495 12.8173 68.7643C11.932 70.5449 12.6206 72.4474 14.4403 73.2767C18.9649 75.3256 27.9159 78.4477 35.957 75.6183C43.9982 72.7889 48.9901 64.7885 51.2032 60.398C52.0885 58.6175 51.4245 56.6905 49.5802 55.8856C45.0556 53.8123 36.1046 50.7146 28.0635 53.544Z" fill="url(#paint11_linear_374_11200)"/>
<path d="M54.2869 1.03369L31.417 10.4099C26.7537 12.3198 23.7275 16.8591 23.7275 21.8944V51.9577C23.7275 78.9948 47.3168 87.5276 55.924 89.7353C57.958 90.2562 60.0664 90.2562 62.1004 89.7353C70.7076 87.5276 94.2969 78.9948 94.2969 51.9577V21.8944C94.2969 16.8591 91.2459 12.3198 86.6074 10.4099L63.7127 1.03369C60.6865 -0.206543 57.3131 -0.206543 54.2869 1.03369Z" fill="#A2B5F4"/>
<path d="M58.9997 83.9064C58.4788 83.9064 57.9579 83.832 57.4618 83.708C53.7659 82.7654 46.6222 80.409 40.545 75.3736C33.5005 69.5197 29.9038 61.6318 29.9038 51.958V21.8947C29.9038 19.3647 31.4169 17.1074 33.7485 16.1648L56.6185 6.78867C57.3626 6.49102 58.1563 6.31738 58.9749 6.31738C59.7935 6.31738 60.5872 6.46621 61.3313 6.78867L84.2013 16.1648C86.5329 17.1322 88.046 19.3647 88.046 21.8947V51.958C88.046 61.6566 84.4741 69.5197 77.4048 75.3736C71.3276 80.409 64.2087 82.7654 60.488 83.708C60.0415 83.832 59.5206 83.9064 58.9997 83.9064Z" fill="url(#paint12_linear_374_11200)"/>
<path d="M59 68.6758C72.0143 68.6758 82.5645 58.1256 82.5645 45.1113C82.5645 32.097 72.0143 21.5469 59 21.5469C45.9857 21.5469 35.4355 32.097 35.4355 45.1113C35.4355 58.1256 45.9857 68.6758 59 68.6758Z" fill="#DDE4FB"/>
<path d="M48.2843 60.8869V56.0748L58.3054 45.508C59.1984 44.491 59.9177 43.5732 60.4386 42.8043C60.9595 42.0353 61.3564 41.2912 61.5796 40.6463C61.8028 40.0014 61.9269 39.3564 61.9269 38.7363C61.9269 37.7193 61.654 36.876 61.1083 36.1566C60.5626 35.4621 59.7441 35.09 58.6775 35.09C57.4868 35.09 56.6187 35.5117 56.0482 36.3303C55.4777 37.1488 55.2048 38.2898 55.2048 39.7037H47.8626L47.813 39.5797C47.7634 37.6449 48.1851 35.9086 49.0532 34.3707C49.9214 32.808 51.1864 31.5926 52.8484 30.6748C54.5103 29.757 56.445 29.3105 58.6775 29.3105C60.9099 29.3105 62.8446 29.7074 64.4321 30.4764C66.0444 31.2453 67.2599 32.3367 68.128 33.7506C68.9962 35.1645 69.4179 36.8016 69.4179 38.6867C69.4179 39.9766 69.1946 41.1424 68.773 42.2338C68.3513 43.3252 67.6319 44.4662 66.6398 45.6816C65.6476 46.8971 64.3329 48.3853 62.671 50.1217L57.9581 55.1074L58.0077 55.2066H64.1841L64.5066 52.627H70.162V60.8869H48.2843Z" fill="#8698C1"/>
</g>
<defs>
<filter id="filter0_d_374_11200" x="0.452148" y="0.103516" width="117.095" height="94.0225" filterUnits="userSpaceOnUse" color-interpolation-filters="sRGB">
<feFlood flood-opacity="0" result="BackgroundImageFix"/>
<feColorMatrix in="SourceAlpha" type="matrix" values="0 0 0 0 0 0 0 0 0 0 0 0 0 0 0 0 0 0 127 0" result="hardAlpha"/>
<feOffset dy="4"/>
<feComposite in2="hardAlpha" operator="out"/>
<feColorMatrix type="matrix" values="0 0 0 0 0 0 0 0 0 0 0 0 0 0 0 0 0 0 0.06 0"/>
<feBlend mode="normal" in2="BackgroundImageFix" result="effect1_dropShadow_374_11200"/>
<feBlend mode="normal" in="SourceGraphic" in2="effect1_dropShadow_374_11200" result="shape"/>
</filter>
<linearGradient id="paint0_linear_374_11200" x1="94.5201" y1="13.585" x2="94.5201" y2="44.8395" gradientUnits="userSpaceOnUse">
<stop stop-color="#8994BF"/>
<stop offset="1" stop-color="#404559"/>
</linearGradient>
<linearGradient id="paint1_linear_374_11200" x1="97.7818" y1="29.876" x2="97.7818" y2="56.2313" gradientUnits="userSpaceOnUse">
<stop stop-color="#8994BF"/>
<stop offset="1" stop-color="#404559"/>
</linearGradient>
<linearGradient id="paint2_linear_374_11200" x1="97.0006" y1="43.0684" x2="97.0006" y2="67.048" gradientUnits="userSpaceOnUse">
<stop stop-color="#8994BF"/>
<stop offset="1" stop-color="#404559"/>
</linearGradient>
<linearGradient id="paint3_linear_374_11200" x1="86.1857" y1="51.8945" x2="86.1857" y2="76.6485" gradientUnits="userSpaceOnUse">
<stop stop-color="#8994BF"/>
<stop offset="1" stop-color="#404559"/>
</linearGradient>
<linearGradient id="paint4_linear_374_11200" x1="38.132" y1="43.7837" x2="8.79189" y2="14.4436" gradientUnits="userSpaceOnUse">
<stop offset="0.5" stop-color="#A6A6A6"/>
<stop offset="1" stop-color="#E6E6E6"/>
</linearGradient>
<linearGradient id="paint5_linear_374_11200" x1="23.4796" y1="13.585" x2="23.4796" y2="44.8395" gradientUnits="userSpaceOnUse">
<stop stop-color="#8994BF"/>
<stop offset="1" stop-color="#404559"/>
</linearGradient>
<linearGradient id="paint6_linear_374_11200" x1="34.1101" y1="56.6644" x2="9.70712" y2="26.1727" gradientUnits="userSpaceOnUse">
<stop offset="0.5" stop-color="#A6A6A6"/>
<stop offset="1" stop-color="#E6E6E6"/>
</linearGradient>
<linearGradient id="paint7_linear_374_11200" x1="20.2223" y1="29.876" x2="20.2223" y2="56.2313" gradientUnits="userSpaceOnUse">
<stop stop-color="#8994BF"/>
<stop offset="1" stop-color="#404559"/>
</linearGradient>
<linearGradient id="paint8_linear_374_11200" x1="36.3867" y1="62.0782" x2="1.60201" y2="40.6304" gradientUnits="userSpaceOnUse">
<stop offset="0.5" stop-color="#A6A6A6"/>
<stop offset="1" stop-color="#E6E6E6"/>
</linearGradient>
<linearGradient id="paint9_linear_374_11200" x1="20.9964" y1="43.0684" x2="20.9964" y2="67.048" gradientUnits="userSpaceOnUse">
<stop stop-color="#8994BF"/>
<stop offset="1" stop-color="#404559"/>
</linearGradient>
<linearGradient id="paint10_linear_374_11200" x1="49.466" y1="54.3087" x2="16.7526" y2="77.0583" gradientUnits="userSpaceOnUse">
<stop offset="0.5" stop-color="#A6A6A6"/>
<stop offset="1" stop-color="#E6E6E6"/>
</linearGradient>
<linearGradient id="paint11_linear_374_11200" x1="32.0125" y1="52.4082" x2="32.0125" y2="76.7499" gradientUnits="userSpaceOnUse">
<stop stop-color="#8994BF"/>
<stop offset="1" stop-color="#404559"/>
</linearGradient>
<linearGradient id="paint12_linear_374_11200" x1="58.9749" y1="6.31738" x2="58.9749" y2="83.9064" gradientUnits="userSpaceOnUse">
<stop stop-color="#96A9CF"/>
<stop offset="0.5" stop-color="#7C8DB7"/>
<stop offset="1" stop-color="#6E7CA9"/>
</linearGradient>
</defs>
</svg>
