<svg width="16" height="16" viewBox="0 0 16 16" fill="none" xmlns="http://www.w3.org/2000/svg">
<path d="M15 7.99327C15.0005 8.17144 14.9533 8.34649 14.8635 8.50033C14.7736 8.65416 14.6442 8.78119 14.4888 8.86827L3.99378 14.8689C3.84318 14.9543 3.67315 14.9995 3.50003 15.0001C3.34053 14.9993 3.18354 14.9603 3.04218 14.8864C2.90081 14.8125 2.77918 14.7059 2.68742 14.5754C2.59567 14.4449 2.53646 14.2944 2.51473 14.1364C2.493 13.9783 2.50939 13.8174 2.56253 13.667L4.25003 8.67014C4.26652 8.62129 4.29772 8.57873 4.33934 8.5483C4.38096 8.51786 4.43098 8.50104 4.48253 8.50014H9.00003C9.06858 8.50029 9.13642 8.48635 9.19935 8.45918C9.26227 8.432 9.31894 8.39218 9.36583 8.34219C9.41272 8.29219 9.44883 8.23309 9.47192 8.16855C9.495 8.10401 9.50457 8.03541 9.50003 7.96702C9.4887 7.83845 9.42921 7.7189 9.33348 7.63233C9.23775 7.54575 9.11284 7.49854 8.98378 7.50014H4.48378C4.43148 7.50015 4.38049 7.48375 4.338 7.45325C4.2955 7.42275 4.26365 7.3797 4.24691 7.33014L2.55941 2.33389C2.49224 2.14239 2.48493 1.93498 2.53845 1.73922C2.59197 1.54346 2.70378 1.36862 2.85903 1.23792C3.01428 1.10723 3.20562 1.02686 3.40764 1.00749C3.60966 0.98813 3.81278 1.03069 3.99003 1.12952L14.49 7.12264C14.6446 7.20952 14.7733 7.33593 14.8629 7.48892C14.9525 7.6419 14.9998 7.81597 15 7.99327Z" fill="#EEF8FF"/>
</svg>
