<svg width="28" height="26" viewBox="0 0 28 26" fill="none" xmlns="http://www.w3.org/2000/svg">
<path d="M11.0888 23.8846C10.884 23.918 10.6792 23.8833 10.4951 23.7834C9.74219 23.3775 8.88213 22.7999 7.93924 22.0655C6.44578 20.9809 4.81418 19.5702 3.78576 18.4751C3.48276 18.1526 3.41085 17.6678 3.60794 17.27C6.697 11.0129 9.86937 7.15222 14.5571 3.94418C14.5723 3.93364 14.5882 3.92747 14.6054 3.92465C14.649 3.91754 14.6949 3.93515 14.724 3.97431C14.8725 4.17147 15.1097 4.27078 15.3424 4.23282C15.4131 4.22128 15.481 4.19766 15.5445 4.16221C15.851 3.99121 15.9724 3.59498 15.821 3.26027C15.7932 3.19847 15.8141 3.12426 15.8694 3.09015C16.5129 2.69208 17.1928 2.29973 17.8897 1.92431C17.9806 1.87543 18.0774 1.84261 18.1777 1.82624C18.4202 1.78667 18.6669 1.84502 18.8728 1.99068C19.1482 2.18504 19.4271 2.37974 19.7079 2.57592C21.5127 3.83649 23.3792 5.13987 24.8042 6.69185C24.8749 6.76903 24.9338 6.85623 24.9796 6.95094C25.0515 7.02523 25.1235 7.09953 25.1932 7.17511C25.3987 7.39612 25.4958 7.69844 25.4609 8.00349C25.4247 8.31592 25.256 8.58722 24.9977 8.74769C24.4202 9.10541 23.8033 9.54304 23.3877 9.84747C23.3727 9.85888 23.3545 9.86633 23.3364 9.86929C23.3207 9.87184 23.3046 9.87089 23.2896 9.86706C23.2554 9.85919 23.2263 9.83615 23.2077 9.80425C23.0734 9.56444 22.8156 9.43711 22.5516 9.48017C22.4069 9.50378 22.273 9.57851 22.1647 9.69656C22.0765 9.79251 22.0207 9.92172 22.0077 10.0601C21.9871 10.2821 22.0416 10.4615 22.1744 10.6092C22.1991 10.6365 22.2118 10.673 22.2093 10.7101C22.2069 10.7473 22.1905 10.7813 22.1631 10.8046C18.8929 13.5268 16.4421 16.9346 13.6044 20.8813C12.995 21.7291 12.3649 22.6054 11.7062 23.5025C11.5549 23.7091 11.3356 23.8453 11.0889 23.8855L11.0888 23.8846Z" fill="#FFF200"/>
<mask id="path-2-outside-1_300_38234" maskUnits="userSpaceOnUse" x="0.0538145" y="-0.553669" width="29.3445" height="26.8897" fill="black">
<rect fill="white" x="0.0538145" y="-0.553669" width="29.3445" height="26.8897"/>
<path d="M18.1991 1.95549C18.4063 1.92168 18.6235 1.97049 18.8055 2.09854C20.831 3.52835 23.078 4.9973 24.7162 6.78158C24.7849 6.85642 24.838 6.93917 24.8785 7.02757C24.9554 7.10644 25.0316 7.18544 25.1062 7.26558C25.4835 7.67186 25.4022 8.34119 24.9344 8.63083C24.4028 8.95955 23.8087 9.37556 23.316 9.73559C23.152 9.44326 22.8371 9.29657 22.5312 9.34647C22.3684 9.37303 22.2088 9.45554 22.0754 9.60099C21.9657 9.72105 21.9 9.87786 21.8846 10.0426C21.8569 10.3348 21.9485 10.5457 22.0863 10.698C18.097 14.018 15.3221 18.3569 11.6085 23.4181C11.4723 23.6035 11.2775 23.7186 11.0686 23.7527C10.8968 23.7807 10.7152 23.7539 10.5514 23.665C9.74226 23.2297 8.86559 22.6225 8.01345 21.9585C6.40036 20.7868 4.82383 19.393 3.87485 18.3818C3.61253 18.102 3.55026 17.6765 3.71978 17.3325C6.47873 11.7405 9.54247 7.53278 14.6268 4.0539C14.8054 4.29095 15.0892 4.40687 15.3647 4.36193C15.4469 4.34852 15.5277 4.321 15.6051 4.2779C15.972 4.07373 16.1137 3.59979 15.9346 3.20329C16.5749 2.80663 17.2447 2.41951 17.9488 2.04113C18.0288 1.9985 18.1136 1.96944 18.1999 1.95535M18.1566 1.69354C18.0431 1.71205 17.9336 1.74964 17.8318 1.80389C17.1332 2.17958 16.4518 2.57308 15.8053 2.97343C15.6948 3.04164 15.6529 3.18919 15.7094 3.31352C15.8317 3.58395 15.7336 3.9047 15.4859 4.0428C15.4341 4.07187 15.3797 4.0906 15.3221 4.09999C15.1339 4.13071 14.942 4.05087 14.8224 3.89113C14.7633 3.81294 14.6723 3.7776 14.5851 3.79182C14.5514 3.79732 14.5188 3.8098 14.4893 3.83075C12.0136 5.5244 9.92704 7.45301 8.10934 9.72763C6.46469 11.784 4.99945 14.1607 3.4957 17.205C3.27405 17.6544 3.35438 18.2015 3.69709 18.5659C4.72965 19.6656 6.36719 21.0817 7.86931 22.1729C8.81688 22.9101 9.68176 23.4914 10.4392 23.8993C10.6473 24.0115 10.879 24.0507 11.1092 24.0132C11.3871 23.9678 11.634 23.8146 11.8047 23.5815C12.4633 22.6836 13.0934 21.8073 13.7036 20.9594C16.5365 17.0196 18.9832 13.618 22.2407 10.9059C22.2957 10.8601 22.3294 10.7919 22.3334 10.7178C22.3374 10.6436 22.3119 10.5698 22.2635 10.5159C22.1563 10.3962 22.114 10.2552 22.1316 10.0722C22.1417 9.96301 22.1852 9.86181 22.2548 9.78593C22.3444 9.68796 22.4542 9.62612 22.5718 9.60694C22.7814 9.57273 22.9933 9.67708 23.0992 9.86684C23.135 9.93092 23.1939 9.97688 23.2624 9.99348C23.294 10.0009 23.3254 10.002 23.3567 9.99693C23.3928 9.99102 23.4284 9.97626 23.4594 9.95417C23.8736 9.65088 24.4882 9.21539 25.0619 8.86009C25.3542 8.67975 25.5442 8.3736 25.5856 8.01999C25.6256 7.67378 25.5144 7.33162 25.2821 7.08092C25.2219 7.01636 25.1577 6.94885 25.0816 6.86985C25.0317 6.77043 24.9689 6.67941 24.8941 6.5984C23.4588 5.03466 21.5866 3.72773 19.7761 2.46271C19.4953 2.26654 19.2164 2.07184 18.9419 1.87821C18.7093 1.71361 18.4302 1.648 18.1573 1.69253L18.1566 1.69354Z"/>
</mask>
<path d="M18.1991 1.95549C18.4063 1.92168 18.6235 1.97049 18.8055 2.09854C20.831 3.52835 23.078 4.9973 24.7162 6.78158C24.7849 6.85642 24.838 6.93917 24.8785 7.02757C24.9554 7.10644 25.0316 7.18544 25.1062 7.26558C25.4835 7.67186 25.4022 8.34119 24.9344 8.63083C24.4028 8.95955 23.8087 9.37556 23.316 9.73559C23.152 9.44326 22.8371 9.29657 22.5312 9.34647C22.3684 9.37303 22.2088 9.45554 22.0754 9.60099C21.9657 9.72105 21.9 9.87786 21.8846 10.0426C21.8569 10.3348 21.9485 10.5457 22.0863 10.698C18.097 14.018 15.3221 18.3569 11.6085 23.4181C11.4723 23.6035 11.2775 23.7186 11.0686 23.7527C10.8968 23.7807 10.7152 23.7539 10.5514 23.665C9.74226 23.2297 8.86559 22.6225 8.01345 21.9585C6.40036 20.7868 4.82383 19.393 3.87485 18.3818C3.61253 18.102 3.55026 17.6765 3.71978 17.3325C6.47873 11.7405 9.54247 7.53278 14.6268 4.0539C14.8054 4.29095 15.0892 4.40687 15.3647 4.36193C15.4469 4.34852 15.5277 4.321 15.6051 4.2779C15.972 4.07373 16.1137 3.59979 15.9346 3.20329C16.5749 2.80663 17.2447 2.41951 17.9488 2.04113C18.0288 1.9985 18.1136 1.96944 18.1999 1.95535M18.1566 1.69354C18.0431 1.71205 17.9336 1.74964 17.8318 1.80389C17.1332 2.17958 16.4518 2.57308 15.8053 2.97343C15.6948 3.04164 15.6529 3.18919 15.7094 3.31352C15.8317 3.58395 15.7336 3.9047 15.4859 4.0428C15.4341 4.07187 15.3797 4.0906 15.3221 4.09999C15.1339 4.13071 14.942 4.05087 14.8224 3.89113C14.7633 3.81294 14.6723 3.7776 14.5851 3.79182C14.5514 3.79732 14.5188 3.8098 14.4893 3.83075C12.0136 5.5244 9.92704 7.45301 8.10934 9.72763C6.46469 11.784 4.99945 14.1607 3.4957 17.205C3.27405 17.6544 3.35438 18.2015 3.69709 18.5659C4.72965 19.6656 6.36719 21.0817 7.86931 22.1729C8.81688 22.9101 9.68176 23.4914 10.4392 23.8993C10.6473 24.0115 10.879 24.0507 11.1092 24.0132C11.3871 23.9678 11.634 23.8146 11.8047 23.5815C12.4633 22.6836 13.0934 21.8073 13.7036 20.9594C16.5365 17.0196 18.9832 13.618 22.2407 10.9059C22.2957 10.8601 22.3294 10.7919 22.3334 10.7178C22.3374 10.6436 22.3119 10.5698 22.2635 10.5159C22.1563 10.3962 22.114 10.2552 22.1316 10.0722C22.1417 9.96301 22.1852 9.86181 22.2548 9.78593C22.3444 9.68796 22.4542 9.62612 22.5718 9.60694C22.7814 9.57273 22.9933 9.67708 23.0992 9.86684C23.135 9.93092 23.1939 9.97688 23.2624 9.99348C23.294 10.0009 23.3254 10.002 23.3567 9.99693C23.3928 9.99102 23.4284 9.97626 23.4594 9.95417C23.8736 9.65088 24.4882 9.21539 25.0619 8.86009C25.3542 8.67975 25.5442 8.3736 25.5856 8.01999C25.6256 7.67378 25.5144 7.33162 25.2821 7.08092C25.2219 7.01636 25.1577 6.94885 25.0816 6.86985C25.0317 6.77043 24.9689 6.67941 24.8941 6.5984C23.4588 5.03466 21.5866 3.72773 19.7761 2.46271C19.4953 2.26654 19.2164 2.07184 18.9419 1.87821C18.7093 1.71361 18.4302 1.648 18.1573 1.69253L18.1566 1.69354Z" fill="#506079"/>
<path d="M18.8055 2.09854L19.3824 1.28124L19.3812 1.28038L18.8055 2.09854ZM24.7162 6.78158L25.453 6.10484L25.4529 6.10474L24.7162 6.78158ZM24.8785 7.02757L23.9695 7.44493L24.0417 7.60241L24.1626 7.72638L24.8785 7.02757ZM25.1062 7.26558L25.839 6.58452L25.8381 6.58364L25.1062 7.26558ZM24.9344 8.63083L25.4597 9.4814L25.4601 9.48114L24.9344 8.63083ZM23.316 9.73559L22.4438 10.2254L22.9949 11.2083L23.9053 10.543L23.316 9.73559ZM22.0754 9.60099L21.3388 8.92524L21.3374 8.92677L22.0754 9.60099ZM21.8846 10.0426L22.88 10.1362L22.88 10.1353L21.8846 10.0426ZM22.0863 10.698L22.7254 11.4667L23.5272 10.7994L22.8278 10.0265L22.0863 10.698ZM11.6085 23.4181L12.414 24.01L12.4144 24.0095L11.6085 23.4181ZM10.5514 23.665L11.0287 22.7858L11.0256 22.7841L10.5514 23.665ZM8.01345 21.9585L8.62833 21.1693L8.61504 21.159L8.60141 21.1491L8.01345 21.9585ZM3.87485 18.3818L3.14517 19.0662L3.14559 19.0667L3.87485 18.3818ZM3.71978 17.3325L2.82323 16.8905L2.82301 16.8909L3.71978 17.3325ZM14.6268 4.0539L15.4256 3.45162L14.8512 2.6891L14.0628 3.22856L14.6268 4.0539ZM15.6051 4.2779L15.1196 3.40398L15.1193 3.40413L15.6051 4.2779ZM15.9346 3.20329L15.4087 2.35311L14.6619 2.81566L15.0233 3.61575L15.9346 3.20329ZM17.9488 2.04113L17.4793 1.15849L17.4762 1.16018L17.9488 2.04113ZM18.1566 1.69354L18.3167 2.68063L18.7431 2.61107L18.985 2.25289L18.1566 1.69354ZM17.8318 1.80389L17.3621 0.921342L17.3589 0.923068L17.8318 1.80389ZM15.8053 2.97343L16.33 3.82434L16.3311 3.82368L15.8053 2.97343ZM15.7094 3.31352L16.6203 2.90048L16.6198 2.89924L15.7094 3.31352ZM15.4859 4.0428L14.9996 3.16932L14.9974 3.17054L15.4859 4.0428ZM14.8224 3.89113L15.6229 3.29117L15.6201 3.2875L14.8224 3.89113ZM14.4893 3.83075L15.0533 4.65614L15.0604 4.65126L15.0675 4.64627L14.4893 3.83075ZM8.10934 9.72763L8.8899 10.352L8.89015 10.3517L8.10934 9.72763ZM3.4957 17.205L2.59935 16.7626L2.59911 16.7631L3.4957 17.205ZM3.69709 18.5659L4.42619 17.8809L4.42565 17.8803L3.69709 18.5659ZM7.86931 22.1729L8.48357 21.3833L8.4706 21.3732L8.45731 21.3635L7.86931 22.1729ZM10.4392 23.8993L10.914 23.0187L10.9137 23.0186L10.4392 23.8993ZM11.8047 23.5815L10.9987 22.9903L10.9982 22.991L11.8047 23.5815ZM13.7036 20.9594L14.5149 21.5432L14.5151 21.5429L13.7036 20.9594ZM22.2407 10.9059L21.6022 10.1367L21.6014 10.1374L22.2407 10.9059ZM22.2635 10.5159L21.5186 11.1837L21.5193 11.1844L22.2635 10.5159ZM22.1316 10.0722L23.1269 10.167L23.1272 10.1638L22.1316 10.0722ZM22.2548 9.78593L22.9915 10.4615L22.9923 10.4607L22.2548 9.78593ZM23.0992 9.86684L23.9726 9.37927L23.9724 9.37878L23.0992 9.86684ZM23.2624 9.99348L23.0263 10.9655L23.0338 10.9673L23.2624 9.99348ZM23.4594 9.95417L24.0389 10.7688L24.0497 10.761L23.4594 9.95417ZM25.0619 8.86009L24.5375 8.00897L24.536 8.00988L25.0619 8.86009ZM25.5856 8.01999L26.5787 8.13544L26.5788 8.13411L25.5856 8.01999ZM25.2821 7.08092L26.0158 6.40078L26.0132 6.39798L25.2821 7.08092ZM25.0816 6.86985L24.188 7.31913L24.2561 7.45486L24.3614 7.5642L25.0816 6.86985ZM24.8941 6.5984L24.1573 7.27513L24.1591 7.27707L24.8941 6.5984ZM19.7761 2.46271L20.3491 1.64264L20.3491 1.64261L19.7761 2.46271ZM18.9419 1.87821L18.3641 2.69489L18.3652 2.69571L18.9419 1.87821ZM18.1573 1.69253L17.9971 0.705444L17.5707 0.775008L17.3288 1.13319L18.1573 1.69253ZM18.1991 1.95549L18.3592 2.94258C18.3038 2.95162 18.2577 2.93636 18.2297 2.91671L18.8055 2.09854L19.3812 1.28038C18.9893 1.00462 18.5087 0.89175 18.0389 0.968397L18.1991 1.95549ZM18.8055 2.09854L18.2285 2.91585C20.307 4.3831 22.4336 5.7746 23.9795 7.45842L24.7162 6.78158L25.4529 6.10474C23.7224 4.22 21.3549 2.6736 19.3824 1.28124L18.8055 2.09854ZM24.7162 6.78158L23.9794 7.45832C23.9762 7.45484 23.9735 7.45126 23.9715 7.44818C23.9695 7.44517 23.969 7.4438 23.9695 7.44493L24.8785 7.02757L25.7875 6.61021C25.707 6.43454 25.5978 6.26257 25.453 6.10484L24.7162 6.78158ZM24.8785 7.02757L24.1626 7.72638C24.237 7.80261 24.3071 7.87542 24.3742 7.94751L25.1062 7.26558L25.8381 6.58364C25.756 6.49545 25.6739 6.41026 25.5944 6.32876L24.8785 7.02757ZM25.1062 7.26558L24.3734 7.94664C24.3466 7.91776 24.3429 7.8862 24.345 7.86927C24.3473 7.85136 24.3617 7.80963 24.4087 7.78053L24.9344 8.63083L25.4601 9.48114C26.4826 8.84808 26.6295 7.4357 25.839 6.58452L25.1062 7.26558ZM24.9344 8.63083L24.4091 7.78026C23.846 8.12849 23.2283 8.56155 22.7266 8.92815L23.316 9.73559L23.9053 10.543C24.389 10.1896 24.9597 9.7906 25.4597 9.4814L24.9344 8.63083ZM23.316 9.73559L24.1881 9.24581C23.8224 8.59351 23.0986 8.24069 22.371 8.35938L22.5312 9.34647L22.6914 10.3336C22.5756 10.3525 22.4817 10.293 22.4438 10.2254L23.316 9.73559ZM22.5312 9.34647L22.371 8.35938C21.9787 8.42339 21.6185 8.62031 21.3388 8.92524L22.0754 9.60099L22.812 10.2767C22.8073 10.2818 22.7945 10.2939 22.7718 10.3063C22.7493 10.3187 22.7219 10.3286 22.6914 10.3336L22.5312 9.34647ZM22.0754 9.60099L21.3374 8.92677C21.0699 9.21971 20.9233 9.58552 20.8891 9.94991L21.8846 10.0426L22.88 10.1353C22.8768 10.1702 22.8616 10.2224 22.8133 10.2752L22.0754 9.60099ZM21.8846 10.0426L20.8892 9.94902C20.8341 10.5295 21.0247 11.0159 21.3447 11.3695L22.0863 10.698L22.8278 10.0265C22.8406 10.0406 22.8587 10.0665 22.8704 10.1013C22.8824 10.1367 22.8783 10.1533 22.88 10.1362L21.8846 10.0426ZM22.0863 10.698L21.4472 9.92941C17.3354 13.3513 14.4604 17.8416 10.8026 22.8268L11.6085 23.4181L12.4144 24.0095C16.1837 18.8723 18.8585 14.6847 22.7254 11.4667L22.0863 10.698ZM11.6085 23.4181L10.803 22.8262C10.8222 22.8002 10.8592 22.7736 10.9085 22.7656L11.0686 23.7527L11.2288 24.7398C11.6958 24.6636 12.1224 24.4068 12.414 24.01L11.6085 23.4181ZM11.0686 23.7527L10.9085 22.7656C10.948 22.7592 10.9915 22.7656 11.0287 22.7858L10.5514 23.665L10.074 24.5442C10.4389 24.7422 10.8456 24.8023 11.2288 24.7398L11.0686 23.7527ZM10.5514 23.665L11.0256 22.7841C10.2845 22.3854 9.45689 21.815 8.62833 21.1693L8.01345 21.9585L7.39857 22.7477C8.27429 23.4301 9.2 24.074 10.0772 24.5459L10.5514 23.665ZM8.01345 21.9585L8.60141 21.1491C7.03154 20.0087 5.50397 18.6559 4.6041 17.697L3.87485 18.3818L3.14559 19.0667C4.1437 20.1302 5.76918 21.5648 7.42549 22.7679L8.01345 21.9585ZM3.87485 18.3818L4.60452 17.6974C4.61949 17.7134 4.62351 17.7275 4.62455 17.7346C4.62557 17.7415 4.62575 17.7554 4.61655 17.7741L3.71978 17.3325L2.82301 16.8909C2.47007 17.6072 2.59707 18.4815 3.14517 19.0662L3.87485 18.3818ZM3.71978 17.3325L4.61633 17.7745C7.32577 12.2828 10.2909 8.23196 15.1909 4.87923L14.6268 4.0539L14.0628 3.22856C8.79405 6.8336 5.63168 11.1981 2.82323 16.8905L3.71978 17.3325ZM14.6268 4.0539L13.8281 4.65617C14.2189 5.17497 14.8651 5.45665 15.5248 5.34902L15.3647 4.36193L15.2045 3.37484C15.3133 3.35709 15.3919 3.40694 15.4256 3.45162L14.6268 4.0539ZM15.3647 4.36193L15.5248 5.34902C15.7204 5.31711 15.9115 5.25152 16.0908 5.15166L15.6051 4.2779L15.1193 3.40413C15.1438 3.39048 15.1733 3.37993 15.2045 3.37484L15.3647 4.36193ZM15.6051 4.2779L16.0906 5.15182C16.9501 4.67355 17.2207 3.6208 16.8458 2.79083L15.9346 3.20329L15.0233 3.61575C15.0103 3.58691 15.0083 3.5543 15.0181 3.52223C15.0282 3.48899 15.0576 3.43844 15.1196 3.40398L15.6051 4.2779ZM15.9346 3.20329L16.4605 4.05347C17.083 3.66785 17.735 3.29098 18.4214 2.92209L17.9488 2.04113L17.4762 1.16018C16.7544 1.54805 16.0668 1.94541 15.4087 2.35311L15.9346 3.20329ZM17.9488 2.04113L18.4183 2.92377C18.4062 2.9302 18.3869 2.93807 18.3601 2.94244L18.1999 1.95535L18.0397 0.968263C17.8402 1.00081 17.6514 1.06681 17.4793 1.15849L17.9488 2.04113ZM18.1566 1.69354L17.9964 0.706451C17.7714 0.743165 17.5576 0.817157 17.3621 0.921348L17.8318 1.80389L18.3015 2.68643C18.3096 2.68213 18.3148 2.68094 18.3167 2.68063L18.1566 1.69354ZM17.8318 1.80389L17.3589 0.923068C16.6429 1.30813 15.9438 1.7118 15.2795 2.12317L15.8053 2.97343L16.3311 3.82368C16.9598 3.43436 17.6235 3.05103 18.3047 2.68471L17.8318 1.80389ZM15.8053 2.97343L15.2805 2.12251C14.7108 2.47436 14.5496 3.17862 14.799 3.7278L15.7094 3.31352L16.6198 2.89924C16.7562 3.19976 16.6788 3.60892 16.33 3.82434L15.8053 2.97343ZM15.7094 3.31352L14.7984 3.72656C14.7227 3.55924 14.7591 3.30342 14.9996 3.16932L15.4859 4.0428L15.9722 4.91628C16.708 4.50598 16.9408 3.60866 16.6203 2.90048L15.7094 3.31352ZM15.4859 4.0428L14.9974 3.17054C15.0493 3.14146 15.1063 3.12199 15.162 3.1129L15.3221 4.09999L15.4823 5.08708C15.6531 5.05921 15.8189 5.00228 15.9744 4.91506L15.4859 4.0428ZM15.3221 4.09999L15.162 3.1129C15.3599 3.08061 15.531 3.16851 15.6229 3.29117L14.8224 3.89113L14.0219 4.49109C14.3529 4.93323 14.9078 5.1808 15.4823 5.08708L15.3221 4.09999ZM14.8224 3.89113L15.6201 3.2875C15.3456 2.92444 14.891 2.72869 14.425 2.80472L14.5851 3.79182L14.7453 4.77891C14.4536 4.8265 14.1809 4.70145 14.0247 4.49476L14.8224 3.89113ZM14.5851 3.79182L14.425 2.80472C14.2525 2.83286 14.0745 2.8993 13.9112 3.01523L14.4893 3.83075L15.0675 4.64627C14.9632 4.7203 14.8504 4.76177 14.7453 4.77891L14.5851 3.79182ZM14.4893 3.83075L13.9254 3.00536C11.3702 4.7533 9.21 6.74914 7.32853 9.10356L8.10934 9.72763L8.89015 10.3517C10.6441 8.15688 12.6569 6.2955 15.0533 4.65614L14.4893 3.83075ZM8.10934 9.72763L7.32878 9.10324C5.62815 11.2296 4.1262 13.6715 2.59935 16.7626L3.4957 17.205L4.39204 17.6475C5.87269 14.6499 7.30123 12.3384 8.8899 10.352L8.10934 9.72763ZM3.4957 17.205L2.59911 16.7631C2.1938 17.5848 2.33865 18.5817 2.96853 19.2515L3.69709 18.5659L4.42565 17.8803C4.3701 17.8212 4.3543 17.724 4.39228 17.647L3.4957 17.205ZM3.69709 18.5659L2.96799 19.2509C4.05198 20.4054 5.73936 21.8621 7.28131 22.9823L7.86931 22.1729L8.45731 21.3635C6.99501 20.3012 5.40732 18.9259 4.42619 17.8809L3.69709 18.5659ZM7.86931 22.1729L7.25506 22.9626C8.23057 23.7215 9.14308 24.3376 9.96461 24.78L10.4392 23.8993L10.9137 23.0186C10.2204 22.6452 9.40319 22.0987 8.48357 21.3833L7.86931 22.1729ZM10.4392 23.8993L9.96438 24.7799C10.3641 24.9953 10.8187 25.0738 11.2694 25.0003L11.1092 24.0132L10.949 23.0261C10.9419 23.0272 10.9374 23.0269 10.934 23.0263C10.9306 23.0258 10.9241 23.0242 10.914 23.0187L10.4392 23.8993ZM11.1092 24.0132L11.2694 25.0003C11.8135 24.9115 12.2898 24.611 12.6112 24.172L11.8047 23.5815L10.9982 22.991C10.9873 23.0058 10.9774 23.0138 10.9705 23.018C10.9638 23.0222 10.957 23.0248 10.949 23.0261L11.1092 24.0132ZM11.8047 23.5815L12.6107 24.1727C13.2725 23.2704 13.9053 22.3903 14.5149 21.5432L13.7036 20.9594L12.8922 20.3755C12.2814 21.2243 11.6541 22.0967 10.9987 22.9903L11.8047 23.5815ZM13.7036 20.9594L14.5151 21.5429C17.3631 17.5822 19.7377 14.2905 22.88 11.6744L22.2407 10.9059L21.6014 10.1374C18.2288 12.9454 15.7099 16.4571 12.892 20.3758L13.7036 20.9594ZM22.2407 10.9059L22.8792 11.675C23.1573 11.4439 23.3134 11.1119 23.3318 10.7709L22.3334 10.7178L21.335 10.6646C21.3454 10.4719 21.4342 10.2764 21.6022 10.1367L22.2407 10.9059ZM22.3334 10.7178L23.3318 10.7709C23.3497 10.4401 23.2386 10.1045 23.0077 9.84734L22.2635 10.5159L21.5193 11.1844C21.3853 11.0351 21.3251 10.8472 21.335 10.6646L22.3334 10.7178ZM22.2635 10.5159L23.0084 9.84804C23.0455 9.88951 23.0855 9.95255 23.109 10.0314C23.1312 10.1059 23.1278 10.1578 23.1269 10.167L22.1316 10.0722L21.1363 9.97744C21.096 10.3971 21.1991 10.827 21.5186 11.1837L22.2635 10.5159ZM22.1316 10.0722L23.1272 10.1638C23.1186 10.2566 23.08 10.3649 22.9915 10.4615L22.2548 9.78593L21.5181 9.11034C21.2904 9.35867 21.1649 9.66944 21.136 9.98061L22.1316 10.0722ZM22.2548 9.78593L22.9923 10.4607C22.9474 10.5098 22.8605 10.5731 22.7319 10.594L22.5718 9.60694L22.4116 8.61985C22.0479 8.67919 21.7414 8.86614 21.5173 9.11118L22.2548 9.78593ZM22.5718 9.60694L22.7319 10.594C22.5138 10.6296 22.319 10.5212 22.2261 10.3549L23.0992 9.86684L23.9724 9.37878C23.6677 8.83292 23.0491 8.51585 22.4116 8.61985L22.5718 9.60694ZM23.0992 9.86684L22.2258 10.3544C22.3896 10.6482 22.6724 10.8798 23.0263 10.9655L23.2624 9.99348L23.4986 9.02144C23.7154 9.07399 23.8803 9.2136 23.9726 9.37927L23.0992 9.86684ZM23.2624 9.99348L23.0338 10.9673C23.1896 11.0038 23.3531 11.0107 23.5168 10.984L23.3567 9.99693L23.1965 9.00984C23.2978 8.99331 23.3985 8.99797 23.4911 9.01965L23.2624 9.99348ZM23.3567 9.99693L23.5168 10.984C23.7091 10.9527 23.8873 10.8767 24.0389 10.7688L23.4594 9.95417L22.88 9.13958C22.9695 9.07581 23.0766 9.0294 23.1965 9.00984L23.3567 9.99693ZM23.4594 9.95417L24.0497 10.761C24.4559 10.4635 25.0465 10.0455 25.5878 9.7103L25.0619 8.86009L24.536 8.00988C23.93 8.38525 23.2913 8.83828 22.8692 9.14735L23.4594 9.95417ZM25.0619 8.86009L25.5863 9.71121C26.152 9.36221 26.5035 8.77757 26.5787 8.13544L25.5856 8.01999L24.5925 7.90455C24.5885 7.9384 24.5786 7.96182 24.5693 7.97679C24.5601 7.99145 24.5496 8.00154 24.5375 8.00897L25.0619 8.86009ZM25.5856 8.01999L26.5788 8.13411C26.6519 7.50207 26.4492 6.86866 26.0158 6.40078L25.2821 7.08092L24.5485 7.76105C24.5796 7.79459 24.5993 7.84548 24.5924 7.90588L25.5856 8.01999ZM25.2821 7.08092L26.0132 6.39798C25.9486 6.32886 25.8808 6.25748 25.8018 6.1755L25.0816 6.86985L24.3614 7.5642C24.4347 7.64022 24.4951 7.70386 24.5511 7.76386L25.2821 7.08092ZM25.0816 6.86985L25.9753 6.42056C25.8839 6.23841 25.7678 6.07003 25.6291 5.91973L24.8941 6.5984L24.1591 7.27707C24.1699 7.2888 24.1796 7.30246 24.188 7.31913L25.0816 6.86985ZM24.8941 6.5984L25.6309 5.92167C24.108 4.2625 22.1397 2.8937 20.3491 1.64264L19.7761 2.46271L19.2031 3.28279C21.0336 4.56175 22.8096 5.80682 24.1573 7.27513L24.8941 6.5984ZM19.7761 2.46271L20.3491 1.64261C20.0676 1.44601 19.7908 1.25275 19.5186 1.06071L18.9419 1.87821L18.3652 2.69571C18.642 2.89092 18.9229 3.08706 19.2031 3.28282L19.7761 2.46271ZM18.9419 1.87821L19.5198 1.06153C19.079 0.749712 18.5361 0.6175 17.9971 0.705444L18.1573 1.69253L18.3174 2.67963C18.3227 2.67876 18.3279 2.67886 18.3341 2.68032C18.3404 2.6818 18.3507 2.68545 18.3641 2.69489L18.9419 1.87821ZM18.1573 1.69253L17.3288 1.13319L17.3282 1.1342L18.1566 1.69354L18.985 2.25289L18.9857 2.25188L18.1573 1.69253Z" fill="#506079" mask="url(#path-2-outside-1_300_38234)"/>
<path d="M9.96008 16.562C10.1511 16.4556 10.2167 16.1939 10.1066 15.9775C9.99646 15.761 9.75234 15.6718 9.56132 15.7781C9.37031 15.8845 9.30472 16.1462 9.41483 16.3626C9.52495 16.5791 9.76906 16.6683 9.96008 16.562Z" fill="#CC9423"/>
<path d="M25.0991 7.26855C23.4869 5.53024 21.2667 4.10711 19.2675 2.71964C19.0136 2.54328 18.688 2.5238 18.4172 2.67015C17.7164 3.04799 17.0481 3.43396 16.4091 3.82861C16.5842 4.2159 16.4397 4.68312 16.0736 4.88715C15.7384 5.07359 15.3318 4.97591 15.1041 4.67518C10.03 8.13355 6.95556 12.291 4.17194 17.8036C4.00089 18.1434 4.04277 18.3391 4.30134 18.6115C5.66439 20.0472 8.36016 22.4925 10.5564 23.6793C10.9199 23.8754 11.3648 23.7724 11.6136 23.4333C15.323 18.3675 18.0947 14.0246 22.0813 10.7033C21.9441 10.55 21.8518 10.3401 21.8794 10.047C21.8949 9.88229 21.9604 9.72461 22.0694 9.60555C22.4536 9.18527 23.0602 9.29333 23.3111 9.74176C23.8029 9.38188 24.3979 8.96573 24.9287 8.63716C25.3965 8.34752 25.4777 7.67732 25.0992 7.26943L25.0991 7.26855Z" fill="#CC7940"/>
<path d="M24.7089 6.7824C23.0682 4.99316 20.8187 3.51924 18.7916 2.08433C18.5341 1.90227 18.2062 1.87869 17.9346 2.02518C17.2313 2.40342 16.5616 2.79054 15.9212 3.1872C16.1004 3.58457 15.9597 4.05925 15.5928 4.26341C15.2569 4.45086 14.8459 4.34673 14.6143 4.03767C9.53172 7.51715 6.47116 11.7288 3.71567 17.3265C3.54629 17.6714 3.60871 18.0977 3.87199 18.3783C5.25803 19.8569 7.97841 22.152 10.2023 23.3846C10.5695 23.5881 11.0183 23.488 11.2655 23.1439C14.9582 18.0117 17.7969 13.5351 21.7848 10.1858C21.6453 10.0284 21.5504 9.81265 21.5753 9.51371C21.5894 9.34561 21.6538 9.18631 21.7632 9.0645C22.1467 8.63984 22.7588 8.75597 23.0158 9.21596C23.5081 8.85332 24.0189 8.50646 24.551 8.17587C25.0195 7.88522 25.0951 7.20159 24.7106 6.78214L24.7089 6.7824Z" fill="url(#paint0_linear_300_38234)"/>
<path d="M18.2767 6.64197C18.4677 6.53561 18.5333 6.27393 18.4232 6.05749C18.3131 5.84106 18.069 5.75183 17.878 5.85819C17.687 5.96456 17.6214 6.22624 17.7315 6.44267C17.8416 6.65911 18.0857 6.74834 18.2767 6.64197Z" fill="#CC9423"/>
<path d="M17.384 5.90174C17.575 5.79538 17.6406 5.53369 17.5305 5.31726C17.4204 5.10082 17.1763 5.01159 16.9853 5.11796C16.7943 5.22432 16.7287 5.486 16.8388 5.70244C16.9489 5.91887 17.193 6.00811 17.384 5.90174Z" fill="#CC9423"/>
<path d="M16.4702 5.05408C16.6612 4.94772 16.7268 4.68604 16.6167 4.4696C16.5066 4.25317 16.2625 4.16393 16.0715 4.2703C15.8804 4.37666 15.8148 4.63835 15.9249 4.85478C16.035 5.07122 16.2792 5.16045 16.4702 5.05408Z" fill="#CC9423"/>
<path d="M19.2668 7.44861C19.4578 7.34225 19.5234 7.08057 19.4133 6.86413C19.3032 6.6477 19.0591 6.55847 18.8681 6.66483C18.6771 6.7712 18.6115 7.03288 18.7216 7.24931C18.8317 7.46575 19.0758 7.55498 19.2668 7.44861Z" fill="#CC9423"/>
<path d="M20.2976 8.23377C20.4886 8.12741 20.5542 7.86572 20.4441 7.64929C20.334 7.43285 20.0899 7.34362 19.8989 7.44999C19.7078 7.55635 19.6422 7.81803 19.7523 8.03447C19.8624 8.25091 20.1065 8.34014 20.2976 8.23377Z" fill="#CC9423"/>
<path d="M21.2938 9.03846C21.4848 8.93209 21.5504 8.67041 21.4403 8.45398C21.3302 8.23754 21.0861 8.14831 20.8951 8.25467C20.7041 8.36104 20.6384 8.62272 20.7486 8.83916C20.8587 9.05559 21.1028 9.14482 21.2938 9.03846Z" fill="#CC9423"/>
<path d="M14.5845 5.53448C11.4299 6.9356 6.58327 13.8677 4.91386 17.1346C4.77238 17.4123 4.81751 17.7581 5.02704 17.9883C6.14672 19.2191 8.25279 20.9477 10.0575 21.9735C10.4377 22.1893 10.9236 22.0527 11.141 21.6658C12.777 18.7495 16.7461 12.7555 20.2097 10.4238C20.8184 10.0135 15.1788 5.26991 14.5845 5.53448Z" fill="#CB7312"/>
<path d="M14.4955 5.36043C11.2968 6.78129 6.35939 13.8869 4.75797 17.0943C4.65928 17.2923 4.69305 17.5369 4.83999 17.7038C5.9422 18.9518 8.15274 20.7781 10.0241 21.8298C10.3751 22.0271 10.8265 21.8961 11.026 21.5391C12.6447 18.6408 16.639 12.5943 20.1215 10.2488C20.7301 9.83844 15.0905 5.09486 14.4962 5.35943L14.4955 5.36043Z" fill="url(#paint1_linear_300_38234)"/>
<path d="M18.3267 2.51426C17.8545 2.61014 17.3671 3.00335 16.9336 3.34836C16.8334 3.42833 16.835 3.58852 16.9369 3.67048C18.3849 4.82887 21.6605 7.3616 22.7751 8.35838C22.8452 8.42133 22.947 8.42444 23.0175 8.36455C23.4437 8.00013 23.9055 7.67831 24.3133 7.40382C24.9219 6.99351 18.9608 2.38571 18.3276 2.51413L18.3267 2.51426Z" fill="#CB7312"/>
<path d="M18.2904 2.34977C17.8099 2.44699 17.3136 2.85242 16.8742 3.20286C16.7853 3.27384 16.7872 3.41603 16.8766 3.48839C18.3182 4.64335 21.6455 7.21423 22.752 8.20786C22.8153 8.26476 22.9057 8.26525 22.9686 8.21106C23.3975 7.84262 23.864 7.51824 24.2763 7.24034C24.8849 6.83002 18.9238 2.22223 18.2906 2.35064L18.2904 2.34977Z" fill="url(#paint2_linear_300_38234)"/>
<path d="M13.435 8.50495C11.3472 8.15791 10.9426 10.5581 10.9426 10.5581C10.9194 10.7116 10.8189 10.935 10.7191 11.0535L10.3916 11.443C10.2926 11.5614 10.0995 11.687 9.961 11.723C9.961 11.723 7.79525 12.2895 8.43551 14.487C9.11806 16.6642 10.8653 17.6898 10.8653 17.6898C11.2606 17.9722 11.6412 17.998 11.8971 17.578C12.1564 17.1574 11.933 15.376 11.933 15.376C11.9166 15.2281 11.9749 15.0151 12.0629 14.9021L13.8532 12.6462C13.9466 12.5305 14.1261 12.4403 14.2518 12.4449C14.2518 12.4449 15.7407 12.5185 16.0984 12.1375C16.459 11.7542 16.4577 11.2784 16.2384 10.8319C16.2384 10.8319 15.4163 8.90253 13.4368 8.50555L13.435 8.50495ZM11.1778 13.4688L10.7884 13.9554L11.1812 14.353C11.1812 14.353 11.1665 14.5221 11.0407 14.678C10.9156 14.8329 10.7892 14.8338 10.7892 14.8338L10.3982 14.4475L10.0398 14.9022C10.0398 14.9022 9.944 14.9097 9.79733 14.7965C9.64984 14.6834 9.6017 14.5012 9.6017 14.5012L9.98731 14.017L9.56288 13.6121C9.56288 13.6121 9.5975 13.4666 9.71815 13.3259C9.84029 13.1841 9.97384 13.1229 9.97384 13.1229L10.3825 13.5241L10.7566 13.0624C10.7566 13.0624 10.9087 13.069 11.0184 13.1676C11.1274 13.2673 11.1788 13.4696 11.1788 13.4696L11.1778 13.4688ZM13.4403 11.6782C13.2619 11.8946 12.9855 11.9182 12.8202 11.7318C12.6533 11.5457 12.6654 11.2201 12.8485 11.0011C13.0317 10.783 13.3134 10.7559 13.4757 10.9446C13.6371 11.1334 13.6197 11.4625 13.4405 11.6791L13.4403 11.6782ZM12.6225 10.7475C12.4378 10.9668 12.1528 10.9945 11.9827 10.8098C11.8111 10.6262 11.8239 10.2996 12.0125 10.0779C12.2011 9.85713 12.4923 9.82578 12.6592 10.0119C12.8253 10.1981 12.807 10.5274 12.6223 10.7467L12.6225 10.7475ZM13.8936 10.2588C13.7082 10.4791 13.4285 10.5032 13.2655 10.3155C13.1018 10.128 13.1217 9.79843 13.3119 9.57649C13.5022 9.35542 13.787 9.32689 13.946 9.51609C14.1044 9.7063 14.0783 10.0395 13.8927 10.2589L13.8936 10.2588Z" fill="#CC9423"/>
<g style="mix-blend-mode:screen" opacity="0.75">
<path d="M13.4357 8.50599C11.3477 8.15933 10.9428 10.5594 10.9428 10.5594C10.9195 10.7129 10.819 10.9363 10.7192 11.0548L10.3916 11.4444C10.2926 11.5627 10.0995 11.6883 9.96096 11.7244C9.96096 11.7244 7.79497 12.2912 8.43497 14.4884C9.11726 16.6653 10.8645 17.6905 10.8645 17.6905C11.2598 17.9729 11.6404 17.9986 11.8964 17.5785C12.1557 17.158 11.9326 15.3767 11.9326 15.3767C11.9162 15.2288 11.9745 15.0158 12.0626 14.9029L13.8533 12.6468C13.9468 12.5312 14.1263 12.4409 14.252 12.4455C14.252 12.4455 15.741 12.5189 16.0987 12.1378C16.4594 11.7545 16.4582 11.2787 16.239 10.8323C16.239 10.8323 15.4171 8.90321 13.4375 8.50659L13.4357 8.50599ZM11.1776 13.4698L10.7881 13.9565L11.1809 14.354C11.1809 14.354 11.1662 14.5231 11.0403 14.6789C10.9152 14.8338 10.7888 14.8347 10.7888 14.8347L10.3978 14.4486L10.0393 14.9033C10.0393 14.9033 9.94351 14.9109 9.79685 14.7977C9.64936 14.6846 9.60124 14.5024 9.60124 14.5024L9.98695 14.0182L9.56255 13.6134C9.56255 13.6134 9.59719 13.4679 9.71786 13.3272C9.84004 13.1853 9.9736 13.1241 9.9736 13.1241L10.3822 13.5253L10.7564 13.0636C10.7564 13.0636 10.9085 13.0701 11.0182 13.1687C11.1272 13.2683 11.1786 13.4706 11.1786 13.4706L11.1776 13.4698ZM13.4405 11.679C13.2621 11.8954 12.9857 11.919 12.8204 11.7327C12.6535 11.5466 12.6657 11.2211 12.8488 11.0021C13.032 10.7839 13.3137 10.7568 13.476 10.9454C13.6375 11.1342 13.6199 11.4633 13.4407 11.6798L13.4405 11.679ZM12.6228 10.7485C12.438 10.9678 12.153 10.9955 11.9829 10.8109C11.8114 10.6273 11.8242 10.3008 12.0128 10.0791C12.2015 9.85827 12.4927 9.82688 12.6596 10.013C12.8257 10.1992 12.8074 10.5284 12.6226 10.7477L12.6228 10.7485ZM13.894 10.2596C13.7086 10.4799 13.4289 10.504 13.266 10.3164C13.1022 10.1289 13.1222 9.79943 13.3124 9.57747C13.5027 9.35639 13.7876 9.32781 13.9466 9.51697C14.1049 9.70714 14.0788 10.0403 13.8932 10.2598L13.894 10.2596Z" fill="black"/>
</g>
<defs>
<linearGradient id="paint0_linear_300_38234" x1="25.1889" y1="7.96666" x2="3.26919" y2="16.9194" gradientUnits="userSpaceOnUse">
<stop stop-color="#FFE32C"/>
<stop offset="0.84" stop-color="#FDE12B"/>
<stop offset="0.89" stop-color="#FDE12D"/>
<stop offset="0.91" stop-color="#FDE234"/>
<stop offset="0.93" stop-color="#FDE441"/>
<stop offset="0.94" stop-color="#FDE654"/>
<stop offset="0.96" stop-color="#FDEA6C"/>
<stop offset="0.97" stop-color="#FDEE8A"/>
<stop offset="0.98" stop-color="#FEF3AD"/>
<stop offset="0.99" stop-color="#FEF9D5"/>
<stop offset="1" stop-color="white"/>
</linearGradient>
<linearGradient id="paint1_linear_300_38234" x1="21.7781" y1="12.1829" x2="1.43106" y2="15.3677" gradientUnits="userSpaceOnUse">
<stop stop-color="#FFE300"/>
<stop offset="0.63" stop-color="#FDC42B"/>
<stop offset="0.67" stop-color="#FDC42D"/>
<stop offset="0.69" stop-color="#FDC634"/>
<stop offset="0.7" stop-color="#FDCA41"/>
<stop offset="0.72" stop-color="#FDCF54"/>
<stop offset="0.73" stop-color="#FDD66C"/>
<stop offset="0.74" stop-color="#FDDE8A"/>
<stop offset="0.75" stop-color="#FEE8AD"/>
<stop offset="0.76" stop-color="white"/>
<stop offset="0.91" stop-color="#FDE12B"/>
</linearGradient>
<linearGradient id="paint2_linear_300_38234" x1="24.482" y1="6.58978" x2="16.5165" y2="4.3556" gradientUnits="userSpaceOnUse">
<stop stop-color="#FFE300"/>
<stop offset="0.77" stop-color="#FDC42B"/>
<stop offset="0.81" stop-color="#FDC42D"/>
<stop offset="0.83" stop-color="#FDC634"/>
<stop offset="0.85" stop-color="#FDCA41"/>
<stop offset="0.86" stop-color="#FDCF54"/>
<stop offset="0.87" stop-color="#FDD66C"/>
<stop offset="0.88" stop-color="#FDDE89"/>
<stop offset="0.89" stop-color="#FEE8AC"/>
<stop offset="0.9" stop-color="#FEEEC3"/>
<stop offset="0.93" stop-color="white"/>
<stop offset="1" stop-color="#FDE12B"/>
</linearGradient>
</defs>
</svg>
