<svg width="1440" height="900" viewBox="0 0 1440 900" fill="none" xmlns="http://www.w3.org/2000/svg">
<g clip-path="url(#clip0_318_3175)">
<rect width="1440" height="900" rx="16" fill="white"/>
<rect width="1440" height="900" rx="16" fill="#C0E1FF"/>
<g opacity="0.26" clip-path="url(#clip1_318_3175)">
<path d="M390.313 295.236L394.35 295.12C393.909 294.641 393.48 294.151 393.067 293.649C392.169 294.2 391.25 294.724 390.313 295.236Z" fill="url(#paint0_linear_318_3175)"/>
<path d="M1213.22 741.815L1239.31 742.747V703.387H1259.67C1260.26 662.06 1260.77 603.367 1259.01 601.609C1256.28 598.882 1323.26 417.757 1323.26 417.757L1392.3 588.519V680.616C1401.73 683.911 1408.51 692.852 1408.6 703.392H1449.79V716.709H1450.2V748.752H1452.7V754.162H1450.2V754.912H1485.26V617.433H1434.68V514.868L1372.48 522.504V288.454L1253.55 296.09V477.761H1224.84V434.66L1112.75 436.842V548.635L1213.22 545.407V741.81L1213.22 741.815Z" fill="url(#paint1_linear_318_3175)"/>
<path d="M1213.22 741.815L1239.31 742.747V703.387H1259.67C1260.26 662.06 1260.77 603.367 1259.01 601.609C1256.28 598.882 1323.26 417.757 1323.26 417.757L1392.3 588.519V680.616C1401.73 683.911 1408.51 692.852 1408.6 703.392H1449.79V716.709H1450.2V748.752H1452.7V754.162H1450.2V754.912H1485.26V617.433H1434.68V514.868L1372.48 522.504V288.454L1253.55 296.09V477.761H1224.84V434.66L1112.75 436.842V548.635L1213.22 545.407V741.81L1213.22 741.815Z" fill="url(#paint2_linear_318_3175)"/>
<path d="M908.369 751.088C903.584 745.634 909.052 638.705 909.052 638.705L969.884 637.069V475.039L1045.72 470.384L973.981 360.475L904.944 477.772V595.07L876.921 595.67V749.463C876.921 749.463 913.149 756.554 908.364 751.099L908.369 751.088Z" fill="url(#paint3_linear_318_3175)"/>
<path d="M908.369 751.088C903.584 745.634 909.052 638.705 909.052 638.705L969.884 637.069V475.039L1045.72 470.384L973.981 360.475L904.944 477.772V595.07L876.921 595.67V749.463C876.921 749.463 913.149 756.554 908.364 751.099L908.369 751.088Z" fill="url(#paint4_linear_318_3175)"/>
<path d="M49.1976 630.474L104.787 689.106L67.0998 690.136L66.9677 693.872V765.507L78.6858 765.314C78.6858 765.314 79.4458 766.096 80.7619 767.44L111.395 766.366V547.6L223.489 545.418V588.519H252.195V432.043L241.259 433.035V341.373L186.578 345.191L143.527 277L105.933 355.015C105.933 355.015 48.5203 356.651 45.7835 358.833C43.0522 361.015 45.7835 502.317 45.7835 502.317H2V516.196L49.1976 588.513V630.474Z" fill="url(#paint5_linear_318_3175)"/>
<path d="M49.1976 630.474L104.787 689.106L67.0998 690.136L66.9677 693.872V765.507L78.6858 765.314C78.6858 765.314 79.4458 766.096 80.7619 767.44L111.395 766.366V547.6L223.489 545.418V588.519H252.195V432.043L241.259 433.035V341.373L186.578 345.191L143.527 277L105.933 355.015C105.933 355.015 48.5203 356.651 45.7835 358.833C43.0522 361.015 45.7835 502.317 45.7835 502.317H2V516.196L49.1976 588.513V630.474Z" fill="url(#paint6_linear_318_3175)"/>
<path d="M371.134 633.251L388.166 631.158L393.034 625.246L396.663 630.116L433.332 625.615V669.757L454.819 699.856L444.697 700.104V728.18H492.793V625.119L492.11 625.07V292.278L450.567 293.485C443.75 301.843 433.376 307.182 421.751 307.182C410.903 307.182 401.145 302.532 394.35 295.121L390.314 295.237C381.718 299.948 371.673 302.884 360.88 303.43V399.863L371.134 399.207V633.251Z" fill="url(#paint7_linear_318_3175)"/>
<path d="M371.134 633.251L388.166 631.158L393.034 625.246L396.663 630.116L433.332 625.615V669.757L454.819 699.856L444.697 700.104V728.18H492.793V625.119L492.11 625.07V292.278L450.567 293.485C443.75 301.843 433.376 307.182 421.751 307.182C410.903 307.182 401.145 302.532 394.35 295.121L390.314 295.237C381.718 299.948 371.673 302.884 360.88 303.43V399.863L371.134 399.207V633.251Z" fill="url(#paint8_linear_318_3175)"/>
<path d="M710.152 617.973V739.634L734.078 743.452V392.188L699.898 393.201V530.14L621.979 537.049V623.427L710.152 617.973Z" fill="url(#paint9_linear_318_3175)"/>
<path d="M710.152 617.973V739.634L734.078 743.452V392.188L699.898 393.201V530.14L621.979 537.049V623.427L710.152 617.973Z" fill="url(#paint10_linear_318_3175)"/>
<path d="M613.78 449.943L520.822 455.943V469.105L613.78 467.535V449.943Z" fill="url(#paint11_linear_318_3175)"/>
<path d="M613.78 449.943L520.822 455.943V469.105L613.78 467.535V449.943Z" fill="url(#paint12_linear_318_3175)"/>
<path d="M1050.54 606.259H1094.32C1102.36 578.96 1111.2 549.77 1111.2 549.77L1112.74 554.255V548.635L1094.29 549.23V467.397L1045.72 470.378L1050.54 477.761V606.254V606.259Z" fill="url(#paint13_linear_318_3175)"/>
<path d="M1050.54 606.259H1094.32C1102.36 578.96 1111.2 549.77 1111.2 549.77L1112.74 554.255V548.635L1094.29 549.23V467.397L1045.72 470.378L1050.54 477.761V606.254V606.259Z" fill="url(#paint14_linear_318_3175)"/>
<path d="M325.34 553.054C327.389 550.873 360.88 550.873 360.88 550.873V399.862L252.201 406.843V432.038L325.335 425.393C325.335 425.393 323.286 555.236 325.335 553.054H325.34Z" fill="url(#paint15_linear_318_3175)"/>
<path d="M325.34 553.054C327.389 550.873 360.88 550.873 360.88 550.873V399.862L252.201 406.843V432.038L325.335 425.393C325.335 425.393 323.286 555.236 325.335 553.054H325.34Z" fill="url(#paint16_linear_318_3175)"/>
<path d="M621.979 537.049V467.397L613.78 467.535V537.776L621.979 537.049Z" fill="url(#paint17_linear_318_3175)"/>
<path d="M621.979 537.049V467.397L613.78 467.535V537.776L621.979 537.049Z" fill="url(#paint18_linear_318_3175)"/>
<path d="M828.402 596.695L876.932 595.66V387.747H734.078V392.188L828.402 389.383V596.695Z" fill="url(#paint19_linear_318_3175)"/>
<path d="M828.402 596.695L876.932 595.66V387.747H734.078V392.188L828.402 389.383V596.695Z" fill="url(#paint20_linear_318_3175)"/>
<path d="M520.822 469.105L492.798 469.579V625.118L520.822 627.245V469.105Z" fill="url(#paint21_linear_318_3175)"/>
<path d="M520.822 469.105L492.798 469.579V625.118L520.822 627.245V469.105Z" fill="url(#paint22_linear_318_3175)"/>
<path d="M444.703 728.174V801.627C447.671 799.908 451.118 798.916 454.797 798.916C464.356 798.916 472.358 805.561 474.45 814.486C474.781 814.905 474.99 815.423 474.99 816.001C474.99 816.277 474.935 816.535 474.852 816.783C474.863 816.877 474.88 816.965 474.885 817.059C479.081 808.122 490.651 786.189 492.165 785.583L497.11 785.418L506.675 785.098L516.708 784.768L526.659 784.437L533.421 784.211C535.244 773.539 544.489 765.396 555.657 765.308C562.116 747.022 579.539 733.92 600.024 733.92C620.509 733.92 637.993 747.066 644.424 765.402C645.107 765.341 645.796 765.302 646.495 765.302C656.126 765.302 664.353 771.291 667.674 779.743L675.686 779.478L682.156 779.258L692.338 778.922L699.084 778.696L714.596 810.348L724.211 792.216C723.594 787.12 723.627 781.974 724.579 776.773C734.249 724.196 815.384 732.598 856.161 767.137C864.008 773.787 871.894 781.027 879.878 788.305L893.458 788.768L906.834 789.225L918.414 789.621L931.949 790.084L942.396 810.189L940.044 788.712H938.904C938.591 788.712 938.332 788.453 938.332 788.139V787.528C938.332 787.214 938.591 786.955 938.904 786.955H940L946.867 782.872V780.575C946.867 780.575 947.484 780.365 947.842 779.556C947.33 779.109 947.005 778.459 947.005 777.726C947.005 776.377 948.095 775.286 949.444 775.286C950.793 775.286 951.884 776.377 951.884 777.726C951.884 778.321 951.663 778.856 951.311 779.28C951.361 779.859 951.564 780.476 952.17 780.575H952.561V782.878H952.539L959.048 786.949H960.524C960.843 786.949 961.096 787.208 961.096 787.522V788.134C961.096 788.448 960.837 788.707 960.524 788.707H959.367L956.058 814.354C956.911 814.458 957.578 815.175 957.578 816.056V817.896C957.578 818.849 956.807 819.621 955.854 819.621H954.731V820.822C954.731 821.505 954.174 822.061 953.492 822.061H950.936V824.078C950.936 824.387 951.184 824.634 951.493 824.634H959.956C962.726 822.497 965.766 820.717 969.009 819.384C972.781 817.83 977.826 817.323 980.904 819.406C981.801 820.012 982.534 820.844 983.018 821.929C983.398 822.783 983.563 823.703 983.696 824.629H998.211C998.52 824.629 998.767 824.381 998.767 824.072V822.056H995.805C995.122 822.056 994.566 821.5 994.566 820.816V819.615H993.988C993.035 819.615 992.264 818.844 992.264 817.891V816.051C992.264 815.351 992.682 814.756 993.277 814.48L990.458 788.701H989.318C989.004 788.701 988.745 788.442 988.745 788.128V787.517C988.745 787.203 989.004 786.944 989.318 786.944H990.414L997.281 782.861V780.564C997.281 780.564 997.897 780.354 998.255 779.545C997.743 779.098 997.418 778.448 997.418 777.715C997.418 776.366 998.509 775.275 999.858 775.275C1001.21 775.275 1002.3 776.366 1002.3 777.715C1002.3 778.31 1002.08 778.845 1001.72 779.269C1001.77 779.848 1001.98 780.465 1002.58 780.564H1002.97V782.867H1002.95L1009.46 786.938H1010.93C1011.25 786.938 1011.5 787.197 1011.5 787.511V788.123C1011.5 788.437 1011.25 788.696 1010.93 788.696H1009.78L1006.47 814.343C1007.32 814.447 1007.99 815.164 1007.99 816.045V817.885C1007.99 818.838 1007.21 819.61 1006.26 819.61H1005.14V820.811C1005.14 821.494 1004.58 822.05 1003.9 822.05H1001.34V828.816C1001.34 829.125 1001.1 829.373 1000.79 829.373H984.852C986.658 833.676 990.37 837.102 993.387 840.921C1013.26 836.138 1028.66 823.373 1042.3 807.682H1040.96V802.883H1042.56V723.48H1040.43V718.681H1042.56V651.906C1041.92 652.132 1042.04 650.446 1042.25 649.052C1034.28 649.189 1029.25 649.311 1028.71 649.404L1044.69 606.237H1050.54V477.744L1045.72 470.362L969.885 475.017V637.047L909.053 638.683C909.053 638.683 903.585 745.611 908.37 751.066C913.155 756.52 876.927 749.43 876.927 749.43V595.637L828.397 596.673V389.383L734.073 392.187V743.452L710.152 739.634V617.973L621.979 623.427V537.049L613.78 537.776V467.535L520.822 469.105V627.245L492.798 625.113V728.174H444.703Z" fill="url(#paint23_linear_318_3175)"/>
<path d="M444.703 728.174V801.627C447.671 799.908 451.118 798.916 454.797 798.916C464.356 798.916 472.358 805.561 474.45 814.486C474.781 814.905 474.99 815.423 474.99 816.001C474.99 816.277 474.935 816.535 474.852 816.783C474.863 816.877 474.88 816.965 474.885 817.059C479.081 808.122 490.651 786.189 492.165 785.583L497.11 785.418L506.675 785.098L516.708 784.768L526.659 784.437L533.421 784.211C535.244 773.539 544.489 765.396 555.657 765.308C562.116 747.022 579.539 733.92 600.024 733.92C620.509 733.92 637.993 747.066 644.424 765.402C645.107 765.341 645.796 765.302 646.495 765.302C656.126 765.302 664.353 771.291 667.674 779.743L675.686 779.478L682.156 779.258L692.338 778.922L699.084 778.696L714.596 810.348L724.211 792.216C723.594 787.12 723.627 781.974 724.579 776.773C734.249 724.196 815.384 732.598 856.161 767.137C864.008 773.787 871.894 781.027 879.878 788.305L893.458 788.768L906.834 789.225L918.414 789.621L931.949 790.084L942.396 810.189L940.044 788.712H938.904C938.591 788.712 938.332 788.453 938.332 788.139V787.528C938.332 787.214 938.591 786.955 938.904 786.955H940L946.867 782.872V780.575C946.867 780.575 947.484 780.365 947.842 779.556C947.33 779.109 947.005 778.459 947.005 777.726C947.005 776.377 948.095 775.286 949.444 775.286C950.793 775.286 951.884 776.377 951.884 777.726C951.884 778.321 951.663 778.856 951.311 779.28C951.361 779.859 951.564 780.476 952.17 780.575H952.561V782.878H952.539L959.048 786.949H960.524C960.843 786.949 961.096 787.208 961.096 787.522V788.134C961.096 788.448 960.837 788.707 960.524 788.707H959.367L956.058 814.354C956.911 814.458 957.578 815.175 957.578 816.056V817.896C957.578 818.849 956.807 819.621 955.854 819.621H954.731V820.822C954.731 821.505 954.174 822.061 953.492 822.061H950.936V824.078C950.936 824.387 951.184 824.634 951.493 824.634H959.956C962.726 822.497 965.766 820.717 969.009 819.384C972.781 817.83 977.826 817.323 980.904 819.406C981.801 820.012 982.534 820.844 983.018 821.929C983.398 822.783 983.563 823.703 983.696 824.629H998.211C998.52 824.629 998.767 824.381 998.767 824.072V822.056H995.805C995.122 822.056 994.566 821.5 994.566 820.816V819.615H993.988C993.035 819.615 992.264 818.844 992.264 817.891V816.051C992.264 815.351 992.682 814.756 993.277 814.48L990.458 788.701H989.318C989.004 788.701 988.745 788.442 988.745 788.128V787.517C988.745 787.203 989.004 786.944 989.318 786.944H990.414L997.281 782.861V780.564C997.281 780.564 997.897 780.354 998.255 779.545C997.743 779.098 997.418 778.448 997.418 777.715C997.418 776.366 998.509 775.275 999.858 775.275C1001.21 775.275 1002.3 776.366 1002.3 777.715C1002.3 778.31 1002.08 778.845 1001.72 779.269C1001.77 779.848 1001.98 780.465 1002.58 780.564H1002.97V782.867H1002.95L1009.46 786.938H1010.93C1011.25 786.938 1011.5 787.197 1011.5 787.511V788.123C1011.5 788.437 1011.25 788.696 1010.93 788.696H1009.78L1006.47 814.343C1007.32 814.447 1007.99 815.164 1007.99 816.045V817.885C1007.99 818.838 1007.21 819.61 1006.26 819.61H1005.14V820.811C1005.14 821.494 1004.58 822.05 1003.9 822.05H1001.34V828.816C1001.34 829.125 1001.1 829.373 1000.79 829.373H984.852C986.658 833.676 990.37 837.102 993.387 840.921C1013.26 836.138 1028.66 823.373 1042.3 807.682H1040.96V802.883H1042.56V723.48H1040.43V718.681H1042.56V651.906C1041.92 652.132 1042.04 650.446 1042.25 649.052C1034.28 649.189 1029.25 649.311 1028.71 649.404L1044.69 606.237H1050.54V477.744L1045.72 470.362L969.885 475.017V637.047L909.053 638.683C909.053 638.683 903.585 745.611 908.37 751.066C913.155 756.52 876.927 749.43 876.927 749.43V595.637L828.397 596.673V389.383L734.073 392.187V743.452L710.152 739.634V617.973L621.979 623.427V537.049L613.78 537.776V467.535L520.822 469.105V627.245L492.798 625.113V728.174H444.703Z" fill="url(#paint24_linear_318_3175)"/>
<path d="M444.703 728.174V801.627C447.671 799.908 451.118 798.916 454.797 798.916C464.356 798.916 472.358 805.561 474.45 814.486C474.781 814.905 474.99 815.423 474.99 816.001C474.99 816.277 474.935 816.535 474.852 816.783C474.863 816.877 474.88 816.965 474.885 817.059C479.081 808.122 490.651 786.189 492.165 785.583L497.11 785.418L506.675 785.098L516.708 784.768L526.659 784.437L533.421 784.211C535.244 773.539 544.489 765.396 555.657 765.308C562.116 747.022 579.539 733.92 600.024 733.92C620.509 733.92 637.993 747.066 644.424 765.402C645.107 765.341 645.796 765.302 646.495 765.302C656.126 765.302 664.353 771.291 667.674 779.743L675.686 779.478L682.156 779.258L692.338 778.922L699.084 778.696L714.596 810.348L724.21 792.216C723.594 787.12 723.627 781.974 724.579 776.773C734.249 724.196 815.384 732.598 856.161 767.137C864.008 773.787 871.894 781.027 879.878 788.305L893.458 788.768L906.834 789.225L918.414 789.621L931.949 790.084L942.396 810.189L940.044 788.712H938.904C938.591 788.712 938.332 788.453 938.332 788.139V787.528C938.332 787.214 938.591 786.955 938.904 786.955H940L946.867 782.872V780.575C946.867 780.575 947.484 780.365 947.842 779.556C947.33 779.109 947.005 778.459 947.005 777.726C947.005 776.377 948.095 775.286 949.444 775.286C950.793 775.286 951.884 776.377 951.884 777.726C951.884 778.321 951.663 778.856 951.311 779.28C951.361 779.859 951.564 780.476 952.17 780.575H952.561V782.878H952.539L959.048 786.949H960.524C960.843 786.949 961.096 787.208 961.096 787.522V788.134C961.096 788.448 960.837 788.707 960.524 788.707H959.367L956.058 814.354C956.911 814.458 957.578 815.175 957.578 816.056V817.896C957.578 818.849 956.807 819.621 955.854 819.621H954.731V820.822C954.731 821.505 954.174 822.061 953.492 822.061H950.936V824.078C950.936 824.387 951.184 824.634 951.493 824.634H959.956C962.726 822.497 965.766 820.717 969.009 819.384C972.781 817.83 977.826 817.323 980.904 819.406C981.801 820.012 982.534 820.844 983.018 821.929C983.398 822.783 983.563 823.703 983.696 824.629H998.211C998.52 824.629 998.767 824.381 998.767 824.072V822.056H995.805C995.122 822.056 994.566 821.5 994.566 820.816V819.615H993.988C993.035 819.615 992.264 818.844 992.264 817.891V816.051C992.264 815.351 992.682 814.756 993.277 814.48L990.458 788.701H989.318C989.004 788.701 988.745 788.442 988.745 788.128V787.517C988.745 787.203 989.004 786.944 989.318 786.944H990.414L997.281 782.861V780.564C997.281 780.564 997.897 780.354 998.255 779.545C997.743 779.098 997.418 778.448 997.418 777.715C997.418 776.366 998.508 775.275 999.858 775.275C1001.21 775.275 1002.3 776.366 1002.3 777.715C1002.3 778.31 1002.08 778.845 1001.72 779.269C1001.77 779.848 1001.98 780.465 1002.58 780.564H1002.97V782.867H1002.95L1009.46 786.938H1010.93C1011.25 786.938 1011.5 787.197 1011.5 787.511V788.123C1011.5 788.437 1011.25 788.696 1010.93 788.696H1009.78L1006.47 814.343C1007.32 814.447 1007.99 815.164 1007.99 816.045V817.885C1007.99 818.838 1007.21 819.61 1006.26 819.61H1005.14V820.811C1005.14 821.494 1004.58 822.05 1003.9 822.05H1001.34V828.816C1001.34 829.125 1001.1 829.373 1000.79 829.373H984.852C986.658 833.676 990.37 837.102 993.387 840.921C1013.26 836.138 1028.66 823.373 1042.3 807.682H1040.96V802.883H1042.56V723.48H1040.43V718.681H1042.56V651.906C1041.92 652.132 1042.04 650.446 1042.25 649.052C1034.28 649.189 1029.25 649.311 1028.71 649.404L1044.69 606.237H1050.54V477.744L1045.72 470.362L969.885 475.017V637.047L909.053 638.683C909.053 638.683 903.585 745.612 908.37 751.066C913.155 756.52 876.927 749.43 876.927 749.43V595.637L828.397 596.673V389.383L734.073 392.187V743.452L710.152 739.634V617.973L621.979 623.427V537.049L613.78 537.776V467.535L520.822 469.105V627.245L492.798 625.113V728.174H444.703Z" fill="url(#paint25_linear_318_3175)"/>
<path d="M101.77 788.14C103.835 780.846 113.786 776.879 122.96 775.573C126.946 775.006 131.148 774.758 134.959 775.859C135.708 776.074 136.44 776.361 137.128 776.691C151.148 750.868 170.846 728.593 198.759 722.913C203.153 722.021 207.581 721.916 211.936 722.456V705.828L194.893 706.247C195.427 705.183 241.766 640.166 241.766 640.166H254.106L262.003 630.574L269.145 640.166H310.897L327.521 617.252L342.549 640.166H380.743L388.161 631.158L371.129 633.251V399.207L360.875 399.863V550.867C360.875 550.867 327.384 550.867 325.335 553.049C323.287 555.231 325.335 425.388 325.335 425.388L252.201 432.033V588.508H223.495V545.408L111.401 547.589V766.356L80.7676 767.43C84.1156 770.857 91.0816 777.981 98.4109 785.408C99.8537 786.014 101.06 786.917 101.77 788.124V788.14Z" fill="url(#paint26_linear_318_3175)"/>
<path d="M101.77 788.14C103.835 780.846 113.786 776.879 122.96 775.573C126.946 775.006 131.148 774.758 134.959 775.859C135.708 776.074 136.44 776.361 137.128 776.691C151.148 750.868 170.846 728.593 198.759 722.913C203.153 722.021 207.581 721.916 211.936 722.456V705.828L194.893 706.247C195.427 705.183 241.766 640.166 241.766 640.166H254.106L262.003 630.574L269.145 640.166H310.897L327.521 617.252L342.549 640.166H380.743L388.161 631.158L371.129 633.251V399.207L360.875 399.863V550.867C360.875 550.867 327.384 550.867 325.335 553.049C323.287 555.231 325.335 425.388 325.335 425.388L252.201 432.033V588.508H223.495V545.408L111.401 547.589V766.356L80.7676 767.43C84.1156 770.857 91.0816 777.981 98.4109 785.408C99.8537 786.014 101.06 786.917 101.77 788.124V788.14Z" fill="url(#paint27_linear_318_3175)"/>
<path d="M101.77 788.14C103.835 780.846 113.786 776.879 122.96 775.573C126.946 775.006 131.148 774.758 134.959 775.859C135.708 776.074 136.44 776.361 137.128 776.691C151.148 750.868 170.846 728.593 198.759 722.913C203.153 722.021 207.581 721.916 211.936 722.456V705.828L194.893 706.247C195.427 705.183 241.766 640.166 241.766 640.166H254.106L262.003 630.574L269.145 640.166H310.897L327.521 617.252L342.549 640.166H380.743L388.161 631.158L371.129 633.251V399.207L360.875 399.863V550.867C360.875 550.867 327.384 550.867 325.335 553.049C323.287 555.231 325.335 425.388 325.335 425.388L252.201 432.033V588.508H223.495V545.408L111.401 547.589V766.356L80.7676 767.43C84.1156 770.857 91.0816 777.981 98.4109 785.408C99.8537 786.014 101.06 786.917 101.77 788.124V788.14Z" fill="url(#paint28_linear_318_3175)"/>
<path d="M1130.55 606.26H1174.66L1191.17 647.294C1191.17 647.294 1188.65 647.322 1184.25 647.366V647.785C1191.35 648.165 1200.13 648.633 1200.76 648.633L1195.9 659.211C1196.26 659.498 1196.5 659.939 1196.5 660.435C1196.5 660.969 1196.23 661.437 1195.82 661.718L1208.46 710.747C1208.64 711.001 1208.75 711.309 1208.75 711.646C1208.75 711.701 1208.74 711.75 1208.74 711.805L1208.75 711.866L1201.01 746.422C1207.13 769.65 1198 798.068 1197.08 822.767L1202.39 851.956C1204.35 855.642 1206.94 859.075 1210.33 862.182C1219.25 870.369 1229.3 872.953 1239.73 871.708V866.336H1239.32V863.62H1237.23V858.21H1239.73V805.886C1232.89 807.484 1227.8 813.61 1227.8 820.932C1227.8 821.39 1227.82 821.841 1227.86 822.288H1227.62C1227.55 822.723 1227.36 823.108 1227.1 823.434C1227.15 824.012 1227.35 824.629 1227.96 824.728H1228.35V827.031H1228.32L1234.83 831.103H1236.31C1236.62 831.103 1236.88 831.362 1236.88 831.676V832.287C1236.88 832.601 1236.62 832.86 1236.31 832.86H1235.15L1231.84 858.507C1232.7 858.612 1233.36 859.328 1233.36 860.21V862.044C1233.36 862.997 1232.59 863.769 1231.64 863.769H1230.52V864.97C1230.52 865.653 1229.96 866.209 1229.28 866.209H1221.18C1220.5 866.209 1219.94 865.653 1219.94 864.97V863.769H1219.36C1218.41 863.769 1217.64 862.997 1217.64 862.044V860.21C1217.64 859.51 1218.06 858.915 1218.65 858.639L1215.83 832.86H1214.69C1214.38 832.86 1214.12 832.601 1214.12 832.287V831.676C1214.12 831.362 1214.38 831.103 1214.69 831.103H1215.79L1222.66 827.02V824.723C1222.66 824.723 1223.27 824.513 1223.63 823.704C1223.12 823.257 1222.8 822.607 1222.8 821.874C1222.8 821.478 1222.9 821.103 1223.07 820.772C1223.14 810.888 1230.31 802.696 1239.73 801.037V754.162H1237.65V748.752H1239.32V742.752L1213.22 741.821V545.418L1112.75 548.647V554.266L1130.56 606.271L1130.55 606.26Z" fill="url(#paint29_linear_318_3175)"/>
<path d="M1130.55 606.26H1174.66L1191.17 647.294C1191.17 647.294 1188.65 647.322 1184.25 647.366V647.785C1191.35 648.165 1200.13 648.633 1200.76 648.633L1195.9 659.211C1196.26 659.498 1196.5 659.939 1196.5 660.435C1196.5 660.969 1196.23 661.437 1195.82 661.718L1208.46 710.747C1208.64 711.001 1208.75 711.309 1208.75 711.646C1208.75 711.701 1208.74 711.75 1208.74 711.805L1208.75 711.866L1201.01 746.422C1207.13 769.65 1198 798.068 1197.08 822.767L1202.39 851.956C1204.35 855.642 1206.94 859.075 1210.33 862.182C1219.25 870.369 1229.3 872.953 1239.73 871.708V866.336H1239.32V863.62H1237.23V858.21H1239.73V805.886C1232.89 807.484 1227.8 813.61 1227.8 820.932C1227.8 821.39 1227.82 821.841 1227.86 822.288H1227.62C1227.55 822.723 1227.36 823.108 1227.1 823.434C1227.15 824.012 1227.35 824.629 1227.96 824.728H1228.35V827.031H1228.32L1234.83 831.103H1236.31C1236.62 831.103 1236.88 831.362 1236.88 831.676V832.287C1236.88 832.601 1236.62 832.86 1236.31 832.86H1235.15L1231.84 858.507C1232.7 858.612 1233.36 859.328 1233.36 860.21V862.044C1233.36 862.997 1232.59 863.769 1231.64 863.769H1230.52V864.97C1230.52 865.653 1229.96 866.209 1229.28 866.209H1221.18C1220.5 866.209 1219.94 865.653 1219.94 864.97V863.769H1219.36C1218.41 863.769 1217.64 862.997 1217.64 862.044V860.21C1217.64 859.51 1218.06 858.915 1218.65 858.639L1215.83 832.86H1214.69C1214.38 832.86 1214.12 832.601 1214.12 832.287V831.676C1214.12 831.362 1214.38 831.103 1214.69 831.103H1215.79L1222.66 827.02V824.723C1222.66 824.723 1223.27 824.513 1223.63 823.704C1223.12 823.257 1222.8 822.607 1222.8 821.874C1222.8 821.478 1222.9 821.103 1223.07 820.772C1223.14 810.888 1230.31 802.696 1239.73 801.037V754.162H1237.65V748.752H1239.32V742.752L1213.22 741.821V545.418L1112.75 548.647V554.266L1130.56 606.271L1130.55 606.26Z" fill="url(#paint30_linear_318_3175)"/>
<path d="M1130.55 606.26H1174.66L1191.17 647.294C1191.17 647.294 1188.65 647.322 1184.25 647.366V647.785C1191.35 648.165 1200.13 648.633 1200.76 648.633L1195.9 659.211C1196.26 659.498 1196.5 659.939 1196.5 660.435C1196.5 660.969 1196.23 661.437 1195.82 661.718L1208.46 710.747C1208.64 711.001 1208.75 711.309 1208.75 711.646C1208.75 711.701 1208.74 711.75 1208.74 711.805L1208.75 711.866L1201.01 746.422C1207.13 769.65 1198 798.068 1197.08 822.767L1202.39 851.956C1204.35 855.642 1206.94 859.075 1210.33 862.182C1219.25 870.369 1229.3 872.953 1239.73 871.708V866.336H1239.32V863.62H1237.23V858.21H1239.73V805.886C1232.89 807.484 1227.8 813.61 1227.8 820.932C1227.8 821.39 1227.82 821.841 1227.86 822.288H1227.62C1227.55 822.723 1227.36 823.108 1227.1 823.434C1227.15 824.012 1227.35 824.629 1227.96 824.728H1228.35V827.031H1228.32L1234.83 831.103H1236.31C1236.62 831.103 1236.88 831.362 1236.88 831.676V832.287C1236.88 832.601 1236.62 832.86 1236.31 832.86H1235.15L1231.84 858.507C1232.7 858.612 1233.36 859.328 1233.36 860.21V862.044C1233.36 862.997 1232.59 863.769 1231.64 863.769H1230.52V864.97C1230.52 865.653 1229.96 866.209 1229.28 866.209H1221.18C1220.5 866.209 1219.94 865.653 1219.94 864.97V863.769H1219.36C1218.41 863.769 1217.64 862.997 1217.64 862.044V860.21C1217.64 859.51 1218.06 858.915 1218.65 858.639L1215.83 832.86H1214.69C1214.38 832.86 1214.12 832.601 1214.12 832.287V831.676C1214.12 831.362 1214.38 831.103 1214.69 831.103H1215.79L1222.66 827.02V824.723C1222.66 824.723 1223.27 824.513 1223.63 823.704C1223.12 823.257 1222.8 822.607 1222.8 821.874C1222.8 821.478 1222.9 821.103 1223.07 820.772C1223.14 810.888 1230.31 802.696 1239.73 801.037V754.162H1237.65V748.752H1239.32V742.752L1213.22 741.821V545.418L1112.75 548.647V554.266L1130.56 606.271L1130.55 606.26Z" fill="url(#paint31_linear_318_3175)"/>
<path d="M1309.4 682.164C1310.53 682.164 1311.65 682.247 1312.74 682.396C1318.38 669.751 1331.06 660.936 1345.8 660.936C1359.64 660.936 1371.67 668.716 1377.75 680.137C1379.83 679.564 1382.02 679.244 1384.27 679.244C1387.09 679.244 1389.78 679.729 1392.3 680.605V588.508L1323.26 417.746C1323.26 417.746 1256.28 598.871 1259.01 601.599C1260.77 603.362 1260.26 662.055 1259.67 703.376H1285.27C1286.8 691.409 1297.01 682.153 1309.39 682.153L1309.4 682.164Z" fill="url(#paint32_linear_318_3175)"/>
<path d="M1309.4 682.164C1310.53 682.164 1311.65 682.247 1312.74 682.396C1318.38 669.751 1331.06 660.936 1345.8 660.936C1359.64 660.936 1371.67 668.716 1377.75 680.137C1379.83 679.564 1382.02 679.244 1384.27 679.244C1387.09 679.244 1389.78 679.729 1392.3 680.605V588.508L1323.26 417.746C1323.26 417.746 1256.28 598.871 1259.01 601.599C1260.77 603.362 1260.26 662.055 1259.67 703.376H1285.27C1286.8 691.409 1297.01 682.153 1309.39 682.153L1309.4 682.164Z" fill="url(#paint33_linear_318_3175)"/>
<path d="M1309.4 682.164C1310.53 682.164 1311.65 682.247 1312.74 682.396C1318.38 669.751 1331.06 660.936 1345.8 660.936C1359.64 660.936 1371.67 668.716 1377.75 680.137C1379.83 679.564 1382.02 679.244 1384.27 679.244C1387.09 679.244 1389.78 679.729 1392.3 680.605V588.508L1323.26 417.746C1323.26 417.746 1256.28 598.871 1259.01 601.599C1260.77 603.362 1260.26 662.055 1259.67 703.376H1285.27C1286.8 691.409 1297.01 682.153 1309.39 682.153L1309.4 682.164Z" fill="url(#paint34_linear_318_3175)"/>
<path d="M49.1976 630.474V588.513L2 516.195V617.686C21.6478 617.069 36.0753 616.628 36.0753 616.628L49.1976 630.468V630.474Z" fill="url(#paint35_linear_318_3175)"/>
<path d="M49.1976 630.474V588.513L2 516.195V617.686C21.6478 617.069 36.0753 616.628 36.0753 616.628L49.1976 630.468V630.474Z" fill="url(#paint36_linear_318_3175)"/>
<path d="M49.1976 630.474V588.513L2 516.195V617.686C21.6478 617.069 36.0753 616.628 36.0753 616.628L49.1976 630.468V630.474Z" fill="url(#paint37_linear_318_3175)"/>
<path d="M360.88 296.096V303.429C371.679 302.884 381.718 299.952 390.314 295.236L360.88 296.09V296.096Z" fill="url(#paint38_linear_318_3175)"/>
<path d="M360.88 296.096V303.429C371.679 302.884 381.718 299.952 390.314 295.236L360.88 296.09V296.096Z" fill="url(#paint39_linear_318_3175)"/>
<path d="M421.757 307.181C433.381 307.181 443.756 301.842 450.573 293.484L394.355 295.121C401.151 302.531 410.914 307.181 421.757 307.181Z" fill="url(#paint40_linear_318_3175)"/>
<path d="M421.757 307.181C433.381 307.181 443.756 301.842 450.573 293.484L394.355 295.121C401.151 302.531 410.914 307.181 421.757 307.181Z" fill="url(#paint41_linear_318_3175)"/>
</g>
</g>
<defs>
<linearGradient id="paint0_linear_318_3175" x1="404.89" y1="1086.75" x2="379.428" y2="-516.557" gradientUnits="userSpaceOnUse">
<stop stop-color="#B5FFFF"/>
<stop offset="1" stop-color="#7BCEFF"/>
</linearGradient>
<linearGradient id="paint1_linear_318_3175" x1="1306.76" y1="1072.42" x2="1281.3" y2="-530.882" gradientUnits="userSpaceOnUse">
<stop stop-color="#B5FFFF"/>
<stop offset="1" stop-color="#7BCEFF"/>
</linearGradient>
<linearGradient id="paint2_linear_318_3175" x1="1301.61" y1="648.319" x2="1289.51" y2="345.974" gradientUnits="userSpaceOnUse">
<stop stop-color="#B5FFFF"/>
<stop offset="1" stop-color="#7BCEFF"/>
</linearGradient>
<linearGradient id="paint3_linear_318_3175" x1="968.75" y1="1077.8" x2="943.283" y2="-525.51" gradientUnits="userSpaceOnUse">
<stop stop-color="#B5FFFF"/>
<stop offset="1" stop-color="#7BCEFF"/>
</linearGradient>
<linearGradient id="paint4_linear_318_3175" x1="963.403" y1="661.851" x2="951.303" y2="359.511" gradientUnits="userSpaceOnUse">
<stop stop-color="#B5FFFF"/>
<stop offset="1" stop-color="#7BCEFF"/>
</linearGradient>
<linearGradient id="paint5_linear_318_3175" x1="136.886" y1="1091.01" x2="111.424" y2="-512.298" gradientUnits="userSpaceOnUse">
<stop stop-color="#B5FFFF"/>
<stop offset="1" stop-color="#7BCEFF"/>
</linearGradient>
<linearGradient id="paint6_linear_318_3175" x1="135.933" y1="694.968" x2="123.828" y2="392.623" gradientUnits="userSpaceOnUse">
<stop stop-color="#B5FFFF"/>
<stop offset="1" stop-color="#7BCEFF"/>
</linearGradient>
<linearGradient id="paint7_linear_318_3175" x1="438.238" y1="1086.22" x2="412.776" y2="-517.085" gradientUnits="userSpaceOnUse">
<stop stop-color="#B5FFFF"/>
<stop offset="1" stop-color="#7BCEFF"/>
</linearGradient>
<linearGradient id="paint8_linear_318_3175" x1="439.962" y1="682.804" x2="427.862" y2="380.459" gradientUnits="userSpaceOnUse">
<stop stop-color="#B5FFFF"/>
<stop offset="1" stop-color="#7BCEFF"/>
</linearGradient>
<linearGradient id="paint9_linear_318_3175" x1="687.145" y1="1082.27" x2="661.678" y2="-521.042" gradientUnits="userSpaceOnUse">
<stop stop-color="#B5FFFF"/>
<stop offset="1" stop-color="#7BCEFF"/>
</linearGradient>
<linearGradient id="paint10_linear_318_3175" x1="684.634" y1="673.007" x2="672.534" y2="370.668" gradientUnits="userSpaceOnUse">
<stop stop-color="#B5FFFF"/>
<stop offset="1" stop-color="#7BCEFF"/>
</linearGradient>
<linearGradient id="paint11_linear_318_3175" x1="577.21" y1="1084.02" x2="551.743" y2="-519.296" gradientUnits="userSpaceOnUse">
<stop stop-color="#B5FFFF"/>
<stop offset="1" stop-color="#7BCEFF"/>
</linearGradient>
<linearGradient id="paint12_linear_318_3175" x1="576.01" y1="677.36" x2="563.91" y2="375.014" gradientUnits="userSpaceOnUse">
<stop stop-color="#B5FFFF"/>
<stop offset="1" stop-color="#7BCEFF"/>
</linearGradient>
<linearGradient id="paint13_linear_318_3175" x1="1088.22" y1="1075.9" x2="1062.76" y2="-527.411" gradientUnits="userSpaceOnUse">
<stop stop-color="#B5FFFF"/>
<stop offset="1" stop-color="#7BCEFF"/>
</linearGradient>
<linearGradient id="paint14_linear_318_3175" x1="1075.67" y1="850.358" x2="1079.54" y2="483.127" gradientUnits="userSpaceOnUse">
<stop stop-color="#B5FFFF"/>
<stop offset="1" stop-color="#7BCEFF"/>
</linearGradient>
<linearGradient id="paint15_linear_318_3175" x1="317.207" y1="1088.14" x2="291.74" y2="-515.168" gradientUnits="userSpaceOnUse">
<stop stop-color="#B5FFFF"/>
<stop offset="1" stop-color="#7BCEFF"/>
</linearGradient>
<linearGradient id="paint16_linear_318_3175" x1="302.719" y1="842.221" x2="306.589" y2="474.985" gradientUnits="userSpaceOnUse">
<stop stop-color="#B5FFFF"/>
<stop offset="1" stop-color="#7BCEFF"/>
</linearGradient>
<linearGradient id="paint17_linear_318_3175" x1="627.089" y1="1083.22" x2="601.628" y2="-520.089" gradientUnits="userSpaceOnUse">
<stop stop-color="#B5FFFF"/>
<stop offset="1" stop-color="#7BCEFF"/>
</linearGradient>
<linearGradient id="paint18_linear_318_3175" x1="614.27" y1="845.504" x2="618.134" y2="478.268" gradientUnits="userSpaceOnUse">
<stop stop-color="#B5FFFF"/>
<stop offset="1" stop-color="#7BCEFF"/>
</linearGradient>
<linearGradient id="paint19_linear_318_3175" x1="816.452" y1="1080.21" x2="790.991" y2="-523.097" gradientUnits="userSpaceOnUse">
<stop stop-color="#B5FFFF"/>
<stop offset="1" stop-color="#7BCEFF"/>
</linearGradient>
<linearGradient id="paint20_linear_318_3175" x1="801.761" y1="847.478" x2="805.625" y2="480.241" gradientUnits="userSpaceOnUse">
<stop stop-color="#B5FFFF"/>
<stop offset="1" stop-color="#7BCEFF"/>
</linearGradient>
<linearGradient id="paint21_linear_318_3175" x1="515.343" y1="1085" x2="489.881" y2="-518.309" gradientUnits="userSpaceOnUse">
<stop stop-color="#B5FFFF"/>
<stop offset="1" stop-color="#7BCEFF"/>
</linearGradient>
<linearGradient id="paint22_linear_318_3175" x1="503.696" y1="844.336" x2="507.566" y2="477.1" gradientUnits="userSpaceOnUse">
<stop stop-color="#B5FFFF"/>
<stop offset="1" stop-color="#7BCEFF"/>
</linearGradient>
<linearGradient id="paint23_linear_318_3175" x1="754.624" y1="1081.2" x2="729.162" y2="-522.111" gradientUnits="userSpaceOnUse">
<stop stop-color="#B5FFFF"/>
<stop offset="1" stop-color="#7BCEFF"/>
</linearGradient>
<linearGradient id="paint24_linear_318_3175" x1="748.853" y1="670.44" x2="736.748" y2="368.095" gradientUnits="userSpaceOnUse">
<stop stop-color="#B5FFFF"/>
<stop offset="1" stop-color="#7BCEFF"/>
</linearGradient>
<linearGradient id="paint25_linear_318_3175" x1="745.731" y1="846.887" x2="749.6" y2="479.651" gradientUnits="userSpaceOnUse">
<stop stop-color="#B5FFFF"/>
<stop offset="1" stop-color="#7BCEFF"/>
</linearGradient>
<linearGradient id="paint26_linear_318_3175" x1="240.654" y1="1089.36" x2="215.192" y2="-513.945" gradientUnits="userSpaceOnUse">
<stop stop-color="#B5FFFF"/>
<stop offset="1" stop-color="#7BCEFF"/>
</linearGradient>
<linearGradient id="paint27_linear_318_3175" x1="234.134" y1="691.041" x2="222.034" y2="388.695" gradientUnits="userSpaceOnUse">
<stop stop-color="#B5FFFF"/>
<stop offset="1" stop-color="#7BCEFF"/>
</linearGradient>
<linearGradient id="paint28_linear_318_3175" x1="232.972" y1="841.489" x2="236.836" y2="474.252" gradientUnits="userSpaceOnUse">
<stop stop-color="#B5FFFF"/>
<stop offset="1" stop-color="#7BCEFF"/>
</linearGradient>
<linearGradient id="paint29_linear_318_3175" x1="1182.9" y1="1074.39" x2="1157.44" y2="-528.915" gradientUnits="userSpaceOnUse">
<stop stop-color="#B5FFFF"/>
<stop offset="1" stop-color="#7BCEFF"/>
</linearGradient>
<linearGradient id="paint30_linear_318_3175" x1="1176.22" y1="653.338" x2="1164.12" y2="350.993" gradientUnits="userSpaceOnUse">
<stop stop-color="#B5FFFF"/>
<stop offset="1" stop-color="#7BCEFF"/>
</linearGradient>
<linearGradient id="paint31_linear_318_3175" x1="1174.75" y1="851.405" x2="1178.61" y2="484.169" gradientUnits="userSpaceOnUse">
<stop stop-color="#B5FFFF"/>
<stop offset="1" stop-color="#7BCEFF"/>
</linearGradient>
<linearGradient id="paint32_linear_318_3175" x1="1332.75" y1="1072.01" x2="1307.28" y2="-531.295" gradientUnits="userSpaceOnUse">
<stop stop-color="#B5FFFF"/>
<stop offset="1" stop-color="#7BCEFF"/>
</linearGradient>
<linearGradient id="paint33_linear_318_3175" x1="1326.04" y1="647.339" x2="1313.94" y2="344.993" gradientUnits="userSpaceOnUse">
<stop stop-color="#B5FFFF"/>
<stop offset="1" stop-color="#7BCEFF"/>
</linearGradient>
<linearGradient id="paint34_linear_318_3175" x1="1323.38" y1="852.97" x2="1327.25" y2="485.739" gradientUnits="userSpaceOnUse">
<stop stop-color="#B5FFFF"/>
<stop offset="1" stop-color="#7BCEFF"/>
</linearGradient>
<linearGradient id="paint35_linear_318_3175" x1="33.366" y1="1092.65" x2="7.90437" y2="-510.651" gradientUnits="userSpaceOnUse">
<stop stop-color="#B5FFFF"/>
<stop offset="1" stop-color="#7BCEFF"/>
</linearGradient>
<linearGradient id="paint36_linear_318_3175" x1="29.4452" y1="699.232" x2="17.3456" y2="396.887" gradientUnits="userSpaceOnUse">
<stop stop-color="#B5FFFF"/>
<stop offset="1" stop-color="#7BCEFF"/>
</linearGradient>
<linearGradient id="paint37_linear_318_3175" x1="22.8042" y1="839.273" x2="26.6684" y2="472.037" gradientUnits="userSpaceOnUse">
<stop stop-color="#B5FFFF"/>
<stop offset="1" stop-color="#7BCEFF"/>
</linearGradient>
<linearGradient id="paint38_linear_318_3175" x1="388.094" y1="1087.01" x2="362.633" y2="-516.293" gradientUnits="userSpaceOnUse">
<stop stop-color="#B5FFFF"/>
<stop offset="1" stop-color="#7BCEFF"/>
</linearGradient>
<linearGradient id="paint39_linear_318_3175" x1="391.007" y1="684.765" x2="378.908" y2="382.414" gradientUnits="userSpaceOnUse">
<stop stop-color="#B5FFFF"/>
<stop offset="1" stop-color="#7BCEFF"/>
</linearGradient>
<linearGradient id="paint40_linear_318_3175" x1="435.022" y1="1086.27" x2="409.561" y2="-517.036" gradientUnits="userSpaceOnUse">
<stop stop-color="#B5FFFF"/>
<stop offset="1" stop-color="#7BCEFF"/>
</linearGradient>
<linearGradient id="paint41_linear_318_3175" x1="437.996" y1="682.88" x2="425.896" y2="380.535" gradientUnits="userSpaceOnUse">
<stop stop-color="#B5FFFF"/>
<stop offset="1" stop-color="#7BCEFF"/>
</linearGradient>
<clipPath id="clip0_318_3175">
<rect width="1440" height="900" rx="16" fill="white"/>
</clipPath>
<clipPath id="clip1_318_3175">
<rect width="1652" height="595" fill="white" transform="translate(2 277)"/>
</clipPath>
</defs>
</svg>
