<svg width="1440" height="900" viewBox="0 0 1440 900" fill="none" xmlns="http://www.w3.org/2000/svg">
<g clip-path="url(#clip0_527_10633)">
<rect width="1440" height="900" fill="url(#paint0_linear_527_10633)"/>
<path d="M299.4 136.882C296.7 136.882 294.005 137.15 291.36 137.684C289.365 127.737 282.915 119.252 273.858 114.659C264.804 110.066 254.14 109.874 244.924 114.135C236.583 91.1839 211.197 79.3337 188.222 87.666C165.248 95.9982 153.385 121.36 161.726 144.31C141.601 144.945 125.703 161.586 126.004 181.699C126.307 201.813 142.698 217.968 162.834 218H299.4C321.821 218 340 199.841 340 177.441C340 155.04 321.821 136.882 299.4 136.882Z" fill="#DEEEFF"/>
<path d="M1191.6 165.882C1194.3 165.882 1196.99 166.15 1199.64 166.684C1201.64 156.737 1208.09 148.252 1217.14 143.659C1226.2 139.066 1236.86 138.874 1246.08 143.135C1254.42 120.184 1279.8 108.334 1302.78 116.666C1325.75 124.998 1337.61 150.36 1329.27 173.31C1349.4 173.945 1365.3 190.586 1365 210.699C1364.69 230.813 1348.3 246.968 1328.17 247H1191.6C1169.18 247 1151 228.841 1151 206.441C1151 184.04 1169.18 165.882 1191.6 165.882Z" fill="#DFEFFF"/>
<path d="M416 530.503C416 595.947 366.751 649 306 649C245.249 649 196 595.947 196 530.503C196 465.059 245.249 294 306 294C366.751 294 416 465.059 416 530.503Z" fill="#F2A78A"/>
<path d="M306.5 408V480.5M306.5 778.5V597.5M306.5 511C278.5 511 263.5 494.2 263.5 427M306.5 511V480.5M306.5 511V597.5M306.5 480.5C319.667 481.5 346 475.4 346 443M306.5 597.5C325.667 594.5 364 575.3 364 522.5" stroke="#DF7635" stroke-width="8" stroke-linecap="round"/>
<path d="M1039 526.503C1039 591.947 1088.25 645 1149 645C1209.75 645 1259 591.947 1259 526.503C1259 461.059 1209.75 290 1149 290C1088.25 290 1039 461.059 1039 526.503Z" fill="#F2A78A"/>
<path d="M1148.5 404V476.5M1148.5 774.5V593.5M1148.5 507C1176.5 507 1191.5 490.2 1191.5 423M1148.5 507V476.5M1148.5 507V593.5M1148.5 476.5C1135.33 477.5 1109 471.4 1109 439M1148.5 593.5C1129.33 590.5 1091 571.3 1091 518.5" stroke="#DF7635" stroke-width="8" stroke-linecap="round"/>
<path d="M250 610.503C250 675.947 200.751 729 140 729C79.2486 729 30 675.947 30 610.503C30 545.059 79.2486 374 140 374C200.751 374 250 545.059 250 610.503Z" fill="#FEDC7D"/>
<path d="M140.5 488V560.5M140.5 788V677.5M140.5 591C112.5 591 97.5 574.2 97.5 507M140.5 591V560.5M140.5 591V677.5M140.5 560.5C153.667 561.5 180 555.4 180 523M140.5 677.5C159.667 674.5 198 655.3 198 602.5" stroke="#CE9775" stroke-width="8" stroke-linecap="round"/>
<path d="M1205 608.503C1205 673.947 1254.25 727 1315 727C1375.75 727 1425 673.947 1425 608.503C1425 543.059 1375.75 372 1315 372C1254.25 372 1205 543.059 1205 608.503Z" fill="#FEDC7D"/>
<path d="M1314.5 486V558.5M1314.5 786V675.5M1314.5 589C1342.5 589 1357.5 572.2 1357.5 505M1314.5 589V558.5M1314.5 589V675.5M1314.5 558.5C1301.33 559.5 1275 553.4 1275 521M1314.5 675.5C1295.33 672.5 1257 653.3 1257 600.5" stroke="#CE9775" stroke-width="8" stroke-linecap="round"/>
<ellipse cx="720" cy="859.5" rx="860" ry="105.5" fill="#A7D962"/>
<ellipse cx="428" cy="794" rx="68" ry="8" fill="#90C04E"/>
<ellipse cx="521" cy="794" rx="68" ry="8" fill="#90C04E"/>
<ellipse cx="956" cy="784" rx="68" ry="8" fill="#90C04E"/>
<ellipse cx="1072" cy="790" rx="68" ry="8" fill="#90C04E"/>
<ellipse cx="645" cy="795" rx="68" ry="13" fill="#90C04E"/>
<ellipse cx="843" cy="790" rx="68" ry="8" fill="#90C04E"/>
<ellipse cx="742" cy="785" rx="68" ry="8" fill="#90C04E"/>
<rect x="790.886" y="672" width="110.854" height="110.854" rx="23.5145" transform="rotate(5.63576 790.886 672)" fill="#7278FF"/>
<path d="M810.687 766.781C808.665 766.582 807.144 765.902 806.124 764.743C805.187 763.516 804.818 761.892 805.017 759.87L811.59 693.262C811.79 691.24 812.466 689.757 813.617 688.812C814.852 687.8 816.48 687.393 818.501 687.593L840.18 689.732C853.21 691.018 862.908 695.415 869.274 702.924C875.723 710.365 878.316 720.489 877.052 733.294C876.424 739.659 874.967 745.224 872.682 749.989C870.398 754.753 867.329 758.647 863.477 761.67C859.707 764.624 855.225 766.753 850.031 768.055C844.844 769.282 838.955 769.571 832.365 768.92L810.687 766.781ZM817.043 757.541L832.656 759.082C837.598 759.569 841.926 759.392 845.638 758.548C849.433 757.637 852.688 756.068 855.403 753.841C858.118 751.614 860.259 748.687 861.827 745.061C863.394 741.435 864.426 737.114 864.921 732.097C865.904 722.137 864.168 714.442 859.713 709.012C855.334 703.59 848.276 700.398 838.542 699.438L822.929 697.897L817.043 757.541Z" fill="white"/>
<rect x="333" y="695.86" width="110.854" height="110.854" rx="23.5145" transform="rotate(-16.0137 333 695.86)" fill="#47C4DA"/>
<path d="M394.48 773.449C392.695 773.961 391.173 773.895 389.915 773.249C388.703 772.519 387.84 771.257 387.326 769.464L370.372 710.393C369.857 708.6 369.929 707.106 370.588 705.91C371.294 704.63 372.539 703.733 374.324 703.221L410.518 692.833C411.907 692.435 413.069 692.496 414.006 693.018C414.924 693.473 415.573 694.365 415.955 695.693C416.355 697.088 416.296 698.255 415.779 699.194C415.261 700.133 414.308 700.802 412.92 701.201L381.089 710.336L387.407 732.351L417.057 723.841C418.511 723.424 419.674 723.486 420.544 724.026C421.481 724.548 422.14 725.473 422.521 726.801C422.922 728.196 422.863 729.363 422.345 730.302C421.875 731.156 420.913 731.792 419.458 732.209L389.809 740.719L396.441 763.829L428.273 754.693C429.661 754.295 430.823 754.357 431.76 754.878C432.697 755.4 433.356 756.325 433.737 757.653C434.138 759.048 434.079 760.215 433.561 761.154C433.025 762.027 432.062 762.662 430.674 763.061L394.48 773.449Z" fill="white"/>
<g clip-path="url(#clip1_527_10633)">
<rect x="891" y="671.729" width="110.854" height="110.854" rx="23.5145" transform="rotate(-3.99776 891 671.729)" fill="#FD97DC"/>
<path d="M934.974 764.33C932.947 764.472 931.334 764.056 930.135 763.084C929.005 762.032 928.37 760.492 928.228 758.465L923.562 691.696C923.42 689.67 923.838 688.094 924.815 686.97C925.863 685.765 927.4 685.092 929.426 684.95L970.523 682.078C972.1 681.968 973.33 682.297 974.213 683.065C975.091 683.758 975.583 684.855 975.688 686.356C975.798 687.933 975.469 689.162 974.701 690.046C973.933 690.929 972.761 691.426 971.184 691.536L935.041 694.062L936.78 718.946L970.446 716.593C972.098 716.477 973.328 716.806 974.136 717.58C975.019 718.348 975.514 719.482 975.619 720.983C975.729 722.56 975.4 723.79 974.632 724.673C973.934 725.476 972.759 725.935 971.107 726.051L937.441 728.404L939.267 754.526L975.41 752C976.986 751.89 978.216 752.219 979.1 752.987C979.983 753.755 980.477 754.889 980.582 756.39C980.692 757.967 980.363 759.197 979.595 760.08C978.822 760.888 977.647 761.348 976.071 761.458L934.974 764.33Z" fill="white"/>
</g>
<g clip-path="url(#clip2_527_10633)">
<rect x="1019.57" y="670" width="110.854" height="110.854" rx="23.5145" transform="rotate(8.07641 1019.57 670)" fill="#47C4DA"/>
<path d="M1043.21 769.751C1041.19 769.466 1039.7 768.722 1038.73 767.521C1037.85 766.255 1037.55 764.617 1037.84 762.605L1047.24 696.337C1047.52 694.326 1048.26 692.873 1049.45 691.978C1050.73 691.019 1052.37 690.682 1054.38 690.967L1095.17 696.755C1096.74 696.977 1097.87 697.556 1098.58 698.492C1099.29 699.353 1099.54 700.529 1099.33 702.019C1099.11 703.583 1098.53 704.717 1097.59 705.42C1096.66 706.124 1095.41 706.364 1093.84 706.142L1057.97 701.052L1054.47 725.749L1087.88 730.49C1089.52 730.723 1090.65 731.302 1091.28 732.227C1091.98 733.163 1092.23 734.376 1092.02 735.866C1091.8 737.43 1091.22 738.564 1090.28 739.267C1089.43 739.906 1088.19 740.11 1086.55 739.877L1053.13 735.136L1049.45 761.062L1085.33 766.152C1086.89 766.374 1088.02 766.953 1088.73 767.889C1089.43 768.825 1089.68 770.038 1089.47 771.528C1089.24 773.092 1088.66 774.226 1087.73 774.929C1086.8 775.558 1085.56 775.761 1083.99 775.539L1043.21 769.751Z" fill="white"/>
</g>
<rect x="551" y="686.088" width="110.854" height="110.854" rx="23.5145" transform="rotate(-13.6113 551 686.088)" fill="#F7657D"/>
<path d="M595.886 774.271C594.423 774.625 593.174 774.579 592.137 774.134C591.1 773.688 590.375 772.934 589.963 771.873C589.552 770.811 589.47 769.515 589.718 767.984L603.297 694.088C603.604 692.156 604.217 690.691 605.137 689.694C606.13 688.679 607.321 688.004 608.711 687.667C610.027 687.349 611.322 687.422 612.596 687.888C613.944 688.336 615.195 689.349 616.352 690.927L662.23 750.426C663.225 751.656 663.791 752.874 663.928 754.08C664.047 755.212 663.784 756.205 663.139 757.058C662.476 757.838 661.413 758.405 659.951 758.759C658.342 759.148 656.965 759.056 655.819 758.482C654.674 757.908 653.532 756.868 652.393 755.363L640.411 739.451L646.311 741.274L599.578 752.59L603.881 748.296L600.615 767.9C600.308 769.833 599.814 771.307 599.131 772.324C598.43 773.268 597.349 773.917 595.886 774.271ZM611.732 701.104L604.676 744.387L601.296 742.419L640.02 733.042L638.135 736.286L611.951 701.051L611.732 701.104Z" fill="white"/>
<rect x="666.148" y="680.69" width="110.854" height="110.854" rx="23.5145" transform="rotate(-6.58144 666.148 680.69)" fill="#DC77FF"/>
<path d="M700.367 771.424C698.743 771.611 697.418 771.295 696.394 770.476C695.439 769.649 694.868 768.417 694.679 766.78L687.03 700.489C686.833 698.781 687.145 697.447 687.964 696.487C688.776 695.456 689.958 694.85 691.512 694.671C692.995 694.5 694.158 694.654 695.001 695.134C695.906 695.534 696.789 696.37 697.652 697.641L731.43 746.639L728.146 747.018L749.774 691.627C750.324 690.193 750.959 689.183 751.678 688.595C752.389 687.936 753.486 687.521 754.97 687.35C756.523 687.17 757.777 687.494 758.732 688.322C759.678 689.078 760.249 690.31 760.446 692.018L768.095 758.31C768.284 759.946 768.008 761.276 767.267 762.299C766.597 763.314 765.449 763.915 763.825 764.103C762.201 764.29 760.911 763.97 759.957 763.143C759.003 762.315 758.431 761.083 758.242 759.446L751.887 704.364L754.218 704.095L734.924 752.726C734.482 753.859 733.972 754.711 733.394 755.282C732.815 755.854 731.961 756.205 730.831 756.335C729.701 756.465 728.754 756.322 727.991 755.905C727.219 755.418 726.493 754.708 725.813 753.777L695.727 710.735L698.27 710.442L704.637 765.631C704.826 767.268 704.55 768.598 703.809 769.621C703.139 770.635 701.992 771.237 700.367 771.424Z" fill="white"/>
<rect x="469.935" y="665.279" width="110.854" height="110.854" rx="23.5145" transform="rotate(10.5001 469.935 665.279)" fill="#F8A73C"/>
<path d="M482.925 758.991C481.644 758.688 480.662 758.118 479.98 757.281C479.314 756.38 479.037 755.401 479.151 754.346C479.28 753.226 479.889 752.22 480.979 751.328L510.85 726.213L509.898 730.25L495.269 696.359C494.708 695.009 494.589 693.797 494.91 692.723C495.295 691.664 495.98 690.913 496.964 690.469C497.963 689.96 499.071 689.85 500.289 690.137C501.314 690.379 502.15 690.847 502.798 691.541C503.525 692.186 504.169 693.184 504.73 694.533L517.343 724.498L514.267 723.773L538.753 702.562C539.858 701.605 540.848 700.993 541.723 700.726C542.677 700.41 543.698 700.38 544.787 700.637C546.069 700.94 547.043 701.542 547.71 702.443C548.391 703.28 548.636 704.251 548.443 705.356C548.329 706.411 547.68 707.442 546.496 708.447L518.26 732.223L519.212 728.186L534.609 763.983C535.184 765.268 535.28 766.441 534.895 767.5C534.589 768.51 533.936 769.269 532.937 769.777C531.953 770.221 530.788 770.285 529.442 769.967C528.481 769.74 527.645 769.272 526.933 768.563C526.221 767.854 525.545 766.849 524.905 765.548L511.502 733.773L515.154 734.635L489.056 757.089C487.966 757.982 486.912 758.578 485.894 758.879C484.94 759.195 483.95 759.232 482.925 758.991Z" fill="white"/>
<path d="M690.064 792.988H684.075C681.66 792.988 679.683 791.012 679.683 788.596V782.607C679.683 780.191 681.66 778.214 684.075 778.214H690.064C692.48 778.214 694.457 780.191 694.457 782.607V788.596C694.457 791.012 692.48 792.988 690.064 792.988Z" fill="#C9BFC8"/>
<path d="M683.235 776.474C683.235 776.474 684.014 768.804 679.683 762.495C675.352 768.804 676.131 776.474 676.131 776.474C672.189 769.794 667.912 771.526 667.912 771.526C672.693 776.969 672.419 785.752 672.503 787.317H686.863C686.947 785.752 686.673 776.969 691.454 771.526C691.454 771.526 687.177 769.794 683.235 776.474Z" fill="#4AAF79"/>
<path d="M700 796.504V791.753C700 788.728 697.525 786.253 694.5 786.253H681.099C678.074 786.253 675.599 788.728 675.599 791.753V796.504L684.736 793.329L693.323 796.504H700Z" fill="#D3D3D3"/>
<path d="M690.532 788.104C690.532 788.104 691.131 782.204 687.799 777.351C684.468 782.204 685.067 788.104 685.067 788.104C682.035 782.965 678.745 784.298 678.745 784.298C682.422 788.485 682.212 795.3 682.276 796.504L683.834 795.966L685.332 796.504H693.323C693.387 795.3 693.177 788.485 696.854 784.298C696.854 784.298 693.564 782.965 690.532 788.104Z" fill="#4AAF79"/>
<path d="M669.393 776.179H674.242C677.573 776.179 680.648 777.961 682.305 780.849L685.655 786.69C687.299 789.554 687.299 793.075 685.655 795.94L685.332 796.504H665.787L659.047 792.988L659.23 784.781L665.263 777.02L669.393 776.179Z" fill="#E8E8E8"/>
<path d="M663.775 789.559V786.438C663.775 782.147 666.02 778.356 669.393 776.179H667.645C664.315 776.179 661.24 777.961 659.583 780.849L656.232 786.69C654.589 789.554 654.589 793.075 656.232 795.94L656.556 796.504H665.787C664.514 794.489 663.775 792.106 663.775 789.559Z" fill="#C9BFC8"/>
<path d="M1134.26 740.267C1122.19 735.807 1117.61 743.936 1116.34 751.992C1115.57 756.87 1116.58 761.805 1117.73 766.61L1122.53 786.771C1104.71 773.733 1106.45 789.814 1111.23 798.071C1116.01 806.329 1134.26 805.894 1140.35 805.025C1146.43 804.156 1168.6 793.29 1160.77 779.383C1154.51 768.257 1146.29 781.121 1142.95 788.944C1146.72 775.181 1150.26 746.178 1134.26 740.267Z" fill="#4AAF79"/>
<path d="M776.615 828.267C775.143 827.983 773.946 827.941 772.979 828.068C768.812 828.611 770.125 834.239 771.872 838.061C764.669 835.315 765.372 838.702 767.304 840.441C769.237 842.181 776.615 842.089 779.075 841.906C781.535 841.723 790.494 839.434 787.332 836.505C784.802 834.162 781.476 836.871 780.129 838.519C781.652 835.62 783.081 829.512 776.615 828.267Z" fill="#4AAF79"/>
<path d="M484.615 874.267C483.143 873.983 481.946 873.941 480.979 874.068C476.812 874.611 478.125 880.239 479.872 884.061C472.669 881.315 473.372 884.702 475.304 886.441C477.237 888.181 484.615 888.089 487.075 887.906C489.535 887.723 498.494 885.434 495.332 882.505C492.802 880.162 489.476 882.871 488.129 884.519C489.652 881.62 491.081 875.512 484.615 874.267Z" fill="#4AAF79" fill-opacity="0.5"/>
<path d="M1060.62 860.267C1059.14 859.983 1057.95 859.941 1056.98 860.068C1052.81 860.611 1054.13 866.239 1055.87 870.061C1048.67 867.315 1049.37 870.702 1051.3 872.441C1053.24 874.181 1060.62 874.089 1063.08 873.906C1065.53 873.723 1074.49 871.434 1071.33 868.505C1068.8 866.162 1065.48 868.871 1064.13 870.519C1065.65 867.62 1067.08 861.512 1060.62 860.267Z" fill="#4AAF79"/>
<path d="M528.385 811.267C529.857 810.983 531.054 810.941 532.021 811.068C536.188 811.611 534.875 817.239 533.128 821.061C540.331 818.315 539.628 821.702 537.696 823.441C535.763 825.181 528.385 825.089 525.925 824.906C523.465 824.723 514.506 822.434 517.668 819.505C520.198 817.162 523.524 819.871 524.871 821.519C523.348 818.62 521.919 812.512 528.385 811.267Z" fill="#4AAF79"/>
<path d="M1130.6 750.734C1130.85 752.533 1131.12 754.591 1131.39 756.819M1131.39 801.585C1132.18 800.347 1133.53 793.673 1133.66 790.018M1131.39 756.819C1133.59 756.095 1137.99 753.69 1137.99 749.865M1131.39 756.819C1131.71 759.477 1132.04 762.377 1132.34 765.369M1132.34 765.369C1129.3 764.692 1123.12 762.556 1122.78 759.427M1132.34 765.369C1132.65 768.417 1132.93 771.559 1133.15 774.638M1133.15 774.638C1136.21 773.382 1142.33 770.319 1142.33 768.119M1133.15 774.638C1133.4 777.966 1133.58 781.22 1133.66 784.2M1133.66 784.2C1131.33 783.331 1126.69 780.723 1126.69 777.246M1133.66 784.2C1133.71 786.299 1133.72 788.262 1133.66 790.018M1133.66 790.018C1136.55 787.934 1142.33 782.983 1142.33 779.854M1154.5 784.2C1152.47 787.677 1146.93 795.152 1141.03 797.238M1113.65 788.111C1116.3 792.023 1122.62 799.933 1126.69 800.281" stroke="#2F8557" stroke-linecap="round" stroke-linejoin="round"/>
<path d="M129.86 804.507C142.576 801.247 177.797 803.149 193.818 804.507C205.852 780.25 188.803 782.966 178.774 787.356C184.199 784.577 192.607 776.384 182.843 765.847C170.638 752.676 160.42 771.059 160.325 769.448C160.249 768.159 161.05 762.847 161.46 760.351C163.542 728.703 152.467 718.018 136.294 721.692C122.723 724.774 122.764 755.898 128.535 765.847C133.152 773.806 131.342 775.354 129.86 775.133C102.801 763.194 115.29 792.189 112.167 791.999C109.045 791.81 100.814 789.441 101.003 796.642C101.192 803.844 113.965 808.581 129.86 804.507Z" fill="#4AAF79"/>
<path d="M134.205 803.015C131.991 795.599 126.236 780.502 120.923 779.44" stroke="#2F8557" stroke-width="2" stroke-linecap="round" stroke-linejoin="round"/>
<path d="M150.475 802.019C149.706 796.697 148.738 789.777 147.759 782.428M143.17 736.938C142.827 739.564 143.618 748.42 144.85 759.185M145.636 765.826C141.604 762.727 133.142 753.54 131.548 741.587M145.636 765.826C145.36 763.559 145.096 761.334 144.85 759.185M145.636 765.826C146.299 771.278 147.032 776.971 147.759 782.428M144.85 759.185C147.5 756.861 152.932 750.685 153.463 744.575M147.759 782.428C143.684 780.436 135.4 775.057 134.869 769.478" stroke="#2F8557" stroke-width="2" stroke-linecap="round" stroke-linejoin="round"/>
<path d="M161.432 802.019C163.646 793.386 169.061 778.208 173.311 775.02" stroke="#2F8557" stroke-width="2" stroke-linecap="round" stroke-linejoin="round"/>
<g clip-path="url(#clip3_527_10633)">
<path d="M269 845C301.658 845 328.133 841.149 328.133 836.399C328.133 831.648 301.658 827.797 269 827.797C236.342 827.797 209.867 831.648 209.867 836.399C209.867 841.149 236.342 845 269 845Z" fill="#90C04E"/>
<path d="M234.725 767.97C234.725 767.97 232.994 773.185 237.519 785.374C242.042 797.566 245.526 803.97 245.526 803.97C245.526 803.97 241.915 820.3 253.762 820.594C265.609 820.889 277.145 801.658 274.953 795.152C274.953 795.152 267.037 782.92 263.711 775.588C260.385 768.254 259.511 764.615 259.511 764.615L243.19 763.779L234.475 764.433L234.728 767.967L234.725 767.97Z" fill="#FEFFFF"/>
<path d="M274.741 794.83C274.741 794.83 266.825 782.598 263.499 775.267C260.173 767.935 259.299 764.294 259.299 764.294L255.572 764.104C256.131 765.869 257.274 769.098 259.385 773.801C262.778 781.355 270.858 793.951 270.858 793.951C272.95 800.23 262.708 818.027 251.447 820.024C252.087 820.168 252.786 820.254 253.55 820.273C265.394 820.568 276.932 801.336 274.741 794.83Z" fill="#DFDFEA"/>
<path d="M274.951 795.152C274.951 795.152 273.749 793.295 272.084 790.594C272.291 798.204 261.595 814.659 250.63 814.386C248.283 814.327 246.543 813.638 245.263 812.572C245.916 816.556 248.03 820.452 253.762 820.594C265.607 820.889 277.145 801.658 274.951 795.152Z" fill="#FF9CCE"/>
<path d="M275.574 773.487C273.939 773.56 272.748 775.06 273.055 776.663C274.147 782.341 276.924 794.294 281.484 797.748C287.405 802.234 293.358 803.397 308.311 802.312C308.932 802.266 309.548 802.438 310.056 802.797C312.355 804.415 319.454 808.67 324.253 803.461C329.335 797.944 322.177 779.331 320.336 774.827C320.051 774.13 319.486 773.589 318.779 773.327C316.953 772.654 313.065 771.764 308.013 773.645C302.425 775.725 300.855 775.537 300.441 775.36C300.274 775.291 300.107 775.226 299.933 775.192L289.002 772.967C288.785 772.925 288.564 772.906 288.344 772.917L275.574 773.49V773.487Z" fill="#FEFFFF"/>
<path d="M320.338 774.827C320.053 774.13 319.489 773.589 318.781 773.326C317.37 772.807 314.721 772.158 311.258 772.758C312.113 772.916 312.818 773.131 313.347 773.326C314.054 773.586 314.622 774.13 314.904 774.827C316.746 779.331 323.901 797.944 318.822 803.461C317.854 804.514 316.789 805.176 315.689 805.554C318.48 806.326 321.696 806.24 324.256 803.461C329.338 797.944 322.18 779.331 320.338 774.827Z" fill="#FF9CCE"/>
<path d="M194.035 604.052L197.917 633.11C198.186 635.13 196.764 636.984 194.737 637.252C192.709 637.52 190.849 636.103 190.58 634.082C190.561 633.935 190.55 633.766 190.547 633.619L190.351 604.307C190.389 602.016 193.68 601.785 194.035 604.052Z" fill="#B2497E"/>
<path d="M203.018 664.198C200.434 664.126 197.864 663.909 195.304 663.544C186.751 662.328 180.483 654.927 180.725 646.317C180.798 643.742 181.015 641.18 181.381 638.629C182.602 630.106 190.028 623.86 198.668 624.101C201.252 624.173 203.822 624.39 206.382 624.755C214.935 625.971 221.203 633.372 220.961 641.982C220.888 644.557 220.671 647.118 220.305 649.669C219.084 658.193 211.658 664.439 203.018 664.198Z" fill="#FF80BA"/>
<path d="M218.829 635.875C218.756 638.447 218.538 641.012 218.173 643.56C216.952 652.086 209.528 658.33 200.886 658.091C198.305 658.019 195.734 657.802 193.174 657.437C187.856 656.682 183.425 653.533 180.884 649.187C180.755 648.252 180.701 647.293 180.725 646.32C180.792 643.951 180.986 641.596 181.298 639.254C183.742 641.47 186.848 642.997 190.338 643.49C192.898 643.852 195.468 644.072 198.055 644.144C206.691 644.382 214.118 638.139 215.339 629.613C215.368 629.409 215.39 629.2 215.419 628.994C216.699 630.159 217.796 631.507 218.67 633C218.799 633.937 218.853 634.894 218.829 635.872V635.875Z" fill="#B2497E"/>
<path d="M343.21 604.052L339.327 633.11C339.058 635.13 340.48 636.984 342.508 637.252C344.535 637.52 346.396 636.103 346.665 634.082C346.684 633.935 346.694 633.766 346.697 633.619L346.893 604.307C346.856 602.016 343.564 601.785 343.21 604.052Z" fill="#B2497E"/>
<path d="M334.226 664.198C336.81 664.126 339.381 663.909 341.94 663.544C350.494 662.328 356.761 654.927 356.519 646.317C356.447 643.742 356.229 641.18 355.863 638.629C354.643 630.106 347.216 623.86 338.577 624.101C335.993 624.173 333.422 624.39 330.862 624.755C322.309 625.971 316.041 633.372 316.283 641.982C316.356 644.557 316.574 647.118 316.939 649.669C318.16 658.193 325.587 664.439 334.226 664.198Z" fill="#FF80BA"/>
<path d="M318.418 635.875C318.491 638.447 318.709 641.012 319.074 643.56C320.295 652.086 327.719 658.33 336.361 658.091C338.942 658.019 341.513 657.802 344.073 657.437C349.391 656.682 353.822 653.533 356.363 649.187C356.492 648.252 356.546 647.293 356.522 646.32C356.455 643.951 356.261 641.596 355.949 639.254C353.505 641.47 350.399 642.997 346.909 643.49C344.35 643.852 341.779 644.072 339.192 644.144C330.556 644.382 323.129 638.139 321.908 629.613C321.879 629.409 321.857 629.2 321.828 628.994C320.548 630.159 319.451 631.507 318.577 633C318.448 633.937 318.394 634.894 318.418 635.872V635.875Z" fill="#B2497E"/>
<path d="M268.623 704.405C307.545 704.405 334.326 695.429 342.408 669.881C344.177 664.292 344.898 658.557 344.944 653.008C345.205 622.686 325.966 595.435 297.311 585.239C281.597 579.649 268.623 580.006 268.623 580.006C268.623 580.006 255.647 579.649 239.933 585.241C211.278 595.437 192.04 622.689 192.3 653.011C192.349 658.56 193.069 664.294 194.836 669.884C202.919 695.431 229.7 704.408 268.621 704.408L268.623 704.405Z" fill="white"/>
<path d="M343.468 638.043C343.164 639.345 342.817 640.642 342.406 641.933C334.326 667.478 307.545 676.457 268.621 676.457C229.697 676.457 202.919 667.478 194.836 641.933C194.425 640.639 194.078 639.342 193.774 638.043C192.763 642.898 192.255 647.914 192.298 653.008C192.346 658.56 193.07 664.292 194.836 669.882C202.916 695.426 229.697 704.405 268.621 704.405C307.545 704.405 334.323 695.426 342.406 669.882C344.175 664.292 344.898 658.56 344.944 653.008C344.987 647.912 344.476 642.898 343.468 638.043ZM293.447 692.781C291.482 695.656 278.443 697.615 268.624 697.615C258.804 697.615 245.766 695.656 243.8 692.781C242.819 691.342 243.117 689.962 243.658 688.939C244.182 687.95 245.069 687.202 246.096 686.755C257.831 681.623 268.624 681.733 268.624 681.733C268.624 681.733 279.419 681.626 291.151 686.755C292.178 687.205 293.065 687.95 293.59 688.939C294.13 689.96 294.429 691.342 293.447 692.781Z" fill="white"/>
<path d="M338.48 655.087C338.119 663.204 335.907 670.058 332.013 673.911C322.336 683.491 303.815 686.701 296.458 687.618C296.284 687.644 296.117 687.66 295.958 687.682C294.388 687.869 292.802 687.596 291.39 686.889C287.835 685.117 279.618 681.733 268.626 681.733C263.388 681.733 258.785 682.502 255.018 683.496C250.864 684.592 247.726 685.964 245.862 686.889C244.448 687.596 242.864 687.869 241.294 687.682C238.463 687.344 233.628 686.629 228.221 685.246C227.116 684.965 225.989 684.654 224.846 684.308C218.971 682.55 212.784 679.986 207.952 676.272C206.99 675.533 206.081 674.745 205.237 673.911C199.862 668.59 197.692 657.558 199.168 645.371C200.698 632.732 206.156 618.849 216.027 608.811C222.391 602.342 233.27 603.438 237.979 611.188C238.094 611.375 238.205 611.571 238.317 611.769C238.758 612.546 239.216 613.283 239.713 613.985C240.84 615.606 242.098 617.032 243.52 618.265C243.55 618.294 243.58 618.321 243.609 618.342C243.644 618.372 243.674 618.399 243.695 618.42C243.711 618.436 243.733 618.455 243.752 618.468C243.765 618.482 243.768 618.484 243.768 618.484C249.24 623.107 257.056 625.065 268.626 625.065C284.74 625.065 293.565 621.268 298.935 611.772C299.045 611.576 299.158 611.378 299.274 611.19C303.979 603.441 314.861 602.345 321.225 608.814C322.051 609.65 322.844 610.515 323.605 611.408C326.907 615.253 329.639 619.545 331.822 624.044C336.78 634.264 338.91 645.553 338.48 655.09V655.087Z" fill="#EFB1D6"/>
<path d="M268.623 623.554C268.623 623.554 246.371 624.926 238.879 612.72C238.879 612.72 239.511 629.465 268.623 629.465C297.736 629.465 298.368 612.72 298.368 612.72C290.876 624.926 268.623 623.554 268.623 623.554Z" fill="#CC79AE"/>
<path d="M242.259 689.231C241.877 689.231 241.496 689.209 241.111 689.161C233.378 688.234 214.301 684.994 204.174 674.967C198.485 669.332 196.027 657.654 197.764 644.492C199.628 630.36 205.893 616.973 214.954 607.761C218.358 604.299 223.09 602.634 227.93 603.195C232.676 603.744 236.804 606.373 239.256 610.408C239.379 610.612 239.5 610.818 239.619 611.03C244.652 619.931 253.055 623.562 268.621 623.562C284.186 623.562 292.589 619.931 297.623 611.03C297.741 610.818 297.865 610.612 297.986 610.408C300.438 606.373 304.565 603.744 309.311 603.195C314.154 602.634 318.883 604.299 322.287 607.761C331.349 616.973 337.614 630.36 339.477 644.492C341.212 657.657 338.757 669.332 333.067 674.967C322.938 684.994 303.861 688.234 296.13 689.161C294.264 689.383 292.393 689.059 290.715 688.223C286.975 686.358 279.129 683.226 268.621 683.226C258.113 683.226 250.267 686.355 246.526 688.223C245.193 688.888 243.735 689.231 242.259 689.231ZM226.094 606.078C222.711 606.078 219.495 607.412 217.094 609.853C208.479 618.613 202.515 631.381 200.735 644.881C199.119 657.14 201.246 667.856 206.288 672.848C216.021 682.486 235.677 685.501 241.471 686.195C242.751 686.347 244.037 686.125 245.187 685.551C249.164 683.569 257.5 680.238 268.623 680.238C279.747 680.238 288.083 683.566 292.059 685.551C293.21 686.125 294.498 686.35 295.775 686.195C301.567 685.501 321.225 682.483 330.959 672.848C336.001 667.856 338.127 657.14 336.511 644.881C334.731 631.378 328.768 618.613 320.153 609.853C317.402 607.056 313.576 605.711 309.661 606.163C305.842 606.606 302.522 608.717 300.553 611.957C300.446 612.134 300.341 612.313 300.236 612.498C294.592 622.479 285.431 626.55 268.623 626.55C251.815 626.55 242.654 622.479 237.011 612.498C236.906 612.313 236.801 612.134 236.693 611.957C234.725 608.717 231.404 606.606 227.586 606.163C227.086 606.105 226.589 606.078 226.094 606.078Z" fill="#FF80BA"/>
<path d="M232.655 744.395C232.655 744.395 232.09 755.063 240.692 765.62L229.942 761.609C229.942 761.609 231.598 749.224 232.655 744.393V744.395Z" fill="#FF9CCE"/>
<path d="M299.387 744.395C299.387 744.395 299.951 755.062 291.35 765.62L302.1 761.609" fill="#FF9CCE"/>
<path d="M289.597 709.839L288.236 726.083L291.097 733.765C291.097 733.765 312.748 728.492 320.301 725.26C327.856 722.029 330.182 720.662 330.182 720.662L344.086 713.181C344.086 713.181 365.452 710.18 364.989 690.386C364.527 670.592 340.413 672.261 332.642 682.457C324.872 692.652 300.177 706.771 300.177 706.771C300.177 706.771 293.883 709.279 291.737 709.561L289.594 709.842L289.597 709.839Z" fill="white"/>
<path d="M364.992 690.383C364.911 686.894 364.091 684.072 362.758 681.846C363.112 683.223 363.325 684.742 363.365 686.422C363.828 706.217 342.462 709.218 342.462 709.218L328.558 716.699C328.558 716.699 326.23 718.068 318.677 721.297C311.476 724.376 291.471 729.312 289.61 729.767L291.097 733.763C291.097 733.763 312.748 728.489 320.301 725.258C327.856 722.026 330.182 720.659 330.182 720.659L344.086 713.178C344.086 713.178 365.452 710.177 364.989 690.383H364.992Z" fill="#DFDFEA"/>
<path d="M332.153 682.947L320.026 693.459C320.026 693.459 316.579 712.886 335.63 718.5L347.877 712.465C347.877 712.465 349.679 711.375 346.579 710.343C343.476 709.309 330.663 694.215 332.153 682.947Z" fill="#FFCEE6"/>
<path d="M248.403 706.643L249.764 722.886L246.903 730.569C246.903 730.569 225.252 725.295 217.7 722.064C210.144 718.832 207.818 717.465 207.818 717.465L193.914 709.984C193.914 709.984 172.546 706.98 173.008 687.186C173.471 667.392 197.584 669.061 205.355 679.257C213.126 689.453 237.82 703.572 237.82 703.572C237.82 703.572 244.115 706.08 246.26 706.361L248.403 706.643Z" fill="white"/>
<path d="M173.008 687.186C173.089 683.697 173.909 680.876 175.243 678.649C174.888 680.026 174.675 681.546 174.635 683.226C174.172 703.02 195.538 706.021 195.538 706.021L209.442 713.502C209.442 713.502 211.771 714.872 219.324 718.1C226.524 721.179 246.529 726.115 248.39 726.571L246.903 730.566C246.903 730.566 225.252 725.292 217.7 722.061C210.144 718.829 207.818 717.463 207.818 717.463L193.914 709.981C193.914 709.981 172.546 706.98 173.008 687.186Z" fill="#DFDFEA"/>
<path d="M205.847 679.75L217.974 690.262C217.974 690.262 221.421 709.689 202.37 715.303L190.123 709.269C190.123 709.269 188.321 708.178 191.421 707.146C194.524 706.112 207.337 691.018 205.847 679.75Z" fill="#FFCEE6"/>
<path d="M291.043 710.295C274.757 712.052 258.169 712.052 241.88 710.295C239.197 710.005 237.35 707.953 237.758 705.766C237.764 705.739 237.769 705.713 237.772 705.686C238.175 703.539 240.544 702.063 243.101 702.336C258.578 704.006 274.337 704.006 289.814 702.336C292.374 702.06 294.743 703.539 295.144 705.686C295.149 705.713 295.154 705.739 295.157 705.766C295.566 707.953 293.719 710.005 291.035 710.295H291.043Z" fill="#D880B0"/>
<path d="M301.557 673.81H301.315C294.001 673.783 287.83 668.035 287.268 660.728C286.897 655.896 286.897 650.998 287.268 646.167C287.83 638.86 294.001 633.112 301.317 633.085H301.554C308.873 633.112 315.044 638.86 315.606 646.167C315.977 650.998 315.977 655.896 315.606 660.728C315.044 668.035 308.873 673.783 301.557 673.81ZM301.546 636.499H301.331C295.789 636.52 291.113 640.88 290.686 646.427C290.328 651.084 290.328 655.808 290.686 660.468C291.113 666.015 295.789 670.374 301.333 670.396H301.543C307.09 670.374 311.766 666.015 312.194 660.468C312.551 655.811 312.551 651.087 312.194 646.427C311.766 640.88 307.09 636.52 301.546 636.499Z" fill="#333333"/>
<path d="M301.325 672.102C301.401 672.102 301.476 672.102 301.551 672.102C308.029 672.078 313.406 667.033 313.901 660.596C314.267 655.829 314.267 651.062 313.901 646.295C313.406 639.859 308.029 634.816 301.551 634.789C301.476 634.789 301.401 634.789 301.325 634.789C294.848 634.813 289.47 639.859 288.975 646.295C288.61 651.062 288.61 655.829 288.975 660.596C289.47 667.033 294.848 672.076 301.325 672.102Z" fill="#333333"/>
<path d="M235.435 673.81H235.193C227.88 673.783 221.709 668.035 221.147 660.728C220.776 655.896 220.776 650.998 221.147 646.167C221.709 638.86 227.88 633.112 235.196 633.085H235.435C242.752 633.112 248.923 638.86 249.484 646.167C249.856 650.998 249.856 655.896 249.484 660.728C248.923 668.035 242.752 673.783 235.435 673.81ZM235.209 636.499C229.668 636.52 224.989 640.88 224.564 646.427C224.207 651.084 224.207 655.808 224.564 660.468C224.992 666.015 229.668 670.374 235.212 670.396H235.422C240.969 670.374 245.645 666.015 246.072 660.468C246.43 655.811 246.43 651.087 246.072 646.427C245.645 640.88 240.969 636.52 235.427 636.499H235.212H235.209Z" fill="#333333"/>
<path d="M235.43 672.102C235.355 672.102 235.279 672.102 235.204 672.102C228.727 672.078 223.349 667.033 222.854 660.596C222.488 655.829 222.488 651.062 222.854 646.295C223.349 639.859 228.727 634.816 235.204 634.789C235.279 634.789 235.355 634.789 235.43 634.789C241.907 634.813 247.285 639.859 247.78 646.295C248.145 651.062 248.145 655.829 247.78 660.596C247.285 667.033 241.907 672.076 235.43 672.102Z" fill="#333333"/>
<path d="M302.576 769.535C302.576 769.535 302.576 769.527 302.573 769.524C302.573 769.524 302.573 769.524 302.573 769.522C302.557 768.678 302.53 767.842 302.5 767.016C302.484 766.604 302.465 766.188 302.444 765.778C302.43 765.497 302.417 765.218 302.401 764.942C302.385 764.567 302.358 764.192 302.336 763.82C302.288 763.077 302.237 762.343 302.183 761.614C302.183 761.614 302.011 761.681 301.702 761.796C299.65 735.009 294.775 717.776 294.775 717.776L291.191 709.778L242.601 709.301L238.78 717.299C238.78 717.299 232.327 734.982 230.267 761.738C230.057 761.657 229.942 761.614 229.942 761.614C229.743 764.171 229.606 766.815 229.549 769.538C229.549 769.546 229.549 769.554 229.549 769.562C229.536 769.602 229.52 769.637 229.509 769.677C228.651 772.657 230.95 775.929 234.645 776.984C236.392 777.485 238.135 777.394 239.581 776.85C240.549 778.876 242.835 780.299 245.499 780.299C246.435 780.299 247.322 780.119 248.124 779.803C249.272 780.749 250.815 781.333 252.52 781.333C253.907 781.333 255.19 780.945 256.239 780.288C257.414 781.43 259.11 782.153 261.006 782.153C262.205 782.153 263.324 781.861 264.284 781.357C265.426 782.277 266.946 782.845 268.624 782.845C270.301 782.845 271.963 782.228 273.119 781.234C274.13 781.813 275.335 782.153 276.634 782.153C278.325 782.153 279.86 781.577 281.006 780.639C281.648 780.83 282.334 780.934 283.049 780.934C284.821 780.934 286.424 780.307 287.585 779.291C288.537 779.506 289.57 779.53 290.616 779.313C292.476 778.924 293.996 777.866 294.91 776.502C295.655 776.574 296.434 776.542 297.225 776.379C300.817 775.631 303.213 772.566 302.578 769.532L302.576 769.535Z" fill="#FF9CCE"/>
<path d="M266.061 748.83C272.919 748.83 278.478 743.29 278.478 736.456C278.478 729.621 272.919 724.081 266.061 724.081C259.203 724.081 253.644 729.621 253.644 736.456C253.644 743.29 259.203 748.83 266.061 748.83Z" fill="#1FA1C9"/>
<g opacity="0.45">
<path d="M266.061 744.082C270.287 744.082 273.714 740.667 273.714 736.456C273.714 732.244 270.287 728.83 266.061 728.83C261.835 728.83 258.409 732.244 258.409 736.456C258.409 740.667 261.835 744.082 266.061 744.082Z" fill="white"/>
</g>
<path d="M200.843 687.741C200.843 693.143 197.278 697.521 192.879 697.521C188.48 697.521 184.914 693.143 184.914 687.741C184.914 682.339 190.94 677.96 195.339 677.96C199.738 677.96 200.843 682.339 200.843 687.741Z" fill="#DFDFEA"/>
<path d="M355.223 689.233C355.223 694.635 351.658 699.014 347.259 699.014C342.86 699.014 339.295 694.635 339.295 689.233C339.295 683.831 345.32 679.453 349.719 679.453C354.118 679.453 355.223 683.831 355.223 689.233Z" fill="#DFDFEA"/>
<path opacity="0.45" d="M237.081 660.632L230.644 654.541C225.395 649.31 232.44 643.131 237.081 648.08C242.004 643.174 248.21 649.219 243.192 654.217L237.081 660.632Z" fill="white"/>
<path opacity="0.45" d="M301.04 660.618L294.603 654.527C289.354 649.297 296.399 643.118 301.04 648.067C305.963 643.161 312.169 649.206 307.152 654.203L301.04 660.618Z" fill="white"/>
</g>
<path d="M1265.67 810.759C1265.67 810.759 1246.74 804.462 1242.35 789.359C1237.96 774.257 1238.53 772.494 1238.53 772.494L1258.91 769.023C1258.91 769.023 1269.4 783.28 1276.95 784.237C1284.51 785.196 1289.82 783.317 1293.27 796.09C1296.73 808.863 1280.54 826.595 1274.52 823.409C1268.5 820.222 1264.53 814.023 1265.67 810.761L1265.67 810.759Z" fill="white"/>
<path d="M1242.55 771.746C1242.7 773.353 1240.89 778.36 1243.84 788.529C1248.23 803.632 1269.68 809.044 1269.68 809.044C1268.55 812.307 1272.52 818.507 1278.53 821.692C1279.16 822.022 1279.89 822.124 1280.71 822.034C1278.28 823.595 1276.01 824.193 1274.44 823.361C1268.42 820.174 1264.45 813.976 1265.59 810.713C1265.59 810.713 1246.66 804.415 1242.27 789.313C1237.88 774.21 1238.45 772.448 1238.45 772.448L1242.55 771.748L1242.55 771.746Z" fill="#DFDFEA"/>
<path d="M1288.53 793.32C1287.44 789.31 1286.17 786.745 1284.71 785.081C1288.33 785.922 1291.15 788.237 1293.28 796.088C1296.73 808.861 1280.54 826.593 1274.52 823.407C1273.22 822.72 1272.02 821.893 1270.95 820.986C1277.65 821.723 1291.77 805.329 1288.52 793.318L1288.53 793.32Z" fill="#4A94FF"/>
<path d="M1194.26 739.263C1194.26 739.263 1175.49 742.545 1166.31 734.595C1157.13 726.644 1154.4 725.185 1154.4 725.185L1177.33 716.234C1177.33 716.234 1181.71 718.603 1187.1 719.192C1192.49 719.781 1203.05 717.47 1203.05 717.47L1206.47 717.559L1202.39 736.757L1194.26 739.265L1194.26 739.263Z" fill="#FFFFFE"/>
<path d="M1165.83 729.559C1175.01 737.51 1191.14 735.939 1191.14 735.939L1199.27 733.431L1205.95 720.006L1202.39 736.755L1194.26 739.263C1194.26 739.263 1175.49 742.545 1166.31 734.594C1157.13 726.644 1154.4 725.185 1154.4 725.185L1158.6 723.545C1160.37 724.942 1162.73 726.884 1165.83 729.561L1165.83 729.559Z" fill="#DFDFEA"/>
<path d="M1172.76 708.011C1163.44 717.485 1156.79 718.172 1154.93 718.152C1153.62 718.139 1152.54 717.807 1152.05 717.271C1150.78 715.88 1148.51 712.205 1149.07 708.254C1149.5 705.27 1151.48 702.69 1154.97 700.585C1158.95 698.182 1163.19 698.765 1167.57 702.324C1170.04 704.328 1171.89 706.764 1172.76 708.013L1172.76 708.011Z" fill="#000072"/>
<path d="M1151.09 718.148C1148.71 715.552 1143.39 706.044 1154.29 699.467C1154.44 699.376 1154.59 699.288 1154.74 699.205C1165.44 693.32 1174.42 708.168 1174.42 708.168C1166.53 716.455 1159.73 719.285 1155.42 719.443C1153.36 719.523 1151.87 718.988 1151.09 718.148L1151.09 718.148Z" fill="white"/>
<path d="M1151.09 718.147C1148.71 715.552 1143.39 706.044 1154.29 699.467C1154.44 699.376 1154.59 699.288 1154.74 699.205C1150.21 703.073 1152.57 706.418 1154.14 707.196C1156.07 708.144 1158.97 708.911 1158.97 708.911C1153.59 714.115 1161.3 715.166 1161.3 715.166C1161.3 715.166 1158.11 717.555 1155.42 719.443C1153.36 719.522 1151.87 718.988 1151.09 718.148L1151.09 718.147Z" fill="#DFDFEA"/>
<path d="M1173.59 705.339L1174.93 706.713L1180.41 712.32C1181.61 713.546 1181.31 715.796 1179.73 717.213C1177.67 719.075 1174.68 721.706 1171.34 724.413C1170.8 724.847 1170.25 725.288 1169.7 725.728C1167.12 727.762 1164.41 729.772 1161.81 731.467C1160.34 732.425 1158.61 732.266 1157.73 731.099C1156.18 729.019 1153.85 725.374 1152.62 720.871C1152.27 719.592 1152.81 718.072 1153.93 717.064C1154.07 716.932 1154.23 716.81 1154.4 716.698C1156.04 715.577 1158.49 713.865 1161.52 711.592C1161.95 711.27 1162.39 710.94 1162.85 710.598C1164.81 709.102 1166.98 707.403 1169.31 705.501C1169.7 705.185 1170.12 704.952 1170.54 704.803C1171.66 704.397 1172.83 704.571 1173.59 705.34L1173.59 705.339Z" fill="#5E9AFC"/>
<path d="M1173.59 705.339L1174.93 706.713L1180.41 712.32C1181.61 713.546 1181.31 715.796 1179.73 717.213C1177.67 719.075 1174.68 721.706 1171.34 724.413C1171.06 724.704 1164.45 715.965 1162.98 710.809L1163.33 710.426C1165.46 708.827 1167.89 706.945 1170.54 704.803C1171.66 704.397 1172.83 704.571 1173.59 705.34L1173.59 705.339Z" fill="#467EF9"/>
<g opacity="0.45">
<path d="M1160.95 728.975C1159.4 726.895 1157.07 723.25 1155.84 718.747C1155.49 717.468 1156.03 715.948 1157.15 714.94C1157.29 714.807 1157.45 714.686 1157.62 714.574C1159.26 713.453 1161.71 711.741 1164.74 709.467C1165.17 709.146 1165.61 708.816 1166.07 708.473C1167.56 707.333 1169.18 706.072 1170.9 704.696C1170.78 704.726 1170.66 704.758 1170.54 704.801C1170.12 704.95 1169.7 705.183 1169.31 705.499C1166.98 707.401 1164.81 709.1 1162.85 710.596C1162.39 710.938 1161.95 711.268 1161.52 711.59C1158.49 713.861 1156.04 715.575 1154.4 716.696C1154.23 716.808 1154.07 716.93 1153.93 717.062C1152.81 718.07 1152.27 719.59 1152.62 720.869C1153.85 725.372 1156.18 729.018 1157.73 731.097C1158.61 732.264 1160.34 732.423 1161.81 731.465C1162.69 730.892 1163.58 730.28 1164.48 729.647C1163.14 730.246 1161.72 729.997 1160.95 728.975Z" fill="white"/>
</g>
<path d="M1200.07 737.755C1199.79 740.189 1199.65 742.502 1199.63 744.699C1199.6 748.085 1199.86 751.194 1200.32 754.05C1201.2 759.387 1202.8 763.829 1204.67 767.504C1209.16 776.322 1215.14 780.708 1215.99 782.363C1216.16 782.696 1216.13 782.919 1215.83 783.044C1212.91 784.292 1207.06 789.93 1207.06 789.93C1224.36 797.409 1227.03 814.979 1227.03 814.979C1227.03 814.979 1236.57 806.754 1247.98 801.212C1259.39 795.671 1264.31 793.772 1273.71 786.792C1278.62 783.153 1280.77 776.609 1281.72 771.176C1282.58 766.188 1282.42 762.137 1282.42 762.137C1282.2 760.331 1282 758.695 1281.8 757.153C1281.21 752.633 1280.65 748.926 1279.87 744.169C1279.72 743.239 1279.56 742.271 1279.39 741.249C1279.27 740.561 1279.15 739.852 1279.03 739.112C1277.45 729.705 1275.44 714.675 1275.44 714.675L1268.12 714.74L1247.21 716.277C1247.21 716.277 1211.48 711.65 1207.33 714.506C1203.19 717.36 1200.07 737.753 1200.07 737.753L1200.07 737.755Z" fill="white"/>
<path d="M1240.65 802.367C1246.27 800.655 1267.4 789.877 1271.23 788.588C1268.92 791.345 1250.42 800.027 1248.18 801.113C1236.77 806.656 1227.03 814.979 1227.03 814.979C1227.03 814.979 1226.75 812.516 1225.48 809.042C1229.03 807.378 1235.46 803.946 1240.65 802.367Z" fill="#DFDFEA"/>
<path d="M1201.47 745.191C1201.44 748.577 1201.69 751.687 1202.16 754.542C1203.68 758.985 1207.94 762.93 1210.19 763.667C1210.19 763.667 1206.2 765.616 1204.67 767.504C1209.16 776.322 1215.14 780.708 1215.99 782.363C1220.13 784.397 1225.19 785.777 1231.09 785.399C1248.35 784.295 1253.62 779.254 1261.57 777.316C1267.21 775.944 1275.57 777.764 1281.71 771.178C1282.58 766.19 1282.42 762.139 1282.42 762.139C1282.2 760.333 1282 758.697 1281.8 757.155C1281.21 752.635 1280.65 748.928 1279.87 744.171C1279.85 744.277 1279.36 747.706 1274 754.807C1268.55 762.019 1260.79 767.824 1258.38 768.141C1255.98 768.456 1235.4 758.428 1235.4 758.428C1235.4 758.428 1238.65 748.445 1233.9 741.532C1233.9 741.532 1232.42 743.145 1230.28 745.064C1229.02 746.196 1227.53 747.438 1225.99 748.513C1223.78 750.061 1221.45 751.273 1219.53 751.349C1215.06 751.524 1213.45 751.518 1210.8 750.945C1210.18 750.81 1209.5 750.646 1208.72 750.445C1207.62 750.164 1206.43 749.616 1205.25 748.938C1203.05 747.672 1202.75 746.446 1201.47 745.191L1201.47 745.191Z" fill="#4A94FF"/>
<path d="M1205.69 745.218C1203.85 752.414 1207.82 761.04 1215.44 762.988C1223.06 764.936 1229.45 760.932 1231.29 753.736C1233.13 746.54 1227.43 738.005 1219.82 736.06C1212.2 734.112 1207.53 738.023 1205.69 745.219L1205.69 745.218Z" fill="#00B7FF"/>
<path d="M1210.9 747.063C1209.81 751.318 1212.16 756.42 1216.66 757.572C1221.17 758.723 1224.95 756.356 1226.04 752.101C1227.12 747.845 1223.75 742.797 1219.25 741.646C1214.74 740.496 1211.98 742.807 1210.9 747.063Z" fill="white"/>
<path d="M1289.51 746.412L1279.07 743.598L1268.27 741.405L1268.32 725.764L1267.65 717.63C1267.65 717.63 1292.06 722.467 1296.26 724.595C1300.47 726.724 1303.87 727.647 1303.87 727.647L1300 741.583L1297.98 746.97L1296.75 747.879L1289.52 746.41L1289.51 746.412Z" fill="#FEFEFE"/>
<path d="M1276.27 742.966C1276.27 742.966 1277.12 743.489 1275.56 746.98C1275.56 746.98 1264.22 741.466 1264.15 737.204L1294.18 740.103L1291.89 746.893C1291.89 746.893 1279.72 744.207 1276.27 742.966Z" fill="#F7F7F7"/>
<path d="M1318.32 734.742C1323.51 738.278 1325.29 742.004 1323.62 745.817C1322.15 749.152 1319.75 751.197 1316.48 751.891C1312.15 752.81 1307.38 751.176 1305.47 750.185C1304.73 749.802 1304.07 748.875 1303.71 747.705C1303.2 746.053 1302.22 740.033 1310.51 730.716C1312.15 731.359 1315.4 732.752 1318.32 734.744L1318.32 734.742Z" fill="#000072"/>
<path d="M1305.75 751.338C1310.24 753.375 1325.45 757.734 1330.61 747.426C1330.68 747.283 1330.74 747.137 1330.8 746.997C1335.07 736.909 1311.08 729.487 1311.08 729.487C1302.43 737.136 1300.99 743.501 1302.35 747.452C1303 749.342 1304.29 750.677 1305.75 751.338L1305.75 751.338Z" fill="white"/>
<path d="M1302.35 747.452C1303.99 744.892 1306.15 741.847 1306.15 741.847C1306.15 741.847 1310.45 748.846 1315.72 743.649C1315.72 743.649 1317.85 746.257 1319.89 747.971C1321.55 749.371 1327.08 751.351 1330.8 746.997C1330.74 747.136 1330.67 747.283 1330.6 747.426C1327.72 753.197 1320.69 755.081 1313.18 753.556C1313.27 755.486 1313.34 756.61 1311.63 757.076C1309.13 757.759 1306.59 755.257 1305.05 752.175C1304.77 751.605 1304.61 751.084 1304.55 750.607C1303.6 749.867 1302.81 748.802 1302.35 747.452L1302.35 747.452Z" fill="#F7F7F7"/>
<path d="M1309.88 726.625L1308.21 725.678L1301.38 721.808C1299.89 720.959 1297.79 721.831 1296.82 723.711C1295.55 726.18 1293.77 729.749 1292.01 733.664C1291.73 734.299 1291.44 734.943 1291.16 735.593C1289.85 738.6 1288.6 741.737 1287.63 744.684C1287.08 746.353 1287.67 747.985 1289.02 748.532C1291.43 749.505 1295.55 750.822 1300.22 750.865C1301.55 750.876 1302.88 749.965 1303.57 748.624C1303.66 748.45 1303.73 748.268 1303.8 748.076C1304.46 746.199 1305.49 743.397 1306.91 739.885C1307.12 739.388 1307.32 738.876 1307.54 738.351C1308.48 736.072 1309.57 733.54 1310.81 730.798C1311.02 730.341 1311.14 729.878 1311.17 729.429C1311.28 728.242 1310.81 727.159 1309.88 726.625L1309.88 726.625Z" fill="#5E9AFC"/>
<path d="M1309.88 726.625L1308.21 725.678L1301.38 721.808C1299.89 720.959 1297.79 721.831 1296.82 723.711C1295.55 726.18 1293.77 729.749 1292.01 733.664C1291.8 734.01 1301.94 738.171 1307.3 738.278L1307.58 737.843C1308.58 735.367 1309.78 732.536 1311.17 729.429C1311.28 728.242 1310.81 727.159 1309.88 726.625L1309.88 726.625Z" fill="#467EF9"/>
<g opacity="0.45">
<path d="M1290.25 744.875C1292.66 745.848 1296.78 747.166 1301.45 747.209C1302.78 747.22 1304.11 746.308 1304.8 744.967C1304.88 744.794 1304.96 744.611 1305.03 744.419C1305.69 742.543 1306.72 739.741 1308.14 736.228C1308.35 735.731 1308.55 735.219 1308.77 734.695C1309.49 732.957 1310.29 731.071 1311.18 729.057C1311.19 729.181 1311.18 729.303 1311.17 729.427C1311.14 729.876 1311.02 730.339 1310.81 730.796C1309.57 733.538 1308.48 736.07 1307.54 738.349C1307.32 738.876 1307.12 739.386 1306.92 739.883C1305.49 743.395 1304.46 746.197 1303.8 748.074C1303.73 748.264 1303.66 748.446 1303.57 748.622C1302.88 749.963 1301.55 750.874 1300.22 750.863C1295.55 750.82 1291.43 749.503 1289.02 748.53C1287.67 747.985 1287.08 746.351 1287.63 744.682C1287.96 743.686 1288.32 742.666 1288.7 741.639C1288.46 743.08 1289.07 744.396 1290.25 744.873L1290.25 744.875Z" fill="white"/>
</g>
<path d="M1204.5 715.802C1230.87 722.955 1254.76 724.122 1276.08 720C1279.93 719.253 1282.84 717.572 1282.4 714.909C1282.39 714.877 1282.39 714.845 1282.38 714.811C1281.94 712.195 1278.6 710.218 1274.85 710.331C1252.2 711.016 1229.25 709.67 1206.84 706.342C1203.13 705.792 1200.31 704.819 1199.58 707.366C1199.57 707.398 1198.82 709.974 1198.81 710.006C1198.06 712.599 1200.64 713.175 1204.49 715.802L1204.5 715.802Z" fill="#5E9AFC"/>
<path d="M1175.57 680.515C1183.11 702.082 1205.35 714.294 1237.01 717.146C1263.21 719.507 1288.77 713.474 1305.16 701.159C1306.73 699.974 1308.23 698.732 1309.63 697.432C1313.38 693.951 1316.46 690.065 1318.74 685.812C1322.23 679.286 1323.82 671.896 1322.97 663.771C1322.73 661.43 1322.39 659.103 1321.97 656.796C1321.57 654.606 1321.09 652.436 1320.53 650.29C1312.85 620.904 1290 596.11 1250.5 591.768C1205.07 586.775 1180.3 619.138 1174.45 647.446C1171.81 660.203 1172.33 671.227 1175.57 680.515Z" fill="white"/>
<path d="M1175.57 680.515C1183.11 702.082 1205.35 714.294 1237.01 717.146C1263.21 719.507 1288.77 713.474 1305.16 701.159C1306.73 699.975 1308.23 698.732 1309.63 697.432C1313.38 693.951 1316.46 690.065 1318.74 685.812C1318.74 685.812 1293.97 689.942 1283.34 682.949C1272.71 675.956 1227.87 697.001 1227.87 697.001C1227.87 697.001 1209.24 711.576 1186.97 688.888C1183.01 684.857 1179.19 682.185 1175.57 680.515Z" fill="#DFDFEA"/>
<path d="M1267.79 692.58C1291.21 678.723 1288.48 657.867 1283.94 646.095C1281.35 639.37 1276.61 632.162 1270.7 628.029C1264.56 623.732 1255.21 620.933 1246.16 625.101C1230.3 632.402 1233.73 634.698 1218.67 634.408C1203.64 634.118 1198.69 626.67 1198.69 626.67C1198.69 626.67 1196.82 623.842 1196.37 620.279C1195.93 616.715 1195.47 609.094 1185.67 620.218C1176.81 630.27 1174.3 637.733 1173.77 639.611C1172.44 644.36 1170.28 651.634 1170.67 659.244C1170.85 662.894 1172.03 673.278 1179.87 681.214C1180.32 681.667 1180.75 682.132 1181.14 682.634C1182.25 684.045 1185.93 687.51 1194.11 684.977C1198.49 683.623 1203.73 684.017 1208.26 684.901C1213.42 685.905 1218.35 687.873 1222.78 690.695C1225.7 692.558 1229.84 694.857 1233.49 695.635C1239.98 697.017 1247.83 697.903 1253 697.075C1258.17 696.248 1265.16 694.134 1267.79 692.577L1267.79 692.58Z" fill="#5E9AFC"/>
<path d="M1193.65 614.418C1192.13 614.251 1189.69 615.662 1185.67 620.22C1176.81 630.272 1174.3 637.735 1173.77 639.613C1172.44 644.362 1170.28 651.636 1170.67 659.246C1170.85 662.896 1172.03 673.28 1179.87 681.216C1180.32 681.669 1180.75 682.134 1181.14 682.636C1181.88 683.573 1183.75 685.414 1187.31 685.806C1189.12 686.004 1191.36 685.831 1194.11 684.979C1197.31 683.991 1200.96 683.934 1204.47 684.32C1205.76 684.462 1207.04 684.665 1208.26 684.903C1213.42 685.907 1218.35 687.875 1222.78 690.698C1225.7 692.561 1229.84 694.859 1233.49 695.637C1236.18 696.21 1239.11 696.698 1241.98 697.013C1246.03 697.459 1249.98 697.561 1253 697.077C1258.17 696.25 1265.16 694.136 1267.79 692.58C1291.2 678.723 1288.48 657.867 1283.94 646.095C1281.34 639.37 1276.61 632.162 1270.7 628.029C1267.29 625.642 1262.89 623.719 1258.1 623.193C1254.27 622.771 1250.18 623.247 1246.15 625.101C1230.29 632.402 1233.72 634.697 1218.66 634.408C1217.31 634.383 1216.05 634.298 1214.85 634.167C1202.78 632.84 1198.68 626.67 1198.68 626.67C1198.68 626.67 1196.82 623.842 1196.37 620.279C1196.11 618.175 1195.84 614.657 1193.65 614.416M1193.99 611.333C1195.21 611.468 1197.44 612.173 1198.58 615.378C1199.08 616.769 1199.26 618.27 1199.4 619.476C1199.42 619.621 1199.44 619.761 1199.46 619.896C1199.78 622.466 1201.07 624.638 1201.26 624.94C1201.39 625.116 1202.31 626.283 1204.29 627.554C1206.29 628.836 1209.8 630.491 1215.2 631.084C1216.33 631.209 1217.52 631.285 1218.73 631.306C1223.51 631.399 1226.29 631.225 1228.33 630.707C1230.23 630.223 1231.66 629.38 1234.03 627.984C1236.4 626.593 1239.63 624.689 1244.86 622.283C1249.12 620.319 1253.7 619.588 1258.44 620.11C1263.19 620.631 1268.28 622.553 1272.48 625.487C1278.34 629.589 1283.71 636.874 1286.83 644.978C1289.05 650.731 1291.3 659.597 1289.39 669.162C1288.4 674.148 1286.36 678.787 1283.34 682.949C1279.93 687.641 1275.23 691.778 1269.37 695.251C1266.11 697.178 1258.53 699.336 1253.49 700.142C1250.39 700.637 1246.4 700.622 1241.63 700.098C1238.79 699.785 1235.75 699.293 1232.84 698.67C1229.52 697.964 1225.57 696.161 1221.11 693.312C1216.98 690.685 1212.46 688.881 1207.67 687.946C1206.45 687.708 1205.26 687.525 1204.12 687.4C1200.52 687.004 1197.46 687.185 1195.03 687.94C1192.13 688.837 1189.42 689.156 1186.97 688.887C1182.33 688.377 1179.8 685.948 1178.7 684.547C1178.43 684.208 1178.11 683.852 1177.66 683.393C1169.21 674.84 1167.79 663.765 1167.57 659.399C1167.17 651.597 1169.24 644.242 1170.62 639.373L1170.79 638.77C1171.4 636.581 1174.12 628.628 1183.34 618.163C1187.85 613.048 1191.03 611.004 1193.99 611.33L1193.99 611.333Z" fill="#1C35B1"/>
<path d="M1236.93 681.189L1236.67 681.16C1229.24 680.316 1223.65 674.298 1223.83 667.424C1223.96 662.331 1224.52 657.285 1225.5 652.286C1226.82 645.537 1233.57 640.876 1241.02 641.667L1241.28 641.696C1248.71 642.54 1254.3 648.558 1254.12 655.432C1253.99 660.525 1253.43 665.57 1252.45 670.57C1251.13 677.319 1244.38 681.98 1236.93 681.189Z" fill="#333333"/>
<path d="M1238.6 652.638C1243.27 653.152 1246.73 657.102 1246.25 661.392C1246.12 662.626 1244.92 663.509 1243.58 663.361C1242.23 663.213 1241.25 662.095 1241.39 660.857C1241.59 658.977 1240.15 657.33 1238.11 657.105C1236.06 656.88 1234.3 658.177 1234.09 660.055C1233.96 661.289 1232.76 662.172 1231.41 662.024C1230.07 661.876 1229.09 660.758 1229.23 659.52C1229.7 655.228 1233.93 652.124 1238.6 652.637L1238.61 652.638L1238.6 652.638Z" fill="white"/>
<path d="M1184.91 671.101L1184.75 671.083C1180.15 670.553 1176.89 665.13 1177.24 658.708C1177.5 653.951 1178.02 649.223 1178.8 644.525C1179.85 638.181 1184.22 633.597 1188.81 634.077L1188.98 634.095C1193.57 634.625 1196.83 640.048 1196.49 646.469C1196.23 651.225 1195.71 655.953 1194.93 660.652C1193.87 666.995 1189.51 671.579 1184.91 671.101Z" fill="#333333"/>
<path d="M1186.87 644.987C1189.76 645.304 1191.78 648.798 1191.34 652.73C1191.22 653.86 1190.45 654.706 1189.62 654.614C1188.78 654.522 1188.21 653.535 1188.34 652.399C1188.53 650.677 1187.68 649.219 1186.42 649.08C1185.16 648.941 1184.02 650.182 1183.83 651.904C1183.7 653.033 1182.93 653.879 1182.1 653.788C1181.27 653.696 1180.7 652.709 1180.82 651.573C1181.25 647.642 1183.98 644.669 1186.87 644.986L1186.87 644.987L1186.87 644.987Z" fill="white"/>
<path d="M1291.24 672.741C1293.11 658.186 1303.81 647.543 1315.23 648.798C1315.33 648.809 1315.43 648.82 1315.53 648.833C1317.29 649.06 1318.97 649.557 1320.54 650.291C1321.1 652.437 1321.58 654.607 1321.98 656.797C1319.92 654.937 1317.52 653.782 1314.94 653.452C1314.87 653.442 1314.79 653.433 1314.72 653.425C1310.62 652.975 1306.44 654.648 1302.94 658.137C1299.14 661.921 1296.63 667.319 1295.85 673.334C1295.07 679.407 1296.17 685.305 1298.93 689.942C1301.49 694.217 1305.16 696.863 1309.29 697.395C1309.37 697.403 1309.44 697.413 1309.52 697.421C1309.55 697.426 1309.6 697.43 1309.63 697.432C1308.23 698.732 1306.74 699.975 1305.16 701.16C1295.62 697.732 1289.55 685.866 1291.24 672.741Z" fill="#B6B6B7"/>
<path d="M1324.68 659.924C1324.68 659.924 1335.08 635.289 1335.71 632.475C1336.34 629.66 1336.81 628.876 1335.91 627.751C1335.01 626.625 1332.84 627.669 1331.01 632.085C1329.18 636.5 1326.29 642.082 1326.29 642.082L1320.91 651.773L1319.17 655.215L1317.74 657.75L1321.43 661.811L1324.68 659.924L1324.68 659.924Z" fill="#5490FF"/>
<path d="M1295.78 673.628C1294.43 685.895 1300.55 696.633 1309.44 697.611C1318.34 698.589 1326.15 689.372 1328 677.17C1329.77 665.44 1325.81 654.45 1314.33 653.187C1305.43 652.209 1297.13 661.362 1295.78 673.628Z" fill="white"/>
<path d="M1310.88 684.592C1318.5 685.43 1325.32 678.786 1328.28 669.194C1328.51 671.737 1328.41 674.433 1328 677.17C1326.15 689.372 1318.34 698.589 1309.44 697.611C1300.55 696.633 1294.43 685.895 1295.78 673.628C1296.03 671.363 1296.51 669.205 1297.2 667.196C1298.22 676.509 1303.62 683.795 1310.88 684.592Z" fill="#DFDFEA"/>
<path d="M1227.03 814.979L1219.82 819.917C1219.34 820.243 1218.8 820.451 1218.22 820.521C1216.18 820.774 1211.08 821.082 1206.86 818.663C1201.45 815.56 1185.71 799.004 1189.28 792.02C1192.85 785.036 1204.34 787.257 1213.32 793.408C1222.31 799.559 1227.98 811.764 1227.03 814.979Z" fill="#1C35B1"/>
<path d="M1207.78 796.313C1202.25 792.531 1195.86 790.121 1190.65 790.118C1195.23 785.538 1205.28 787.893 1213.33 793.4C1222.31 799.552 1227.98 811.756 1227.04 814.972L1222.7 817.936C1222.05 812.952 1216.29 802.134 1207.78 796.313L1207.78 796.313Z" fill="#4A94FF"/>
<path d="M1239 844.944C1285.29 844.944 1322.81 841.426 1322.81 837.087C1322.81 832.748 1285.29 829.23 1239 829.23C1192.72 829.23 1155.2 832.748 1155.2 837.087C1155.2 841.426 1192.72 844.944 1239 844.944Z" fill="#90C04E"/>
<ellipse cx="444" cy="841" rx="17" ry="3" fill="#90C04E"/>
<ellipse cx="945" cy="837" rx="17" ry="3" fill="#90C04E"/>
<path d="M451.569 819.286C445.535 823.019 444.295 831.919 444.607 837.512C444.708 839.306 446.005 840.804 447.761 841.182C447.804 841.191 447.848 841.2 447.891 841.21C450.701 841.814 453.23 839.345 452.657 836.529C451.553 831.097 451.773 824.029 456.387 820.962C455.306 820.397 453.505 819.915 451.569 819.286Z" fill="#F7BB90"/>
<path opacity="0.09" d="M445.18 829.774C446.103 829.166 447.482 828.501 449.253 828.3C450.42 828.172 451.453 828.267 452.278 828.446C452.701 825.379 453.917 822.598 456.385 820.964C455.305 820.394 453.502 819.914 451.574 819.282C447.946 821.518 446.045 825.633 445.18 829.774Z" fill="black"/>
<path d="M438.314 819.061C438.113 822.508 443.426 824.824 450.364 825.878C457.301 826.932 463.062 826.3 463.894 822.949C464.88 819.005 458.767 810.49 452.839 809.589C446.911 808.688 438.544 815.003 438.314 819.061Z" fill="#AD6340"/>
<path opacity="0.09" d="M463.894 822.949C463.385 824.979 461.089 826.015 457.803 826.27C458.473 824.695 459.49 821.448 458.539 817.58C457.526 813.41 454.806 810.857 453.128 809.648C458.959 810.765 464.869 819.065 463.894 822.949Z" fill="black"/>
<path d="M434.954 823.784C440.003 826.547 441.392 833.701 441.381 838.245C441.377 839.702 440.391 840.972 438.985 841.353C438.951 841.363 438.916 841.372 438.881 841.382C436.631 841.992 434.476 840.103 434.819 837.797C435.478 833.349 434.994 827.635 431.125 825.35C431.976 824.846 433.413 824.378 434.954 823.784Z" fill="#F7BB90"/>
<path opacity="0.09" d="M440.583 832.003C439.809 831.551 438.664 831.071 437.22 830.985C436.269 830.932 435.437 831.054 434.777 831.234C434.301 828.768 433.196 826.569 431.126 825.352C431.977 824.844 433.416 824.377 434.95 823.782C437.986 825.436 439.703 828.686 440.583 832.003Z" fill="black"/>
<path d="M445.679 823.029C445.992 825.813 441.789 827.918 436.216 829.072C430.643 830.225 425.95 829.962 425.131 827.284C424.161 824.133 428.744 816.972 433.506 815.986C438.269 815 445.318 819.752 445.679 823.029Z" fill="#AD6340"/>
<path opacity="0.09" d="M445.675 823.03C445.861 824.718 444.407 826.153 441.98 827.273C442.045 825.886 441.903 823.131 440.09 820.457C438.144 817.571 435.355 816.397 433.738 815.951C438.488 815.156 445.322 819.802 445.675 823.03Z" fill="black"/>
<path opacity="0.4" d="M430.969 821.422C430.771 822.179 430.086 822.882 429.44 822.992C428.793 823.102 428.43 822.577 428.628 821.821C428.827 821.064 429.512 820.361 430.158 820.251C430.804 820.141 431.168 820.665 430.969 821.422ZM427.855 823.673C427.455 823.757 427.163 824.171 427.202 824.598C427.242 825.025 427.598 825.304 427.997 825.22C428.397 825.137 428.689 824.723 428.65 824.296C428.611 823.868 428.255 823.59 427.855 823.673Z" fill="white"/>
<path d="M957.462 824.5C958.839 824.5 959.996 823.403 960 822.026C960 822.017 960 822.009 960 822C960 815.096 953.06 809.5 944.5 809.5C935.94 809.5 929 815.096 929 822C929 822.009 929 822.017 929 822.026C929.004 823.403 930.161 824.5 931.538 824.5H957.462Z" fill="#E6646E"/>
<path d="M949.951 833.522L948.707 824.5H940.293L939.049 833.522C938.759 835.625 940.393 837.5 942.516 837.5H946.484C948.607 837.5 950.242 835.625 949.951 833.522Z" fill="#F5DCB4"/>
<path d="M941.5 820C943.709 820 945.5 818.433 945.5 816.5C945.5 814.567 943.709 813 941.5 813C939.291 813 937.5 814.567 937.5 816.5C937.5 818.433 939.291 820 941.5 820Z" fill="#FAEBC8"/>
<path d="M950.919 810.623C950.348 811.193 950 811.936 950 812.75C950 814.545 951.679 816 953.75 816C955.075 816 956.237 815.403 956.904 814.504C955.353 812.837 953.296 811.497 950.919 810.623Z" fill="#FAEBC8"/>
<path d="M956.357 823.5C956.357 821.015 954.182 819 951.5 819C948.817 819 946.643 821.015 946.643 823.5C946.643 823.844 946.688 824.178 946.767 824.5H956.233C956.312 824.178 956.357 823.844 956.357 823.5Z" fill="#FAEBC8"/>
<path d="M931.197 815.585C929.979 817.224 929.216 819.107 929.042 821.121C929.474 821.362 929.971 821.5 930.5 821.5C932.157 821.5 933.5 820.157 933.5 818.5C933.5 817.083 932.517 815.899 931.197 815.585Z" fill="#F5DCB4"/>
<path d="M937.5 816.5C937.5 817.494 937.976 818.39 938.737 819.027C939.1 816.708 939.874 814.647 940.935 813.039C938.994 813.279 937.5 814.735 937.5 816.5Z" fill="#F5DCB4"/>
<g clip-path="url(#clip4_527_10633)">
<path d="M457.523 787.847C460.667 786.211 463.338 788.303 465.951 793.325C469.12 799.414 464.693 806.063 464.717 805.99C464.693 806.063 466.407 804.009 467.7 802.411C470.813 802.171 473.539 804.628 473.539 804.628C473.539 804.628 478.231 808.45 473.592 811.049C468.876 813.504 463.071 807.724 461.2 805.766C449.36 793.39 457.523 787.847 457.523 787.847Z" fill="#FDFDFD"/>
<path d="M449.253 801.05C451.416 798.96 458.708 804.776 460.303 806.058C461.897 807.339 468.266 811.849 466.394 813.726C464.42 815.247 460.476 811.752 458.719 808.926C451.303 806.289 448.27 802 449.253 801.05Z" fill="#FDFDFD"/>
</g>
</g>
<defs>
<linearGradient id="paint0_linear_527_10633" x1="720" y1="-71.5" x2="720" y2="742.5" gradientUnits="userSpaceOnUse">
<stop stop-color="white"/>
<stop offset="1" stop-color="#D2E9FF"/>
</linearGradient>
<clipPath id="clip0_527_10633">
<rect width="1440" height="900" fill="white"/>
</clipPath>
<clipPath id="clip1_527_10633">
<rect x="891" y="671.729" width="110.854" height="110.854" rx="23.5145" transform="rotate(-3.99776 891 671.729)" fill="white"/>
</clipPath>
<clipPath id="clip2_527_10633">
<rect x="1019.57" y="670" width="110.854" height="110.854" rx="23.5145" transform="rotate(8.07641 1019.57 670)" fill="white"/>
</clipPath>
<clipPath id="clip3_527_10633">
<rect width="192" height="265" fill="white" transform="translate(173 580)"/>
</clipPath>
<clipPath id="clip4_527_10633">
<rect width="28" height="28" fill="white" transform="matrix(-0.887075 0.461625 0.461625 0.887075 466.838 783)"/>
</clipPath>
</defs>
</svg>
